<?xml version="1.0" encoding="UTF-8"?>
<svg version="1.1" xmlns="http://www.w3.org/2000/svg" width="1254" height="1254" style="background: transparent;">

<path d="M0 0 C0.70552002 -0.0103125 1.41104004 -0.020625 2.13793945 -0.03125 C10.44984959 0.10997892 16.41685811 3.57692602 22.1875 9.4375 C27.84866091 16.66036047 27.83557126 26.67808521 27.1875 35.4375 C25.71651336 47.07166705 21.84951812 57.79058086 17.7824707 68.72607422 C17.13277182 70.29294219 17.13277182 70.29294219 17.1875 71.4375 C18.2290625 70.6640625 19.270625 69.890625 20.34375 69.09375 C38.9632943 55.48058987 56.79312442 46.33146539 80.1875 46.1875 C81.02539062 46.166875 81.86328125 46.14625 82.7265625 46.125 C91.82398222 46.06866923 98.87430648 48.23278225 105.5234375 54.55078125 C109.40525635 58.95199839 110.7374728 63.57663216 110.46875 69.41015625 C108.54756832 83.2586742 97.51499637 95.40854729 87.1015625 103.9765625 C79.7495583 109.4375 79.7495583 109.4375 77.1875 109.4375 C77.1875 110.0975 77.1875 110.7575 77.1875 111.4375 C77.86683594 111.54320312 78.54617188 111.64890625 79.24609375 111.7578125 C103.05837569 117.26025215 127.01527222 134.73027472 145.1875 150.4375 C145.92226563 151.06140625 146.65703125 151.6853125 147.4140625 152.328125 C153.4491749 157.59588634 159.12324283 163.23931194 164.8125 168.875 C166.01229492 170.05521729 166.01229492 170.05521729 167.23632812 171.25927734 C181.39685857 185.39934459 193.24410084 202.25329163 203.14013672 219.61621094 C204.17607036 221.41762468 205.24260639 223.19751482 206.31640625 224.9765625 C236.90196126 276.44561794 249.01761769 337.41433982 254.95974731 396.22119141 C255.11825776 397.76368946 255.28530178 399.30532452 255.45895386 400.84619141 C256.11035486 406.81426949 256.36090175 412.70932686 256.390625 418.7109375 C256.39763931 419.66448624 256.40465363 420.61803497 256.41188049 421.60047913 C256.42931866 424.67120121 256.43573541 427.74173017 256.4375 430.8125 C256.43851212 432.38851486 256.43851212 432.38851486 256.43954468 433.99636841 C256.42256375 450.653391 255.87188206 466.963338 253.1875 483.4375 C253.02652832 484.45134766 252.86555664 485.46519531 252.69970703 486.50976562 C247.08942058 520.37627863 233.06827517 552.52381932 209.1875 577.4375 C208.44242188 578.24574219 207.69734375 579.05398438 206.9296875 579.88671875 C197.47517114 589.82488199 186.14352306 597.77025891 174.1875 604.4375 C175.84465328 609.59925496 177.82895388 614.59772415 179.88867188 619.60742188 C183.09586802 627.5064753 185.58013194 635.39998596 187.3125 643.75 C187.48136719 644.51505859 187.65023437 645.28011719 187.82421875 646.06835938 C189.604241 654.52696906 190.21846897 662.99435752 190.2578125 671.62890625 C190.3257878 685.08174118 191.93584114 695.53481867 197.15966797 707.86132812 C205.9097894 729.79274887 210.33767712 753.14628238 213.9375 776.375 C214.04468353 777.05756866 214.15186707 777.74013733 214.26229858 778.44338989 C216.86971694 795.21519304 217.36482737 811.99933708 217.75 828.9375 C217.79334002 830.74349632 217.83695829 832.54948598 217.88085938 834.35546875 C217.98626813 838.71607608 218.08795569 843.07675502 218.1875 847.4375 C219.4559375 846.15166016 219.4559375 846.15166016 220.75 844.83984375 C226.0956705 839.44364184 231.4195982 834.12130373 237.20703125 829.1953125 C241.5686907 825.32401713 245.59492884 821.08878811 249.6875 816.9375 C255.6737459 810.86536822 261.68698713 804.95774841 268.1875 799.4375 C269.17492187 798.56867187 270.16234375 797.69984375 271.1796875 796.8046875 C294.18233877 776.91892665 320.30875771 759.59722738 350.1875 752.4375 C351.68893555 752.050177 351.68893555 752.050177 353.22070312 751.6550293 C361.87582269 749.57456666 370.04168726 748.93864945 378.89111328 748.99145508 C381.05468071 748.99996923 383.2155966 748.97105754 385.37890625 748.93945312 C404.86610755 748.84130412 425.47554087 754.71012993 441.1875 766.4375 C441.7040918 766.8200293 442.22068359 767.20255859 442.75292969 767.59667969 C451.72354682 774.35259253 458.2712826 781.922073 464.1875 791.4375 C464.8578125 792.51128906 465.528125 793.58507812 466.21875 794.69140625 C470.80012819 802.60204868 473.28844444 810.52434478 475.1875 819.4375 C475.41308594 820.41460938 475.63867188 821.39171875 475.87109375 822.3984375 C478.35185098 835.16150572 478.95204866 850.72057616 476.1875 863.4375 C475.5275 863.4375 474.8675 863.4375 474.1875 863.4375 C474.31125 865.0771875 474.31125 865.0771875 474.4375 866.75 C474.4375 871.45939168 473.02386955 875.21049354 471.30078125 879.55078125 C470.23967998 882.30219823 469.43615081 885.04196591 468.625 887.875 C462.26542657 907.05347831 449.54330192 924.57407945 435.59521484 938.97412109 C434.19515522 940.42954208 432.82559025 941.90951996 431.45703125 943.39453125 C403.37561159 973.30094884 361.01621841 989.02123555 321.68676758 996.89428711 C319.65324839 997.33627013 317.63677091 997.85610433 315.62768555 998.3984375 C296.39678002 1003.22288101 275.87135659 1002.97281294 256.1875 1002.875 C254.90133789 1002.87229095 253.61517578 1002.86958191 252.29003906 1002.86679077 C231.96715226 1002.80206921 212.23228443 1001.87635861 192.1875 998.4375 C190.24689697 998.10878906 190.24689697 998.10878906 188.26708984 997.7734375 C170.10825141 994.66143417 170.10825141 994.66143417 162.49804688 992.76855469 C161.73556641 992.65930664 160.97308594 992.55005859 160.1875 992.4375 C157.91613261 994.05752619 157.91613261 994.05752619 156 996.375 C154.75990067 997.75736694 153.49487644 999.1185794 152.1875 1000.4375 C151.5275 1000.4375 150.8675 1000.4375 150.1875 1000.4375 C150.1875 1001.0975 150.1875 1001.7575 150.1875 1002.4375 C150.91066406 1002.705625 151.63382813 1002.97375 152.37890625 1003.25 C175.65018576 1013.08931707 203.52768247 1036.81403975 214.33984375 1059.7578125 C216.3765816 1066.19653216 216.30244237 1072.78951188 213.6875 1079 C209.04912695 1083.52241373 204.4086587 1085.68101715 197.8828125 1085.7578125 C196.02543599 1085.71321448 194.16845262 1085.64780144 192.3125 1085.5625 C190.4404057 1085.49382263 188.56798031 1085.43349724 186.6953125 1085.3828125 C185.87691895 1085.34687988 185.05852539 1085.31094727 184.21533203 1085.27392578 C181.95738023 1085.235644 181.95738023 1085.235644 180.1875 1087.4375 C180.01062791 1089.4323852 179.9198608 1091.43529167 179.875 1093.4375 C179.40994047 1100.68601413 177.6626085 1106.65943333 172.6640625 1112.09375 C165.52999272 1118.32248098 158.32063539 1118.09946074 149.31152344 1117.63720703 C141.26171976 1116.88034043 133.86892336 1113.00054672 126.7578125 1109.390625 C123.58550063 1108.21426619 121.54333907 1107.90693256 118.1875 1108.4375 C115.68560407 1110.68629587 115.68560407 1110.68629587 113.625 1113.6875 C108.93107637 1120.01300136 104.72287576 1123.80533466 97.1875 1126.4375 C81.2765033 1128.42017872 69.79039869 1122.90144509 57.1875 1113.4375 C34.11593815 1095.36576336 14.9814347 1071.10269253 7.1875 1042.4375 C7.0625 1039.54296875 7.0625 1039.54296875 7.1875 1037.4375 C-1.89502386 1037.22067582 -10.76833852 1037.45627294 -19.8046875 1038.42578125 C-31.3677751 1039.5609818 -42.86787254 1039.77620116 -54.48046875 1039.75317383 C-57.81022609 1039.75000217 -61.13910057 1039.77364056 -64.46875 1039.79882812 C-78.49325632 1039.83798323 -91.97738233 1038.72746844 -105.8125 1036.4375 C-105.96009766 1037.21448242 -106.10769531 1037.99146484 -106.25976562 1038.79199219 C-110.20437519 1058.56382495 -125.30991398 1074.28442444 -138.8125 1088.4375 C-139.62332031 1089.30117187 -140.43414062 1090.16484375 -141.26953125 1091.0546875 C-151.56526473 1101.7329765 -162.8851677 1109.36990545 -175.8125 1116.4375 C-177.08867187 1117.23994141 -177.08867187 1117.23994141 -178.390625 1118.05859375 C-180.92680452 1119.50257983 -183.2527282 1120.29696337 -186.0625 1121.0625 C-189.21538093 1121.7494757 -189.21538093 1121.7494757 -191.8125 1123.4375 C-194.68159727 1123.61961752 -197.50351094 1123.7158968 -200.375 1123.75 C-201.55545898 1123.79350586 -201.55545898 1123.79350586 -202.75976562 1123.83789062 C-209.65506342 1123.91178912 -214.50306037 1121.97856882 -219.94921875 1117.796875 C-223.47143243 1114.14158019 -226.26641543 1110.46436624 -228.76953125 1106.0390625 C-229.73096402 1104.26765906 -229.73096402 1104.26765906 -231.8125 1103.4375 C-236.11575875 1103.03719686 -238.9124448 1103.80520131 -242.8125 1105.5703125 C-250.46312545 1108.88757588 -257.79420206 1109.75826932 -266.0625 1109.875 C-266.91416748 1109.89715576 -267.76583496 1109.91931152 -268.64331055 1109.94213867 C-274.54378011 1109.92194936 -277.96332004 1108.82442724 -282.8125 1105.4375 C-287.19884579 1100.92931127 -289.99206408 1095.64910864 -290.03515625 1089.32421875 C-289.99724115 1087.92397472 -289.94372172 1086.52407049 -289.875 1085.125 C-289.76545823 1082.54028045 -289.74499476 1080.02911416 -289.8125 1077.4375 C-292.23059117 1075.01940883 -292.86280928 1075.18058929 -296.171875 1075.12890625 C-297.04070312 1075.10376953 -297.90953125 1075.07863281 -298.8046875 1075.05273438 C-300.62753878 1075.01787815 -302.45046163 1074.98656542 -304.2734375 1074.95898438 C-311.08334229 1074.75308017 -315.32954018 1073.48864072 -320.6875 1069.0625 C-323.74572123 1065.05792366 -323.5612591 1060.60774381 -323.3515625 1055.74609375 C-322.4704057 1050.33783428 -320.1588763 1046.69715817 -316.8125 1042.4375 C-316.19375 1041.63957031 -315.575 1040.84164063 -314.9375 1040.01953125 C-297.75530701 1019.55059301 -271.51460871 1005.86383828 -247.8125 994.4375 C-248.45312378 993.85802612 -248.45312378 993.85802612 -249.10668945 993.2668457 C-286.97002819 958.84886244 -309.23577548 911.81985911 -311.8125 860.4375 C-312.03160115 853.14749309 -312.05741488 845.85530458 -312.0625 838.5625 C-312.06350708 837.5589447 -312.06451416 836.5553894 -312.06555176 835.52142334 C-312.05626022 821.83362678 -311.75628302 808.44359889 -309.27001953 794.94482422 C-308.7804695 792.26196464 -308.35361906 789.57348722 -307.93359375 786.87890625 C-304.51082422 765.42674845 -299.51409155 744.48889932 -292.62207031 723.89160156 C-291.18168933 719.52528381 -289.86338449 715.12117659 -288.52856445 710.72167969 C-287.38812117 707.04034991 -286.02814614 703.56952186 -284.4375 700.0625 C-281.95311526 694.03185639 -283.14660094 688.91990544 -284.33984375 682.6796875 C-289.0864396 655.03163287 -285.6052606 627.78543669 -273.1875 602.6875 C-272.85484131 602.01501221 -272.52218262 601.34252441 -272.17944336 600.6496582 C-268.97917259 594.3964156 -265.03806041 588.82704233 -260.81640625 583.23046875 C-258.68642624 580.55278761 -258.68642624 580.55278761 -257.8125 577.4375 C-258.61171875 576.84324219 -259.4109375 576.24898437 -260.234375 575.63671875 C-283.94967996 557.81567492 -306.70427238 533.71477596 -314.8125 504.4375 C-315.30514968 503.01826051 -315.80486101 501.60144735 -316.3125 500.1875 C-318.56155477 493.37922006 -320.23520613 486.42605205 -321.8125 479.4375 C-321.96783203 478.76638184 -322.12316406 478.09526367 -322.28320312 477.40380859 C-326.70567186 457.63192728 -326.10401127 436.35445677 -322.8125 416.4375 C-322.61116455 415.17389648 -322.61116455 415.17389648 -322.40576172 413.88476562 C-321.30757041 407.04995371 -320.08833473 400.24121293 -318.8125 393.4375 C-318.54397217 391.99262207 -318.54397217 391.99262207 -318.27001953 390.51855469 C-312.81873199 361.62332671 -304.67672658 331.83116985 -293.8125 304.4375 C-293.28329956 303.09075195 -293.28329956 303.09075195 -292.7434082 301.71679688 C-276.79150137 261.41317128 -258.21894325 222.31637869 -230.8125 188.4375 C-230.36326172 187.87256836 -229.91402344 187.30763672 -229.45117188 186.72558594 C-215.81293402 169.66254469 -199.5990586 153.14532555 -181.8125 140.4375 C-180.72633399 139.62443655 -179.64172366 138.80929116 -178.55859375 137.9921875 C-160.63467274 124.63048089 -140.47023995 112.47102385 -118.9921875 105.98046875 C-118.31664825 105.77246643 -117.64110901 105.56446411 -116.94509888 105.35015869 C-113.59385574 104.32248202 -110.2410877 103.34598262 -106.85205078 102.45068359 C-99.97113077 100.53515583 -99.97113077 100.53515583 -94.89135742 95.82958984 C-93.61213448 93.05249713 -92.6557384 90.37285074 -91.8125 87.4375 C-78.79559248 51.82110125 -52.463313 19.28035154 -17.85546875 3.05078125 C-11.9087691 0.73230054 -6.32160485 0.07645176 0 0 Z " fill="#64C109" transform="translate(648.8125,58.5625)"/>
<path d="M0 0 C3.01003654 0.61668431 5.21201542 1.57977934 7.80078125 3.22265625 C8.52257568 3.67479492 9.24437012 4.12693359 9.98803711 4.59277344 C10.75510986 5.0777832 11.52218262 5.56279297 12.3125 6.0625 C28.06662622 15.81136397 44.12850816 24.88012907 62.57055664 28.29516602 C69.16741975 29.55495913 72.88636647 31.15449893 77 36.8125 C77.680625 37.86953125 78.36125 38.9265625 79.0625 40.015625 C83.04291874 46.14675387 88.28138688 50.62482269 95.40234375 52.5546875 C108.77663841 54.84742373 119.77554586 51.67368113 130.8125 43.875 C142.54820267 33.9246918 150.4184667 18.80367098 154 4 C156.2037654 7.3056481 156.49044368 9.30419406 157.125 13.1875 C160.2331144 28.29074937 168.96629887 44.2652297 182 53 C191.8519651 58.21081828 201.17739813 59.6524644 212.0625 56.5625 C218.82721311 54.08503364 225.34322458 49.53832342 229.05004883 43.20629883 C230.73685703 40.35873164 231.92159009 38.39748001 235.10571289 37.22387695 C237.6781457 36.7729792 240.20868067 36.51326122 242.8125 36.3125 C244.71164737 36.10268289 246.61009895 35.88647485 248.5078125 35.6640625 C249.44270508 35.55868164 250.37759766 35.45330078 251.34082031 35.34472656 C257.70546126 34.51963723 263.85060293 32.79281383 270 31 C270.66966797 30.81131348 271.33933594 30.62262695 272.02929688 30.42822266 C289.19873659 25.50712268 305.91235 17.72608128 320.94140625 8.1015625 C323 7 323 7 326 7 C327.70220241 10.78320725 328.40101706 14.13414326 328.81640625 18.25390625 C328.94080078 19.43791016 329.06519531 20.62191406 329.19335938 21.84179688 C329.37608398 23.68354492 329.37608398 23.68354492 329.5625 25.5625 C329.81138267 28.00155017 330.06258534 30.44036503 330.31640625 32.87890625 C330.47798218 34.49647827 330.47798218 34.49647827 330.64282227 36.14672852 C330.91225407 38.86597888 330.91225407 38.86597888 331.53222656 40.90820312 C332.24847183 44.11112036 332.16280715 47.32376481 332.16796875 50.58984375 C332.17129715 51.33021378 332.17462555 52.0705838 332.17805481 52.83338928 C332.18311207 54.40267315 332.18546351 55.97196775 332.18530273 57.54125977 C332.18746391 59.89814005 332.20556106 62.25453217 332.22460938 64.61132812 C332.2592586 73.60782416 331.6861679 82.13470515 330 91 C329.72651733 92.57503296 329.72651733 92.57503296 329.44750977 94.18188477 C326.24641627 112.52023447 322.22699389 129.45128046 313.90722656 146.17089844 C313.00270112 147.99455414 312.12061215 149.82771331 311.2421875 151.6640625 C294.2220935 186.69645328 265.91899516 214.25767261 229.92822266 229.19482422 C228.22939927 229.90420881 226.54147557 230.63957655 224.85546875 231.37890625 C218.04144356 234.2277582 211.11394807 236.08181707 203.9375 237.75 C203.03950684 237.96092285 202.14151367 238.1718457 201.21630859 238.38916016 C175.46481775 244.08937213 144.50295044 243.21158124 119 237 C118.14390137 236.79632812 117.28780273 236.59265625 116.40576172 236.3828125 C83.28718928 228.21503517 52.57020707 208.25366785 32 181 C31.22398437 180.01257813 30.44796875 179.02515625 29.6484375 178.0078125 C-4.25157721 133.77300635 -11.21206449 76.16158677 -4.48388672 22.42382812 C-3.41442156 14.85663369 -1.81999437 7.41855573 0 0 Z " fill="#9ADA12" transform="translate(417,825)"/>
<path d="M0 0 C2.16356743 0.00851415 4.32448332 -0.02039754 6.48779297 -0.05200195 C25.97499426 -0.15015095 46.58442759 5.71867485 62.29638672 17.44604492 C63.07127441 18.01983887 63.07127441 18.01983887 63.86181641 18.60522461 C72.83243354 25.36113745 79.38016932 32.93061792 85.29638672 42.44604492 C85.96669922 43.51983398 86.63701172 44.59362305 87.32763672 45.69995117 C91.90901491 53.6105936 94.39733116 61.5328897 96.29638672 70.44604492 C96.52197266 71.4231543 96.74755859 72.40026367 96.97998047 73.40698242 C99.4607377 86.17005064 100.06093538 101.72912109 97.29638672 114.44604492 C96.63638672 114.44604492 95.97638672 114.44604492 95.29638672 114.44604492 C95.37888672 115.53916992 95.46138672 116.63229492 95.54638672 117.75854492 C95.54638672 122.4679366 94.13275627 126.21903846 92.40966797 130.55932617 C91.3485667 133.31074315 90.54503752 136.05051083 89.73388672 138.88354492 C83.37431329 158.06202323 70.65218864 175.58262437 56.70410156 189.98266602 C55.30404194 191.438087 53.93447697 192.91806488 52.56591797 194.40307617 C24.48449831 224.30949376 -17.87489487 240.02978048 -57.2043457 247.90283203 C-59.23786489 248.34481505 -61.25434237 248.86464925 -63.26342773 249.40698242 C-82.49433326 254.23142593 -103.01975669 253.98135786 -122.70361328 253.88354492 C-123.98977539 253.88083588 -125.2759375 253.87812683 -126.60107422 253.87533569 C-146.93166941 253.81058958 -166.64937462 252.8582186 -186.70361328 249.44604492 C-188.00266602 249.23222168 -189.30171875 249.01839844 -190.64013672 248.7980957 C-212.86927959 245.11524862 -212.86927959 245.11524862 -217.70361328 242.44604492 C-216.94048828 241.57979492 -216.17736328 240.71354492 -215.39111328 239.82104492 C-206.92352313 229.89214489 -199.19504638 219.80269288 -192.70361328 208.44604492 C-191.75421875 206.82762695 -191.75421875 206.82762695 -190.78564453 205.17651367 C-176.24896562 179.32385716 -162.39977874 142.47343688 -163.84033203 112.20776367 C-164.07011847 105.95090137 -163.75465562 101.28311029 -159.59033203 96.36791992 C-155.86599807 92.44754352 -151.84333476 88.91777732 -147.70361328 85.44604492 C-141.19564364 79.93546526 -135.18914153 74.01744875 -129.20361328 67.94604492 C-123.21736738 61.87391314 -117.20412616 55.96629333 -110.70361328 50.44604492 C-109.71619141 49.5772168 -108.72876953 48.70838867 -107.71142578 47.81323242 C-84.70877452 27.92747157 -58.58235557 10.6057723 -28.70361328 3.44604492 C-27.70265625 3.18782959 -26.70169922 2.92961426 -25.67041016 2.66357422 C-17.01529059 0.58311158 -8.84942602 -0.05280563 0 0 Z " fill="#FC8702" transform="translate(1027.70361328125,807.553955078125)"/>
<path d="M0 0 C1.11835739 -0.0049926 1.11835739 -0.0049926 2.25930786 -0.01008606 C3.84474064 -0.01515731 5.43018412 -0.01749432 7.015625 -0.01733398 C9.40123122 -0.01949139 11.78635247 -0.03756239 14.171875 -0.05664062 C33.8071063 -0.13117226 49.99567441 4.43762242 67.3046875 13.49609375 C70.45937612 15.21479141 70.45937612 15.21479141 73.5703125 16.16796875 C73.5703125 16.82796875 73.5703125 17.48796875 73.5703125 18.16796875 C74.68019531 18.58369141 74.68019531 18.58369141 75.8125 19.0078125 C87.24744153 23.81826241 96.77966315 33.48619486 105.83984375 41.7109375 C129.00212746 62.83750315 129.00212746 62.83750315 158.1171875 72.5078125 C171.97158339 73.85702481 184.64864668 77.80938554 194.5703125 88.16796875 C201.50580592 97.71313659 202.65333923 106.63797873 201.5703125 118.16796875 C200.58473794 122.34267321 199.26891179 126.23237487 197.5703125 130.16796875 C196.9103125 130.16796875 196.2503125 130.16796875 195.5703125 130.16796875 C195.3228125 130.90144531 195.0753125 131.63492188 194.8203125 132.390625 C189.72990592 143.70087211 176.55627314 149.64762291 165.70703125 154.0234375 C162.5228641 155.1852818 159.32493339 156.16057881 156.0703125 157.10546875 C146.19547588 160.07727977 137.8662345 164.89158664 129.3203125 170.54296875 C121.97791789 175.39666596 114.51040556 179.54030115 106.53222656 183.25048828 C104.59303241 184.15734389 102.67214215 185.09671039 100.75 186.0390625 C90.7997936 190.78392446 80.65477063 193.37678593 69.89453125 195.65087891 C67.8027993 196.11624532 65.75824544 196.66531063 63.6953125 197.2421875 C34.97669785 204.42006094 -3.3913397 200.73893756 -30.72265625 190.53515625 C-33.27739479 189.59294499 -35.67958462 188.80381231 -38.29296875 188.11328125 C-41.4296875 187.16796875 -41.4296875 187.16796875 -43.4296875 185.16796875 C-45.316875 184.61109375 -45.316875 184.61109375 -47.2421875 184.04296875 C-67.80655631 177.40718201 -83.58425144 159.81699317 -95.97998047 143.07397461 C-104.63944492 131.42977624 -112.62594319 121.85791599 -127.0546875 118.23046875 C-141.74739551 114.13156329 -155.15481827 108.69024435 -163.33984375 94.96484375 C-168.40697497 85.04620391 -170.25438985 75.16537847 -167.74609375 64.171875 C-163.43808963 52.71365658 -154.70887742 43.85113226 -143.6171875 38.73046875 C-137.64393462 36.23134044 -132.10250816 36.05949992 -125.7265625 36.17578125 C-124.0065164 36.19330572 -122.28646392 36.21021321 -120.56640625 36.2265625 C-117.8762823 36.25741591 -115.1864834 36.29285126 -112.49658203 36.33935547 C-109.88570297 36.38206237 -107.27519807 36.40523959 -104.6640625 36.42578125 C-103.87312195 36.44440216 -103.0821814 36.46302307 -102.26727295 36.48220825 C-97.22304336 36.50501507 -93.14438489 35.66419577 -88.42169189 33.8822937 C-85.80385455 32.94354751 -83.18138572 32.52075057 -80.4296875 32.16796875 C-80.4296875 31.50796875 -80.4296875 30.84796875 -80.4296875 30.16796875 C-79.33269531 29.62527344 -78.23570312 29.08257813 -77.10546875 28.5234375 C-75.65098811 27.80088905 -74.196564 27.07822679 -72.7421875 26.35546875 C-72.02095703 25.99904297 -71.29972656 25.64261719 -70.55664062 25.27539062 C-67.5868946 23.79729786 -64.68163413 22.32157615 -61.84765625 20.59375 C-58.82240464 18.80987789 -55.66073331 17.54236883 -52.4296875 16.16796875 C-50.53437827 15.2233178 -48.6600762 14.24311786 -46.78344727 13.26196289 C-39.9076058 9.67770253 -33.3061448 6.91085216 -25.80859375 4.859375 C-23.49530889 4.39414411 -23.49530889 4.39414411 -22.4296875 3.16796875 C-20.29031773 2.79539823 -18.14272465 2.46946793 -15.9921875 2.16796875 C-0.56862319 0.00088178 -0.56862319 0.00088178 0 0 Z " fill="#FB8701" transform="translate(567.4296875,494.83203125)"/>
<path d="M0 0 C19.15381059 3.97071175 37.62429227 13.40555818 52.49755859 26.09741211 C54.73913341 28.0184025 54.73913341 28.0184025 57.24755859 29.53491211 C63.74201971 33.75209465 65.41500406 38.10556793 67.13818359 45.57006836 C67.34958984 46.6928418 67.56099609 47.81561523 67.77880859 48.97241211 C67.92833984 49.73424805 68.07787109 50.49608398 68.23193359 51.28100586 C68.56420455 53.52383478 68.69268783 55.70571356 68.77880859 57.97241211 C68.84197266 59.19186523 68.90513672 60.41131836 68.97021484 61.66772461 C69.60006603 79.02953176 65.10080524 93.63451375 57.62939453 109.16235352 C56.58003714 111.39540051 55.6573774 113.66730116 54.77880859 115.97241211 C55.72498047 116.04717773 56.67115234 116.12194336 57.64599609 116.19897461 C80.60141318 118.34755462 101.48252373 127.04114104 116.93896484 144.39819336 C125.17962047 154.52842607 128.14091186 164.45264284 128.02880859 177.40991211 C128.03654297 178.30000977 128.04427734 179.19010742 128.05224609 180.10717773 C128.02622814 189.01182089 126.5379498 196.53663312 122.21630859 204.34741211 C121.86334717 204.99097656 121.51038574 205.63454102 121.14672852 206.29760742 C106.75947298 231.74979206 80.26125731 245.59307833 53.00048828 253.38232422 C36.89525027 257.74557923 20.9655805 259.17515674 4.34130859 259.15991211 C3.54043823 259.16063721 2.73956787 259.1613623 1.91442871 259.16210938 C-9.57063941 259.16095712 -20.86285055 258.8322574 -32.22119141 256.97241211 C-18.99568467 246.01119447 -4.92164668 238.76399519 11.52880859 233.97241211 C24.5493854 230.06783277 35.58762717 222.65808192 42.77880859 210.97241211 C43.43880859 210.97241211 44.09880859 210.97241211 44.77880859 210.97241211 C44.90255859 210.10616211 45.02630859 209.23991211 45.15380859 208.34741211 C45.77880859 204.97241211 45.77880859 204.97241211 46.79052734 202.27709961 C49.19605532 194.23331832 49.25811426 183.87888682 45.59130859 176.22241211 C43.40378993 172.60506282 41.03661485 169.69987781 37.77880859 166.97241211 C37.22708984 166.49288086 36.67537109 166.01334961 36.10693359 165.51928711 C27.42088561 158.41252058 18.22107228 155.829465 7.27880859 154.47241211 C-10.23431952 152.29270622 -22.82804494 144.15757781 -36.22119141 132.97241211 C-35.34140625 132.78098633 -35.34140625 132.78098633 -34.44384766 132.58569336 C-31.60333248 131.80193082 -29.1551894 130.41365739 -26.54150391 129.07788086 C-13.16039805 122.70270753 2.63855281 118.04894063 17.37646484 116.62475586 C23.40491861 116.21668513 23.40491861 116.21668513 28.56005859 113.45678711 C29.96452167 111.35009249 30.875964 109.33755629 31.77880859 106.97241211 C32.14232422 106.1306543 32.50583984 105.28889648 32.88037109 104.42163086 C39.41885689 88.16949529 39.84433023 70.41033464 33.77880859 53.97241211 C28.88117569 43.16209285 21.98983419 35.23548379 10.91943359 30.66381836 C0.79548584 27.39385713 -8.70615111 28.41253375 -18.22119141 32.97241211 C-31.9712588 40.59425458 -40.50209674 52.74494079 -45.52978516 67.53491211 C-46.78069581 71.9449022 -47.36614314 76.13040835 -47.53759766 80.71069336 C-47.57949219 81.77739258 -47.62138672 82.8440918 -47.66455078 83.94311523 C-47.72352539 85.59730469 -47.72352539 85.59730469 -47.78369141 87.28491211 C-47.8484668 88.96810547 -47.8484668 88.96810547 -47.91455078 90.68530273 C-48.02033927 93.4475578 -48.12242813 96.20989841 -48.22119141 98.97241211 C-56.48397169 83.02864873 -52.92295771 59.86757606 -48.15478516 43.25756836 C-40.74068574 21.113146 -26.10787459 -4.88396808 0 0 Z " fill="#9AD914" transform="translate(720.22119140625,414.027587890625)"/>
<path d="M0 0 C2.69921875 1.71484375 2.69921875 1.71484375 5.6875 3.9375 C11.04853586 7.80698919 16.59055157 11.1751556 22.375 14.375 C23.12354248 14.79128662 23.87208496 15.20757324 24.64331055 15.63647461 C33.04726814 20.23380716 41.80495988 23.38448919 50.89379883 26.33398438 C52.90446434 26.98923411 54.91012527 27.65842481 56.91601562 28.328125 C66.17456243 31.36856047 75.382806 33.45115597 85 35 C86.21852661 35.19770996 86.21852661 35.19770996 87.46166992 35.39941406 C99.16710514 37.14550483 110.99590373 37.37427491 122.80712891 37.65869141 C124.67570557 37.70582275 124.67570557 37.70582275 126.58203125 37.75390625 C127.69811768 37.77783447 128.8142041 37.8017627 129.96411133 37.82641602 C132.74274831 37.98529104 135.29257653 38.37487082 138 39 C136.41957158 52.99808029 128.68463733 64.33587872 120 75 C119.58766113 75.51385254 119.17532227 76.02770508 118.75048828 76.55712891 C104.24681039 94.57449873 88.30972879 108.89632252 68 120 C67.14921875 120.53496094 66.2984375 121.06992188 65.421875 121.62109375 C62.88569548 123.06507983 60.5597718 123.85946337 57.75 124.625 C54.59711907 125.3119757 54.59711907 125.3119757 52 127 C49.13090273 127.18211752 46.30898906 127.2783968 43.4375 127.3125 C42.65052734 127.34150391 41.86355469 127.37050781 41.05273438 127.40039062 C34.15743658 127.47428912 29.30943963 125.54106882 23.86328125 121.359375 C20.34106757 117.70408019 17.54608457 114.02686624 15.04296875 109.6015625 C14.08153598 107.83015906 14.08153598 107.83015906 12 107 C7.69674125 106.59969686 4.9000552 107.36770131 1 109.1328125 C-6.65062545 112.45007588 -13.98170206 113.32076932 -22.25 113.4375 C-23.10166748 113.45965576 -23.95333496 113.48181152 -24.83081055 113.50463867 C-30.73128011 113.48444936 -34.15082004 112.38692724 -39 109 C-43.38634579 104.49181127 -46.17956408 99.21160864 -46.22265625 92.88671875 C-46.18474115 91.48647472 -46.13122172 90.08657049 -46.0625 88.6875 C-45.95295823 86.10278045 -45.93249476 83.59161416 -46 81 C-48.41809117 78.58190883 -49.05030928 78.74308929 -52.359375 78.69140625 C-53.22820312 78.66626953 -54.09703125 78.64113281 -54.9921875 78.61523438 C-56.81503878 78.58037815 -58.63796163 78.54906542 -60.4609375 78.52148438 C-67.27084229 78.31558017 -71.51704018 77.05114072 -76.875 72.625 C-79.93322123 68.62042366 -79.7487591 64.17024381 -79.5390625 59.30859375 C-78.6579057 53.90033428 -76.3463763 50.25965817 -73 46 C-72.38125 45.20207031 -71.7625 44.40414063 -71.125 43.58203125 C-56.25146244 25.86336624 -34.33974115 13.4162157 -14 3 C-13.22269531 2.60151855 -12.44539063 2.20303711 -11.64453125 1.79248047 C-4.17220146 -1.81245549 -4.17220146 -1.81245549 0 0 Z " fill="#FB8803" transform="translate(405,1055)"/>
<path d="M0 0 C0.73992187 0.01981934 1.47984375 0.03963867 2.2421875 0.06005859 C9.07826681 0.30942301 14.63612216 0.74695894 19.5625 5.8125 C29.88769643 19.71439846 33.36832771 36.00677751 33.25 52.9375 C33.25773438 54.04029297 33.26546875 55.14308594 33.2734375 56.27929688 C33.2510613 65.76121287 31.74652692 74.52478234 29.375 83.6875 C29.11460937 84.70199219 28.85421875 85.71648437 28.5859375 86.76171875 C28.39257812 87.50035156 28.19921875 88.23898437 28 89 C27.67 89 27.34 89 27 89 C27.01571045 88.34104736 27.0314209 87.68209473 27.04760742 87.00317383 C27.43168495 68.44266757 27.62684878 51.62575699 14.96484375 36.58203125 C6.87211363 28.75367344 -2.71463963 25.18206431 -13.91601562 25.26513672 C-21.62734222 25.70973713 -27.55262051 28.89021752 -34 33 C-34.69609375 33.43183594 -35.3921875 33.86367188 -36.109375 34.30859375 C-45.06257681 40.90028591 -51.11546434 53.56148696 -54 64 C-54.22300781 64.77214844 -54.44601562 65.54429687 -54.67578125 66.33984375 C-56.58105316 74.12942483 -56.42090205 82.05051037 -56 90 C-55.94392578 91.57974609 -55.94392578 91.57974609 -55.88671875 93.19140625 C-55.43803312 96.45004229 -54.89944291 98.29728801 -53 101 C-49.26736706 103.4208018 -45.46664435 105.20164446 -41.40234375 106.984375 C-29.47049684 112.24788651 -14.30544214 122.04183679 -7 133 C-9.64738916 134.4606285 -10.89448334 135 -14 135 C-14 135.66 -14 136.32 -14 137 C-14.99902344 137.27714844 -15.99804688 137.55429687 -17.02734375 137.83984375 C-18.33077791 138.20555549 -19.63416069 138.57145038 -20.9375 138.9375 C-21.59685547 139.11990234 -22.25621094 139.30230469 -22.93554688 139.49023438 C-26.23821173 140.22596101 -26.23821173 140.22596101 -29 142 C-31.76749608 142.05160743 -34.51111807 142.04155484 -37.27734375 141.9921875 C-39.00585325 141.9746457 -40.73436929 141.95773993 -42.46289062 141.94140625 C-45.18809211 141.91065163 -47.91296393 141.87542147 -50.63793945 141.82861328 C-66.46497051 141.57088649 -78.89435817 142.64292423 -91.109375 153.953125 C-99.38273017 162.93360454 -101.59980587 171.86330117 -101.33203125 183.8203125 C-100.73050114 194.71716658 -94.81948849 202.81070055 -87 210 C-78.59286665 217.03170161 -68.29677149 220.20282807 -57.8125 222.8125 C-41.8195551 227.26286493 -32.08658873 242.61678222 -22.69921875 255.36328125 C-20.53503696 258.30033077 -18.3040928 261.17050837 -16 264 C-22.04882812 264.28134084 -27.43390991 263.25075266 -33.3125 261.875 C-34.27945801 261.65054199 -35.24641602 261.42608398 -36.24267578 261.19482422 C-51.13180355 257.63581635 -65.14057291 252.45710366 -79 246 C-80.03511719 245.52949219 -81.07023437 245.05898438 -82.13671875 244.57421875 C-113.29270531 229.80736263 -139.71015188 203.683284 -151.828125 171.2421875 C-157.65497274 154.49185882 -158.87963516 137.31029376 -151 121 C-143.65618355 107.67301411 -132.84603207 97.26476703 -118.1171875 92.7421875 C-106.26016652 89.46187888 -94.12991112 88.6796593 -82 91 C-81.979375 89.80375 -81.95875 88.6075 -81.9375 87.375 C-81.92589844 86.70210938 -81.91429687 86.02921875 -81.90234375 85.3359375 C-81.95232337 82.9162755 -81.95232337 82.9162755 -82.484375 80.234375 C-85.29657972 62.59418178 -82.11430342 42.85660439 -74 27 C-73.60167969 26.05898438 -73.20335937 25.11796875 -72.79296875 24.1484375 C-67.16161313 12.88572626 -54.64285173 9.17947322 -43.3671875 5.40234375 C-39.27929595 4.10869574 -35.16271928 3.0266603 -31 2 C-29.61361328 1.63261719 -29.61361328 1.63261719 -28.19921875 1.2578125 C-18.99666517 -0.83172533 -9.37043859 -0.33279931 0 0 Z " fill="#9AD914" transform="translate(501,390)"/>
<path d="M0 0 C5.29472194 2.55426696 10.25493632 5.27484378 15.125 8.5625 C15.76679199 8.99449707 16.40858398 9.42649414 17.06982422 9.87158203 C35.26305843 22.27828892 58.96152294 39.25220564 66 61 C66.8672955 66.95588084 66.84923531 71.98306613 64.5 77.5625 C59.86162695 82.08491373 55.2211587 84.24351715 48.6953125 84.3203125 C46.83793599 84.27571448 44.98095262 84.21030144 43.125 84.125 C41.2529057 84.05632263 39.38048031 83.99599724 37.5078125 83.9453125 C36.68941895 83.90937988 35.87102539 83.87344727 35.02783203 83.83642578 C32.76988023 83.798144 32.76988023 83.798144 31 86 C30.82312791 87.9948852 30.7323608 89.99779167 30.6875 92 C30.22244047 99.24851413 28.4751085 105.22193333 23.4765625 110.65625 C16.34249272 116.88498098 9.13313539 116.66196074 0.12402344 116.19970703 C-7.92578024 115.44284043 -15.31857664 111.56304672 -22.4296875 107.953125 C-25.60199937 106.77676619 -27.64416093 106.46943256 -31 107 C-33.50189593 109.24879587 -33.50189593 109.24879587 -35.5625 112.25 C-40.25642363 118.57550136 -44.46462424 122.36783466 -52 125 C-67.9109967 126.98267872 -79.39710131 121.46394509 -92 112 C-115.20777547 93.82156851 -133.93298954 69.69994106 -142 41 C-142 39.68 -142 38.36 -142 37 C-140.12803955 37.02356567 -140.12803955 37.02356567 -138.21826172 37.04760742 C-133.47305063 37.10297177 -128.72786621 37.13672644 -123.98242188 37.16479492 C-121.95014609 37.1796442 -119.91790088 37.19992884 -117.88574219 37.22631836 C-96.85135359 37.49211465 -77.08894304 35.33383579 -57 29 C-55.69273106 28.60409161 -54.38543999 28.2082563 -53.078125 27.8125 C-43.9841142 24.94467917 -35.50152607 21.26822894 -27 17 C-26.3493457 16.67596191 -25.69869141 16.35192383 -25.02832031 16.01806641 C-17.80779931 12.39362717 -10.97419624 8.64516354 -4.734375 3.4453125 C-3 2 -3 2 0 0 Z " fill="#FB8803" transform="translate(798,1060)"/>
<path d="M0 0 C10.81099155 7.78467525 16.99713684 19.21004252 19.84765625 32.11328125 C22.01853572 47.05403996 19.70489789 60.7835146 13.3125 74.3125 C12.89677734 75.51326172 12.89677734 75.51326172 12.47265625 76.73828125 C11.36485065 79.33900942 10.57346732 80.58069525 8.3125 82.3125 C3.38318689 83.71638514 -1.52885697 84.39564843 -6.60595703 85.02685547 C-11.39803516 85.68445943 -16.03497524 87.02076708 -20.6875 88.3125 C-21.3690918 88.50102539 -22.05068359 88.68955078 -22.75292969 88.88378906 C-25.02561516 89.51712793 -27.29452766 90.1624968 -29.5625 90.8125 C-30.27664063 91.01407715 -30.99078125 91.2156543 -31.7265625 91.42333984 C-35.04849428 92.39509855 -37.8610728 93.40407318 -40.9453125 95.03125 C-43.6875 96.3125 -43.6875 96.3125 -45.85546875 96.15234375 C-55.18078411 91.8774124 -60.95144557 81.59105667 -64.9609375 72.61328125 C-69.22862199 59.09894703 -68.30281748 41.23140035 -62.6875 28.3125 C-62.31367187 27.425625 -61.93984375 26.53875 -61.5546875 25.625 C-55.52970704 12.53762522 -45.47387645 1.78841315 -32.1328125 -3.8125 C-21.16608002 -7.7366982 -9.8295244 -6.1039517 0 0 Z " fill="#053723" transform="translate(738.6875,447.6875)"/>
<path d="M0 0 C11.52915476 6.96997265 18.18720887 16.96058262 21.68359375 29.91015625 C24.73795889 45.7737652 23.64450709 63.62962758 14.4375 77.359375 C13.87933594 78.11863281 13.32117188 78.87789063 12.74609375 79.66015625 C12.13636719 80.51222656 11.52664063 81.36429687 10.8984375 82.2421875 C4.29924639 90.99300354 -3.41766167 98.27811467 -14.6015625 100.02734375 C-18.41977147 99.49875517 -20.62233171 97.29003706 -23.44140625 94.84765625 C-28.87660936 90.36045368 -34.47775112 86.44066365 -40.50390625 82.78515625 C-41.27057617 82.31682373 -42.03724609 81.84849121 -42.82714844 81.3659668 C-46.85799772 78.94928706 -50.82825859 76.93089355 -55.19140625 75.16015625 C-57.88412385 73.84855714 -59.00532322 73.0888273 -60.515625 70.484375 C-65.52174945 55.1941759 -62.15933695 37.5052295 -55.50390625 23.28515625 C-50.75669629 14.50639613 -44.85053854 6.88009333 -36.25390625 1.66015625 C-35.46628906 1.17417969 -34.67867188 0.68820312 -33.8671875 0.1875 C-23.25863019 -5.50528337 -10.76213981 -5.2423449 0 0 Z " fill="#053623" transform="translate(506.25390625,418.33984375)"/>
<path d="M0 0 C19.15381059 3.97071175 37.62429227 13.40555818 52.49755859 26.09741211 C54.73913341 28.0184025 54.73913341 28.0184025 57.24755859 29.53491211 C63.74201971 33.75209465 65.41500406 38.10556793 67.13818359 45.57006836 C67.34958984 46.6928418 67.56099609 47.81561523 67.77880859 48.97241211 C67.92833984 49.73424805 68.07787109 50.49608398 68.23193359 51.28100586 C68.56420455 53.52383478 68.69268783 55.70571356 68.77880859 57.97241211 C68.84197266 59.19186523 68.90513672 60.41131836 68.97021484 61.66772461 C69.64183198 80.18080727 64.68023579 97.12192743 55.52001953 113.17895508 C53.77880859 114.97241211 53.77880859 114.97241211 51.14331055 115.42651367 C50.11165771 115.40556641 49.08000488 115.38461914 48.01708984 115.36303711 C46.89882813 115.35014648 45.78056641 115.33725586 44.62841797 115.32397461 C43.46117187 115.29045898 42.29392578 115.25694336 41.09130859 115.22241211 C39.91246094 115.20436523 38.73361328 115.18631836 37.51904297 115.16772461 C34.60481933 115.1205307 31.69221828 115.05470288 28.77880859 114.97241211 C29.77220947 109.48059219 31.88882658 104.78797542 34.34130859 99.78491211 C40.35723102 85.50501205 39.01967879 68.17548046 33.77880859 53.97241211 C28.88117569 43.16209285 21.98983419 35.23548379 10.91943359 30.66381836 C0.79548584 27.39385713 -8.70615111 28.41253375 -18.22119141 32.97241211 C-31.9712588 40.59425458 -40.50209674 52.74494079 -45.52978516 67.53491211 C-46.78069581 71.9449022 -47.36614314 76.13040835 -47.53759766 80.71069336 C-47.57949219 81.77739258 -47.62138672 82.8440918 -47.66455078 83.94311523 C-47.72352539 85.59730469 -47.72352539 85.59730469 -47.78369141 87.28491211 C-47.8484668 88.96810547 -47.8484668 88.96810547 -47.91455078 90.68530273 C-48.02033927 93.4475578 -48.12242813 96.20989841 -48.22119141 98.97241211 C-56.48397169 83.02864873 -52.92295771 59.86757606 -48.15478516 43.25756836 C-40.74068574 21.113146 -26.10787459 -4.88396808 0 0 Z " fill="#FAFBF9" transform="translate(720.22119140625,414.027587890625)"/>
<path d="M0 0 C0.73992187 0.01981934 1.47984375 0.03963867 2.2421875 0.06005859 C9.07826681 0.30942301 14.63612216 0.74695894 19.5625 5.8125 C29.88769643 19.71439846 33.36832771 36.00677751 33.25 52.9375 C33.26160156 54.59168945 33.26160156 54.59168945 33.2734375 56.27929688 C33.2510613 65.76121287 31.74652692 74.52478234 29.375 83.6875 C28.98441406 85.20923828 28.98441406 85.20923828 28.5859375 86.76171875 C28.39257812 87.50035156 28.19921875 88.23898437 28 89 C27.67 89 27.34 89 27 89 C27.01571045 88.34104736 27.0314209 87.68209473 27.04760742 87.00317383 C27.43168495 68.44266757 27.62684878 51.62575699 14.96484375 36.58203125 C6.87211363 28.75367344 -2.71463963 25.18206431 -13.91601562 25.26513672 C-21.62734222 25.70973713 -27.55262051 28.89021752 -34 33 C-34.69609375 33.43183594 -35.3921875 33.86367188 -36.109375 34.30859375 C-45.06257681 40.90028591 -51.11546434 53.56148696 -54 64 C-54.22300781 64.77214844 -54.44601562 65.54429687 -54.67578125 66.33984375 C-57.3101544 77.11030811 -56.4669014 89.10301816 -55 100 C-55.56460937 99.85248291 -56.12921875 99.70496582 -56.7109375 99.55297852 C-59.00635981 98.99846363 -61.30216975 98.57581575 -63.625 98.15234375 C-77.53404593 95.21192715 -77.53404593 95.21192715 -81.203125 89.67578125 C-82.56912567 85.52937345 -82.82974091 81.33593148 -83 77 C-83.05478516 76.28199219 -83.10957031 75.56398438 -83.16601562 74.82421875 C-84.37624757 58.63918919 -81.40729472 41.47500001 -74 27 C-73.60167969 26.05898438 -73.20335937 25.11796875 -72.79296875 24.1484375 C-67.16161313 12.88572626 -54.64285173 9.17947322 -43.3671875 5.40234375 C-39.27929595 4.10869574 -35.16271928 3.0266603 -31 2 C-30.07574219 1.75507813 -29.15148437 1.51015625 -28.19921875 1.2578125 C-18.99666517 -0.83172533 -9.37043859 -0.33279931 0 0 Z " fill="#FAFBF8" transform="translate(501,390)"/>
<path d="M0 0 C1.08016891 -0.00442612 1.08016891 -0.00442612 2.18215942 -0.00894165 C18.79168421 -0.02433126 34.3929808 2.30268685 50.25 7.3125 C49.14187926 10.63686221 48.39463373 11.23935332 45.75 13.375 C24.3261161 31.67853136 10.43580262 58.45623181 0.25 84.3125 C-1.61806014 80.89613776 -2.7186454 77.39915567 -3.875 73.6875 C-11.29379971 50.87779618 -23.35500252 28.24071108 -40.44921875 11.1796875 C-41.75 9.3125 -41.75 9.3125 -41.45703125 7.0703125 C-41.22371094 6.49023438 -40.99039063 5.91015625 -40.75 5.3125 C-38.6499624 4.65336411 -36.54466094 4.01099594 -34.4375 3.375 C-32.67986328 2.83552734 -32.67986328 2.83552734 -30.88671875 2.28515625 C-20.89869864 -0.32218299 -10.25436704 0.03719345 0 0 Z " fill="#98D811" transform="translate(573.75,704.6875)"/>
<path d="M0 0 C0.33 0.66 0.66 1.32 1 2 C0.01 2 -0.98 2 -2 2 C0.17613217 7.80301913 3.07088658 12.224616 7 17 C7.63808594 17.78503906 8.27617187 18.57007813 8.93359375 19.37890625 C38.70744852 54.28806808 91.39438941 65.22209233 135 69 C153.72603076 70.26216189 172.84711786 70.16509714 191 65 C191.87253418 64.75330566 192.74506836 64.50661133 193.64404297 64.25244141 C205.74361734 60.72330861 216.97423634 56.08662066 228 50 C228.95390625 49.4740625 229.9078125 48.948125 230.890625 48.40625 C236.6498225 45.084995 241.85437189 41.20102005 247 37 C246.67 35.68 246.34 34.36 246 33 C250.60139641 34.48868707 253.50227094 36.74629855 257 40 C257 40.66 257 41.32 257 42 C256.05125 41.505 255.1025 41.01 254.125 40.5 C252.15880781 39.8433689 252.15880781 39.8433689 250 40 C247.34725726 41.6067234 245.17984395 43.53828908 242.84765625 45.58203125 C229.19890655 57.17129883 211.11859884 66.09663331 193.875 70.5625 C193.10929688 70.77068359 192.34359375 70.97886719 191.5546875 71.19335938 C178.64866151 74.5790685 166.13498005 75.34053637 152.875 75.25 C152.05407867 75.24656586 151.23315735 75.24313171 150.38735962 75.23959351 C116.23908154 75.07195734 80.89320664 69.1127177 50 54 C48.93910156 53.50757813 47.87820313 53.01515625 46.78515625 52.5078125 C31.37638394 45.17030188 16.58141922 34.52533112 6 21 C5.45730469 20.32066406 4.91460937 19.64132812 4.35546875 18.94140625 C-3 9.47414842 -3 9.47414842 -3 5 C-5.64 5 -8.28 5 -11 5 C-9.07089686 -0.78730941 -5.38986894 -0.20339128 0 0 Z " fill="#CC6501" transform="translate(454,590)"/>
<path d="M0 0 C1.83928131 1.83928131 1.17913207 4.35138235 1.23046875 6.796875 C0.54937999 13.30762178 -3.60629143 18.42052802 -8 23 C-19.0578646 31.20479377 -30.35627878 34.2324011 -44 33 C-53.35477028 31.20298046 -62.65749417 27.39959014 -69 20 C-68.74853421 17.86254078 -68.54074221 16.54074221 -67 15 C-65.49001011 14.96134516 -63.97825092 14.98846535 -62.46875 15.04296875 C-43.21939584 15.54061342 -24.54627291 13.56513891 -8.78125 1.26953125 C-5.96569448 -0.7371695 -3.33845967 -0.25195922 0 0 Z " fill="#03341F" transform="translate(523,344)"/>
<path d="M0 0 C4.36110495 0.83302005 6.38136686 3.82656458 9.28125 7.03125 C22.95825447 21.35422798 40.00246269 27.61230725 58.78125 32.53125 C59.27625 35.00625 59.27625 35.00625 59.78125 37.53125 C53.35726293 42.37954213 47.07017911 43.02576629 39.28125 43.03125 C38.40380127 43.03705078 37.52635254 43.04285156 36.62231445 43.04882812 C24.44694505 42.82211982 13.71197895 38.51779474 4.90625 30.03125 C-2.38340451 22.22703164 -4.43210224 15.6474489 -4.484375 5.140625 C-4.14027802 1.76037816 -3.31271957 0.79318637 0 0 Z " fill="#03331F" transform="translate(717.21875,363.46875)"/>
<path d="M0 0 C3.93792318 2.56821077 6.74612583 5.61725165 8.875 9.875 C9.36828755 15.72975711 9.73244288 21.06484281 7.1875 26.4375 C2.60581177 31.26684705 -0.68548921 34.01239443 -7.375 34.25 C-11.11421254 34.21084594 -13.64550983 34.0974771 -16.625 31.75 C-21.93026555 25.64894462 -22.6760703 20.91264988 -22.4765625 12.94140625 C-21.86053619 7.56828785 -19.44036993 5.06204116 -15.5625 1.5625 C-10.60044252 -1.87277057 -5.6207639 -2.02347501 0 0 Z " fill="#F6F7F7" transform="translate(739.125,463.125)"/>
<path d="M0 0 C3.9439993 1.97199965 6.83491548 4.12563823 9 8 C9.6875 10.6875 9.6875 10.6875 10 14 C10.07605469 14.69480469 10.15210938 15.38960938 10.23046875 16.10546875 C10.56852107 21.41380387 9.64617548 24.91939709 6.54296875 29.265625 C3.44543615 32.74740848 0.49668746 34.83006839 -4.23828125 35.15234375 C-9.42397219 34.81244132 -12.99115602 33.43615198 -17 30 C-21.0589497 24.40144869 -21.62476362 18.75451986 -21 12 C-17.64054225 1.92162674 -10.17439009 -1.81082659 0 0 Z " fill="#F7F8F8" transform="translate(508,434)"/>
<path d="M0 0 C2.9375 2.0625 2.9375 2.0625 5 5 C5.71747893 9.38459346 5.32430561 11.40730354 3.1875 15.3125 C0.63829679 18.44437823 -0.8885079 19.85810739 -4.9375 20.375 C-8.67686517 19.91711855 -9.6965709 18.90061443 -12 16 C-13.60086627 12.79826746 -13.49917089 9.47422941 -13 6 C-9.40129212 0.36202432 -6.63748168 -0.67499814 0 0 Z " fill="#C76101" transform="translate(629,564)"/>
<path d="M0 0 C2.9375 2 2.9375 2 5 5 C5.71893415 10.03253902 5.56425742 11.96552807 3.125 16.4375 C0.65937343 19.41075556 -0.04333887 19.87244518 -3.8125 20.375 C-7 20 -7 20 -9.875 18.125 C-12.46690501 14.31337499 -12.73066829 11.91345284 -12.48046875 7.3828125 C-12 5 -12 5 -9.9375 1.875 C-6.21389337 -0.50177019 -4.34189423 -0.77533825 0 0 Z " fill="#C55E01" transform="translate(530,547)"/>
<path d="M0 0 C17.31284751 4.81355668 33.51983787 13.40726776 48 24 C49.051875 24.75667969 50.10375 25.51335938 51.1875 26.29296875 C68.83787189 39.25553125 87.39276526 58.09186737 97 78 C96.505 79.485 96.505 79.485 96 81 C95.5153125 80.24976563 95.030625 79.49953125 94.53125 78.7265625 C71.69646726 43.85960577 39.26307108 16.24510515 0 2 C0 1.34 0 0.68 0 0 Z " fill="#55AE05" transform="translate(457,664)"/>
<path d="M0 0 C4.3958194 -0.02907584 8.79161399 -0.0468244 13.1875 -0.0625 C14.43337891 -0.07087891 15.67925781 -0.07925781 16.96289062 -0.08789062 C18.16494141 -0.09111328 19.36699219 -0.09433594 20.60546875 -0.09765625 C22.26292114 -0.10551147 22.26292114 -0.10551147 23.95385742 -0.11352539 C26.75799379 -0.00901923 29.27417329 0.35902041 32 1 C30.25740319 11.55808656 30.25740319 11.55808656 27 16 C23.34656879 14.68553798 20.53524213 13.07723774 17.4375 10.75 C11.94631347 6.79932734 6.11190723 3.86692556 0 1 C0 0.67 0 0.34 0 0 Z " fill="#D37404" transform="translate(511,1093)"/>
<path d="M0 0 C0 4.0509197 -2.02220097 6.02533188 -4.4375 9.0625 C-4.89125 9.64104736 -5.345 10.21959473 -5.8125 10.81567383 C-9.98718015 16.08562609 -14.38805448 21.10781473 -19 26 C-19.721875 26.79792969 -20.44375 27.59585938 -21.1875 28.41796875 C-36.2745408 44.44794961 -56.99200847 55.35358691 -76.625 64.8125 C-77.32947266 65.15635742 -78.03394531 65.50021484 -78.75976562 65.85449219 C-83.63375324 68.12208225 -83.63375324 68.12208225 -87 67 C-86.42145264 66.73372803 -85.84290527 66.46745605 -85.24682617 66.19311523 C-69.62114314 59.00132676 -69.62114314 59.00132676 -55 50 C-53.68664626 49.10741286 -52.37280121 48.21554842 -51.05859375 47.32421875 C-31.79986357 34.13536922 -14.24681318 18.57104916 0 0 Z " fill="#55AB05" transform="translate(791,782)"/>
<path d="M0 0 C-1.03898438 0.50789062 -2.07796875 1.01578125 -3.1484375 1.5390625 C-22.70132002 11.15692878 -38.39189931 22.86108932 -54 38 C-54.6487207 38.61955566 -55.29744141 39.23911133 -55.96582031 39.87744141 C-56.59842773 40.49151855 -57.23103516 41.1055957 -57.8828125 41.73828125 C-58.45660645 42.29169189 -59.03040039 42.84510254 -59.62158203 43.4152832 C-61.23519736 45.06557143 -61.23519736 45.06557143 -62 48 C-63.12585936 49.09174241 -64.25363245 50.18157583 -65.390625 51.26171875 C-69.00227035 55.16264637 -71.93908755 59.66307442 -75 64 C-75.33 63.34 -75.66 62.68 -76 62 C-70.79573356 53.87453768 -65.29021579 46.32422387 -59 39 C-58.2678125 38.1440625 -57.535625 37.288125 -56.78125 36.40625 C-43.96708391 21.78727178 -29.45810938 11.49025748 -12.0625 3.0625 C-11.22098389 2.64830811 -10.37946777 2.23411621 -9.51245117 1.80737305 C-8.71556885 1.4287915 -7.91868652 1.05020996 -7.09765625 0.66015625 C-6.38101807 0.31605713 -5.66437988 -0.02804199 -4.92602539 -0.38256836 C-3 -1 -3 -1 0 0 Z " fill="#56AB05" transform="translate(667,690)"/>
<path d="M0 0 C9.57 0.33 19.14 0.66 29 1 C24.92351705 4.05736221 20.78810131 6.15129366 16.22070312 8.30664062 C12.39121401 10.16148487 9.2885253 12.32329336 6 15 C5.34 15 4.68 15 4 15 C3.32532438 13.25307205 2.66055844 11.50231475 2 9.75 C1.62875 8.77546875 1.2575 7.8009375 0.875 6.796875 C0 4 0 4 0 0 Z " fill="#D77306" transform="translate(656,1097)"/>
<path d="M0 0 C0.66 0 1.32 0 2 0 C2.36609375 0.94617188 2.7321875 1.89234375 3.109375 2.8671875 C9.43065838 18.54597703 18.83432294 32.337892 30 45 C30.42635742 45.48662109 30.85271484 45.97324219 31.29199219 46.47460938 C37.46132942 53.48340286 43.90985855 59.90955312 51 66 C47.60876936 66 47.13512051 65.61374316 44.59375 63.578125 C43.60967163 62.79127319 43.60967163 62.79127319 42.60571289 61.98852539 C41.91082764 61.41481201 41.21594238 60.84109863 40.5 60.25 C39.78384521 59.66017334 39.06769043 59.07034668 38.32983398 58.46264648 C20.25526952 43.30627608 6.82712569 22.68247225 0 0 Z " fill="#56AE05" transform="translate(368,757)"/>
<path d="M0 0 C0.3515625 2.1875 0.3515625 2.1875 0 5 C-1.84865382 6.91446351 -3.52739842 8.41316192 -5.625 10 C-6.40810547 10.61875 -6.40810547 10.61875 -7.20703125 11.25 C-8.26359204 12.08481346 -9.32650019 12.9116544 -10.39550781 13.73046875 C-12.04011546 15.03174078 -13.58504879 16.41538737 -15.1484375 17.8125 C-18 20 -18 20 -22 20 C-22.23828125 17.7265625 -22.23828125 17.7265625 -22 15 C-20.35546875 13.0859375 -20.35546875 13.0859375 -18.1875 11.375 C-15.65589196 9.33680191 -13.29351043 7.29967578 -11 5 C-9.87733421 4.07529848 -8.7307339 3.17891846 -7.5625 2.3125 C-6.98628906 1.87550781 -6.41007812 1.43851562 -5.81640625 0.98828125 C-4 0 -4 0 0 0 Z " fill="#ED8581" transform="translate(420,506)"/>
<path d="M0 0 C2.1484375 -0.36328125 2.1484375 -0.36328125 5 0 C7.09939148 1.89650911 8.82362382 3.66717974 10.625 5.8125 C11.57518098 6.90264007 12.52569221 7.99249238 13.4765625 9.08203125 C14.30929687 10.04496094 15.14203125 11.00789062 16 12 C16.61230469 12.5671875 17.22460938 13.134375 17.85546875 13.71875 C18.23316406 14.1415625 18.61085938 14.564375 19 15 C18.6875 17.6875 18.6875 17.6875 18 20 C15.734375 20.23828125 15.734375 20.23828125 13 20 C11.015625 18.35546875 11.015625 18.35546875 9.25 16.1875 C8.65703125 15.47980469 8.0640625 14.77210938 7.453125 14.04296875 C6 12 6 12 5 9 C4.01 8.67 3.02 8.34 2 8 C0.5522078 5.10441559 0 3.25811062 0 0 Z " fill="#EB877E" transform="translate(787,557)"/>
<path d="M0 0 C2.28515625 -0.25 2.28515625 -0.25 5 0 C6.80859375 1.6875 6.80859375 1.6875 8.4375 4 C9.31921875 5.22976563 9.31921875 5.22976563 10.21875 6.484375 C11.10046875 7.72960937 11.10046875 7.72960937 12 9 C14.46078703 12.0439502 14.46078703 12.0439502 16.93359375 15.078125 C18.27964832 17.50398158 18.19306385 19.26885284 18 22 C12.62035692 21.3703688 10.82923217 19.08053883 7.5 15.0625 C5.86012671 12.80767423 4.94366089 10.61321478 4 8 C3.29875 7.319375 2.5975 6.63875 1.875 5.9375 C0 4 0 4 0 0 Z " fill="#EA8773" transform="translate(769,554)"/>
<path d="M0 0 C-0.06444903 2.71677459 -0.46936141 4.45577439 -2.39208984 6.42773438 C-4.27644262 7.94682218 -6.20776275 9.35761607 -8.1875 10.75 C-8.84814453 11.24371094 -9.50878906 11.73742187 -10.18945312 12.24609375 C-14.09106823 15.05772161 -17.06969306 16.66262285 -22 17 C-22 13 -22 13 -20.125 10.6875 C-14.44608303 5.43409266 -7.91590094 -0.20831318 0 0 Z " fill="#ED8B86" transform="translate(437,510)"/>
<path d="M0 0 C0.33 1.32 0.66 2.64 1 4 C0.03578125 4.68707031 -0.9284375 5.37414062 -1.921875 6.08203125 C-3.19793477 6.99216212 -4.47397543 7.90231978 -5.75 8.8125 C-6.70132812 9.49022461 -6.70132812 9.49022461 -7.671875 10.18164062 C-8.290625 10.62314453 -8.909375 11.06464844 -9.546875 11.51953125 C-10.14951172 11.9470166 -10.75214844 12.37450195 -11.37304688 12.81494141 C-12.68542749 13.7708681 -13.95256105 14.78873406 -15.203125 15.82421875 C-17 17 -17 17 -21 17 C-20.77202125 13.26517168 -20.08675908 12.08637061 -17.3828125 9.39453125 C-16.30714783 8.52104925 -15.2207663 7.66062825 -14.125 6.8125 C-13.58230469 6.37486328 -13.03960937 5.93722656 -12.48046875 5.48632812 C-5.27289062 -0.28502111 -5.27289062 -0.28502111 0 0 Z " fill="#EE8488" transform="translate(402,504)"/>
<path d="M0 0 C2.125 -0.4375 2.125 -0.4375 5 0 C6.72454429 1.60382619 8.12781259 3.31612596 9.5703125 5.17578125 C10.95465223 7.02589719 10.95465223 7.02589719 12.61328125 8.5703125 C14.4569802 10.47114015 15.05702309 12.54826003 16 15 C16.66 15.66 17.32 16.32 18 17 C18 17.99 18 18.98 18 20 C13.53756854 19.52741611 11.83856374 18.22907773 9 14.8125 C8.319375 14.00039063 7.63875 13.18828125 6.9375 12.3515625 C6.298125 11.57554687 5.65875 10.79953125 5 10 C4.46375 9.40960937 3.9275 8.81921875 3.375 8.2109375 C0.59717314 5.1332316 0 4.33469805 0 0 Z " fill="#E9887D" transform="translate(752,553)"/>
<path d="M0 0 C6.03110138 7.556421 5.30990137 16.38022144 5.25 25.625 C5.25773438 26.82640625 5.26546875 28.0278125 5.2734375 29.265625 C5.27085937 30.42835938 5.26828125 31.59109375 5.265625 32.7890625 C5.26336914 33.83787598 5.26111328 34.88668945 5.25878906 35.96728516 C4.97968484 39.23807067 4.15330827 41.93691859 3 45 C2.67 45 2.34 45 2 45 C1.97494385 44.1342334 1.9498877 43.2684668 1.92407227 42.37646484 C1.82760992 39.09237052 1.72848268 35.80837716 1.62768555 32.52441406 C1.5849896 31.1165673 1.54328555 29.70869002 1.50268555 28.30078125 C1.22907957 18.8427967 0.75483609 9.43406191 0 0 Z " fill="#54AB07" transform="translate(570,781)"/>
<path d="M0 0 C0.33 1.65 0.66 3.3 1 5 C-0.68029297 5.83144531 -0.68029297 5.83144531 -2.39453125 6.6796875 C-3.86724038 7.41135191 -5.33989372 8.14312861 -6.8125 8.875 C-7.55048828 9.23980469 -8.28847656 9.60460937 -9.04882812 9.98046875 C-9.76103516 10.33496094 -10.47324219 10.68945312 -11.20703125 11.0546875 C-11.8616333 11.37937012 -12.51623535 11.70405273 -13.19067383 12.03857422 C-15.24652798 13.09255672 -15.24652798 13.09255672 -18 15 C-20.0625 14.8125 -20.0625 14.8125 -22 14 C-22.66 13.01 -23.32 12.02 -24 11 C-23.23816406 10.79246094 -22.47632813 10.58492187 -21.69140625 10.37109375 C-14.97240882 8.36629926 -10.09963893 6.05293879 -4.83984375 1.390625 C-3 0 -3 0 0 0 Z " fill="#64BD0A" transform="translate(514,507)"/>
<path d="M0 0 C1.98 0.66 3.96 1.32 6 2 C6 1.34 6 0.68 6 0 C9 1 9 1 10.5 3.75 C10.995 4.8225 11.49 5.895 12 7 C12.98387706 8.67623498 13.97862543 10.34634594 15 12 C12.525 11.01 12.525 11.01 10 10 C9.1646875 11.0209375 9.1646875 11.0209375 8.3125 12.0625 C7.549375 12.701875 6.78625 13.34125 6 14 C3.25 13.75 3.25 13.75 1 13 C2.32 12.67 3.64 12.34 5 12 C4.54625 11.319375 4.0925 10.63875 3.625 9.9375 C1.83163514 6.69564814 0.91246131 3.5796559 0 0 Z " fill="#A7BD29" transform="translate(765,561)"/>
<path d="M0 0 C0.33 0.66 0.66 1.32 1 2 C0.01 2 -0.98 2 -2 2 C0.64263328 9.04702209 4.57614259 14.76985178 10 20 C9.67 20.99 9.34 21.98 9 23 C3.35169208 19.34521252 -0.79579919 13.14469116 -2.671875 6.6875 C-2.78015625 6.130625 -2.8884375 5.57375 -3 5 C-5.64 5 -8.28 5 -11 5 C-9.07089686 -0.78730941 -5.38986894 -0.20339128 0 0 Z " fill="#E27601" transform="translate(454,590)"/>
<path d="M0 0 C0.33 0 0.66 0 1 0 C2.52472227 10.75592121 1.32489301 18.81127208 -2 29 C-2.33 29 -2.66 29 -3 29 C-2.88951407 25.29108609 -2.75902886 21.58313189 -2.625 17.875 C-2.5940625 16.82828125 -2.563125 15.7815625 -2.53125 14.703125 C-2.33235367 9.4655217 -2.08331625 4.89494631 0 0 Z " fill="#E5EFE0" transform="translate(531,450)"/>
<path d="M0 0 C0.33 0 0.66 0 1 0 C1.04898438 0.92683594 1.09796875 1.85367187 1.1484375 2.80859375 C1.22320313 4.00613281 1.29796875 5.20367187 1.375 6.4375 C1.44460938 7.63246094 1.51421875 8.82742188 1.5859375 10.05859375 C1.72257813 11.02925781 1.85921875 11.99992187 2 13 C2.66 13.33 3.32 13.66 4 14 C4 20.93 4 27.86 4 35 C-1.36876026 24.26247948 -0.22038486 11.70488494 0 0 Z " fill="#D0E4C9" transform="translate(668,478)"/>
<path d="M0 0 C3.3702985 1.12343283 4.32859216 2.17895994 6.625 4.8125 C7.54152344 5.84310547 7.54152344 5.84310547 8.4765625 6.89453125 C9.99653007 8.99520438 10.57890154 10.46771872 11 13 C8.19521985 12.91750647 6.46032756 12.39995673 4.33203125 10.55078125 C1.74407271 7.71693591 0.11946375 5.9357994 -0.375 2.0625 C-0.25125 1.381875 -0.1275 0.70125 0 0 Z " fill="#F47789" transform="translate(759,560)"/>
<path d="M0 0 C0.58265625 0.23074219 1.1653125 0.46148437 1.765625 0.69921875 C1.765625 1.68921875 1.765625 2.67921875 1.765625 3.69921875 C-0.640625 5.5234375 -0.640625 5.5234375 -3.734375 7.38671875 C-4.7553125 8.00933594 -5.77625 8.63195312 -6.828125 9.2734375 C-7.6221875 9.74394531 -8.41625 10.21445312 -9.234375 10.69921875 C-9.234375 6.69921875 -9.234375 6.69921875 -7.84375 4.7421875 C-7.23015625 4.12988281 -6.6165625 3.51757812 -5.984375 2.88671875 C-5.38109375 2.26152344 -4.7778125 1.63632812 -4.15625 0.9921875 C-2.234375 -0.30078125 -2.234375 -0.30078125 0 0 Z " fill="#F18284" transform="translate(401.234375,504.30078125)"/>
<path d="M0 0 C-0.1875 2.3125 -0.1875 2.3125 -1 5 C-3.5625 6.8125 -3.5625 6.8125 -6 8 C-6.433125 7.0409375 -6.433125 7.0409375 -6.875 6.0625 C-7.82823451 3.84793921 -7.82823451 3.84793921 -10 3 C-6.48812804 0.59185923 -4.27343092 -0.36629408 0 0 Z " fill="#E79679" transform="translate(437,510)"/>
<path d="M0 0 C0.66 0.33 1.32 0.66 2 1 C0.02923666 3.11674581 -1.74248566 4.8497833 -4.25 6.3125 C-8.22730045 8.75311618 -11.54915443 11.87454434 -15 15 C-15 14.01 -15 13.02 -15 12 C-13.1023138 10.18469397 -11.23735399 8.56177877 -9.1875 6.9375 C-8.64029297 6.49083984 -8.09308594 6.04417969 -7.52929688 5.58398438 C-5.08217253 3.59958899 -2.62295225 1.74863484 0 0 Z " fill="#E2966A" transform="translate(397,504)"/>
<path d="M0 0 C0.99 0.66 1.98 1.32 3 2 C3 2.99 3 3.98 3 5 C3.66 5.33 4.32 5.66 5 6 C0.545 8.97 0.545 8.97 -4 12 C-2.66666667 8 -1.33333333 4 0 0 Z " fill="#E2F4D3" transform="translate(668,120)"/>
<path d="M0 0 C0 3.71848056 -0.84406527 4.27486129 -3.3125 6.9375 C-5.70046383 9.53572479 -7.92379849 12.14442438 -10 15 C-10.99 14.67 -11.98 14.34 -13 14 C-11.02108364 11.85393535 -9.04187901 9.70813786 -7.0625 7.5625 C-6.49853516 6.95083984 -5.93457031 6.33917969 -5.35351562 5.70898438 C-4.81533203 5.12568359 -4.27714844 4.54238281 -3.72265625 3.94140625 C-3.22515869 3.40201416 -2.72766113 2.86262207 -2.21508789 2.30688477 C-1.48918929 1.52614632 -0.75381738 0.75381738 0 0 Z " fill="#6CC718" transform="translate(597,85)"/>
<path d="M0 0 C0.33 0.66 0.66 1.32 1 2 C-0.32 2 -1.64 2 -3 2 C-3 2.66 -3 3.32 -3 4 C-5.64 4 -8.28 4 -11 4 C-7.65667474 -0.27945633 -5.29105716 -0.4070044 0 0 Z " fill="#D86E02" transform="translate(454,590)"/>
<path d="M0 0 C0 3 0 3 -1 5 C0.32 5.33 1.64 5.66 3 6 C1.75 7.5 1.75 7.5 0 9 C-1.32 9 -2.64 9 -4 9 C-4.25 6.75 -4.25 6.75 -4 4 C-2 1.6875 -2 1.6875 0 0 Z " fill="#DB9B70" transform="translate(402,517)"/>
<path d="M0 0 C1.2375 -0.04125 2.475 -0.0825 3.75 -0.125 C4.79414062 -0.15980469 4.79414062 -0.15980469 5.859375 -0.1953125 C8.30155975 0.02751458 9.88636771 0.79085 12 2 C11.32453125 2.02578125 10.6490625 2.0515625 9.953125 2.078125 C4.24236068 2.34321728 4.24236068 2.34321728 -0.625 5.0625 C-1.07875 5.701875 -1.5325 6.34125 -2 7 C-1.34 4.69 -0.68 2.38 0 0 Z " fill="#DEE7BB" transform="translate(543,1095)"/>
<path d="M0 0 C0.66 0.99 1.32 1.98 2 3 C1 6 1 6 -0.84765625 6.94921875 C-1.57855469 7.19285156 -2.30945313 7.43648437 -3.0625 7.6875 C-4.16271484 8.06455078 -4.16271484 8.06455078 -5.28515625 8.44921875 C-5.85105469 8.63097656 -6.41695313 8.81273437 -7 9 C-7 8.01 -7 7.02 -7 6 C-5.68 6 -4.36 6 -3 6 C-2.814375 5.071875 -2.814375 5.071875 -2.625 4.125 C-2 2 -2 2 0 0 Z " fill="#71B009" transform="translate(513,507)"/>
<path d="M0 0 C1.32 0 2.64 0 4 0 C3.75 1.875 3.75 1.875 3 4 C1.125 5.3125 1.125 5.3125 -1 6 C-1.99 5.67 -2.98 5.34 -4 5 C-2.25 2.5 -2.25 2.5 0 0 Z " fill="#9AD01E" transform="translate(430,518)"/>
<path d="M0 0 C-1.55500981 3.81684226 -4.03595495 6.19195732 -7 9 C-7.99 8.67 -8.98 8.34 -10 8 C-8.71451591 6.66070495 -7.42141845 5.32871357 -6.125 4 C-5.04605469 2.88625 -5.04605469 2.88625 -3.9453125 1.75 C-2 0 -2 0 0 0 Z " fill="#FB9928" transform="translate(344,1090)"/>
<path d="M0 0 C0.66 0 1.32 0 2 0 C1.67 3.96 1.34 7.92 1 12 C-1.69461986 7.95807022 -1.23200889 5.7948504 -1 1 C-0.67 0.67 -0.34 0.34 0 0 Z " fill="#67CB18" transform="translate(901,530)"/>
<path d="M0 0 C0.66 0.33 1.32 0.66 2 1 C-0.97 3.97 -3.94 6.94 -7 10 C-7.66 9.34 -8.32 8.68 -9 8 C-6.03 5.36 -3.06 2.72 0 0 Z " fill="#A4D315" transform="translate(757,633)"/>
<path d="M0 0 C0.99 0.33 1.98 0.66 3 1 C0.71823587 3.07384637 -0.44323483 3.98397191 -3.578125 4.07421875 C-4.90070312 3.88279297 -4.90070312 3.88279297 -6.25 3.6875 C-7.14203125 3.56761719 -8.0340625 3.44773437 -8.953125 3.32421875 C-9.62859375 3.21722656 -10.3040625 3.11023438 -11 3 C-11 2.67 -11 2.34 -11 2 C-10.06027344 1.90912109 -10.06027344 1.90912109 -9.1015625 1.81640625 C-7.87566406 1.69072266 -7.87566406 1.69072266 -6.625 1.5625 C-5.81289063 1.48128906 -5.00078125 1.40007812 -4.1640625 1.31640625 C-1.95727195 1.10909886 -1.95727195 1.10909886 0 0 Z " fill="#3C5D50" transform="translate(739,495)"/>
<path d="M0 0 C2.78637633 4.1795645 1.79562512 6.14668677 1 11 C-1 9 -1 9 -1.1875 5.5 C-1 2 -1 2 0 0 Z " fill="#69CB1B" transform="translate(669,460)"/>
<path d="M0 0 C-1.75 2.0625 -1.75 2.0625 -4 4 C-6.1875 3.875 -6.1875 3.875 -8 3 C-8.33 2.34 -8.66 1.68 -9 1 C-2.25 -1.125 -2.25 -1.125 0 0 Z " fill="#489E12" transform="translate(499,517)"/>
<path d="M0 0 C0.94875 0.04125 1.8975 0.0825 2.875 0.125 C2.875 0.455 2.875 0.785 2.875 1.125 C1.225 1.125 -0.425 1.125 -2.125 1.125 C-2.41375 1.74375 -2.7025 2.3625 -3 3 C-4.125 5.125 -4.125 5.125 -6.125 7.125 C-5.03177966 0.20127119 -5.03177966 0.20127119 0 0 Z " fill="#FCE0BF" transform="translate(834.125,1142.875)"/>
<path d="M0 0 C0.99 0.33 1.98 0.66 3 1 C2.38125 1.5775 1.7625 2.155 1.125 2.75 C-0.81347053 4.80249821 -1.90014249 6.43366582 -3 9 C-3.36923077 3.46153846 -3.36923077 3.46153846 -1.5 1.125 C-1.005 0.75375 -0.51 0.3825 0 0 Z " fill="#A3CB1F" transform="translate(400,516)"/>
<path d="M0 0 C0.99 0.33 1.98 0.66 3 1 C1.515 3.475 1.515 3.475 0 6 C-0.99 5.34 -1.98 4.68 -3 4 C-2.01 2.68 -1.02 1.36 0 0 Z " fill="#F78C1A" transform="translate(860,1134)"/>
<path d="M0 0 C0.66 0.99 1.32 1.98 2 3 C0.88625 3.433125 0.88625 3.433125 -0.25 3.875 C-2.56739797 4.82302644 -4.77917115 5.84845911 -7 7 C-4.78071806 4.09197539 -3.07030857 2.04687238 0 0 Z " fill="#B2C238" transform="translate(419,511)"/>
<path d="M0 0 C0.66 0.33 1.32 0.66 2 1 C1.67 2.32 1.34 3.64 1 5 C0.01 4.67 -0.98 4.34 -2 4 C-2.99 4 -3.98 4 -5 4 C-3.35 2.68 -1.7 1.36 0 0 Z " fill="#A4C130" transform="translate(401,508)"/>
<path d="M0 0 C-0.33 0.99 -0.66 1.98 -1 3 C-3.5625 4.1875 -3.5625 4.1875 -6 5 C-6.66 4.34 -7.32 3.68 -8 3 C-2.25 0 -2.25 0 0 0 Z " fill="#73CB22" transform="translate(507,175)"/>
</svg>