<?xml version="1.0" encoding="UTF-8"?>
<svg version="1.1" xmlns="http://www.w3.org/2000/svg" width="1254" height="1254" style="background: transparent;">

<path d="M0 0 C3.48519025 3.25400018 6.85211496 6.70422992 9 11 C9.07194869 13.88370333 9.09291708 16.74239664 9.0625 19.625 C9.05798828 20.42679688 9.05347656 21.22859375 9.04882812 22.0546875 C9.03703168 24.03649006 9.01909605 26.01825433 9 28 C8.34 28 7.68 28 7 28 C7 29.155 7 30.31 7 31.5 C5.61957989 43.88489589 -3.77759112 56.40866574 -10 67 C-7.03252912 66.01084304 -4.38326091 64.69936891 -1.60742188 63.27050781 C5.44619801 59.64564013 12.40064538 56.33505547 20 54 C21.09441406 53.62875 22.18882812 53.2575 23.31640625 52.875 C32.10703114 50.2350626 40.38608879 49.63778675 49.5625 49.625 C50.68084229 49.62338867 51.79918457 49.62177734 52.95141602 49.62011719 C63.1330727 49.75821516 71.00848673 51.57570415 78.75 58.4375 C83.49795989 63.84489876 84.67362402 67.74501307 84.47265625 74.875 C83.67201231 80.16851365 81.2089031 83.8090619 78 88 C77.443125 88.76054687 76.88625 89.52109375 76.3125 90.3046875 C68.58944077 99.92522249 57.0512421 105.9327254 46 111 C47.00675781 111.51046875 48.01351562 112.0209375 49.05078125 112.546875 C70.14339428 123.39145833 89.14673704 136.41373007 107 152 C107.5048291 152.44021484 108.0096582 152.88042969 108.52978516 153.33398438 C113.76579482 157.92643336 118.74329265 162.57306858 123.21875 167.9140625 C124.49031879 169.40313648 125.8087521 170.85270602 127.15625 172.2734375 C139.58017819 185.38310198 149.88858508 200.44154602 159 216 C159.40669922 216.69383789 159.81339844 217.38767578 160.23242188 218.10253906 C168.73330668 232.7370576 177.41875055 248.11446524 182.18359375 264.4296875 C182.97874115 267.11047343 182.97874115 267.11047343 184.35546875 269.9765625 C186.81485217 275.60647635 188.2630744 281.58600695 189.875 287.5 C190.13778748 288.46256714 190.13778748 288.46256714 190.40588379 289.44458008 C200.19933852 325.43190518 205.46184339 362.12001197 205.25 399.4375 C205.24534729 400.90961441 205.24534729 400.90961441 205.24060059 402.41146851 C205.15690698 425.03932264 203.24852696 446.75723348 199 469 C198.85868652 469.74878418 198.71737305 470.49756836 198.57177734 471.26904297 C194.67271064 491.26413593 187.95476507 511.22078959 178 529 C177.36783145 530.19297374 176.73762551 531.38698953 176.109375 532.58203125 C162.37927419 558.22656603 139.97604695 579.16529215 114 592 C116.81806069 594.18917373 119.69521323 596.06603793 122.78125 597.85546875 C124.1590564 598.6592395 124.1590564 598.6592395 125.56469727 599.47924805 C126.53334717 600.04297119 127.50199707 600.60669434 128.5 601.1875 C145.23916836 611.01930176 160.83775788 621.65034554 175 635 C175.78632812 635.71027344 176.57265625 636.42054688 177.3828125 637.15234375 C195.11138812 653.82632564 210.25172226 677.88514124 211.23828125 702.73046875 C211.75382037 727.74562347 206.21873846 748.54273727 190 768 C189.32783447 768.82008545 189.32783447 768.82008545 188.64208984 769.65673828 C173.12386341 788.58886718 154.71276356 802.09084275 134 815 C134.9075 815.53625 135.815 816.0725 136.75 816.625 C141.01574909 819.45874821 143.38759027 823.16277081 145 828 C145.98011194 842.49434771 142.84792746 855.48831654 133.125 866.6875 C127.24086955 872.15987415 117.00415287 878 109 878 C109.33 882.62 109.66 887.24 110 892 C128.35677425 879.98877735 145.69616503 866.70439174 162.33935547 852.42236328 C164.05623967 850.95183 165.77948682 849.48903077 167.50390625 848.02734375 C174.24597109 842.29945721 180.84604703 836.44847111 187.34375 830.4453125 C190.83878363 827.22782566 194.400998 824.10019296 198 821 C198.47598633 820.5870166 198.95197266 820.1740332 199.44238281 819.74853516 C203.60456669 816.13749061 207.79618617 812.56244484 212 809 C212.61375488 808.47599609 213.22750977 807.95199219 213.85986328 807.41210938 C238.16954479 786.74091493 265.55364672 769.92871627 296.375 761.125 C297.03886719 760.93381592 297.70273437 760.74263184 298.38671875 760.5456543 C330.37782969 751.99269102 363.30446677 756.15177068 392 772.15234375 C396.69766922 775.04556972 400.87570266 778.34582982 405 782 C406.01126953 782.85271484 406.01126953 782.85271484 407.04296875 783.72265625 C420.11968442 795.59871539 429.25969073 814.9338682 430.9375 832.4375 C430.98790503 834.62451843 431.00486673 836.81240621 431 839 C431.05673371 840.59777166 431.11691678 842.19542287 431.1796875 843.79296875 C432.10837937 874.62611213 420.67763724 904.6911726 402 929 C400.90171875 930.43666016 400.90171875 930.43666016 399.78125 931.90234375 C376.9006807 960.79320752 344.16704659 980.03025045 309.04296875 990.39648438 C307.6204724 990.81670557 306.20139316 991.24859631 304.78515625 991.68945312 C232.54705561 1013.93024766 155.0403178 1002.54299788 84 982 C81.08828211 985.66980204 81.08828211 985.66980204 80 990 C81.70542969 990.90878906 81.70542969 990.90878906 83.4453125 991.8359375 C92.80784528 996.88874915 101.68006383 1002.20047538 110.16796875 1008.61669922 C112.16444776 1010.12416858 114.17587711 1011.61046601 116.1875 1013.09765625 C124.75998193 1019.48812172 132.87470926 1026.16528489 140.55517578 1033.60644531 C141.94719216 1034.94906605 143.36189806 1036.26804011 144.77734375 1037.5859375 C150.62546373 1043.16143835 155.0665661 1048.94167139 159 1056 C159.54140625 1056.93972656 159.54140625 1056.93972656 160.09375 1057.8984375 C162.53490926 1062.71294605 162.88599416 1067.74966422 162 1073 C159.61218708 1078.60946526 156.32800063 1082.32983672 150.890625 1085.05859375 C147.15612696 1086.27482892 143.63026808 1086.25379954 139.75 1086.1875 C139.0178125 1086.18685547 138.285625 1086.18621094 137.53125 1086.18554688 C132.140625 1086.140625 132.140625 1086.140625 131 1085 C128.08461971 1084.49957854 128.08461971 1084.49957854 125 1085 C122.18125212 1088.65766094 121.56977637 1091.78337476 121.125 1096.3125 C120.1228201 1103.74884331 117.54071734 1108.94108417 112 1114 C104.37368644 1118.28980138 96.64918426 1117.85440574 88.3125 1115.75 C83.56491651 1114.31562371 79.36150519 1112.32325722 75 1110 C73.44614731 1109.23224479 71.88334111 1108.48236908 70.3125 1107.75 C69.60738281 1107.41484375 68.90226563 1107.0796875 68.17578125 1106.734375 C65.56664891 1105.85373428 63.73412729 1105.6201374 61 1106 C59.27798057 1107.51394468 59.27798057 1107.51394468 58 1109.625 C57.49339844 1110.35332031 56.98679687 1111.08164063 56.46484375 1111.83203125 C55.98144531 1112.54746094 55.49804688 1113.26289062 55 1114 C51.78986989 1118.53845981 48.56946491 1121.78263062 43 1123 C32.83782758 1124.0204692 25.07054058 1122.63235409 17 1116.3125 C15.32307307 1114.88698252 13.65622212 1113.44952141 12 1112 C10.85337891 1111.05253906 10.85337891 1111.05253906 9.68359375 1110.0859375 C4.66008731 1105.8399825 0.50292482 1101.21414118 -3.56323242 1096.05053711 C-5.89087882 1093.13660647 -8.29168335 1090.30336259 -10.71484375 1087.46875 C-15.98614364 1081.2032524 -20.62078181 1074.58289414 -25.125 1067.75 C-25.51397461 1067.16316437 -25.90294922 1066.57632874 -26.30371094 1065.97171021 C-42.41177774 1041.6073492 -42.41177774 1041.6073492 -44 1028 C-52.32368309 1025.85053125 -60.44467276 1025.68493019 -69 1025.75 C-70.0299559 1025.7531572 -70.0299559 1025.7531572 -71.08071899 1025.75637817 C-80.32905839 1025.78960252 -89.39250212 1026.21428729 -98.56274414 1027.46679688 C-102.98955532 1028.0316382 -107.40309262 1028.33583815 -111.859375 1028.55078125 C-112.71268906 1028.59213196 -113.56600311 1028.63348267 -114.44517517 1028.67608643 C-126.14578759 1029.19346111 -137.85223837 1029.23941151 -149.5625 1029.25 C-150.74757141 1029.25233643 -151.93264282 1029.25467285 -153.15362549 1029.25708008 C-170.27616501 1029.26981597 -187.07970712 1028.87354567 -204 1026 C-204.17982422 1027.34771484 -204.17982422 1027.34771484 -204.36328125 1028.72265625 C-208.29340729 1048.9519553 -236.67674565 1069.05717296 -252 1081 C-252.61955566 1081.49209961 -253.23911133 1081.98419922 -253.87744141 1082.49121094 C-289.91757725 1111.09994809 -289.91757725 1111.09994809 -311.375 1111.25 C-312.10460937 1111.270625 -312.83421875 1111.29125 -313.5859375 1111.3125 C-319.46541969 1111.3544963 -324.34757591 1110.46459149 -328.8203125 1106.30859375 C-332.01333532 1101.72937838 -334.63615745 1097.05604164 -337.01953125 1092.00390625 C-337.84067417 1090.05119661 -337.84067417 1090.05119661 -339 1089 C-344.17450843 1089.30438285 -348.62827142 1090.4848895 -353.5625 1092.0625 C-363.03852749 1094.84837074 -373.72926777 1095.8208881 -383.12890625 1092.125 C-387.10283274 1089.73566632 -389.94297642 1086.11404717 -392 1082 C-392.0488145 1080.43956325 -392.03684679 1078.87696745 -391.9921875 1077.31640625 C-391.96705078 1075.92518555 -391.96705078 1075.92518555 -391.94140625 1074.50585938 C-391.89721917 1072.54733196 -391.84516484 1070.58896588 -391.78515625 1068.63085938 C-391.77097656 1067.70208984 -391.75679687 1066.77332031 -391.7421875 1065.81640625 C-391.7201123 1064.96506104 -391.69803711 1064.11371582 -391.67529297 1063.23657227 C-391.82897618 1060.93871083 -391.82897618 1060.93871083 -393.3125 1059.22436523 C-396.0527915 1057.23614737 -398.80096636 1057.58058263 -402.125 1057.5 C-409.93224209 1057.14253069 -416.72714222 1056.64624896 -422.5625 1051 C-425.44508677 1047.14575476 -425.92924805 1043.64391277 -425.63671875 1038.8984375 C-422.74009202 1025.71256612 -410.32937077 1017.23174775 -399.6875 1010.3125 C-382.03680247 999.21705746 -362.60696289 990.36148058 -342.89160156 983.67822266 C-339.86374902 982.59260387 -336.94076555 981.30146152 -334 980 C-334.845625 979.2265625 -335.69125 978.453125 -336.5625 977.65625 C-339.52127765 974.94447433 -342.4649152 972.21680869 -345.40234375 969.48193359 C-346.65601813 968.31906631 -347.91987968 967.16718036 -349.1875 966.01953125 C-360.0691727 955.77105934 -368.72232054 942.78986333 -375.98242188 929.79882812 C-376.97154372 928.05030372 -378.00864363 926.32919338 -379.046875 924.609375 C-385.7713613 913.18585009 -389.30883174 900.65921927 -393 888 C-393.26474121 887.11135254 -393.52948242 886.22270508 -393.80224609 885.30712891 C-396.81887535 875.09990547 -398.72517834 865.17026855 -399.640625 854.5625 C-399.86418532 851.04175458 -399.86418532 851.04175458 -401 848 C-402.2202284 839.42859266 -402.19337092 830.76432386 -402.1875 822.125 C-402.18709213 821.10703842 -402.18709213 821.10703842 -402.18667603 820.06851196 C-402.14976796 799.93472158 -400.18503377 779.95889189 -395.515625 760.33984375 C-394.8285733 757.22208642 -394.3035327 754.08169448 -393.75 750.9375 C-390.4763599 733.29865141 -385.60383886 716.25227173 -379.9375 699.25 C-379.68219513 698.48127563 -379.42689026 697.71255127 -379.16384888 696.92053223 C-375.65564401 686.40027738 -372.06859989 675.89233988 -367 666 C-367.84046875 665.90589844 -368.6809375 665.81179688 -369.546875 665.71484375 C-373.47434513 664.90180412 -376.72429014 663.39772244 -380.25 661.5625 C-380.94399902 661.20615479 -381.63799805 660.84980957 -382.35302734 660.48266602 C-384.57478337 659.33307972 -386.78770768 658.16767947 -389 657 C-390.06105957 656.44844238 -390.06105957 656.44844238 -391.14355469 655.88574219 C-409.43264309 646.33449428 -426.67810511 634.83983394 -442 621 C-443.31291016 619.84951172 -443.31291016 619.84951172 -444.65234375 618.67578125 C-453.33209007 611.01246131 -461.60351879 602.91711508 -469 594 C-469.41975098 593.49404297 -469.83950195 592.98808594 -470.27197266 592.46679688 C-487.75695562 571.27803839 -501.65868386 548.45094915 -514.375 524.125 C-515.22372681 522.50174805 -515.22372681 522.50174805 -516.08959961 520.84570312 C-520 513.25640295 -520 513.25640295 -520 511 C-521.155 510.67 -522.31 510.34 -523.5 510 C-536.09236726 505.76294561 -547.42589573 498.93806694 -558 491 C-558.66257812 490.52304687 -559.32515625 490.04609375 -560.0078125 489.5546875 C-564.05427043 486.41162483 -567.15805793 482.50953143 -570.3125 478.5 C-570.7458667 477.95375977 -571.1792334 477.40751953 -571.62573242 476.84472656 C-577.63513386 468.94916263 -578.15906625 460.65543584 -577 451 C-574.6508057 445.22201843 -570.50134726 442.17092991 -564.90234375 439.7421875 C-563.96068359 439.37480469 -563.96068359 439.37480469 -563 439 C-562.01 438.5875 -561.02 438.175 -560 437.75 C-559.34 437.5025 -558.68 437.255 -558 437 C-558.969375 436.13375 -559.93875 435.2675 -560.9375 434.375 C-565.84892123 429.48354389 -569.379236 423.65880855 -572.94067383 417.75195312 C-573.65677679 416.56763534 -574.39165241 415.39449852 -575.14331055 414.23242188 C-578.91024673 408.18657717 -578.71580615 402.90491053 -578 396 C-576.64700973 390.18214182 -573.05047166 385.44491897 -568.42578125 381.73828125 C-561.92495012 377.71932925 -554.35971937 378.2405396 -547 379 C-543.36765479 379.87695192 -540.29586301 381.25660905 -537 383 C-535.2675 383.90298828 -535.2675 383.90298828 -533.5 384.82421875 C-530.31010949 386.50817624 -527.14995828 388.24234303 -524 390 C-524.25394531 389.34515625 -524.50789063 388.6903125 -524.76953125 388.015625 C-530.00589422 374.1304378 -534.20705262 359.59005833 -529 345 C-527.484375 342.671875 -527.484375 342.671875 -525.75 340.75 C-525.18796875 340.10546875 -524.6259375 339.4609375 -524.046875 338.796875 C-518.37925264 333.82148133 -512.9376394 333.34020102 -505.65625 333.5390625 C-491.93267162 335.26917174 -481.42527924 346.34509914 -473.25 356.75 C-457 379.4292196 -457 379.4292196 -457 389 C-456.34 389 -455.68 389 -455 389 C-454.896875 388.28457031 -454.79375 387.56914062 -454.6875 386.83203125 C-452.50812505 377.85449238 -445.38297181 370.20250863 -438 365 C-432.52655075 361.99417258 -427.21601236 361.07147347 -421.03125 362.43359375 C-414.84747016 364.34818712 -410.244363 368.33936656 -406.8671875 373.84765625 C-402.70382881 384.1810375 -404.24110394 398.30364024 -406.5 408.9375 C-408.14084575 416.75205178 -408.33771203 424.46667763 -408.375 432.4375 C-408.38853516 433.6227124 -408.40207031 434.8079248 -408.41601562 436.02905273 C-408.32667304 453.65063696 -400.08605941 467.14515063 -389.9375 481 C-389.3602417 481.78882568 -388.7829834 482.57765137 -388.18823242 483.39038086 C-382.51461608 490.95279142 -376.29829507 497.11476747 -368.625 502.625 C-367.97523193 503.09719971 -367.32546387 503.56939941 -366.65600586 504.0559082 C-361.95100077 507.43015754 -357.16642941 510.37146574 -352 513 C-352.61746094 512.18660156 -353.23492187 511.37320313 -353.87109375 510.53515625 C-375.89597209 480.97441343 -389.48749913 441.53352035 -384.52685547 404.46435547 C-381.63783648 386.50963746 -376.72868329 369.2279058 -371 352 C-370.35744906 350.03405796 -369.71550714 348.06791674 -369.07421875 346.1015625 C-351.93585188 293.91418024 -328.49852363 243.45119065 -296 199 C-295.5982959 198.44521973 -295.1965918 197.89043945 -294.78271484 197.31884766 C-280.23062617 177.24849783 -263.00900449 157.94205648 -244 142 C-243.48147461 141.5570459 -242.96294922 141.1140918 -242.42871094 140.65771484 C-216.40893036 118.49513792 -186.84065249 101.30122855 -154.5 90.25 C-153.64245117 89.95689941 -152.78490234 89.66379883 -151.90136719 89.36181641 C-147.39731363 87.89170819 -143.00935124 86.76689334 -138.328125 86.01953125 C-127.96073143 84.70578187 -127.96073143 84.70578187 -120.03515625 78.625 C-118.02749697 75.25639941 -116.49395563 71.70332383 -114.97021484 68.09570312 C-113.40856288 64.72247201 -111.32313787 61.79722435 -109.125 58.8125 C-108.70597412 58.23943115 -108.28694824 57.6663623 -107.85522461 57.07592773 C-89.61710995 32.50624813 -65.84996003 8.59463001 -36 -1 C-35.0821875 -1.29648437 -34.164375 -1.59296875 -33.21875 -1.8984375 C-22.43096878 -4.99282737 -9.83469747 -6.43756535 0 0 Z " fill="#65BD11" transform="translate(708,59)"/>
<path d="M0 0 C7.5790452 5.05615755 15.85878285 7.63670214 24.5390625 10.15234375 C25.43028809 10.41088135 26.32151367 10.66941895 27.23974609 10.93579102 C46.52051683 16.31667985 71.94371962 16.85634364 90.5859375 8.70703125 C93.60784947 7.63373148 94.81572807 7.81278233 97.8515625 8.90234375 C100.70149816 10.5731271 103.36553709 12.46459143 106.0390625 14.40234375 C106.79501709 14.94334717 107.55097168 15.48435059 108.32983398 16.04174805 C113.40296217 19.72176274 118.17411037 23.5993334 122.734375 27.90625 C124.69074266 29.75072209 126.71229636 31.44672658 128.7890625 33.15234375 C162.40416709 62.64165079 180.25657165 114.08760577 185.50268555 157.13208008 C185.76738501 159.23393088 186.06035987 161.3322444 186.36645508 163.4284668 C187.68820332 172.88666084 188.13562491 182.12054917 188.05737305 191.66625977 C188.03904474 193.96707285 188.03686509 196.26748047 188.03710938 198.56835938 C187.93758302 240.72732902 176.66323831 282.5953075 149.8515625 315.90234375 C148.86736328 317.19011719 148.86736328 317.19011719 147.86328125 318.50390625 C132.13157349 338.87000488 111.3262124 352.89762255 87.8515625 362.90234375 C87.08755127 363.23073242 86.32354004 363.55912109 85.53637695 363.89746094 C79.67479976 366.33859094 73.84941578 368.11260561 67.6640625 369.52734375 C66.73972412 369.7389917 65.81538574 369.95063965 64.86303711 370.16870117 C22.94115806 379.54581973 -23.29465039 374.43853699 -60.1015625 351.484375 C-103.84077896 323.35060763 -125.59542101 280.10123986 -136.53515625 230.4140625 C-138.2956783 220.3331114 -138.33468735 210.30693369 -138.33374023 200.10180664 C-138.33590659 197.50194409 -138.35405593 194.90252109 -138.37304688 192.30273438 C-138.54721291 140.37140804 -122.63029698 88.69750236 -90.1484375 47.90234375 C-89.68824219 47.3196875 -89.22804688 46.73703125 -88.75390625 46.13671875 C-69.41508079 21.83779108 -44.53800559 5.60414869 -15.1484375 -4.09765625 C-14.0965625 -4.44828125 -13.0446875 -4.79890625 -11.9609375 -5.16015625 C-6.78789825 -5.07535233 -4.19990789 -2.85842788 0 0 Z " fill="#9AD81E" transform="translate(517.1484375,678.09765625)"/>
<path d="M0 0 C1.05340576 0.30800537 2.10681152 0.61601074 3.19213867 0.93334961 C12.20977206 3.67629053 20.22831125 7.36529361 28.4375 11.9375 C29.88576172 12.65679687 29.88576172 12.65679687 31.36328125 13.390625 C43.1749726 19.33920473 53.05935222 28.34644969 62.6484375 37.328125 C65.17432555 39.69128076 67.731987 42.00937113 70.3125 44.3125 C73.20397934 46.90084037 76.06414769 49.5168847 78.890625 52.17578125 C87.75895506 60.54415563 87.75895506 60.54415563 97.4375 67.9375 C98.15164063 68.45828125 98.86578125 68.9790625 99.6015625 69.515625 C104.65020659 73.08957923 109.46630861 75.32824275 115.4375 76.9375 C115.4375 77.5975 115.4375 78.2575 115.4375 78.9375 C115.99622803 78.98237549 116.55495605 79.02725098 117.13061523 79.07348633 C119.71317165 79.28752212 122.29393746 79.51866977 124.875 79.75 C126.19274414 79.85538086 126.19274414 79.85538086 127.53710938 79.96289062 C133.54869366 80.51746482 138.7954803 81.82330636 144.4375 83.9375 C145.74954197 84.37637171 147.0619772 84.81407154 148.375 85.25 C159.73756638 89.65497106 168.19773711 96.56217711 173.4375 107.6875 C177.25235275 117.84325665 176.32610427 128.89883366 172.4375 138.9375 C170.42225308 142.56281192 168.06241099 145.73278939 165.4375 148.9375 C164.81617188 149.72125 164.19484375 150.505 163.5546875 151.3125 C153.95710335 162.81405833 141.04716694 169.57873665 126.5625 172.9375 C102.30979373 178.56468592 83.2048158 193.27692095 64.73535156 209.42578125 C58.47785647 214.85533974 51.86744075 219.78584357 45.17675781 224.66552734 C43.72112489 225.73007641 42.27707148 226.81043497 40.8359375 227.89453125 C26.43057348 238.46341516 9.88070329 246.53825203 -7.1875 251.6875 C-7.84371338 251.88641846 -8.49992676 252.08533691 -9.17602539 252.2902832 C-19.27650972 255.18162902 -29.32682388 256.30582728 -39.8125 256.25 C-40.90079102 256.24581055 -41.98908203 256.24162109 -43.11035156 256.23730469 C-51.93164601 256.11445999 -60.0184955 255.15012897 -68.5625 252.9375 C-70.19445312 252.53724609 -70.19445312 252.53724609 -71.859375 252.12890625 C-96.09571287 245.47869159 -112.19455882 230.72004823 -125.5625 209.9375 C-126.68364644 207.91635069 -127.76833058 205.87447093 -128.8125 203.8125 C-129.33328125 202.79929687 -129.8540625 201.78609375 -130.390625 200.7421875 C-131.5625 197.9375 -131.5625 197.9375 -131.5625 193.9375 C-132.2225 193.9375 -132.8825 193.9375 -133.5625 193.9375 C-133.71648254 193.39372208 -133.87046509 192.84994415 -134.02911377 192.28968811 C-135.6437414 186.59276565 -137.26771932 180.89856703 -138.89697266 175.20581055 C-139.50252988 173.08539138 -140.10575853 170.96430569 -140.70654297 168.8425293 C-141.57417354 165.77992289 -142.45035436 162.71986972 -143.328125 159.66015625 C-143.72369598 158.2533535 -143.72369598 158.2533535 -144.1272583 156.81813049 C-145.62342852 151.63697311 -147.38312415 146.75892058 -149.66693115 141.87107849 C-150.49191967 140.08988652 -151.21973539 138.26453718 -151.9375 136.4375 C-155.83215635 128.04900939 -161.31748868 119.84571605 -169.953125 115.82421875 C-172.70096912 114.89044537 -175.40972359 114.27906625 -178.25 113.6875 C-183.5681342 112.40539139 -187.66097036 110.43954017 -192.2109375 107.4375 C-194.60660672 105.84303787 -194.60660672 105.84303787 -197.53515625 104.51171875 C-208.01489602 99.06225407 -214.23890414 90.35836922 -217.875 79.4375 C-220.80630188 68.99249369 -219.49131655 61.0434824 -215.5625 50.9375 C-213.58355611 47.53071051 -211.30943831 44.75198597 -208.5625 41.9375 C-207.9540625 41.31359375 -207.345625 40.6896875 -206.71875 40.046875 C-196.84251077 30.73730524 -184.60354792 25.64622145 -171.0402832 25.96679688 C-169.39781313 26.02630334 -167.75547811 26.08962829 -166.11328125 26.15625 C-138.81864986 27.45809235 -138.81864986 27.45809235 -113.64135742 18.1862793 C-108.03627961 14.81928306 -102.14436167 11.88361988 -95.875 10 C-91.15082817 8.50623873 -86.57796404 6.76232011 -82 4.875 C-56.39265083 -5.50523073 -26.600077 -7.78346661 0 0 Z " fill="#FC8302" transform="translate(612.5625,437.0625)"/>
<path d="M0 0 C1.57648762 1.33785664 3.13990962 2.69131889 4.6875 4.0625 C5.69876953 4.91521484 5.69876953 4.91521484 6.73046875 5.78515625 C19.80718442 17.66121539 28.94719073 36.9963682 30.625 54.5 C30.67540503 56.68701843 30.69236673 58.87490621 30.6875 61.0625 C30.74423371 62.66027166 30.80441678 64.25792287 30.8671875 65.85546875 C31.79587937 96.68861213 20.36513724 126.7536726 1.6875 151.0625 C0.58921875 152.49916016 0.58921875 152.49916016 -0.53125 153.96484375 C-23.4118193 182.85570752 -56.14545341 202.09275045 -91.26953125 212.45898438 C-92.6920276 212.87920557 -94.11110684 213.31109631 -95.52734375 213.75195312 C-164.79784683 235.07907846 -247.58280685 227.97402645 -315.3125 204.0625 C-314.76441004 198.78611157 -312.94956359 194.97000155 -310.5 190.375 C-307.25342577 184.05298767 -304.42552921 177.86562543 -302.3125 171.0625 C-301.96856201 169.97074463 -301.96856201 169.97074463 -301.61767578 168.85693359 C-298.67695955 159.42314576 -296.07443879 150.02532769 -294.5625 140.25 C-294.38267578 139.08839355 -294.38267578 139.08839355 -294.19921875 137.90332031 C-293.65025654 134.12282181 -293.24587371 130.38152051 -293.04296875 126.56640625 C-292.42247905 116.4103317 -292.42247905 116.4103317 -289.5625 112.9375 C-286.91339831 111.07596909 -284.16125443 109.60255391 -281.3125 108.0625 C-278.55579061 106.25531587 -275.87267074 104.3488796 -273.1875 102.4375 C-272.46216064 101.92759521 -271.73682129 101.41769043 -270.98950195 100.89233398 C-263.75210577 95.76362695 -256.90290778 90.20135024 -250.0859375 84.53173828 C-247.55537819 82.43524793 -244.99406575 80.37714228 -242.4375 78.3125 C-238.10664485 74.77024833 -233.95724717 71.06265401 -229.82421875 67.29296875 C-227.31791256 65.06730649 -224.74325607 62.96728439 -222.125 60.875 C-217.48813388 57.13009115 -213.13987667 53.15427324 -208.8125 49.0625 C-203.70780325 44.240011 -198.52172498 39.63488864 -193.02734375 35.25390625 C-190.58336254 33.28113868 -188.20620516 31.24710428 -185.83691406 29.18579102 C-162.1287417 8.6691034 -134.5179977 -8.02427855 -104.25 -16.6875 C-103.56695801 -16.88625732 -102.88391602 -17.08501465 -102.18017578 -17.28979492 C-68.13949835 -26.56530303 -28.32980997 -22.06788551 0 0 Z " fill="#FC8302" transform="translate(1108.3125,836.9375)"/>
<path d="M0 0 C0.94101562 0.51949219 1.88203125 1.03898437 2.8515625 1.57421875 C19.90838616 11.65325091 29.57390489 27.67890155 34.96484375 46.33984375 C41.64185317 74.18635769 35.19269998 102.53655989 20.70996094 126.79150391 C19.1938703 129.23216366 17.61197811 131.62172823 16 134 C15.09701172 135.64162109 15.09701172 135.64162109 14.17578125 137.31640625 C12 140 12 140 9.03125 140.59375 C7.8659375 140.5628125 6.700625 140.531875 5.5 140.5 C-7.42224243 140.66193286 -20.43539377 145.26548161 -31.90625 151.01953125 C-41.92189173 155.70969184 -58.32033861 154.15244679 -68.5625 151.0390625 C-72.62860746 149.30575387 -75.76175628 146.97777629 -79 144 C-79.59296875 143.48566406 -80.1859375 142.97132813 -80.796875 142.44140625 C-91.64757484 132.43091547 -99.35250925 116.57892082 -100.17700195 101.8347168 C-100.72097677 71.78173344 -100.72097677 71.78173344 -96 58 C-95.78569336 57.36642578 -95.57138672 56.73285156 -95.35058594 56.08007812 C-90.62048135 42.40615134 -83.65440426 29.81650848 -74 19 C-73.26265625 18.16855469 -72.5253125 17.33710938 -71.765625 16.48046875 C-54.11426237 -2.29573562 -24.11366654 -13.96612651 0 0 Z " fill="#F9FBF9" transform="translate(780,352)"/>
<path d="M0 0 C2.75390625 1.78515625 2.75390625 1.78515625 5.5625 4.0625 C17.61166834 13.529839 31.41766107 22.11350194 46 27 C48.29182767 27.83289044 50.58347741 28.66627057 52.875 29.5 C57.78778185 31.25155927 62.70567796 32.88560829 67.71875 34.32421875 C69.42666237 34.83015854 71.11736677 35.39482373 72.796875 35.98828125 C76.40946287 37.12933035 80.02394188 37.86124718 83.75 38.5 C84.48661865 38.62745605 85.2232373 38.75491211 85.98217773 38.88623047 C99.57179867 41.16337139 113.24911302 42.28810122 127 43 C124.60383002 50.96242821 121.48837631 56.7784025 116 63 C115.27167969 63.83660156 114.54335938 64.67320313 113.79296875 65.53515625 C107.59470863 72.53591683 101.16441198 79.1001435 94.078125 85.19921875 C91.97966952 87.0176172 89.92936486 88.88204973 87.875 90.75 C69.17709516 107.36323277 44.6254464 129.0681787 18.625 129.25 C17.53058594 129.2809375 17.53058594 129.2809375 16.4140625 129.3125 C10.53458031 129.3544963 5.65242409 128.46459149 1.1796875 124.30859375 C-2.01333532 119.72937838 -4.63615745 115.05604164 -7.01953125 110.00390625 C-7.84067417 108.05119661 -7.84067417 108.05119661 -9 107 C-14.17450843 107.30438285 -18.62827142 108.4848895 -23.5625 110.0625 C-33.03852749 112.84837074 -43.72926777 113.8208881 -53.12890625 110.125 C-57.10283274 107.73566632 -59.94297642 104.11404717 -62 100 C-62.0488145 98.43956325 -62.03684679 96.87696745 -61.9921875 95.31640625 C-61.97542969 94.38892578 -61.95867187 93.46144531 -61.94140625 92.50585938 C-61.89721917 90.54733196 -61.84516484 88.58896588 -61.78515625 86.63085938 C-61.77097656 85.70208984 -61.75679688 84.77332031 -61.7421875 83.81640625 C-61.7201123 82.96506104 -61.69803711 82.11371582 -61.67529297 81.23657227 C-61.82897618 78.93871083 -61.82897618 78.93871083 -63.3125 77.22436523 C-66.0527915 75.23614737 -68.80096636 75.58058263 -72.125 75.5 C-79.93224209 75.14253069 -86.72714222 74.64624896 -92.5625 69 C-95.44508677 65.14575476 -95.92924805 61.64391277 -95.63671875 56.8984375 C-92.74009202 43.71256612 -80.32937077 35.23174775 -69.6875 28.3125 C-51.42423671 16.83199119 -31.37928436 7.93949769 -11 1 C-10.13375 0.59265625 -9.2675 0.1853125 -8.375 -0.234375 C-5.15310915 -1.27301087 -3.24202624 -0.93881069 0 0 Z " fill="#FC8403" transform="translate(378,1041)"/>
<path d="M0 0 C5.20069041 0.54907688 9.19768545 3.09936965 13.625 5.6875 C14.45314209 6.16936768 15.28128418 6.65123535 16.13452148 7.14770508 C25.5790423 12.76666487 34.30873087 19.29395909 43 26 C43.98742187 26.7528125 44.97484375 27.505625 45.9921875 28.28125 C52.13271514 33.068115 57.88118643 38.28390847 63.54052734 43.62402344 C64.93271748 44.9365667 66.33525395 46.23810994 67.73828125 47.5390625 C73.59393265 53.13702969 78.0562402 58.92314213 82 66 C82.54140625 66.93972656 82.54140625 66.93972656 83.09375 67.8984375 C85.53490926 72.71294605 85.88599416 77.74966422 85 83 C82.61218708 88.60946526 79.32800063 92.32983672 73.890625 95.05859375 C70.15612696 96.27482892 66.63026808 96.25379954 62.75 96.1875 C62.0178125 96.18685547 61.285625 96.18621094 60.53125 96.18554688 C55.140625 96.140625 55.140625 96.140625 54 95 C51.08461971 94.49957854 51.08461971 94.49957854 48 95 C45.18125212 98.65766094 44.56977637 101.78337476 44.125 106.3125 C43.1228201 113.74884331 40.54071734 118.94108417 35 124 C27.37368644 128.28980138 19.64918426 127.85440574 11.3125 125.75 C6.56491651 124.31562371 2.36150519 122.32325722 -2 120 C-3.55385269 119.23224479 -5.11665889 118.48236908 -6.6875 117.75 C-7.74517578 117.24726562 -7.74517578 117.24726562 -8.82421875 116.734375 C-11.43335109 115.85373428 -13.26587271 115.6201374 -16 116 C-17.72201943 117.51394468 -17.72201943 117.51394468 -19 119.625 C-19.50660156 120.35332031 -20.01320313 121.08164063 -20.53515625 121.83203125 C-21.01855469 122.54746094 -21.50195312 123.26289062 -22 124 C-25.21013011 128.53845981 -28.43053509 131.78263062 -34 133 C-44.16217242 134.0204692 -51.92945942 132.63235409 -60 126.3125 C-61.67692693 124.88698252 -63.34377788 123.44952141 -65 122 C-66.14662109 121.05253906 -66.14662109 121.05253906 -67.31640625 120.0859375 C-72.33991269 115.8399825 -76.49707518 111.21414118 -80.56323242 106.05053711 C-82.89087882 103.13660647 -85.29168335 100.30336259 -87.71484375 97.46875 C-92.98619264 91.20319417 -97.62025469 84.58260157 -102.125 77.75 C-102.51397461 77.1634967 -102.90294922 76.57699341 -103.30371094 75.97271729 C-119.13721332 52.03950674 -119.13721332 52.03950674 -121 39 C-119.64567321 39.14433868 -118.29154775 39.29056661 -116.9375 39.4375 C-116.18339844 39.51871094 -115.42929687 39.59992188 -114.65234375 39.68359375 C-112.68046549 39.91882518 -110.71404549 40.20076124 -108.75195312 40.50708008 C-77.62961281 44.59583627 -45.59373576 38.00389616 -19.8125 19.7421875 C-12.56812763 13.96681286 -5.42779193 7.54802316 0 0 Z " fill="#FC8404" transform="translate(785,1049)"/>
<path d="M0 0 C14.37635019 10.36462565 23.77382766 24.30803693 27.12548828 41.84179688 C27.86541929 47.03110844 27.86979404 52.20379699 27.84375 57.4375 C27.83956055 58.58549072 27.83537109 59.73348145 27.83105469 60.91625977 C27.72043423 69.22397398 27.03463935 76.72217025 24.53125 84.6875 C24.26441406 85.58339844 23.99757813 86.47929687 23.72265625 87.40234375 C19.24832497 100.94465308 12.07271997 113.34160743 3.53125 124.6875 C3.01949219 125.37328125 2.50773438 126.0590625 1.98046875 126.765625 C-6.17637166 136.96741976 -18.38904945 144.81897135 -31.46875 146.6875 C-43.69160948 147.49001098 -55.75974512 146.98102775 -65.375 138.70703125 C-67.5509619 136.60820233 -69.63275368 134.43802874 -71.71875 132.25 C-77.27734666 126.52474348 -84.31386429 121.78697685 -91.72265625 118.76953125 C-94.23072057 117.21531689 -94.64183202 115.57226222 -95.59375 112.8125 C-95.90570313 111.94882812 -96.21765625 111.08515625 -96.5390625 110.1953125 C-101.74979366 90.53465461 -101.83278221 68.74170492 -94.46875 49.6875 C-94.07526367 48.64263428 -94.07526367 48.64263428 -93.67382812 47.57666016 C-85.31406033 25.82021412 -70.85232508 8.29625736 -50.21875 -2.75 C-48.97907056 -3.29494242 -47.72875939 -3.8163713 -46.46875 -4.3125 C-45.80875 -4.60769531 -45.14875 -4.90289062 -44.46875 -5.20703125 C-30.10252097 -10.66919125 -12.51067303 -8.57161412 0 0 Z " fill="#F9FBF8" transform="translate(520.46875,312.3125)"/>
<path d="M0 0 C13.00729493 8.69196962 22.75783397 22.09506645 26.03222656 37.48242188 C29.09142942 59.1491473 22.60317434 79.67452629 9.65722656 97.10742188 C2.56890937 106.28291453 -5.0257098 114.15696133 -14.34277344 121.10742188 C-15.16720947 121.72544678 -15.16720947 121.72544678 -16.00830078 122.35595703 C-36.31629694 137.35218795 -60.54282234 145.35737933 -85.171875 149.72119141 C-87.02104646 150.05018255 -88.86603727 150.40253215 -90.70996094 150.75976562 C-104.06347038 153.23866914 -117.73110404 153.2749761 -131.27148438 153.23779297 C-133.60520826 153.2323931 -135.93874251 153.23780165 -138.27246094 153.24414062 C-161.61642645 153.25831987 -161.61642645 153.25831987 -166.34277344 150.10742188 C-144.64021282 131.01879882 -122.8089919 113.11841703 -94.40527344 105.73242188 C-76.48786179 101.02265845 -62.0414057 92.36211281 -52.34277344 76.10742188 C-47.24906504 66.61990394 -45.42229143 55.39632104 -48.18261719 44.91992188 C-52.42119342 33.73122231 -59.61247076 26.27262968 -70.34277344 21.10742188 C-73.30202763 19.91791774 -76.2764999 18.97687562 -79.34277344 18.10742188 C-80.41527344 17.73617187 -81.48777344 17.36492188 -82.59277344 16.98242188 C-87.14005044 15.92139058 -91.57783564 15.68766591 -96.22949219 15.39257812 C-99.85304194 15.06068461 -102.91947954 14.30159416 -106.34277344 13.10742188 C-106.34277344 12.44742188 -106.34277344 11.78742187 -106.34277344 11.10742188 C-110.79777344 10.11742187 -110.79777344 10.11742187 -115.34277344 9.10742188 C-115.83777344 7.12742187 -115.83777344 7.12742187 -116.34277344 5.10742188 C-115.68277344 4.11742187 -115.02277344 3.12742187 -114.34277344 2.10742188 C-115.33277344 1.77742188 -116.32277344 1.44742187 -117.34277344 1.10742188 C-116.30890503 1.146698 -116.30890503 1.146698 -115.25415039 1.18676758 C-98.44803135 2.07778642 -98.44803135 2.07778642 -82.53808594 -2.38476562 C-78.39332842 -4.34060475 -74.13307654 -5.72518555 -69.78027344 -7.14257812 C-69.00498291 -7.40055176 -68.22969238 -7.65852539 -67.4309082 -7.92431641 C-45.34265357 -15.23598841 -19.72360512 -12.30121453 0 0 Z " fill="#9BD91F" transform="translate(834.3427734375,502.892578125)"/>
<path d="M0 0 C2.15112274 0.81687276 2.15112274 0.81687276 4.1171875 -0.44140625 C4.1171875 0.54859375 4.1171875 1.53859375 4.1171875 2.55859375 C5.00148438 2.82929688 5.88578125 3.1 6.796875 3.37890625 C15.01701014 6.29947191 21.29110623 11.47030008 27.2421875 17.68359375 C35.10725793 25.85503027 42.73096105 30.23380329 54.21972656 30.63134766 C59.18789088 30.7184532 64.14971273 30.66232292 69.1171875 30.55859375 C62.61209024 36.25055385 55.52237857 36.98784958 47.28125 36.78125 C46.36185638 36.77226181 45.44246277 36.76327362 44.49520874 36.75401306 C41.57713541 36.72420018 38.65991775 36.67447276 35.7421875 36.62109375 C32.83165637 36.57297181 29.92135874 36.5296214 27.0105896 36.49888611 C25.20724317 36.47942015 23.40396379 36.45013736 21.60098267 36.40895081 C5.635374 36.22076302 -7.20488713 41.79469466 -18.9921875 52.46875 C-25.92248187 59.68040248 -29.34440456 70.15671475 -29.15625 80.12890625 C-27.73368236 92.76943586 -21.64863407 103.10533726 -11.91015625 111.10546875 C-9.38431192 112.91590052 -6.82994881 114.31018681 -4.00390625 115.59375 C-2.49326001 116.28091321 -1.00778815 117.02459169 0.45703125 117.8046875 C5.76144024 120.62867775 10.84097174 122.40687919 16.65234375 123.8984375 C25.5983983 126.29444894 31.50028549 132.6764065 36.3671875 140.30859375 C38.94923327 144.85691286 40.64490691 149.50842669 42.16015625 154.50390625 C42.83992207 156.67360776 43.60915206 158.81615995 44.4375 160.93359375 C46.71815223 166.93500997 48.41314853 173.13187189 50.1887207 179.296875 C50.80956685 181.45051966 51.43668884 183.6022692 52.06445312 185.75390625 C52.46130898 187.12359034 52.85780657 188.49337829 53.25390625 189.86328125 C53.61186279 191.10062012 53.96981934 192.33795898 54.33862305 193.61279297 C55.1171875 196.55859375 55.1171875 196.55859375 55.1171875 198.55859375 C26.8843908 196.0815388 -1.11790062 181.12325948 -22.8828125 163.55859375 C-23.4082666 163.1399707 -23.9337207 162.72134766 -24.47509766 162.29003906 C-50.14383396 141.74591253 -72.0907382 110.69700584 -76.8828125 77.55859375 C-78.57922596 53.8569793 -76.72097564 33.95738568 -61.3203125 14.87109375 C-45.46607712 -1.96255386 -21.81616715 -6.95274449 0 0 Z " fill="#9BD81F" transform="translate(422.8828125,427.44140625)"/>
<path d="M0 0 C9.36920555 7.19584208 14.55608188 19.28081905 16.75390625 30.6015625 C17.13277985 34.42710153 17.18577981 38.19718878 17.12890625 42.0390625 C17.11730469 43.0504126 17.10570312 44.0617627 17.09375 45.10375977 C16.66330299 64.73815724 7.67817045 82.26084508 -5.74609375 96.4765625 C-14.7217797 104.94571989 -24.77615443 108.28149329 -37.0703125 107.94921875 C-46.18115703 106.95184463 -54.06268787 102.33565026 -60.0859375 95.51953125 C-71.63587114 80.27968446 -73.17235947 64.72912833 -70.73046875 46.24609375 C-67.74277386 29.20581071 -58.40658654 12.16546665 -44.54296875 1.52734375 C-29.89602185 -8.23046864 -15.31714659 -9.53658866 0 0 Z " fill="#053D28" transform="translate(772.24609375,389.3984375)"/>
<path d="M0 0 C9.99406346 7.23552106 15.7703922 18.24047214 18.03808594 30.27880859 C20.80272687 49.48366865 17.04897124 69.01051225 5.65234375 84.875 C-2.04676002 95.14995919 -11.80284776 102.89376503 -24.66015625 105.375 C-34.3970646 106.35471988 -42.26861643 104.42253249 -49.91015625 98.1875 C-60.66840175 87.90451836 -66.1144915 73.06793033 -66.86328125 58.39453125 C-67.20466543 40.31610517 -61.92978457 23.09379702 -49.66015625 9.375 C-49.11746094 8.76398438 -48.57476562 8.15296875 -48.015625 7.5234375 C-44.02718048 3.29190494 -39.79740494 0.09296297 -34.66015625 -2.625 C-34.056875 -2.94597656 -33.45359375 -3.26695312 -32.83203125 -3.59765625 C-21.99738104 -8.49145834 -9.79037772 -5.98061253 0 0 Z " fill="#053D29" transform="translate(518.66015625,344.625)"/>
<path d="M0 0 C3.6905363 0.64822066 6.19517654 2.27506126 9.3125 4.3125 C32.86665315 19.1675585 58.01037249 29.39941711 85 36 C85.76586426 36.19432617 86.53172852 36.38865234 87.32080078 36.58886719 C123.89984478 45.83243597 160.01568945 45.31634706 195.90283203 33.66650391 C200.22521369 32.2928017 204.61303512 31.14705045 209 30 C199.65062143 41.02747216 190.07265474 51.79464262 179.06640625 61.20703125 C177.63464148 62.44933754 176.22704475 63.71984079 174.83984375 65.01171875 C169.6833269 69.80667682 164.29816174 74.19188676 158.6875 78.4375 C158.00558594 78.95787842 157.32367187 79.47825684 156.62109375 80.0144043 C153.20172663 82.56757101 150.1100695 84.672376 146 86 C145.59910156 85.29875 145.19820312 84.5975 144.78515625 83.875 C138.1999629 72.88474533 131.46149433 66.47351889 119 63 C118.40767578 62.81985352 117.81535156 62.63970703 117.20507812 62.45410156 C114.4851039 61.89396515 112.01426829 61.95868705 109.23828125 62.04296875 C108.11873047 62.06423828 106.99917969 62.08550781 105.84570312 62.10742188 C103.50945851 62.16037159 101.17345111 62.22527621 98.83789062 62.30273438 C92.35948106 62.40285862 87.62947341 61.93435396 81.84643555 58.94921875 C74.2583544 55.04832499 64.11238168 56.42170467 56.25 58.625 C46.95061036 61.80637014 41.57525798 66.33340555 37 75 C32.09660411 70.67347422 29.17939469 65.67215954 26 60 C25.36835938 58.9171875 24.73671875 57.834375 24.0859375 56.71875 C19.15876471 48.07191549 15.81480498 39.23206915 12.65625 29.8125 C10.48185434 23.37059883 7.80098757 17.19449173 5 11 C4.51015625 9.91074219 4.0203125 8.82148437 3.515625 7.69921875 C2.35277123 5.12852798 1.18169067 2.5620727 0 0 Z " fill="#A73605" transform="translate(480,557)"/>
<path d="M0 0 C2.59990829 0.21125594 2.59990829 0.21125594 5.5234375 0.0546875 C6.62123535 0.02713379 7.7190332 -0.00041992 8.85009766 -0.02880859 C10.01331543 -0.06055176 11.1765332 -0.09229492 12.375 -0.125 C25.59802022 -0.29292856 36.98268226 0.37897175 47 10 C50.77692848 13.8837507 54.78137435 18.0080923 57 23 C56.87109375 24.9609375 56.87109375 24.9609375 56 27 C49.8006377 31.42646056 42.04209512 33.82822814 34.875 36.25 C34.14804932 36.4960498 33.42109863 36.74209961 32.67211914 36.99560547 C13.39780118 43.25128622 -9.38605167 44.09000715 -28.0625 35.609375 C-36.99518437 30.99739122 -46.65640473 24.75375293 -52 16 C-51.73071301 10.55535363 -48.5883091 6.86252486 -45 3 C-33.25880429 -6.97232561 -12.88755622 -8.59170415 0 0 Z " fill="#F77284" transform="translate(569,618)"/>
<path d="M0 0 C9.99737951 6.70955083 20.30111906 16.21434994 24 28 C24.35252093 31.3860563 24.32417471 34.6141753 24 38 C22.2421875 38.7421875 22.2421875 38.7421875 20 39 C18.1328125 37.4453125 18.1328125 37.4453125 16.125 35.125 C10.49880783 29.14366613 3.98193124 25.19927749 -3 21 C-3.83015625 20.46375 -4.6603125 19.9275 -5.515625 19.375 C-8.43769851 17.75775177 -11.30001923 16.82452701 -14.5 15.875 C-15.6034375 15.54242188 -16.706875 15.20984375 -17.84375 14.8671875 C-22.3574159 13.62704662 -26.54778658 12.88083484 -31.23046875 12.75390625 C-32.19791016 12.72103516 -33.16535156 12.68816406 -34.16210938 12.65429688 C-36.19063048 12.59274717 -38.21928652 12.53550367 -40.24804688 12.48242188 C-41.21162109 12.44826172 -42.17519531 12.41410156 -43.16796875 12.37890625 C-44.48704224 12.34132202 -44.48704224 12.34132202 -45.83276367 12.30297852 C-48 12 -48 12 -50 10 C-50.5625 7.75 -50.5625 7.75 -50 5 C-38.88767395 -8.8993403 -14.06028867 -8.80911378 0 0 Z " fill="#043C24" transform="translate(796,294)"/>
<path d="M0 0 C3.46777752 2.46444225 6.30285296 4.84382574 8.59765625 8.47265625 C8.78515625 12.22265625 8.78515625 12.22265625 8.59765625 15.47265625 C4.67127508 16.56331769 3.11658411 16.39207145 -0.40234375 14.47265625 C-21.12036667 9.72548242 -41.26161365 14.21396808 -59.40234375 24.47265625 C-60.39234375 25.13265625 -61.38234375 25.79265625 -62.40234375 26.47265625 C-65.08984375 26.59765625 -65.08984375 26.59765625 -67.40234375 26.47265625 C-68.18359375 24.375 -68.18359375 24.375 -68.40234375 21.47265625 C-66.98814661 19.07870813 -65.65276595 17.15314865 -63.90234375 15.03515625 C-63.20939209 14.17083984 -63.20939209 14.17083984 -62.50244141 13.2890625 C-59.15803961 9.19719795 -55.73845528 5.52991461 -51.40234375 2.47265625 C-50.80164063 2.03695312 -50.2009375 1.60125 -49.58203125 1.15234375 C-34.19547571 -9.25071202 -15.73305139 -10.00263918 0 0 Z " fill="#043C25" transform="translate(540.40234375,245.52734375)"/>
<path d="M0 0 C4.99915667 1.95238518 9.00303612 5.04380528 11.37109375 9.91796875 C12.91703316 15.03589237 13.0709215 20.30674636 11.08203125 25.30859375 C8.49358106 29.73995346 5.45789048 33.40631827 1 36 C-4.26585064 36.80847979 -9.06458104 36.90594079 -13.9375 34.625 C-17.77862211 29.73629913 -21.21094259 24.22814456 -21.5625 17.875 C-20.67246796 11.74366819 -18.6383366 7.12534592 -13.875 3.0625 C-9.17576883 -0.30868758 -5.71100961 -0.79243674 0 0 Z " fill="#F6F7F7" transform="translate(768,402)"/>
<path d="M0 0 C5.05118352 2.16102808 8.75766693 4.85582414 11 10 C12.660177 15.67521501 12.56998472 21.02181773 10.9375 26.6875 C8.16015619 31.435862 5.12998372 34.96035877 -0.2109375 36.734375 C-4.90410929 37.53525756 -8.47473857 37.13768099 -12.42578125 34.40234375 C-16.66511774 30.62586286 -18.7319993 27.25886301 -19.41015625 21.54296875 C-19.58499405 14.28339908 -19.23368836 9.86199569 -14.4921875 4.19921875 C-9.9395205 -0.05653519 -6.17239254 -1.41869743 0 0 Z " fill="#F7F8F7" transform="translate(514,356)"/>
<path d="M0 0 C2.9375 2.125 2.9375 2.125 5 5 C5.75210332 10.17071032 4.86528874 13.65266535 2 18 C-0.95808407 20.46507006 -2.71272633 20.96976067 -6.5625 21.375 C-10.15055985 20.98357529 -11.52814902 20.56692217 -14 18 C-15.24217258 14.27348227 -15.5341253 10.87057926 -15 7 C-13.37298844 3.86219199 -11.95178666 1.75486528 -9.1875 -0.4375 C-5.781792 -1.31325348 -3.38719708 -0.89136765 0 0 Z " fill="#CE5800" transform="translate(635,503)"/>
<path d="M0 0 C2.75329021 1.79562405 4.52627461 3.05254922 6 6 C6.40310513 10.83726155 6.47543282 13.09831707 4.1875 17.4375 C1.2294035 20.90269876 -0.41862913 20.95385946 -4.9375 21.3125 C-7.78324905 21.24436973 -8.93994132 21.03303227 -11.5 19.625 C-13.84783537 15.5162881 -13.74107308 11.61354322 -13 7 C-10.24998421 0.58758 -6.75367007 -0.57234492 0 0 Z " fill="#CD5700" transform="translate(533,480)"/>
<path d="M0 0 C0.66 0 1.32 0 2 0 C2.41277905 48.97782229 2.41277905 48.97782229 0 68 C-0.33 68 -0.66 68 -1 68 C-2.03965818 63.74235222 -2.15018779 59.60748793 -2.125 55.25 C-2.12886719 54.56550781 -2.13273438 53.88101563 -2.13671875 53.17578125 C-2.12672061 48.12672061 -2.12672061 48.12672061 -1 47 C-0.87767356 45.52749355 -0.8222544 44.04934289 -0.79467773 42.57202148 C-0.77473251 41.63112167 -0.75478729 40.69022186 -0.73423767 39.72080994 C-0.71752518 38.69790359 -0.70081268 37.67499725 -0.68359375 36.62109375 C-0.66281265 35.57929459 -0.64203156 34.53749542 -0.62062073 33.46412659 C-0.55500943 30.12198753 -0.49618669 26.77976715 -0.4375 23.4375 C-0.39432578 21.17772582 -0.35071186 18.91795999 -0.30664062 16.65820312 C-0.19931633 11.10555579 -0.09757188 5.55282679 0 0 Z " fill="#6DC626" transform="translate(911,436)"/>
<path d="M0 0 C1.88497825 2.33737303 3.75923684 4.67390306 5.54296875 7.08984375 C13.09939673 17.20542812 20.94180385 23.29584824 33 27 C32.34 28.65 31.68 30.3 31 32 C26.67945663 30.5385223 23.35663146 28.23410336 19.8125 25.4375 C19.24877686 24.99639893 18.68505371 24.55529785 18.10424805 24.10083008 C3.06120951 12.21379257 3.06120951 12.21379257 1 6 C0.62875 5.071875 0.2575 4.14375 -0.125 3.1875 C-0.41375 2.465625 -0.7025 1.74375 -1 1 C-0.67 0.67 -0.34 0.34 0 0 Z " fill="#6EC023" transform="translate(687,478)"/>
<path d="M0 0 C0.68620031 1.32338632 1.34786461 2.65949948 2 4 C2.44472656 4.763125 2.88945313 5.52625 3.34765625 6.3125 C4.1607817 9.66238209 3.27295347 11.25404496 1.57617188 14.171875 C1.20041016 14.77515625 0.82464844 15.3784375 0.4375 16 C0.08880859 16.60328125 -0.25988281 17.2065625 -0.61914062 17.828125 C-2.95991183 21.75072884 -5.54067731 24.96086126 -9 28 C-9.66 28 -10.32 28 -11 28 C-11.33 27.01 -11.66 26.02 -12 25 C-10.7421875 23.046875 -10.7421875 23.046875 -8.875 20.75 C-4.16750097 14.39157446 -2.17124908 7.5043171 0 0 Z " fill="#E5EEE5" transform="translate(534,406)"/>
<path d="M0 0 C7.39267591 0.40323687 13.67202206 2.67202206 19 8 C19 8.99 19 9.98 19 11 C19.62599617 12.68236471 20.28752268 14.3523962 21 16 C17.85709911 14.59304437 15.5899157 12.88972435 13.0625 10.5625 C9.0437598 6.97620309 5.41240982 4.00229812 0 3 C0 2.01 0 1.02 0 0 Z " fill="#E06A01" transform="translate(463,549)"/>
<path d="M0 0 C0.66 0.99 1.32 1.98 2 3 C1.13117187 3.17015625 0.26234375 3.3403125 -0.6328125 3.515625 C-7.04120977 4.86325217 -11.7924863 6.0626116 -17 10 C-20.375 11.25 -20.375 11.25 -23 12 C-22.57847656 11.52949219 -22.15695312 11.05898438 -21.72265625 10.57421875 C-20.90087891 9.64029297 -20.90087891 9.64029297 -20.0625 8.6875 C-19.24458984 7.76517578 -19.24458984 7.76517578 -18.41015625 6.82421875 C-16.79918441 4.94758042 -16.79918441 4.94758042 -16 2 C-10.57005572 0.19001857 -5.70658818 -0.49194726 0 0 Z " fill="#E26C02" transform="translate(704,584)"/>
<path d="M0 0 C0.66 0.33 1.32 0.66 2 1 C-3.91781611 8.08470943 -10.43141333 14.52848604 -17 21 C-17.99 20.67 -18.98 20.34 -20 20 C-13.4 13.4 -6.8 6.8 0 0 Z " fill="#6CC51D" transform="translate(631,82)"/>
<path d="M0 0 C1.60433809 0.47859241 3.20846416 0.95789558 4.8125 1.4375 C6.15248047 1.83775391 6.15248047 1.83775391 7.51953125 2.24609375 C9.35473055 2.80387873 11.18033726 3.39344575 13 4 C12.34 5.65 11.68 7.3 11 9 C6.39860359 7.51131293 3.49772906 5.25370145 0 2 C0 1.34 0 0.68 0 0 Z " fill="#69BE17" transform="translate(707,501)"/>
<path d="M0 0 C0.33 0 0.66 0 1 0 C1 6.93 1 13.86 1 21 C1.66 21.33 2.32 21.66 3 22 C2.34 22 1.68 22 1 22 C0.67 22.99 0.34 23.98 0 25 C-1.24497833 22.51004335 -1.12934372 20.81005089 -1.1328125 18.02734375 C-1.13410156 17.04572266 -1.13539063 16.06410156 -1.13671875 15.05273438 C-1.13285156 14.02470703 -1.12898437 12.99667969 -1.125 11.9375 C-1.12886719 10.90560547 -1.13273438 9.87371094 -1.13671875 8.81054688 C-1.13542969 7.83021484 -1.13414062 6.84988281 -1.1328125 5.83984375 C-1.13112061 4.48427368 -1.13112061 4.48427368 -1.12939453 3.10131836 C-1 1 -1 1 0 0 Z " fill="#1A4234" transform="translate(702,439)"/>
<path d="M0 0 C0.99 0.33 1.98 0.66 3 1 C-1.95 5.95 -6.9 10.9 -12 16 C-12.99 15.67 -13.98 15.34 -15 15 C-10.05 10.05 -5.1 5.1 0 0 Z " fill="#71C623" transform="translate(455,209)"/>
<path d="M0 0 C0.56332031 0.2371875 1.12664062 0.474375 1.70703125 0.71875 C0.71703125 0.71875 -0.27296875 0.71875 -1.29296875 0.71875 C-1.55078125 1.30527344 -1.80859375 1.89179688 -2.07421875 2.49609375 C-3.38803347 4.89212123 -4.81480885 6.40786552 -6.79296875 8.28125 C-9.01393608 10.39399223 -10.57039292 12.13488626 -12.29296875 14.71875 C-12.37896072 10.59113545 -12.07360692 8.6416097 -9.36328125 5.4375 C-3.11357028 -0.381903 -3.11357028 -0.381903 0 0 Z " fill="#DDE6E4" transform="translate(507.29296875,356.28125)"/>
<path d="M0 0 C6.6 0.33 13.2 0.66 20 1 C20 1.33 20 1.66 20 2 C19.07767578 2.09087891 19.07767578 2.09087891 18.13671875 2.18359375 C17.32847656 2.26738281 16.52023437 2.35117187 15.6875 2.4375 C14.88699219 2.51871094 14.08648438 2.59992188 13.26171875 2.68359375 C10.83912821 2.95265693 10.83912821 2.95265693 8 4 C6.33378384 4.03874921 4.66605828 4.0450286 3 4 C3 3.01 3 2.02 3 1 C2.01 0.67 1.02 0.34 0 0 Z " fill="#ACE253" transform="translate(717,504)"/>
<path d="M0 0 C-0.55728913 3.34373475 -1.35173889 6.03312999 -3 9 C-3.99 9 -4.98 9 -6 9 C-5.6875 5.625 -5.6875 5.625 -5 2 C-2 0 -2 0 0 0 Z " fill="#F3F7EF" transform="translate(535,417)"/>
<path d="M0 0 C0.66 0.66 1.32 1.32 2 2 C-2.29 6.29 -6.58 10.58 -11 15 C-11.66 14.67 -12.32 14.34 -13 14 C-12.22914062 13.24074219 -11.45828125 12.48148438 -10.6640625 11.69921875 C-9.65090904 10.69544634 -8.63789552 9.69153268 -7.625 8.6875 C-7.11710937 8.18798828 -6.60921875 7.68847656 -6.0859375 7.17382812 C-3.77145867 4.87457613 -1.81652517 2.72478775 0 0 Z " fill="#FEEFDE" transform="translate(1105,993)"/>
<path d="M0 0 C0.66 1.32 1.32 2.64 2 4 C1.34 4 0.68 4 0 4 C0.185625 4.680625 0.37125 5.36125 0.5625 6.0625 C1.08523943 9.57232191 0.61378577 12.52188063 0 16 C-0.66 16 -1.32 16 -2 16 C-1.85936865 13.70800823 -1.71234057 11.41640814 -1.5625 9.125 C-1.48128906 7.84882812 -1.40007812 6.57265625 -1.31640625 5.2578125 C-1 2 -1 2 0 0 Z " fill="#72C529" transform="translate(312,824)"/>
<path d="M0 0 C0.66 0.99 1.32 1.98 2 3 C1.525625 3.886875 1.05125 4.77375 0.5625 5.6875 C-0.80746339 8.5918224 -1.3963516 10.89552249 -2 14 C-2.66 14.66 -3.32 15.32 -4 16 C-3.47606294 10.13190493 -2.23891142 5.45126259 0 0 Z " fill="#DAF0C9" transform="translate(686,405)"/>
<path d="M0 0 C3.3 0 6.6 0 10 0 C9.34 1.65 8.68 3.3 8 5 C4.35446828 3.7191375 2.83328987 2.83328987 0 0 Z " fill="#88BF12" transform="translate(710,505)"/>
<path d="M0 0 C-2.3125 2.0625 -2.3125 2.0625 -5 4 C-5.99 3.67 -6.98 3.34 -8 3 C-10.3406065 3.27769908 -12.67624308 3.60539977 -15 4 C-12.19836511 2.13224341 -10.11958197 1.27321694 -6.9375 0.3125 C-6.05964844 0.04050781 -5.18179688 -0.23148437 -4.27734375 -0.51171875 C-2 -1 -2 -1 0 0 Z " fill="#B3E45B" transform="translate(772,495)"/>
<path d="M0 0 C0.66 0.33 1.32 0.66 2 1 C0.02 3.31 -1.96 5.62 -4 8 C-4.99 7.67 -5.98 7.34 -7 7 C-4.69 4.69 -2.38 2.38 0 0 Z " fill="#71C826" transform="translate(267,426)"/>
<path d="M0 0 C0.33 0 0.66 0 1 0 C1.08075665 2.29109597 1.13907731 4.58299267 1.1875 6.875 C1.22230469 8.15117188 1.25710938 9.42734375 1.29296875 10.7421875 C1.19628906 11.81726563 1.09960938 12.89234375 1 14 C0.01 14.66 -0.98 15.32 -2 16 C-1.34 10.72 -0.68 5.44 0 0 Z " fill="#CFEDB8" transform="translate(909,509)"/>
<path d="M0 0 C3 1 3 1 4.75 3.875 C6 7 6 7 5 10 C2.35534962 6.8745041 1.15585285 3.91211733 0 0 Z " fill="#6BC318" transform="translate(132,469)"/>
<path d="M0 0 C0.66 0.66 1.32 1.32 2 2 C0.68 3.65 -0.64 5.3 -2 7 C-2.99 6.67 -3.98 6.34 -5 6 C-3.35 4.02 -1.7 2.04 0 0 Z " fill="#1B503F" transform="translate(469,354)"/>
<path d="M0 0 C0.33 1.32 0.66 2.64 1 4 C1.33 4.66 1.66 5.32 2 6 C-0.375 7.5625 -0.375 7.5625 -3 9 C-3.66 8.67 -4.32 8.34 -5 8 C-3.35 5.36 -1.7 2.72 0 0 Z " fill="#DFF3CC" transform="translate(701,119)"/>
<path d="M0 0 C3.3 0.33 6.6 0.66 10 1 C6.79191085 3.1387261 5.72301503 3.47730962 2 3 C1.34 2.01 0.68 1.02 0 0 Z " fill="#FB9522" transform="translate(1057,817)"/>
<path d="M0 0 C3.87132028 0.57352893 6.08172796 2.48704352 9 5 C5 5 5 5 2.25 2.5 C1.5075 1.675 0.765 0.85 0 0 Z " fill="#86BD24" transform="translate(699,496)"/>
<path d="M0 0 C-3.75 2 -3.75 2 -6 2 C-6 2.66 -6 3.32 -6 4 C-7.98 3.34 -9.96 2.68 -12 2 C-8.09971775 -0.60018816 -4.52565431 -0.15085514 0 0 Z " fill="#B4E35C" transform="translate(785,492)"/>
<path d="M0 0 C3.37462715 0.54723683 5.08235 1.0549 8 3 C8 3.66 8 4.32 8 5 C2.25 3.125 2.25 3.125 0 2 C0 1.34 0 0.68 0 0 Z " fill="#7BBC10" transform="translate(631,443)"/>
<path d="M0 0 C0 3 0 3 -2 5.1875 C-2.66 5.785625 -3.32 6.38375 -4 7 C-4.99 6.67 -5.98 6.34 -7 6 C-4.69 4.02 -2.38 2.04 0 0 Z " fill="#6CC51C" transform="translate(188,395)"/>
<path d="M0 0 C0.33 0 0.66 0 1 0 C0.609375 6.0546875 0.609375 6.0546875 0 8 C-1.98 8.99 -1.98 8.99 -4 10 C-2.68 6.7 -1.36 3.4 0 0 Z " fill="#E6EEEC" transform="translate(783,459)"/>
<path d="M0 0 C0.33 1.32 0.66 2.64 1 4 C0.34 4 -0.32 4 -1 4 C-1.33 4.99 -1.66 5.98 -2 7 C-2.99 6.34 -3.98 5.68 -5 5 C-3.35 3.35 -1.7 1.7 0 0 Z " fill="#235644" transform="translate(724,394)"/>
<path d="M0 0 C0.33 0 0.66 0 1 0 C1.92470553 4.71599818 2.22923777 7.67265609 0 12 C-0.33 12 -0.66 12 -1 12 C-1.14285714 3.42857143 -1.14285714 3.42857143 0 0 Z " fill="#94CF5D" transform="translate(309,840)"/>
<path d="M0 0 C0.99 0.33 1.98 0.66 3 1 C1.68 3.64 0.36 6.28 -1 9 C-2.25541557 5.23375329 -1.37061958 3.62811066 0 0 Z " fill="#69C51D" transform="translate(909,804)"/>
<path d="M0 0 C-0.33 1.32 -0.66 2.64 -1 4 C-2.32 4.33 -3.64 4.66 -5 5 C-5 3.68 -5 2.36 -5 1 C-2 0 -2 0 0 0 Z " fill="#E7F4D8" transform="translate(341,725)"/>
<path d="M0 0 C0.66 0.33 1.32 0.66 2 1 C2 4.63 2 8.26 2 12 C1.67 12 1.34 12 1 12 C0.77213542 10.01432292 0.54427083 8.02864583 0.31640625 6.04296875 C0.02829265 3.80603607 0.02829265 3.80603607 -1 1 C-0.67 0.67 -0.34 0.34 0 0 Z " fill="#76C830" transform="translate(910,483)"/>
<path d="M0 0 C0.66 0 1.32 0 2 0 C2 1.32 2 2.64 2 4 C0.02 4.33 -1.96 4.66 -4 5 C-2.71937515 3.2925002 -1.38232443 1.62626404 0 0 Z " fill="#6DC22D" transform="translate(516,444)"/>
</svg>