<?xml version="1.0" encoding="UTF-8"?>
<svg version="1.1" xmlns="http://www.w3.org/2000/svg" width="1254" height="1254" style="background: transparent;">

<path d="M0 0 C0.70568115 -0.01039307 1.4113623 -0.02078613 2.13842773 -0.03149414 C7.9062193 0.06721113 12.69030365 1.24872232 17.1484375 5.15625 C17.61507812 5.7440625 18.08171875 6.331875 18.5625 6.9375 C19.04460938 7.5253125 19.52671875 8.113125 20.0234375 8.71875 C23.6155811 14.02258619 23.06955366 21.34168228 22.1875 27.4375 C19.19734173 39.52012739 13.35925909 50.71306667 7.1875 61.4375 C8.22648438 60.83421875 9.26546875 60.2309375 10.3359375 59.609375 C17.78541284 55.32467436 25.06000348 51.30862649 33.1875 48.4375 C34.52094194 47.91694478 35.85427876 47.39612021 37.1875 46.875 C45.52056345 43.83915452 52.82252389 41.94442904 61.75 42.0625 C62.63107422 42.05089844 63.51214844 42.03929687 64.41992188 42.02734375 C74.11549155 42.07027616 82.10454371 44.67045021 89.1875 51.4375 C92.25291843 55.65245035 92.83283049 59.6799952 92.6640625 64.7890625 C91.77271646 69.74260855 89.13380647 73.4455178 86.1875 77.4375 C85.445 78.47197266 85.445 78.47197266 84.6875 79.52734375 C78.61880891 87.18906625 69.65323267 92.72936446 61.1875 97.4375 C60.5275 97.4375 59.8675 97.4375 59.1875 97.4375 C59.1875 98.0975 59.1875 98.7575 59.1875 99.4375 C60.01894531 99.68757813 60.85039063 99.93765625 61.70703125 100.1953125 C65.63807891 101.59831267 69.19833354 103.35210007 72.875 105.3125 C73.60686523 105.70252197 74.33873047 106.09254395 75.09277344 106.49438477 C88.8914581 113.97280509 102.07852029 122.44059503 114.1875 132.4375 C114.75807129 132.90655762 115.32864258 133.37561523 115.91650391 133.85888672 C158.05045763 168.70815905 185.24999153 216.56878103 201.1875 268.4375 C201.56261719 269.62601562 201.93773437 270.81453125 202.32421875 272.0390625 C207.34332794 288.66362179 210.38253755 305.72688591 212.9375 322.875 C213.04432098 323.58039917 213.15114197 324.28579834 213.26119995 325.01257324 C215.7438644 341.54505301 216.45182491 358.0498283 216.5 374.75 C216.50261841 375.63002686 216.50523682 376.51005371 216.50793457 377.41674805 C216.51195273 390.1795812 215.9121774 402.75921672 214.4375 415.4375 C214.35899811 416.13082428 214.28049622 416.82414856 214.19961548 417.53848267 C212.59848717 431.29962591 209.62505628 444.82803526 205.3125 458 C205.05621826 458.78971191 204.79993652 459.57942383 204.53588867 460.39306641 C203.76423935 462.745097 202.97789032 465.09171088 202.1875 467.4375 C201.96368652 468.11635254 201.73987305 468.79520508 201.50927734 469.49462891 C197.63926556 481.1104447 192.08718874 491.7009713 186.21557617 502.4230957 C185.06711012 504.5493547 185.06711012 504.5493547 184.1875 507.4375 C217.09675313 486.36937304 251.62070515 457.74200861 261.375 417.94140625 C264.01492255 404.99717733 262.45928595 392.23148021 259.62915039 379.48535156 C256.99312179 367.44111694 256.75042851 356.14673002 263.47265625 345.37890625 C267.71210597 339.887697 273.19058438 336.10095563 280.08203125 334.95703125 C289.80680277 334.49513581 296.50088833 338.00875292 303.875 344.0625 C308.63187715 348.49773777 312.17638808 353.68637305 315.1875 359.4375 C315.1875 360.0975 315.1875 360.7575 315.1875 361.4375 C315.8475 361.4375 316.5075 361.4375 317.1875 361.4375 C317.44402344 360.58414062 317.70054687 359.73078125 317.96484375 358.8515625 C323.80832954 342.53460858 336.5855162 324.47205453 352.1875 316.4375 C358.17945376 313.68916465 364.3776859 313.15963724 370.69140625 315.27734375 C378.77119681 319.33774611 383.20143529 326.10795107 386.1875 334.4375 C389.03843258 346.503771 386.31773943 357.76897356 383.1875 369.4375 C383.80496094 369.17195313 384.42242188 368.90640625 385.05859375 368.6328125 C395.83168301 364.13992596 406.95890551 361.00098656 418.4375 364.9375 C424.95905762 367.87168252 428.53969502 372.67344003 432.125 378.6875 C434.55982739 387.28100843 433.87239779 396.29675063 430.1875 404.4375 C424.88824622 413.50791586 417.66367559 422.18127516 409.1875 428.4375 C408.5275 428.4375 407.8675 428.4375 407.1875 428.4375 C407.1875 429.0975 407.1875 429.7575 407.1875 430.4375 C408.1775 430.540625 409.1675 430.64375 410.1875 430.75 C417.34036248 431.83376704 422.45748803 433.6750319 426.93359375 439.578125 C432.03880376 447.14846757 432.12897562 454.42492758 431.1875 463.4375 C428.0784055 476.08415494 419.59278687 484.48845687 408.84521484 491.24365234 C403.15902109 494.63837223 397.18851202 497.30971678 391.07421875 499.83203125 C390.44942627 500.09653076 389.82463379 500.36103027 389.1809082 500.63354492 C387.77832612 501.19921581 386.35440283 501.71334633 384.91870117 502.1887207 C377.98112097 504.71761572 375.5087761 508.62644111 372.125 515 C371.1014214 516.81462896 370.07409614 518.62714983 369.04296875 520.4375 C368.55489746 521.30503906 368.06682617 522.17257812 367.56396484 523.06640625 C364.81375853 527.80390247 361.50683388 532.0865761 358.1875 536.4375 C356.91385126 538.20630947 355.6431064 539.97721287 354.375 541.75 C347.27197497 551.49407152 339.89910417 560.91919346 331.671875 569.7421875 C329.71829784 571.86163442 327.82879375 574.00770689 325.94921875 576.19140625 C321.90950143 580.82439922 317.60604983 585.16600612 313.25 589.5 C312.11014648 590.6456543 312.11014648 590.6456543 310.94726562 591.81445312 C306.19150834 596.56208786 301.315288 601.09479671 296.1875 605.4375 C295.57672607 605.95497803 294.96595215 606.47245605 294.33666992 607.00561523 C267.89723987 629.18346138 235.71546225 652.36336384 202.8125 663.4375 C197.86409831 665.15685991 193.09037968 667.16058184 188.3046875 669.2890625 C184.33759485 670.75062295 180.32590511 671.60614957 176.1875 672.4375 C176.40365967 673.38963379 176.61981934 674.34176758 176.8425293 675.32275391 C180.98663292 693.70363927 184.70617342 712.05547662 187.125 730.75 C187.22614105 731.51894592 187.3272821 732.28789185 187.43148804 733.08013916 C189.33605596 747.73311022 190.38518249 762.40379833 190.375 777.1875 C190.37564453 778.21029053 190.37628906 779.23308105 190.37695312 780.28686523 C190.29062992 793.36973583 189.24385936 806.40298077 188.1875 819.4375 C197.40223313 813.0311582 206.57715596 806.64934867 215.1875 799.4375 C215.68701172 799.02145508 216.18652344 798.60541016 216.70117188 798.17675781 C224.0074237 792.08529096 231.15144812 785.84019206 238.1875 779.4375 C239.81186435 777.97845868 241.43687427 776.52013579 243.0625 775.0625 C246.72377991 771.7667769 250.36832773 768.45329369 254 765.125 C254.49927002 764.66770508 254.99854004 764.21041016 255.51293945 763.73925781 C258.1712125 761.30056835 260.81872269 758.85118489 263.453125 756.38671875 C270.15704652 750.12515267 276.96087672 744.09930328 284.1875 738.4375 C285.03489746 737.76533447 285.03489746 737.76533447 285.89941406 737.07958984 C316.63521812 712.80799685 351.91390714 696.01239542 391.625 695.9375 C392.37150818 695.93548584 393.11801636 695.93347168 393.887146 695.93139648 C416.0662321 695.97169516 438.43779719 702.13607976 455.1875 717.4375 C456.01765625 718.18773437 456.8478125 718.93796875 457.703125 719.7109375 C463.66594085 725.37025674 468.14901092 731.29164801 472.1875 738.4375 C472.57550781 739.10265625 472.96351563 739.7678125 473.36328125 740.453125 C476.61254883 746.42475191 478.42109887 752.90254274 480.1875 759.4375 C480.64189453 761.06751953 480.64189453 761.06751953 481.10546875 762.73046875 C489.66460476 798.29307613 478.6523765 834.95706294 460.1875 865.4375 C454.18369697 875.00509589 447.01955448 883.33459637 439.1875 891.4375 C438.37539062 892.30117188 437.56328125 893.16484375 436.7265625 894.0546875 C410.81437154 920.97317713 373.10119927 937.18543649 337.1875 945.4375 C336.05538086 945.70771973 336.05538086 945.70771973 334.90039062 945.98339844 C301.03172646 953.96693266 265.62864867 954.18207386 231.1875 950.4375 C229.88449951 950.30142334 229.88449951 950.30142334 228.55517578 950.16259766 C214.73306882 948.71028441 214.73306882 948.71028441 212.1875 947.4375 C210.35322287 947.16086888 208.51815081 946.88874213 206.67993164 946.63964844 C185.60194644 943.72694346 165.05739234 937.96883016 145.1875 930.4375 C144.9090625 931.19417969 144.630625 931.95085938 144.34375 932.73046875 C142.79613181 936.35377756 140.86760841 938.55638346 138.1875 941.4375 C137.5275 941.4375 136.8675 941.4375 136.1875 941.4375 C138.30828686 943.7556556 140.2450245 945.12804358 143.08203125 946.4609375 C143.86151123 946.83524902 144.64099121 947.20956055 145.4440918 947.59521484 C146.2875415 947.99691895 147.13099121 948.39862305 148 948.8125 C169.97005668 959.56359071 191.63731277 972.2156326 209.1875 989.4375 C210.03441406 990.26507812 210.88132812 991.09265625 211.75390625 991.9453125 C217.95018452 998.29077885 223.05062561 1004.29445948 223.5 1013.4375 C223.32007423 1018.99403122 221.33781217 1022.31275032 217.375 1026.1875 C210.25142784 1031.21590388 202.92546807 1030.81193411 194.53515625 1031.00390625 C193.62121094 1031.03355469 192.70726562 1031.06320312 191.765625 1031.09375 C190.93450195 1031.11244141 190.10337891 1031.13113281 189.24707031 1031.15039062 C186.96567997 1031.25751587 186.96567997 1031.25751587 185.1875 1033.4375 C185.37996364 1035.35795237 185.58580221 1037.2785374 185.87695312 1039.18652344 C186.37666161 1042.80862422 186.41122997 1046.41096617 186.4375 1050.0625 C186.458125 1050.78695313 186.47875 1051.51140625 186.5 1052.2578125 C186.54237021 1058.10490132 185.10198175 1062.06090197 181.375 1066.6875 C176.6513598 1070.46641216 171.29432593 1070.79832249 165.4375 1070.75 C164.73085205 1070.74508545 164.0242041 1070.7401709 163.29614258 1070.73510742 C152.67406346 1070.49835974 143.35384566 1066.35257353 134.12109375 1061.30859375 C130.66631293 1059.75219754 127.95023954 1060.07914385 124.1875 1060.4375 C122.18001141 1062.15820451 121.4453666 1063.84013063 120.41015625 1066.23828125 C117.26283499 1073.19480679 112.60666983 1076.9725171 106.5 1081.375 C97.58180961 1084.23555163 89.32719893 1082.8198257 81.00390625 1078.90234375 C79.60978516 1078.17724609 79.60978516 1078.17724609 78.1875 1077.4375 C77.39214844 1077.02628906 76.59679687 1076.61507813 75.77734375 1076.19140625 C70.22074623 1073.06524037 65.1171458 1069.28741522 60 1065.5 C59.33452148 1065.01007568 58.66904297 1064.52015137 57.98339844 1064.01538086 C53.90322293 1060.94003226 50.26629822 1057.6451233 46.70385742 1053.98413086 C45.02984029 1052.27669268 43.27258934 1050.71954707 41.4375 1049.1875 C34.05370594 1042.80732843 27.16837134 1035.79563426 20.84375 1028.3671875 C19.72171985 1027.05991652 18.57476522 1025.77370399 17.40625 1024.5078125 C12.95943977 1019.678285 8.90481911 1014.59963183 4.9375 1009.375 C4.17626831 1008.3840332 4.17626831 1008.3840332 3.3996582 1007.37304688 C-4.8125 996.42169366 -4.8125 996.42169366 -4.8125 991.4375 C-5.71742188 991.54707031 -6.62234375 991.65664062 -7.5546875 991.76953125 C-11.56751397 992.24288597 -15.58413222 992.67595329 -19.60253906 993.09912109 C-21.86533196 993.33765402 -24.12766414 993.58057751 -26.38964844 993.82666016 C-69.33376684 998.41498611 -115.56334196 999.42914594 -157.8125 989.4375 C-157.998125 990.241875 -158.18375 991.04625 -158.375 991.875 C-163.74151036 1005.17461264 -178.06075559 1016.56048772 -189.06640625 1025.25 C-191.51164507 1027.19784316 -193.88063354 1029.21204173 -196.23925781 1031.26318359 C-209.25251776 1042.52761003 -223.25666637 1052.54207355 -238.02832031 1061.36328125 C-239.72783731 1062.3865263 -241.40753112 1063.44248381 -243.0859375 1064.5 C-253.00692018 1070.62091476 -262.12575276 1073.35648754 -273.8125 1072.4375 C-274.61945313 1072.37949219 -275.42640625 1072.32148437 -276.2578125 1072.26171875 C-281.81915702 1071.47936011 -284.78325947 1069.30822354 -288.24609375 1064.9375 C-290.6181113 1061.15173633 -292.21938636 1057.15613404 -293.76953125 1052.9765625 C-294.66812326 1050.3249426 -294.66812326 1050.3249426 -296.8125 1048.4375 C-301.56890623 1047.97118566 -304.6184818 1048.71890413 -308.92749023 1050.64233398 C-319.47266648 1055.09067475 -331.46511143 1056.83390813 -342.8125 1055.4375 C-348.77719572 1052.97443153 -351.30088987 1049.7049152 -354.8125 1044.4375 C-355.80218297 1037.52122714 -354.60868395 1031.9660595 -351.76953125 1025.67578125 C-350.61282269 1022.9704996 -350.11972895 1020.35617501 -349.8125 1017.4375 C-352.34189884 1016.59436705 -354.18818219 1016.23136281 -356.796875 1016.0078125 C-357.95316406 1015.89759766 -357.95316406 1015.89759766 -359.1328125 1015.78515625 C-360.7364118 1015.63820262 -362.34059265 1015.49744635 -363.9453125 1015.36328125 C-371.86459776 1014.58713867 -377.40901858 1012.63561104 -382.8125 1006.4375 C-384.70677347 1002.64895306 -384.42094636 998.55485059 -383.8125 994.4375 C-372.57062857 969.17440147 -333.33332457 954.34575757 -309.41796875 945.09619141 C-305.22805109 943.50998689 -301.02428102 941.96455706 -296.8125 940.4375 C-295.55838441 939.97713237 -294.30445416 939.51625926 -293.05078125 939.0546875 C-290.6413734 938.17236913 -288.22976975 937.2979801 -285.8125 936.4375 C-286.740625 935.57125 -287.66875 934.705 -288.625 933.8125 C-300.26666728 922.17083272 -309.74189683 907.9805631 -317.61767578 893.60620117 C-318.54340062 891.92593682 -319.48829508 890.25622642 -320.44091797 888.59106445 C-324.85441822 880.7110104 -328.13713271 872.82835463 -330.9375 864.25 C-331.14972198 863.60808716 -331.36194397 862.96617432 -331.58059692 862.30480957 C-335.51868782 850.32558198 -338.28348902 838.25358286 -340.25854492 825.79199219 C-340.66579163 823.32589711 -341.11087114 820.88535375 -341.5949707 818.43457031 C-343.88811881 806.46767373 -344.24859136 794.84891601 -344.125 782.6875 C-344.11431937 780.72387706 -344.10365871 778.76025401 -344.09301758 776.79663086 C-343.99218898 763.92176517 -343.52869651 751.20825809 -341.8125 738.4375 C-341.6150082 736.77744788 -341.41841554 735.11728857 -341.22265625 733.45703125 C-339.37320143 718.59756949 -336.13305191 704.02668994 -332.8125 689.4375 C-332.5659668 688.34824219 -332.31943359 687.25898437 -332.06542969 686.13671875 C-328.7342229 671.52757092 -324.83960501 657.1449908 -320.47338867 642.81152344 C-319.79352215 640.36932837 -319.27907123 637.92846427 -318.8125 635.4375 C-319.65296875 635.1796875 -320.4934375 634.921875 -321.359375 634.65625 C-325.07874901 633.34352976 -328.5524815 631.71823092 -332.0625 629.9375 C-332.75142334 629.58929199 -333.44034668 629.24108398 -334.15014648 628.88232422 C-369.81099889 610.69348743 -403.67266582 586.35250099 -429.828125 555.7578125 C-431.3420273 553.98761966 -432.87726703 552.23565218 -434.421875 550.4921875 C-451.05631336 531.61600964 -464.83338129 510.67637181 -477.625 489.0625 C-478.17494629 488.13848389 -478.72489258 487.21446777 -479.29150391 486.26245117 C-481.64014126 482.28204254 -483.92049642 478.31968251 -485.9140625 474.1484375 C-489.84808997 466.05902274 -493.51783713 462.73108993 -502.08984375 459.71484375 C-503.93255859 459.08255859 -503.93255859 459.08255859 -505.8125 458.4375 C-514.91020345 454.37340212 -522.99195957 449.60491806 -530.8125 443.4375 C-532.07707031 442.49003906 -532.07707031 442.49003906 -533.3671875 441.5234375 C-540.35107766 435.56593375 -547.07480437 426.02947247 -548.1171875 416.71484375 C-548.34109068 407.67164322 -547.28615468 400.96447253 -540.92578125 394.26171875 C-534.5194172 388.7316411 -527.04765099 386.61144706 -518.8125 385.4375 C-519.28558594 385.01082031 -519.75867188 384.58414062 -520.24609375 384.14453125 C-530.9056579 374.06677567 -539.73563545 361.8809014 -540.3125 346.8125 C-539.99941364 338.54506334 -537.64979504 333.12273537 -532.0625 327.0625 C-524.71375569 320.34288317 -517.00759337 319.53258596 -507.36328125 319.875 C-499.87062179 320.50650344 -493.37551647 323.9963929 -486.8125 327.4375 C-485.47959211 328.10501687 -484.1465047 328.77217776 -482.8125 329.4375 C-482.956875 328.92445313 -483.10125 328.41140625 -483.25 327.8828125 C-486.1877702 315.76451044 -487.09167032 300.30010714 -480.5234375 289.2734375 C-476.10041641 282.95821487 -470.60602839 276.99620568 -462.8125 275.4375 C-454.17070285 274.36978761 -446.89071948 277.14868416 -439.75 281.9375 C-427.53299707 291.79467943 -418.61999891 309.71453459 -413.8125 324.4375 C-413.8125 325.7575 -413.8125 327.0775 -413.8125 328.4375 C-413.1525 328.4375 -412.4925 328.4375 -411.8125 328.4375 C-411.5340625 327.85484375 -411.255625 327.2721875 -410.96875 326.671875 C-406.91120476 318.83094299 -400.94348024 313.49747342 -393.8125 308.4375 C-393.18730469 307.97859375 -392.56210937 307.5196875 -391.91796875 307.046875 C-385.57898378 303.12471437 -377.98396409 303.54204884 -370.8125 304.4375 C-363.6502383 306.93160038 -358.57339735 313.03337862 -355.17578125 319.6015625 C-353.43735311 323.85455298 -353.27809198 327.88448157 -353.3125 332.4375 C-353.31459473 333.26765625 -353.31668945 334.0978125 -353.31884766 334.953125 C-353.49416832 341.93383184 -355.13068876 347.62033462 -357.56640625 354.11328125 C-362.52986444 367.35435623 -362.799506 384.86808754 -358.8125 398.4375 C-358.4103125 399.95150391 -358.4103125 399.95150391 -358 401.49609375 C-352.98174045 419.24818691 -342.71135586 435.46453165 -330.8125 449.4375 C-329.92432341 450.51963844 -329.03770179 451.60305434 -328.15234375 452.6875 C-323.12071238 458.80742877 -318.03599349 464.49426803 -311.8125 469.4375 C-310.93980469 470.15035156 -310.06710937 470.86320312 -309.16796875 471.59765625 C-304.72451981 475.36914649 -304.72451981 475.36914649 -299.8125 478.4375 C-300.13935791 477.84026123 -300.46621582 477.24302246 -300.80297852 476.62768555 C-328.49778481 425.69398078 -330.15707711 379.75183722 -314.01196289 324.6008606 C-303.86814687 290.29617596 -290.389494 257.14614853 -273.8125 225.4375 C-273.47524902 224.78281738 -273.13799805 224.12813477 -272.79052734 223.45361328 C-259.58298082 197.99364911 -242.74361576 174.05133321 -222.8125 153.4375 C-222.0999707 152.69773926 -221.38744141 151.95797852 -220.65332031 151.19580078 C-210.91952383 141.13808767 -201.14963029 131.65941296 -189.8125 123.4375 C-188.66365255 122.58258186 -187.51522016 121.72710571 -186.3671875 120.87109375 C-173.32404706 111.2491049 -159.46147446 103.34295754 -144.8125 96.4375 C-143.73097656 95.92574219 -142.64945313 95.41398437 -141.53515625 94.88671875 C-134.09619855 91.54144202 -126.47383059 88.85677802 -118.75 86.25 C-117.70666504 85.89719971 -116.66333008 85.54439941 -115.58837891 85.1809082 C-110.11315431 83.37591292 -104.87882289 82.00058814 -99.1875 81.125 C-95.66279108 80.3930168 -94.27384913 79.99092511 -91.953125 77.20703125 C-90.38612242 74.34361675 -89.10532451 71.43344663 -87.8125 68.4375 C-71.66405941 40.27916389 -43.93089367 10.55196551 -12.0234375 1.0234375 C-7.99567029 0.28844348 -4.08900515 0.05332144 0 0 Z " fill="#5EC208" transform="translate(666.8125,79.5625)"/>
<path d="M0 0 C0 0.99 0 1.98 0 3 C-0.99 3.33 -1.98 3.66 -3 4 C-3.70606981 5.31289286 -4.36722969 6.65025041 -5 8 C-6.10521759 9.38751413 -7.25378367 10.74131983 -8.4375 12.0625 C-9.03433594 12.73410156 -9.63117188 13.40570312 -10.24609375 14.09765625 C-11.79296942 15.7754479 -13.37171566 17.40159243 -15 19 C-15.33 18.34 -15.66 17.68 -16 17 C-11.42578296 10.54918109 -6.63450182 4.42300122 0 0 Z " fill="#65CA16" transform="translate(300,1055)"/>
<path d="M0 0 C7 8.20689655 7 8.20689655 7 13 C2.40693504 11.5140084 -0.43569245 9.14985318 -4 6 C-3.34 5.67 -2.68 5.34 -2 5 C-1.34 5.33 -0.68 5.66 0 6 C0 4.02 0 2.04 0 0 Z " fill="#E6F5D8" transform="translate(360,545)"/>
<path d="M0 0 C1.9375 0.3125 1.9375 0.3125 4 1 C4.33 1.99 4.66 2.98 5 4 C2.03 5.65 -0.94 7.3 -4 9 C-2.80100302 5.9168649 -1.52299523 2.93720508 0 0 Z " fill="#E8F7DE" transform="translate(677,133)"/>
<path d="M0 0 C2.83320671 4.24981006 2.53392409 8.00897044 2 13 C0.5 16.625 0.5 16.625 -1 19 C-2.83008048 14.11978539 -1.600262 8.80078599 0 4 C0 2.68 0 1.36 0 0 Z " fill="#7FD63E" transform="translate(757,134)"/>
<path d="M0 0 C2.86724686 0.57344937 3.8614515 0.8614515 6 3 C4.71475739 3.86380259 3.42157581 4.71580369 2.125 5.5625 C1.40570312 6.03816406 0.68640625 6.51382813 -0.0546875 7.00390625 C-0.69664062 7.33261719 -1.33859375 7.66132812 -2 8 C-2.66 7.67 -3.32 7.34 -4 7 C-2.68 4.69 -1.36 2.38 0 0 Z " fill="#E0F4D2" transform="translate(853,580)"/>
<path d="M0 0 C0 0.33 0 0.66 0 1 C-6.95640791 3.81568891 -13.66561007 2.75276679 -21 2 C-21 1.67 -21 1.34 -21 1 C-13.98441385 0.4011085 -7.04321257 -0.13810221 0 0 Z " fill="#DFF5CC" transform="translate(631,1074)"/>
<path d="M0 0 C0.99 0.33 1.98 0.66 3 1 C0.36 3.64 -2.28 6.28 -5 9 C-5.66 8.34 -6.32 7.68 -7 7 C-4.69 4.69 -2.38 2.38 0 0 Z " fill="#65C818" transform="translate(930,836)"/>
<path d="M0 0 C1.21236328 0.01353516 1.21236328 0.01353516 2.44921875 0.02734375 C3.37154297 0.04474609 3.37154297 0.04474609 4.3125 0.0625 C3.9825 0.7225 3.6525 1.3825 3.3125 2.0625 C1.31640625 2.546875 1.31640625 2.546875 -1.125 2.8125 C-2.32962891 2.95945312 -2.32962891 2.95945312 -3.55859375 3.109375 C-5.6875 3.0625 -5.6875 3.0625 -7.6875 1.0625 C-4.80538698 0.10179566 -2.98899956 -0.04331883 0 0 Z " fill="#65CA17" transform="translate(715.6875,123.9375)"/>
<path d="M0 0 C0 4.38968456 -2.12805101 5.76905739 -5 9 C-5.66 8.34 -6.32 7.68 -7 7 C-4.69 4.69 -2.38 2.38 0 0 Z " fill="#66CA1B" transform="translate(916,849)"/>
<path d="M0 0 C2 3 2 3 1.7578125 5.04296875 C1.171875 7.02864583 0.5859375 9.01432292 0 11 C-0.66 11 -1.32 11 -2 11 C-1.34 7.37 -0.68 3.74 0 0 Z " fill="#5FCC10" transform="translate(686,105)"/>
<path d="M0 0 C1 3 1 3 -0.25 5.625 C-2 8 -2 8 -5 9 C-3.7508258 5.54074837 -2.32472205 2.85306797 0 0 Z " fill="#70CE28" transform="translate(289,1065)"/>
<path d="M0 0 C0 0.99 0 1.98 0 3 C-4.455 3.495 -4.455 3.495 -9 4 C-6.43425105 1.43425105 -3.68548192 0 0 0 Z " fill="#72CD28" transform="translate(1006,786)"/>
<path d="M0 0 C0.33 0.99 0.66 1.98 1 3 C-0.28965176 4.37562854 -1.62689293 5.70766393 -3 7 C-3.66 7 -4.32 7 -5 7 C-3.70700306 4.11562221 -2.34058637 2.12780579 0 0 Z " fill="#6ACA1F" transform="translate(890,557)"/>
</svg>