<?xml version="1.0" encoding="UTF-8"?>
<svg version="1.1" xmlns="http://www.w3.org/2000/svg" width="1254" height="1254" style="background: transparent;">

<path d="M0 0 C5.86896872 4.8255965 9.98088333 8.55074439 10.8125 16.3125 C11.87728908 36.83388948 2.21219934 52.76113278 -7.1875 70.3125 C-6.2903125 69.81621094 -5.393125 69.31992188 -4.46875 68.80859375 C17.54227059 56.76595401 43.40231553 44.27738288 69.16796875 50.06640625 C75.56034764 52.53245257 80.84065886 55.95672702 84.07421875 62.2109375 C86.43712679 68.937099 85.30074679 75.03452367 82.375 81.375 C79.00342407 87.49936852 74.77210664 92.42118399 69.8125 97.3125 C68.89017578 98.25029297 68.89017578 98.25029297 67.94921875 99.20703125 C63.0378693 103.8659773 52.86255987 112.3125 45.8125 112.3125 C45.8125 112.9725 45.8125 113.6325 45.8125 114.3125 C46.62847656 114.5496875 47.44445312 114.786875 48.28515625 115.03125 C52.53424433 116.57466184 56.31665216 118.60133895 60.25 120.8125 C61.03914795 121.25464844 61.8282959 121.69679688 62.64135742 122.15234375 C75.08455115 129.21628567 86.66693415 137.35655107 97.8125 146.3125 C98.82441406 147.11816406 99.83632813 147.92382812 100.87890625 148.75390625 C114.41827155 159.75117794 127.37943459 172.3087598 137.8125 186.3125 C138.28961426 186.94559082 138.76672852 187.57868164 139.25830078 188.23095703 C161.26042622 217.53332685 177.4851613 249.37497702 188.1875 284.375 C188.40514008 285.08414551 188.62278015 285.79329102 188.84701538 286.52392578 C191.08805973 293.87184969 193.14450971 301.15707711 194.38671875 308.75219727 C194.82461322 311.38533907 195.36056842 313.98122424 195.92578125 316.58984375 C197.33041315 323.14401389 198.58169899 329.7237387 199.8125 336.3125 C200.0496875 337.53952637 200.286875 338.76655273 200.53125 340.03076172 C204.42417614 360.83094112 205.29443158 381.35265384 205.3125 402.5 C205.31690094 403.74287781 205.32130188 404.98575562 205.32583618 406.26629639 C205.35846717 428.34489514 203.63612243 449.9558735 198.81518555 471.52856445 C198.36594414 473.54055798 197.93479585 475.55585428 197.50585938 477.57226562 C192.44263501 501.05479471 184.05528034 524.11076843 170.8125 544.3125 C190.62707912 532.46419045 207.56410013 517.97833186 216.8125 496.3125 C217.45832031 494.83136719 217.45832031 494.83136719 218.1171875 493.3203125 C223.29992942 480.28678992 224.68054701 466.36142332 225.3125 452.4375 C225.85348863 440.70549908 226.81170103 427.62003501 235.328125 418.73046875 C240.17570691 414.48271389 244.0917316 412.82032978 250.4453125 413.0078125 C257.33499396 413.89460318 262.02512237 417.78307827 266.28125 423.07421875 C272.21812841 431.75235989 273.25656435 442.15176869 274.8125 452.3125 C275.50214844 451.40628906 276.19179688 450.50007813 276.90234375 449.56640625 C287.75484799 435.43716093 301.49796435 418.40474339 320.30078125 415.8359375 C327.81525307 415.52922436 334.04088675 416.19034641 339.8125 421.3125 C345.58487636 428.46190108 346.7052767 435.27438977 345.8125 444.3125 C343.53174415 453.36927738 339.90748087 461.9308583 335.8125 470.3125 C336.92625 469.8175 338.04 469.3225 339.1875 468.8125 C344.11009799 467.16640831 348.7965464 466.97521639 353.9375 466.9375 C355.0829126 466.91719727 355.0829126 466.91719727 356.25146484 466.89648438 C363.89308004 466.95601654 369.61471755 469.41594582 375.30078125 474.578125 C378.65652988 478.42813118 379.59472064 482.6635991 380.25 487.625 C378.52190812 502.19034587 368.90738174 511.54592373 357.8125 520.3125 C356.16271856 521.3401181 354.49987977 522.34786157 352.8125 523.3125 C353.52535156 523.725 354.23820312 524.1375 354.97265625 524.5625 C368.97921592 533.00790879 368.97921592 533.00790879 371.47265625 540.22265625 C373.08279541 550.12408671 371.18974822 556.3459585 365.6875 564.4375 C356.14957944 575.09922389 339.41592342 579.29788974 326.1875 583.1875 C324.60364502 583.65337524 324.60364502 583.65337524 322.98779297 584.12866211 C318.72728571 585.34413349 315.27451638 586.3125 310.8125 586.3125 C310.56628906 586.84746094 310.32007813 587.38242187 310.06640625 587.93359375 C305.01536535 597.51640965 297.75317589 606.06972075 290.8125 614.3125 C290.07386719 615.23675781 289.33523438 616.16101563 288.57421875 617.11328125 C282.41692295 624.68469283 275.69132041 631.64865667 268.8125 638.5625 C267.89895752 639.48522705 266.98541504 640.4079541 266.04418945 641.35864258 C259.94027289 647.43528272 253.56818789 652.97470447 246.8125 658.3125 C246.11286133 658.87678711 245.41322266 659.44107422 244.69238281 660.02246094 C222.49357244 677.87339729 197.43646348 692.18984722 170.8125 702.3125 C170.18859375 702.55291016 169.5646875 702.79332031 168.921875 703.04101562 C163.47728877 705.11696953 157.96719138 706.97728358 152.4375 708.8125 C151.55578125 709.10769531 150.6740625 709.40289063 149.765625 709.70703125 C145.32200771 711.18606516 140.86866514 712.63461122 136.3984375 714.03125 C135.61259277 714.27810547 134.82674805 714.52496094 134.01708984 714.77929688 C131.8125 715.3125 131.8125 715.3125 127.8125 715.3125 C128.15861328 716.44945312 128.15861328 716.44945312 128.51171875 717.609375 C140.45073051 759.32513151 144.39882869 806.41001836 136.8125 849.3125 C136.50723389 851.05418457 136.50723389 851.05418457 136.19580078 852.83105469 C134.96934407 859.74381069 133.68449912 866.64344967 132.33740234 873.53369141 C131.78584441 876.45361345 131.2912682 879.37984189 130.8125 882.3125 C131.56273437 881.6834375 132.31296875 881.054375 133.0859375 880.40625 C137.91433398 876.36590375 142.74682888 872.34063018 147.6875 868.4375 C154.21710159 863.24541357 160.50807723 857.77368136 166.8125 852.3125 C167.57820312 851.64992188 168.34390625 850.98734375 169.1328125 850.3046875 C175.22112711 845.0051424 181.20770306 839.5901289 187.1796875 834.16015625 C231.19201609 794.26045508 280.6159849 757.92085805 342.8125 760.3125 C366.85208614 761.91513908 389.54593968 771.38927155 405.8125 789.3125 C408.44609526 792.50154444 410.68706501 795.76823901 412.8125 799.3125 C413.33199219 800.1271875 413.85148437 800.941875 414.38671875 801.78125 C419.16993706 809.78139346 421.54073065 818.34797558 423.8125 827.3125 C424.06128906 828.25867188 424.31007813 829.20484375 424.56640625 830.1796875 C431.43381164 861.01097605 420.13185351 899.08676091 403.8125 925.3125 C400.6725656 930.12391636 397.286162 934.73860873 393.8125 939.3125 C393.10867188 940.25351562 392.40484375 941.19453125 391.6796875 942.1640625 C387.51655761 947.56796836 383.05794007 951.97751107 377.8125 956.3125 C376.58277777 957.4368927 375.35362295 958.56190623 374.125 959.6875 C352.41297801 978.54378215 324.45292324 990.34036452 296.8125 997.3125 C295.63880859 997.61897461 295.63880859 997.61897461 294.44140625 997.93164062 C287.93915 999.6104603 281.40318694 1001.02661447 274.8125 1002.3125 C273.80348633 1002.51294922 272.79447266 1002.71339844 271.75488281 1002.91992188 C236.36385751 1009.60574579 197.34687963 1008.65453962 161.8125 1003.3125 C160.60883789 1003.13557617 159.40517578 1002.95865234 158.16503906 1002.77636719 C132.63461453 998.92786008 108.27618865 992.4816246 83.8125 984.3125 C83.51601563 984.92609375 83.21953125 985.5396875 82.9140625 986.171875 C81.75367022 988.42682169 80.37663711 990.32178004 78.8125 992.3125 C79.50601563 992.57160156 80.19953125 992.83070313 80.9140625 993.09765625 C91.90909427 997.70608601 101.57780936 1004.75477035 111.00292969 1011.93652344 C112.73532773 1013.25381909 114.47907424 1014.55438462 116.2265625 1015.8515625 C123.85285752 1021.55520524 130.94341786 1027.72119579 137.8125 1034.3125 C138.3703418 1034.84311035 138.92818359 1035.3737207 139.50292969 1035.92041016 C149.79700929 1045.75498424 159.64572044 1055.42046898 160.1875 1070.5 C159.98007846 1076.32583983 158.18142764 1079.7724564 154.3125 1084.125 C150.6503441 1087.32938641 147.96590509 1087.43500479 143.26953125 1087.41015625 C141.65981445 1087.40532227 141.65981445 1087.40532227 140.01757812 1087.40039062 C138.89802734 1087.39201172 137.77847656 1087.38363281 136.625 1087.375 C135.49384766 1087.37048828 134.36269531 1087.36597656 133.19726562 1087.36132812 C130.40229073 1087.34953498 127.6074218 1087.3330765 124.8125 1087.3125 C123.41765355 1090.10219289 123.35743239 1092.77836614 123 1095.875 C121.92061328 1103.67057078 120.30860954 1111.23741442 113.8125 1116.3125 C108.11276238 1120.0803554 99.38414244 1118.91804181 92.8125 1118.3125 C85.13837992 1116.74380646 78.40614973 1113.27094971 71.6015625 1109.484375 C68.36171377 1108.12309402 66.28935876 1107.78642784 62.8125 1108.3125 C60.97458955 1110.03711435 60.97458955 1110.03711435 59.75 1112.4375 C59.25371094 1113.25734375 58.75742187 1114.0771875 58.24609375 1114.921875 C57.77300781 1115.71078125 57.29992187 1116.4996875 56.8125 1117.3125 C53.78695063 1121.64264406 50.93764445 1124.66513214 45.8125 1126.3125 C35.54526197 1127.86989004 27.2105397 1125.11407934 18.8125 1119.3125 C14.49769398 1115.96913009 10.65585291 1112.17829585 6.8125 1108.3125 C6.08417969 1107.62027344 5.35585938 1106.92804688 4.60546875 1106.21484375 C-0.30663512 1101.49651124 -4.6142798 1096.35751499 -8.8359375 1091.01904297 C-9.79012154 1089.81424772 -10.74890237 1088.61308621 -11.7109375 1087.41455078 C-41.55634381 1050.20596857 -41.55634381 1050.20596857 -48.1875 1030.3125 C-53.26182713 1028.35820932 -57.99973122 1028.01101052 -63.421875 1028.09375 C-64.2040741 1028.0999939 -64.98627319 1028.10623779 -65.79217529 1028.1126709 C-72.97880207 1028.21750159 -80.10939604 1028.77294316 -87.26782227 1029.38012695 C-107.40860049 1031.08793182 -127.50199792 1031.62585382 -147.70463562 1031.62435913 C-149.72526582 1031.62499225 -151.74585663 1031.62948666 -153.76647949 1031.63476562 C-167.39999893 1031.65506304 -180.85045894 1031.50169888 -194.38256836 1029.73901367 C-198.0569207 1029.32713728 -201.49979675 1029.23701981 -205.1875 1029.3125 C-205.58839844 1030.20710938 -205.98929687 1031.10171875 -206.40234375 1032.0234375 C-210.2808744 1040.38129989 -214.69028362 1046.68720229 -221.1875 1053.3125 C-222.32168698 1054.61706933 -223.44719877 1055.92924854 -224.5625 1057.25 C-231.61194358 1065.30650695 -239.21257403 1072.54372088 -247.5859375 1079.20703125 C-249.9564481 1081.12550754 -252.19772426 1083.11969206 -254.4375 1085.1875 C-271.7623913 1100.74264434 -292.89055437 1115.97302471 -316.90625 1115.5625 C-323.8045832 1115.03691271 -327.53725861 1112.43275047 -332.1875 1107.3125 C-333.51483718 1105.10723902 -334.76572081 1102.85420974 -335.9375 1100.5625 C-337.71068965 1096.69902853 -337.71068965 1096.69902853 -340.1875 1093.3125 C-346.37943598 1093.25238412 -352.01202895 1094.47894743 -357.875 1096.375 C-367.91449284 1099.40453859 -378.64899869 1100.3039738 -388.1875 1095.3125 C-391.74702148 1092.32071582 -394.61611846 1088.98855253 -396.125 1084.5625 C-396.1559375 1082.95375 -396.1559375 1082.95375 -396.1875 1081.3125 C-396.21199219 1080.36761719 -396.23648438 1079.42273437 -396.26171875 1078.44921875 C-396.39261733 1070.20260794 -396.39261733 1070.20260794 -395.5546875 1066.56640625 C-395.43351563 1065.82261719 -395.31234375 1065.07882812 -395.1875 1064.3125 C-397.55686319 1061.94313681 -398.07309397 1062.05747163 -401.29296875 1062.00390625 C-402.52176758 1061.96620117 -402.52176758 1061.96620117 -403.77539062 1061.92773438 C-405.48886471 1061.8929757 -407.20241225 1061.86164438 -408.91601562 1061.83398438 C-415.61412231 1061.61960313 -420.80812959 1060.8138894 -425.625 1055.75 C-428.10094757 1050.30291534 -428.39435788 1045.56416512 -426.29296875 1039.90234375 C-410.95716763 1011.40833261 -373.25854855 996.45168977 -345.11816406 985.09570312 C-343.52381395 984.44893085 -341.94337495 983.76797989 -340.3671875 983.078125 C-338.1875 982.3125 -338.1875 982.3125 -334.1875 982.3125 C-334.8475 981.6525 -335.5075 980.9925 -336.1875 980.3125 C-336.64640625 979.85101562 -337.1053125 979.38953125 -337.578125 978.9140625 C-338.7033241 977.79432553 -339.83973188 976.68579023 -340.984375 975.5859375 C-346.53527423 970.19046345 -351.3837838 964.37528706 -356.1875 958.3125 C-356.96996094 957.35859375 -357.75242187 956.4046875 -358.55859375 955.421875 C-366.11061803 945.9969487 -372.17832489 935.77048638 -378.1875 925.3125 C-378.85894043 924.17107544 -378.85894043 924.17107544 -379.54394531 923.0065918 C-382.41851465 918.02239002 -384.53243571 913.08949903 -386.3125 907.625 C-388.17428975 901.93584978 -388.17428975 901.93584978 -390.70703125 896.52734375 C-392.91803932 891.72613098 -393.74344878 886.73179142 -394.75 881.5625 C-395.06227539 880.01175781 -395.06227539 880.01175781 -395.38085938 878.4296875 C-395.79562713 876.3649502 -396.20531228 874.29918527 -396.60986328 872.23242188 C-396.96557082 870.43433983 -397.33151527 868.63820424 -397.71435547 866.84570312 C-400.68727212 852.81933736 -401.51009183 839.23443956 -401.44824219 824.94360352 C-401.43755446 822.0149243 -401.44817966 819.08686345 -401.4609375 816.15820312 C-401.47476888 799.74657635 -399.99256875 784.0221679 -396.6875 767.9375 C-396.2589196 765.80498783 -395.8318283 763.67217582 -395.40625 761.5390625 C-395.19701904 760.50007812 -394.98778809 759.46109375 -394.7722168 758.390625 C-394.20907391 755.42607156 -393.7480187 752.46047876 -393.30078125 749.4765625 C-392.10666609 742.16962957 -389.99276752 735.14205097 -387.875 728.0625 C-387.46607793 726.67939686 -387.05755204 725.29617652 -386.64941406 723.9128418 C-385.50497513 720.04317658 -384.34670781 716.17776506 -383.1875 712.3125 C-382.91437988 711.39098145 -382.64125977 710.46946289 -382.35986328 709.52001953 C-380.0932995 701.87570498 -377.55916318 694.45830694 -374.3828125 687.13671875 C-372.79037188 683.37418749 -371.43033889 679.54308609 -370.08203125 675.6875 C-369.24741901 673.47158629 -368.28804818 671.4069353 -367.1875 669.3125 C-367.8784375 669.20550781 -368.569375 669.09851563 -369.28125 668.98828125 C-393.6691896 663.3174297 -419.64057915 643.51440787 -438.1875 627.3125 C-438.94160156 626.66796875 -439.69570313 626.0234375 -440.47265625 625.359375 C-452.64193709 614.71379376 -464.40108853 603.20148757 -474.1875 590.3125 C-475.11420476 589.1260063 -476.04131655 587.93983044 -476.96875 586.75390625 C-487.01314092 573.77580624 -495.70598802 559.98240049 -503.75 545.6875 C-504.20866455 544.87692139 -504.6673291 544.06634277 -505.13989258 543.23120117 C-507.68590696 538.57304462 -509.74672945 533.95866263 -511.51171875 528.94921875 C-517.07384889 513.56880917 -522.7184684 506.95074957 -537.5625 499.95703125 C-538.52800781 499.51568848 -539.49351562 499.0743457 -540.48828125 498.61962891 C-554.26642533 491.94739813 -566.97225149 480.77213789 -574.1875 467.3125 C-576.05532568 461.70902297 -575.77179086 456.15762904 -574 450.5625 C-569.81456404 443.05758036 -565.36140753 439.16903954 -557.1875 436.3125 C-554.36033359 435.95284437 -552.04683136 436.0477471 -549.1875 436.3125 C-549.68378906 435.70664062 -550.18007813 435.10078125 -550.69140625 434.4765625 C-569.98792852 410.67629785 -569.98792852 410.67629785 -569.59765625 394.09375 C-568.92296318 387.87372242 -566.24667664 383.93150734 -561.55859375 379.91796875 C-555.23143657 375.43028584 -548.63921429 375.84949782 -541.1875 376.3125 C-533.05270734 377.77810727 -525.45740532 382.53794034 -518.1875 386.3125 C-518.47625 385.28253906 -518.765 384.25257813 -519.0625 383.19140625 C-522.40820693 370.62453198 -525.53698549 355.45934181 -519.1875 343.3125 C-516.17701303 338.21782975 -511.63160913 335.39784165 -506.1875 333.3125 C-497.7318043 331.75310302 -490.48846006 334.50484315 -483.46484375 339.08984375 C-468.78006236 350.18088117 -459.28363896 368.2673746 -453.1875 385.3125 C-452.42566406 383.71921875 -452.42566406 383.71921875 -451.6484375 382.09375 C-446.17641257 370.7929161 -441.16137724 361.1961139 -430.1875 354.3125 C-424.71426698 352.50905923 -419.31048646 352.52245435 -414.0625 354.875 C-408.94670697 357.72493982 -405.35533066 361.60345065 -403.0390625 366.9765625 C-401.97003109 371.16441948 -401.88814004 375.00909044 -401.9375 379.3125 C-401.94547607 380.56293091 -401.94547607 380.56293091 -401.95361328 381.83862305 C-402.07788291 390.04749689 -402.52336982 398.44266168 -405.1953125 406.26171875 C-410.76131959 423.37609489 -409.01724879 445.84191742 -402.1875 462.3125 C-401.72150391 463.488125 -401.72150391 463.488125 -401.24609375 464.6875 C-396.72790283 474.73692912 -389.36029535 484.03118173 -382.1875 492.3125 C-381.09308594 493.58673828 -381.09308594 493.58673828 -379.9765625 494.88671875 C-371.39325766 504.16047871 -360.7981149 510.59091705 -350.1875 517.3125 C-350.80496094 516.4875 -351.42242187 515.6625 -352.05859375 514.8125 C-361.14634842 502.49434665 -368.93318013 490.12703519 -373.1875 475.3125 C-373.74391045 473.706211 -374.30598636 472.10186779 -374.875 470.5 C-376.12684534 466.77167801 -376.77181826 463.21990838 -377.1875 459.3125 C-377.8475 459.3125 -378.5075 459.3125 -379.1875 459.3125 C-381.94081269 447.23000157 -382.36849178 435.2341183 -382.375 422.875 C-382.38724609 421.65490234 -382.39949219 420.43480469 -382.41210938 419.17773438 C-382.43371443 405.63136767 -379.88683217 393.33423057 -376.3125 380.3125 C-375.97347656 379.04921875 -375.63445312 377.7859375 -375.28515625 376.484375 C-369.44723194 354.90847222 -369.44723194 354.90847222 -365.1875 345.3125 C-364.42588174 343.18823369 -363.71092133 341.0509984 -362.99584961 338.91064453 C-349.74273915 299.38747549 -330.58780333 261.37792078 -308.1875 226.3125 C-307.49269531 225.219375 -306.79789062 224.12625 -306.08203125 223 C-294.69077542 205.51235778 -281.80849724 189.10717574 -267.59912109 173.84179688 C-266.1832722 172.30791976 -264.78657167 170.75861917 -263.39453125 169.203125 C-257.66391124 162.81806678 -251.65564632 156.95667864 -245.1875 151.3125 C-243.58292613 149.83377507 -241.97876481 148.35460237 -240.375 146.875 C-221.54708706 129.97965666 -199.79279803 116.12117778 -177.02636719 105.20166016 C-175.38543003 104.40820647 -173.75806844 103.58681671 -172.1328125 102.76171875 C-165.15667579 99.32916342 -157.98360546 96.73770873 -150.625 94.25 C-149.59511963 93.90163086 -148.56523926 93.55326172 -147.50415039 93.19433594 C-141.61640114 91.26314316 -135.80774406 89.76788927 -129.72875977 88.5871582 C-122.07449973 87.18976837 -122.07449973 87.18976837 -115.81640625 82.9375 C-114.12343874 80.06337719 -114.12343874 80.06337719 -112.79296875 76.8828125 C-110.82512464 72.50663364 -108.28789106 68.82595486 -105.5 64.9375 C-104.98139404 64.21014648 -104.46278809 63.48279297 -103.9284668 62.73339844 C-90.53023425 44.18104685 -74.42791227 26.84000517 -55.1875 14.3125 C-54.52282715 13.87325195 -53.8581543 13.43400391 -53.17333984 12.98144531 C-39.41433758 4.00804171 -16.65503229 -8.72235527 0 0 Z " fill="#66BC11" transform="translate(708.1875,56.6875)"/>
<path d="M0 0 C1.16524984 0.87042759 2.30889665 1.7700547 3.4375 2.6875 C11.11063707 7.98532235 18.65721763 11.58452063 27.4375 14.6875 C28.75073386 15.22738503 30.06334874 15.76878132 31.375 16.3125 C55.35617381 25.21690209 82.79740847 23.06798727 107.07592773 17.03149414 C107.95450439 16.82903076 108.83308105 16.62656738 109.73828125 16.41796875 C110.53403564 16.22614014 111.32979004 16.03431152 112.1496582 15.83666992 C116.87579387 15.52852043 120.01113087 18.78952166 123.4375 21.6875 C124.40300781 22.45578125 125.36851562 23.2240625 126.36328125 24.015625 C145.45330656 39.42036299 160.43952222 57.34402478 172.4375 78.6875 C172.78796387 79.29948242 173.13842773 79.91146484 173.49951172 80.54199219 C178.46631229 89.24820508 182.37347854 98.04325789 185.66796875 107.50390625 C186.48232256 109.81468686 187.33254789 112.11019958 188.1875 114.40625 C198.25014296 141.74124181 201.71048183 168.98458662 201.6875 198 C201.68690582 198.82707458 201.68631165 199.65414917 201.68569946 200.50628662 C201.64920105 213.78741365 201.32176733 227.01594444 199 240.125 C198.87818359 240.86169922 198.75636719 241.59839844 198.63085938 242.35742188 C197.85137014 246.90915433 196.75430632 251.25520627 195.4375 255.6875 C194.98878841 257.36593774 194.54520426 259.04575078 194.10546875 260.7265625 C183.18299647 302.15140578 159.68733527 341.71214234 122.3203125 364.48828125 C114.98124606 368.76202707 107.21439488 372.29255176 99.4375 375.6875 C98.67066895 376.0292627 97.90383789 376.37102539 97.11376953 376.72314453 C61.09623634 392.0567621 10.31750867 390.35791822 -25.70703125 376.08984375 C-29.72499038 374.42333129 -33.65040822 372.58734625 -37.5625 370.6875 C-38.18721191 370.39004883 -38.81192383 370.09259766 -39.45556641 369.78613281 C-79.35756447 350.57752068 -105.02002752 314.37394507 -119.4375 273.5 C-122.71641337 263.94203671 -125.09976139 254.67693439 -126.5625 244.6875 C-127.06368399 242.15089531 -127.59493252 239.62272954 -128.1328125 237.09375 C-129.3889024 230.05964659 -129.7440061 223.19761463 -129.80078125 216.06640625 C-129.81052979 215.05720627 -129.82027832 214.04800629 -129.83032227 213.00822449 C-130.14243566 172.3657938 -130.14243566 172.3657938 -125.5625 152.6875 C-125.19407849 150.92109998 -124.82820481 149.15416668 -124.46484375 147.38671875 C-117.90164823 116.68185982 -105.78806297 86.36267521 -87.5625 60.6875 C-86.51449219 59.20830078 -86.51449219 59.20830078 -85.4453125 57.69921875 C-79.97066628 50.18862758 -73.96439521 43.39990082 -67.5625 36.6875 C-66.77230469 35.83285156 -65.98210937 34.97820313 -65.16796875 34.09765625 C-52.5645881 20.86724173 -35.72376987 9.15828386 -18.21875 3.54296875 C-15.46311717 2.69243065 -15.46311717 2.69243065 -12.46875 1.42578125 C-4.55609962 -1.67856302 -4.55609962 -1.67856302 0 0 Z " fill="#9CD922" transform="translate(515.5625,674.3125)"/>
<path d="M0 0 C2.82185489 2.50042506 5.59839844 5.04265249 8.3671875 7.6015625 C31.0320048 28.24874028 52.40008886 39.33928541 83.25146484 41.14624023 C94.08939464 41.87514264 103.30109621 44.08041744 112 51 C113.05960938 51.81210937 113.05960938 51.81210937 114.140625 52.640625 C121.26860994 58.44686439 126.67810626 65.70455573 128 75 C128.82937129 84.59701064 127.88147727 91.67049514 123 100 C122.55398438 100.77988281 122.10796875 101.55976562 121.6484375 102.36328125 C111.93224494 118.0774586 97.00394232 126.08385724 79.4375 130.4375 C68.28684956 133.37102868 60.10366475 138.96137268 52 147 C51.16597656 147.79664063 50.33195312 148.59328125 49.47265625 149.4140625 C44.41301849 154.32557528 39.86645974 159.47522843 35.453125 164.96875 C7.9392875 198.96674028 -25.42446098 228.04106574 -70.47900391 233.76123047 C-101.24880551 236.6755115 -133.23374877 231.4782197 -158.125 212.1875 C-170.00030801 202.29458691 -178.29356733 191.28175686 -186 178 C-186.42023438 177.31808594 -186.84046875 176.63617187 -187.2734375 175.93359375 C-196.60584177 160.27060951 -200.74141618 141.29540219 -205.37890625 123.84765625 C-207.5980303 115.51611816 -209.92127088 107.65677592 -214 100 C-214.67675781 98.71029297 -214.67675781 98.71029297 -215.3671875 97.39453125 C-220.00981982 89.10053135 -224.5384731 82.74102304 -233.92041016 80.02758789 C-235.39937578 79.63172301 -236.87954664 79.24033576 -238.36083984 78.85327148 C-252.88119739 75.02655555 -265.77160028 67.44932284 -273.75 54.37109375 C-279.02183809 44.37107586 -280.73861751 34.88972703 -277.875 23.8125 C-274.08582803 12.79746521 -266.1782258 3.89137656 -255.875 -1.375 C-253.93738999 -2.29497929 -251.97852114 -3.17165915 -250 -4 C-249.12859375 -4.38027344 -248.2571875 -4.76054687 -247.359375 -5.15234375 C-242.36793742 -6.41181114 -237.50041123 -6.2485168 -232.375 -6.1875 C-230.82039063 -6.1865332 -230.82039063 -6.1865332 -229.234375 -6.18554688 C-224.94853549 -6.1606292 -221.15299317 -6.05748691 -217 -5 C-213.27504319 -4.69907804 -209.54822571 -4.67620621 -205.8125 -4.625 C-204.33620117 -4.56892578 -204.33620117 -4.56892578 -202.83007812 -4.51171875 C-187.91684663 -4.34041169 -174.33676791 -10.40106583 -160.95895386 -16.38928223 C-103.65837345 -41.95894288 -49.85561939 -41.83555777 0 0 Z " fill="#FA8501" transform="translate(673,463)"/>
<path d="M0 0 C6.51198901 5.63600617 11.92222662 11.69329124 16.3671875 19.10546875 C16.88667969 19.92015625 17.40617187 20.73484375 17.94140625 21.57421875 C22.72462456 29.57436221 25.09541815 38.14094433 27.3671875 47.10546875 C27.74037109 48.52472656 27.74037109 48.52472656 28.12109375 49.97265625 C34.98849914 80.8039448 23.68654101 118.87972966 7.3671875 145.10546875 C4.2272531 149.91688511 0.8408495 154.53157748 -2.6328125 159.10546875 C-3.33664062 160.04648437 -4.04046875 160.9875 -4.765625 161.95703125 C-8.92875489 167.36093711 -13.38737243 171.77047982 -18.6328125 176.10546875 C-19.86253473 177.22986145 -21.09168955 178.35487498 -22.3203125 179.48046875 C-44.03233449 198.3367509 -71.99238926 210.13333327 -99.6328125 217.10546875 C-100.41527344 217.30978516 -101.19773437 217.51410156 -102.00390625 217.72460938 C-108.5061625 219.40342905 -115.04212556 220.81958322 -121.6328125 222.10546875 C-122.64182617 222.30591797 -123.65083984 222.50636719 -124.69042969 222.71289062 C-160.08145499 229.39871454 -199.09843287 228.44750837 -234.6328125 223.10546875 C-235.83647461 222.92854492 -237.04013672 222.75162109 -238.28027344 222.56933594 C-263.01775808 218.84035817 -286.80764689 212.64158913 -310.6328125 205.10546875 C-309.91237699 200.92521199 -308.85903706 198.74628455 -306.1953125 195.41796875 C-296.95057366 183.05851503 -290.62904856 169.48712875 -285.36035156 155.04931641 C-284.3934336 152.46589331 -283.29983428 149.94520236 -282.1953125 147.41796875 C-279.747422 141.60625521 -277.65323804 135.6803246 -275.5703125 129.73046875 C-275.21775391 128.72725586 -274.86519531 127.72404297 -274.50195312 126.69042969 C-272.60843931 121.21570496 -271.02070747 115.80393726 -269.6953125 110.16796875 C-267.76202616 103.23137055 -264.35579544 100.22601647 -258.6328125 96.10546875 C-257.000302 94.84746319 -255.38090049 93.57368961 -253.76171875 92.29858398 C-252.58506084 91.37235897 -251.40532307 90.45003419 -250.22265625 89.53149414 C-243.67683599 84.42852264 -237.44422151 78.97685343 -231.21435547 73.49609375 C-229.25654671 71.77462436 -227.28790908 70.06573378 -225.3203125 68.35546875 C-219.9148307 63.61545663 -214.58482473 58.78955908 -209.265625 53.953125 C-157.76651774 7.2662294 -67.76276521 -55.64782699 0 0 Z " fill="#FA8502" transform="translate(1104.6328125,836.89453125)"/>
<path d="M0 0 C2.796875 1.80078125 2.796875 1.80078125 5.75 4.3125 C24.17941454 19.34523752 46.63706134 30.75680368 69.765625 36.359375 C72 37 72 37 73.76171875 37.984375 C77.2179582 39.55265119 80.82837207 39.93465395 84.5625 40.5 C86.20456229 40.75825634 87.84649056 41.01736636 89.48828125 41.27734375 C90.66898193 41.46272705 90.66898193 41.46272705 91.87353516 41.65185547 C94.34705294 42.05681946 96.79586867 42.55405844 99.25 43.0625 C103.01464417 43.71545944 106.75440642 44.21418509 110.55859375 44.56640625 C111.5630957 44.65978271 112.56759766 44.75315918 113.60253906 44.84936523 C118.06710785 45.24826506 122.53275419 45.63231085 127 46 C121.46090764 60.68449502 111.74028926 70.86031975 101 82 C100.24332031 82.79792969 99.48664063 83.59585937 98.70703125 84.41796875 C94.33943693 88.92964865 89.6040179 92.86343435 84.70703125 96.7890625 C82.3077978 98.74860959 80.02560782 100.77509825 77.75 102.875 C60.4251087 118.43014434 39.29694563 133.66052471 15.28125 133.25 C8.3829168 132.72441271 4.65024139 130.12025047 0 125 C-1.32733718 122.79473902 -2.57822081 120.54170974 -3.75 118.25 C-5.52318965 114.38652853 -5.52318965 114.38652853 -8 111 C-14.19193598 110.93988412 -19.82452895 112.16644743 -25.6875 114.0625 C-35.72699284 117.09203859 -46.46149869 117.9914738 -56 113 C-59.55952148 110.00821582 -62.42861846 106.67605253 -63.9375 102.25 C-63.958125 101.1775 -63.97875 100.105 -64 99 C-64.02449219 98.05511719 -64.04898437 97.11023437 -64.07421875 96.13671875 C-64.20511733 87.89010794 -64.20511733 87.89010794 -63.3671875 84.25390625 C-63.24601562 83.51011719 -63.12484375 82.76632812 -63 82 C-65.36936319 79.63063681 -65.88559397 79.74497163 -69.10546875 79.69140625 C-69.92466797 79.66626953 -70.74386719 79.64113281 -71.58789062 79.61523438 C-73.30136471 79.5804757 -75.01491225 79.54914438 -76.72851562 79.52148438 C-83.42662231 79.30710313 -88.62062959 78.5013894 -93.4375 73.4375 C-95.91344757 67.99041534 -96.20685788 63.25166512 -94.10546875 57.58984375 C-78.77896801 29.11311277 -41.06435114 14.09949328 -12.92285156 2.78320312 C-11.36707367 2.14951401 -9.83201954 1.4650988 -8.3046875 0.765625 C-5.28596881 -0.23720358 -3.16629384 -0.40999446 0 0 Z " fill="#FA8503" transform="translate(376,1039)"/>
<path d="M0 0 C3.36927103 1.65392456 6.5083122 3.69553924 9.6875 5.6875 C10.61288574 6.2640332 11.53827148 6.84056641 12.49169922 7.43457031 C21.14042465 12.92042625 29.19158954 19.0292432 37.12988281 25.48828125 C38.71073046 26.7661675 40.31752266 28.0118574 41.9296875 29.25 C48.13561318 34.07892697 53.71741631 39.48349894 59.3125 45 C60.07820312 45.74797852 60.84390625 46.49595703 61.6328125 47.26660156 C70.13797853 55.782939 76.92945178 64.786408 77.375 77.1875 C77.16757846 83.01333983 75.36892764 86.4599564 71.5 90.8125 C67.8378441 94.01688641 65.15340509 94.12250479 60.45703125 94.09765625 C59.38388672 94.09443359 58.31074219 94.09121094 57.20507812 94.08789062 C56.08552734 94.07951172 54.96597656 94.07113281 53.8125 94.0625 C52.68134766 94.05798828 51.55019531 94.05347656 50.38476562 94.04882812 C47.58979073 94.03703498 44.7949218 94.0205765 42 94 C40.60515355 96.78969289 40.54493239 99.46586614 40.1875 102.5625 C39.10811328 110.35807078 37.49610954 117.92491442 31 123 C25.30026238 126.7678554 16.57164244 125.60554181 10 125 C2.32587992 123.43130646 -4.40635027 119.95844971 -11.2109375 116.171875 C-14.45078623 114.81059402 -16.52314124 114.47392784 -20 115 C-21.83791045 116.72461435 -21.83791045 116.72461435 -23.0625 119.125 C-23.55878906 119.94484375 -24.05507813 120.7646875 -24.56640625 121.609375 C-25.27603516 122.79273438 -25.27603516 122.79273438 -26 124 C-29.02554937 128.33014406 -31.87485555 131.35263214 -37 133 C-47.26723803 134.55739004 -55.6019603 131.80157934 -64 126 C-68.31480602 122.65663009 -72.15664709 118.86579585 -76 115 C-76.72832031 114.30777344 -77.45664062 113.61554688 -78.20703125 112.90234375 C-83.11913512 108.18401124 -87.4267798 103.04501499 -91.6484375 97.70654297 C-92.60262154 96.50174772 -93.56140237 95.30058621 -94.5234375 94.10205078 C-130 49.87304688 -130 49.87304688 -130 37 C-129.24501221 37.06928711 -128.49002441 37.13857422 -127.7121582 37.20996094 C-108.90910969 38.81046276 -87.27933815 40.47325973 -69 35 C-68.10941895 34.74186523 -67.21883789 34.48373047 -66.30126953 34.21777344 C-48.19939561 28.86982901 -32.29002033 22.05547118 -17.63671875 10.06640625 C-15.44962746 8.35237471 -13.53186949 7.10055134 -11 6 C-11 5.34 -11 4.68 -11 4 C-5.52610268 -1.47389732 -5.52610268 -1.47389732 0 0 Z " fill="#FA8503" transform="translate(791,1050)"/>
<path d="M0 0 C19.26415571 -0.88663478 38.27804625 5.72759435 52.67578125 18.49609375 C65.25518922 30.79903121 71.19385483 46.03268126 71.48828125 63.49609375 C71.46121717 87.85646981 58.2185272 108.60060836 41.98828125 125.74609375 C22.12489528 145.02424998 -4.95621708 157.79885089 -31.88671875 163.24609375 C-32.5327002 163.38208984 -33.17868164 163.51808594 -33.84423828 163.65820312 C-51.77475488 167.41818347 -69.17871107 168.53366185 -87.44921875 168.37109375 C-89.44335482 168.36103137 -91.43749587 168.35191135 -93.43164062 168.34375 C-98.25012637 168.32202335 -103.06836516 168.28767816 -107.88671875 168.24609375 C-106.92507687 167.11679562 -105.96239385 165.988384 -104.99926758 164.86035156 C-104.46328445 164.23187317 -103.92730133 163.60339478 -103.37507629 162.95587158 C-101.85233171 161.20659101 -100.2632505 159.58474376 -98.57421875 157.99609375 C-94.88866727 154.36674894 -91.70234395 150.40954049 -88.453125 146.390625 C-58.11270263 109.03480021 -58.11270263 109.03480021 -35.37890625 103.65234375 C-19.47813541 99.75827742 -5.64156895 91.36850092 3.11328125 77.24609375 C8.52204868 67.39860957 10.66058534 58.99229566 8.65234375 47.640625 C5.33237856 36.60662304 -2.26727657 28.36768607 -12.3203125 22.9296875 C-14.49060466 21.93786764 -16.64065225 21.05053601 -18.88671875 20.24609375 C-20.23902588 19.74625977 -20.23902588 19.74625977 -21.61865234 19.23632812 C-24.96091693 18.22361147 -27.90001932 17.84520705 -31.37890625 17.61328125 C-32.57773437 17.52949219 -33.7765625 17.44570313 -35.01171875 17.359375 C-36.86796875 17.24142578 -36.86796875 17.24142578 -38.76171875 17.12109375 C-40.02242187 17.03472656 -41.283125 16.94835937 -42.58203125 16.859375 C-45.68319183 16.64793223 -48.7846538 16.44374632 -51.88671875 16.24609375 C-51.26539063 15.93760498 -50.6440625 15.62911621 -50.00390625 15.3112793 C-48.65958229 14.63493181 -47.32682947 13.93465534 -46.01171875 13.203125 C-31.45604346 5.36339548 -16.35613788 1.39436629 0 0 Z " fill="#9CD922" transform="translate(790.88671875,487.75390625)"/>
<path d="M0 0 C0.98097656 -0.00322266 1.96195312 -0.00644531 2.97265625 -0.00976562 C22.77488455 0.13525735 39.76240179 9.59514631 54.109375 22.79296875 C60.05884448 28.22436645 67.59755436 30.62533081 75.5 31.3125 C75.5 31.6425 75.5 31.9725 75.5 32.3125 C71.58334892 32.34154864 67.6667256 32.35931517 63.75 32.375 C62.63882813 32.38337891 61.52765625 32.39175781 60.3828125 32.40039062 C59.31289063 32.40361328 58.24296875 32.40683594 57.140625 32.41015625 C56.15610352 32.41539307 55.17158203 32.42062988 54.15722656 32.42602539 C51.74585379 32.32300368 49.81744306 31.92133206 47.5 31.3125 C32.50898097 29.96797873 19.139938 30.43051218 6.578125 39.3984375 C-2.63551756 47.1673373 -8.36487023 56.13056142 -9.8515625 68.15625 C-10.37289531 78.58290611 -6.7999867 88.4925225 -0.15625 96.54296875 C9.95686895 107.34778687 21.88826226 112.13376342 35.92578125 115.9765625 C44.6791167 118.60782566 50.83918347 126.66062694 55.1171875 134.3984375 C61.21202791 147.24236673 64.55664504 161.24070144 68.25317383 174.91650391 C70.06166894 181.5541927 71.96324486 187.99057576 74.77880859 194.28149414 C75.5 196.3125 75.5 196.3125 75.5 200.3125 C68.92709692 199.77244183 63.11465703 198.54902349 56.875 196.4375 C55.97692627 196.13432861 55.07885254 195.83115723 54.15356445 195.51879883 C32.81545994 188.04153225 12.50887457 177.284542 -4.5 162.3125 C-5.33917969 161.58289063 -6.17835938 160.85328125 -7.04296875 160.1015625 C-9.56377746 157.87387108 -12.03875903 155.60575151 -14.5 153.3125 C-15.31210937 152.56613281 -16.12421875 151.81976562 -16.9609375 151.05078125 C-29.2108459 139.36119989 -37.85529609 125.30438042 -45.5 110.3125 C-46.0878125 109.16394531 -46.675625 108.01539063 -47.28125 106.83203125 C-55.73537022 88.78075925 -60.97262 64.68345696 -54.5 45.3125 C-54.22800781 44.35988281 -53.95601563 43.40726562 -53.67578125 42.42578125 C-48.52836983 25.72580845 -38.88523453 13.40045157 -23.6171875 4.75 C-15.58169289 1.0444085 -8.85823371 -0.14550318 0 0 Z " fill="#9CD923" transform="translate(404.5,426.6875)"/>
<path d="M0 0 C2.79532889 0.61817916 5.1806488 1.47036434 7.73828125 2.75 C8.46362061 3.10650635 9.18895996 3.4630127 9.9362793 3.83032227 C10.72043213 4.21631592 11.50458496 4.60230957 12.3125 5 C36.88273232 16.82975959 63.27375591 26.4378925 90 32 C91.58047119 32.34272949 91.58047119 32.34272949 93.19287109 32.69238281 C111.18076461 36.46185773 128.77004219 37.48099702 147.125 37.5 C148.14814301 37.50440094 149.17128601 37.50880188 150.22543335 37.51333618 C169.33616531 37.54766626 187.96345332 35.69951692 206.5 30.9375 C208.06427734 30.55368164 208.06427734 30.55368164 209.66015625 30.16210938 C213.67180102 29.16560247 217.57614115 28.15226461 221.46875 26.75390625 C224.2325623 25.93073376 225.31169003 26.20141799 228 27 C227.32453125 28.07378906 226.6490625 29.14757812 225.953125 30.25390625 C225.05201006 31.69005819 224.15097252 33.1262587 223.25 34.5625 C222.8065625 35.26697266 222.363125 35.97144531 221.90625 36.69726562 C219.87337394 39.94089875 217.8869235 43.17937486 216.05859375 46.54296875 C213.74648162 50.63259724 210.8133941 54.15034426 207.8125 57.75 C207.02262695 58.7090625 207.02262695 58.7090625 206.21679688 59.6875 C205.09986075 61.04330299 203.9795016 62.39629139 202.85620117 63.74682617 C201.53524767 65.35028268 200.22968315 66.96647036 198.93481445 68.59106445 C193.51108401 75.36158301 187.72142617 81.58263902 181.5625 87.6875 C180.68529297 88.57244141 179.80808594 89.45738281 178.90429688 90.36914062 C166.38231229 102.85421442 166.38231229 102.85421442 161 106 C158.80200195 105.83105469 158.80200195 105.83105469 157 105 C155.578125 102.99609375 155.578125 102.99609375 154.25 100.4375 C147.62481046 88.88461973 138.18774142 82.99722098 125.5625 79.125 C118.96708689 77.60431845 112.43099983 77.97092127 105.71240234 78.12744141 C99.45981705 78.20253071 94.77909822 77.23487518 88.94921875 74.90625 C78.77042531 71.77846182 67.50634048 73.65722907 58 78 C50.79338265 82.0619116 44.39315071 88.36541091 41 96 C36.31464162 94.52776583 34.54526107 90.57303441 32.25 86.5625 C31.81679443 85.81693848 31.38358887 85.07137695 30.93725586 84.30322266 C26.53182515 76.51639169 23.11118689 68.36764241 19.82861328 60.05810547 C19.05933112 58.14736634 18.23305614 56.25984376 17.40234375 54.375 C15.99374313 50.98494169 14.97397716 47.66327639 14 44.125 C10.93494555 33.2827698 7.25586829 22.63536811 3.65820312 11.96142578 C3.41789871 11.24709381 3.1775943 10.53276184 2.93000793 9.79678345 C2.47128658 8.43411737 2.01112134 7.07193631 1.54936218 5.71029663 C0 1.11121612 0 1.11121612 0 0 Z " fill="#AA3A02" transform="translate(483,544)"/>
<path d="M0 0 C5.71195941 2.24258872 10.77426537 2.20317003 16.8125 2.0625 C32.0146769 1.75007163 45.42802401 5.01049624 56.75 15.8125 C61.23115453 20.58951176 66.3125 26.15464034 66.3125 33 C57.30061521 38.54794157 48.31733225 42.96289789 38.26904297 46.32080078 C36.95567842 46.77672543 35.65671237 47.27623421 34.37548828 47.81591797 C27.06340542 50.70874247 19.55759228 50.54984576 11.8125 50.5 C11.10073608 50.49856995 10.38897217 50.49713989 9.65563965 50.4956665 C-1.47816662 50.44019491 -11.39424526 49.4651105 -21.6875 45 C-22.79609375 44.53078125 -23.9046875 44.0615625 -25.046875 43.578125 C-35.69526753 38.65125682 -43.63358282 31.39663706 -51.6875 23 C-49.10686496 14.32308218 -43.92763627 7.96783909 -36.1796875 3.28515625 C-24.98468477 -2.48781537 -11.96828465 -4.78048459 0 0 Z " fill="#F46D7C" transform="translate(574.6875,619)"/>
<path d="M0 0 C10.3081459 8.86738199 19.95754547 22.2162637 22.3125 35.875 C22.55516034 40.55412446 22.72447108 45.20397497 22.3125 49.875 C21.6525 50.535 20.9925 51.195 20.3125 51.875 C18.39453125 51.78125 18.39453125 51.78125 16.3125 50.875 C14.63671875 48.90625 14.63671875 48.90625 13 46.375 C9.65137061 41.35205592 6.07049145 36.596579 2.3125 31.875 C1.69761719 31.05644531 1.08273437 30.23789062 0.44921875 29.39453125 C-6.4558793 21.2523224 -15.75491737 16.33888386 -25.6875 12.875 C-26.54601562 12.51148438 -27.40453125 12.14796875 -28.2890625 11.7734375 C-41.75866554 8.21250796 -58.33656748 9.49824736 -70.6875 15.875 C-71.72777344 16.40609375 -72.76804687 16.9371875 -73.83984375 17.484375 C-79.9121096 20.82297262 -85.31716342 24.73624578 -90.62890625 29.17578125 C-94.19704137 32.12101612 -96.08933396 33.12354952 -100.6875 32.875 C-102.18624064 26.67898686 -100.67956314 23.57778266 -97.76171875 18.109375 C-88.22647789 3.24086383 -73.68356167 -8.2222899 -56.6875 -13.125 C-36.60712238 -17.32591582 -16.23781766 -12.4542485 0 0 Z " fill="#043A1F" transform="translate(787.6875,410.125)"/>
<path d="M0 0 C12.52410333 9.58283664 21.31511253 21.90078695 25.515625 37.22265625 C25.84443537 39.77624 26.09181613 42.3413634 26.265625 44.91015625 C26.36359375 46.21339844 26.4615625 47.51664062 26.5625 48.859375 C26.515625 52.22265625 26.515625 52.22265625 24.515625 55.22265625 C22.1875 55.87109375 22.1875 55.87109375 19.515625 55.22265625 C17.67805292 52.77053192 16.23572685 50.50692425 14.765625 47.84765625 C10.67055966 40.88358845 6.29152519 34.92437057 0.515625 29.22265625 C-0.09410156 28.59101563 -0.70382812 27.959375 -1.33203125 27.30859375 C-11.78155699 17.23622711 -26.43326348 12.18400732 -40.734375 11.91015625 C-46.03531926 12.03802991 -50.44181003 12.62584401 -55.484375 14.22265625 C-56.20238281 14.3825 -56.92039062 14.54234375 -57.66015625 14.70703125 C-68.35414354 17.29739151 -78.52147543 24.0787362 -86.7734375 31.2265625 C-89.09773177 32.57974752 -90.84374406 32.46390991 -93.484375 32.22265625 C-94.484375 31.22265625 -94.484375 31.22265625 -94.71875 28.51171875 C-93.97980329 18.14183319 -84.6077106 9.15417483 -77.13427734 2.57275391 C-54.31612138 -16.09910204 -23.91790679 -17.11108111 0 0 Z " fill="#043A1F" transform="translate(517.484375,362.77734375)"/>
<path d="M0 0 C0.88558594 -0.00708984 1.77117188 -0.01417969 2.68359375 -0.02148438 C15.93347985 0.10498297 26.58373805 6.00381675 36.1328125 14.8984375 C43.440019 22.73620025 47.86233459 30.74862957 47.5 41.4375 C45.4375 42.375 45.4375 42.375 42.5 42.4375 C41.1015625 41.26171875 41.1015625 41.26171875 39.5625 39.5625 C34.85502344 34.42333345 29.07823856 30.97921083 23.15136719 27.42724609 C21.7705023 26.59962542 20.40302827 25.74971614 19.0390625 24.89453125 C6.84482747 17.94167794 -8.40229721 17.01748573 -22.1328125 16.61328125 C-25.5 16.4375 -25.5 16.4375 -26.5 15.4375 C-27 13.25 -27 13.25 -26.5 10.4375 C-19.75677582 2.19343283 -10.18923373 -0.2298881 0 0 Z " fill="#04391E" transform="translate(771.5,290.5625)"/>
<path d="M0 0 C3.31433478 2.83674834 6.52131262 5.65531829 7.421875 10.06640625 C7.4375 12 7.4375 12 7 15 C2.51578701 16.33518701 -0.23939514 15.50654062 -4.625 14.0625 C-22.42419365 8.83019111 -40.5100063 11.78062323 -56.6875 20.3125 C-57.67689575 20.87324219 -57.67689575 20.87324219 -58.6862793 21.4453125 C-61.67681714 23.09739807 -63.5007836 24.04550321 -66.95703125 23.73046875 C-67.63121094 23.48941406 -68.30539062 23.24835938 -69 23 C-69.47045254 17.52738887 -67.35074727 15.3254011 -63.9765625 11.265625 C-63.32429688 10.51796875 -62.67203125 9.7703125 -62 9 C-61.47148437 8.37609375 -60.94296875 7.7521875 -60.3984375 7.109375 C-44.71766717 -10.03905363 -18.98839513 -13.1124131 0 0 Z " fill="#04381E" transform="translate(540,254)"/>
<path d="M0 0 C2.69990662 1.79993774 4.5418865 3.083773 6 6 C6.37766377 11.00404498 6.11200434 13.99885156 3 18 C1.375 19.875 1.375 19.875 -1 21 C-4.16400659 21.19523816 -6.96464255 20.92555407 -10 20 C-12.88035642 17.11964358 -12.98684028 15.10363276 -13.5 11.0625 C-13.338853 6.33552137 -11.31277453 4.23389894 -8 1 C-5.14675563 -0.42662219 -3.16545451 -0.31033868 0 0 Z " fill="#CB5C01" transform="translate(642,497)"/>
<path d="M0 0 C3.75 0.375 3.75 0.375 6.6875 2.1875 C9.69362419 6.83332829 9.87927512 10.99481067 8.75 16.375 C7.01905046 19.22131492 5.85230849 19.73923734 2.75 21.375 C-1.62011057 22.14168606 -3.44343304 21.88982997 -7.1875 19.5 C-9.70243497 15.68949247 -9.96139589 13.24505294 -9.75390625 8.75390625 C-8.99500399 5.17118162 -7.10351561 3.53253619 -4.25 1.375 C-3.25 0.375 -3.25 0.375 0 0 Z " fill="#CB5B01" transform="translate(535.25,476.625)"/>
<path d="M0 0 C0.33 0.66 0.66 1.32 1 2 C-0.093125 2.309375 -1.18625 2.61875 -2.3125 2.9375 C-10.06725594 5.81270363 -16.31150535 12.16530573 -22 18 C-22.33 17.34 -22.66 16.68 -23 16 C-21.37638226 13.14363546 -19.62020039 10.43435418 -17.8046875 7.69921875 C-16.81527389 6.1666655 -15.90145241 4.58588849 -15 3 C-15.33 2.34 -15.66 1.68 -16 1 C-5.38758389 -2.90100671 -5.38758389 -2.90100671 0 0 Z " fill="#DD6B01" transform="translate(725,568)"/>
<path d="M0 0 C4.94424166 -0.35316012 7.67122397 0.69745956 12 3 C14.73572585 3.69907414 14.73572585 3.69907414 17 4 C16.67 4.66 16.34 5.32 16 6 C16.5448749 7.9069862 16.5448749 7.9069862 17.4375 9.9375 C18.55710854 12.62355636 19 14.02331385 19 17 C15.68186846 15.59645195 14.00425183 14.01783631 11.8125 11.1875 C8.15193731 6.81869801 4.1111954 4.41072255 -1 2 C-0.67 1.34 -0.34 0.68 0 0 Z " fill="#DF6F01" transform="translate(468,539)"/>
<path d="M0 0 C0.66 0.66 1.32 1.32 2 2 C1.25556641 2.61875 1.25556641 2.61875 0.49609375 3.25 C-3.91963513 7.00378849 -7.74977425 10.86015306 -11.359375 15.3984375 C-13.21905746 17.21384181 -14.46324316 17.61397179 -17 18 C-11.72898586 11.58930713 -5.90871848 5.81409488 0 0 Z " fill="#66C114" transform="translate(634,86)"/>
<path d="M0 0 C0.66 0.33 1.32 0.66 2 1 C-0.64 4.3 -3.28 7.6 -6 11 C-6.66 10.67 -7.32 10.34 -8 10 C-6.5682479 4.98886765 -4.01554307 3.05530451 0 0 Z " fill="#72C525" transform="translate(149,435)"/>
<path d="M0 0 C4.875 4.625 4.875 4.625 6 8 C1.89041233 6.54955729 -1.43258745 4.48889248 -5 2 C-4.360625 1.855625 -3.72125 1.71125 -3.0625 1.5625 C-1.02454854 1.18992819 -1.02454854 1.18992819 0 0 Z " fill="#E1F2CE" transform="translate(352,566)"/>
<path d="M0 0 C0.33 0 0.66 0 1 0 C1.27737409 7.07303935 -0.28576112 11.0909836 -4 17 C-5 15 -5 15 -4.00390625 11.5234375 C-3.53099953 10.13802064 -3.05018356 8.75528453 -2.5625 7.375 C-2.31951172 6.66859375 -2.07652344 5.9621875 -1.82617188 5.234375 C-1.22412795 3.48726713 -0.61291983 1.74332214 0 0 Z " fill="#FDE4CA" transform="translate(1127,945)"/>
<path d="M0 0 C5.20112114 2.1772135 7.68090651 4.60708214 11 9 C10.01 9.33 9.02 9.66 8 10 C7.4225 9.236875 6.845 8.47375 6.25 7.6875 C4.16642802 4.99108421 4.16642802 4.99108421 1.75 3.3125 C1.1725 2.879375 0.595 2.44625 0 2 C0 1.34 0 0.68 0 0 Z " fill="#6EC51D" transform="translate(1075,526)"/>
<path d="M0 0 C0 3.6987636 -0.84352062 4.35773852 -3.25 7.0625 C-4.15492188 8.10083984 -4.15492188 8.10083984 -5.078125 9.16015625 C-6.97018869 10.97146113 -8.60605599 11.9778071 -11 13 C-7.61227103 8.30840284 -4.21814817 3.9700218 0 0 Z " fill="#6CC320" transform="translate(441,230)"/>
<path d="M0 0 C0.33 1.32 0.66 2.64 1 4 C-3.455 7.96 -3.455 7.96 -8 12 C-8.66 11.67 -9.32 11.34 -10 11 C-9.44570313 10.45730469 -8.89140625 9.91460938 -8.3203125 9.35546875 C-7.23363281 8.28232422 -7.23363281 8.28232422 -6.125 7.1875 C-5.40570312 6.47980469 -4.68640625 5.77210938 -3.9453125 5.04296875 C-1.84641063 2.95600806 -1.84641063 2.95600806 0 0 Z " fill="#AECF21" transform="translate(793,567)"/>
<path d="M0 0 C0.66 0.33 1.32 0.66 2 1 C0.68 1.33 -0.64 1.66 -2 2 C-2 2.66 -2 3.32 -2 4 C-5.3125 5.625 -5.3125 5.625 -9 7 C-9.99 6.34 -10.98 5.68 -12 5 C-10.04578965 4.13644222 -8.08648653 3.28440066 -6.125 2.4375 C-5.03445313 1.96183594 -3.94390625 1.48617187 -2.8203125 0.99609375 C-1.88960937 0.66738281 -0.95890625 0.33867188 0 0 Z " fill="#83CB41" transform="translate(732,112)"/>
<path d="M0 0 C0 0.66 0 1.32 0 2 C4.62 2 9.24 2 14 2 C14 2.33 14 2.66 14 3 C11.47909222 3.0272367 8.95848543 3.04695207 6.4375 3.0625 C5.38079102 3.07506836 5.38079102 3.07506836 4.30273438 3.08789062 C-0.24024798 3.10882603 -4.51784892 2.74800682 -9 2 C-9 1.67 -9 1.34 -9 1 C-2.25 0 -2.25 0 0 0 Z " fill="#FBA748" transform="translate(843,1141)"/>
<path d="M0 0 C0.66 0.33 1.32 0.66 2 1 C-0.64 3.97 -3.28 6.94 -6 10 C-6.33 9.01 -6.66 8.02 -7 7 C-4.69 4.69 -2.38 2.38 0 0 Z " fill="#6FC223" transform="translate(1003,486)"/>
<path d="M0 0 C2.29564001 3.44346001 2.46766643 5.41717055 2.8125 9.5 C2.92207031 10.6446875 3.03164063 11.789375 3.14453125 12.96875 C3 16 3 16 0 19 C0 12.73 0 6.46 0 0 Z " fill="#CFE8B5" transform="translate(718,69)"/>
<path d="M0 0 C0 3 0 3 -1.75 4.82421875 C-2.4925 5.43910156 -3.235 6.05398438 -4 6.6875 C-4.7425 7.31011719 -5.485 7.93273437 -6.25 8.57421875 C-6.8275 9.04472656 -7.405 9.51523437 -8 10 C-8.66 9.67 -9.32 9.34 -10 9 C-6.7 6.03 -3.4 3.06 0 0 Z " fill="#80B410" transform="translate(682,656)"/>
<path d="M0 0 C0.66 0 1.32 0 2 0 C1.67 0.763125 1.34 1.52625 1 2.3125 C-0.17436686 4.99069135 -0.17436686 4.99069135 0 8 C-1.65 8.66 -3.3 9.32 -5 10 C-3.35 6.7 -1.7 3.4 0 0 Z " fill="#E5F4D8" transform="translate(705,118)"/>
<path d="M0 0 C0.99 0 1.98 0 3 0 C3.66 1.32 4.32 2.64 5 4 C4.01 5.32 3.02 6.64 2 8 C0.74335022 5.09399739 0 3.20395416 0 0 Z " fill="#F98A0E" transform="translate(661,1087)"/>
<path d="M0 0 C0.66 0.99 1.32 1.98 2 3 C0.35 4.65 -1.3 6.3 -3 8 C-3.99 7.67 -4.98 7.34 -6 7 C-4.02 4.69 -2.04 2.38 0 0 Z " fill="#70C224" transform="translate(913,573)"/>
<path d="M0 0 C1.24620265 3.60014098 0.99118023 6.34025761 0 10 C-1.28965176 11.37562854 -2.61911872 12.71597412 -4 14 C-3.52188823 12.22888156 -3.0424722 10.45811517 -2.5625 8.6875 C-2.29566406 7.70136719 -2.02882813 6.71523438 -1.75390625 5.69921875 C-1.21920575 3.78482474 -0.62855462 1.88566385 0 0 Z " fill="#D8EEC3" transform="translate(900,552)"/>
<path d="M0 0 C0 3 0 3 -1.75 5.25 C-2.86375 6.11625 -2.86375 6.11625 -4 7 C-5.32 6.67 -6.64 6.34 -8 6 C-5.36 4.02 -2.72 2.04 0 0 Z " fill="#6CC21B" transform="translate(480,194)"/>
<path d="M0 0 C0.66 0 1.32 0 2 0 C0.55746343 3.36591866 -1.33264727 5.51047079 -4 8 C-4 4.06830895 -2.60580385 2.83572772 0 0 Z " fill="#6FC822" transform="translate(991,499)"/>
<path d="M0 0 C0.99 0.33 1.98 0.66 3 1 C1.35 2.65 -0.3 4.3 -2 6 C-2.99 5.67 -3.98 5.34 -5 5 C-3.35 3.35 -1.7 1.7 0 0 Z " fill="#6FC420" transform="translate(622,98)"/>
<path d="M0 0 C0.66 0.33 1.32 0.66 2 1 C0.25 6.75 0.25 6.75 -2 9 C-2.25 3.375 -2.25 3.375 0 0 Z " fill="#FA8713" transform="translate(1118,964)"/>
<path d="M0 0 C-0.33 0.99 -0.66 1.98 -1 3 C-2.65 3.33 -4.3 3.66 -6 4 C-6 3.34 -6 2.68 -6 2 C-6.99 1.67 -7.98 1.34 -9 1 C-5.846632 0.29925156 -3.27275026 0 0 0 Z " fill="#75C428" transform="translate(583,145)"/>
<path d="M0 0 C0.66 0.66 1.32 1.32 2 2 C1.34 2.66 0.68 3.32 0 4 C-3.625 3.625 -3.625 3.625 -7 3 C-4.39685311 1.26456874 -3.01305957 0.38878188 0 0 Z " fill="#7FCB39" transform="translate(590,142)"/>
<path d="M0 0 C2 3 2 3 1.8125 5.5625 C1 8 1 8 -2 10 C-1.54177532 6.53058454 -1.10868317 3.32604951 0 0 Z " fill="#FA8A10" transform="translate(1126,940)"/>
<path d="M0 0 C0.33 0 0.66 0 1 0 C1 2.31 1 4.62 1 7 C1.66 7 2.32 7 3 7 C2.67 9.31 2.34 11.62 2 14 C1.67 14 1.34 14 1 14 C-0.20568053 9.32798795 -0.09382426 4.78503708 0 0 Z " fill="#8ACC4B" transform="translate(308,902)"/>
<path d="M0 0 C0.66 0.33 1.32 0.66 2 1 C0.625 3 0.625 3 -1 5 C-1.66 5 -2.32 5 -3 5 C-3.33 6.32 -3.66 7.64 -4 9 C-4.25 6.75 -4.25 6.75 -4 4 C-2 1.6875 -2 1.6875 0 0 Z " fill="#0E461C" transform="translate(749,297)"/>
<path d="M0 0 C0.66 0.66 1.32 1.32 2 2 C-2.43076923 5.07692308 -2.43076923 5.07692308 -5.3125 4.6875 C-5.869375 4.460625 -6.42625 4.23375 -7 4 C-4.69 2.68 -2.38 1.36 0 0 Z " fill="#71C521" transform="translate(507,175)"/>
</svg>