<?xml version="1.0" encoding="UTF-8"?>
<svg version="1.1" xmlns="http://www.w3.org/2000/svg" width="1254" height="1254" style="background: transparent;">

<path d="M0 0 C6.85134568 4.96785766 10.325273 11.29033618 12.1171875 19.53515625 C13.89866428 36.60461237 8.37468691 52.52563959 3.1171875 68.53515625 C3.80941406 67.91769531 4.50164062 67.30023438 5.21484375 66.6640625 C21.2693778 52.76705476 39.02668057 41.96624301 60.87109375 43.078125 C67.53142691 43.65291888 71.88668636 45.69256835 76.9921875 49.91015625 C81.81709896 55.870341 82.95245569 61.12746708 82.78515625 68.671875 C80.8986489 79.58272745 72.190433 90.28118302 64.1171875 97.53515625 C63.4571875 97.53515625 62.7971875 97.53515625 62.1171875 97.53515625 C62.1171875 98.19515625 62.1171875 98.85515625 62.1171875 99.53515625 C63.3753125 99.86515625 64.6334375 100.19515625 65.9296875 100.53515625 C93.27055152 108.82957567 118.72827639 124.02754844 141.1171875 141.53515625 C141.9421875 142.16679687 142.7671875 142.7984375 143.6171875 143.44921875 C159.25065743 155.62528668 173.97623728 169.88236093 186.1171875 185.53515625 C187.12342828 186.80099564 188.12995859 188.0666049 189.13671875 189.33203125 C212.95445394 219.56195851 231.20895544 254.9980688 243.40185547 291.44824219 C244.12806492 293.5668901 244.89899961 295.66404241 245.68359375 297.76171875 C249.82659261 308.96158101 253.15938074 320.35262376 256.3671875 331.84765625 C256.58169556 332.61075104 256.79620361 333.37384583 257.01721191 334.1600647 C259.51772088 343.08663218 261.69432826 351.97130562 263.42944336 361.08081055 C264.06142041 364.25505382 264.79740421 367.3705894 265.60546875 370.50390625 C271.51718518 393.70344052 273.69335637 416.29603146 273.6171875 440.22265625 C273.61445328 441.93654541 273.61445328 441.93654541 273.61166382 443.68505859 C273.59880096 446.97274701 273.56657817 450.25945447 273.5234375 453.546875 C273.51468094 454.52367722 273.50592438 455.50047943 273.49690247 456.50688171 C273.39036197 461.70767069 272.88474206 466.49824598 271.6105957 471.54682922 C271.10459167 473.5859147 270.73627491 475.61842481 270.3984375 477.69140625 C264.19419747 513.23482621 243.7507851 547.18879837 214.2890625 568.3203125 C207.09285246 573.37244626 199.76003361 578.18093863 192.1171875 582.53515625 C194.74144587 585.89748728 197.3384787 588.80521439 200.6171875 591.53515625 C211.48512801 600.84760999 220.55762757 612.12631013 229.1171875 623.53515625 C229.62217773 624.19966797 230.12716797 624.86417969 230.64746094 625.54882812 C245.46081843 645.11157593 258.67958617 666.83098391 268.1171875 689.53515625 C268.49359375 690.39496094 268.87 691.25476563 269.2578125 692.140625 C276.71963927 709.50776406 281.77638911 726.9647382 285.49902344 745.49121094 C286.0204282 748.05869695 286.57909882 750.61266921 287.15625 753.16796875 C292.18660744 776.91826331 290.09773464 803.95703414 285.1171875 827.53515625 C285.71402344 826.9525 286.31085937 826.36984375 286.92578125 825.76953125 C312.53666701 801.56667338 345.512081 784.39313318 381.328125 785.21875 C399.4425515 786.08914564 418.7745749 794.08477079 431.2734375 807.30078125 C434.68400576 811.43392753 437.43659663 815.9056664 440.1171875 820.53515625 C440.519375 821.19128906 440.9215625 821.84742188 441.3359375 822.5234375 C451.21688266 840.00223064 449.27612106 866.86565705 444.1171875 885.53515625 C437.30634892 909.83432813 425.01525731 929.94407299 408.1171875 948.53515625 C407.51519531 949.20933594 406.91320313 949.88351562 406.29296875 950.578125 C386.93098993 971.11060128 359.3787919 984.49539741 333.1171875 993.53515625 C332.41480957 993.78104492 331.71243164 994.02693359 330.98876953 994.28027344 C283.42170657 1010.6216168 224.86871859 1010.10369238 176.60546875 996.953125 C173.82412303 996.48592878 171.82601086 996.81768412 169.1171875 997.53515625 C170.07496094 997.99664063 171.03273438 998.458125 172.01953125 998.93359375 C196.37416867 1010.8062862 227.69398445 1026.25888154 240.1171875 1051.53515625 C241.87270528 1057.09072775 242.18934147 1063.13895492 239.4921875 1068.41015625 C236.7489571 1072.01966994 235.34128778 1072.94299538 231.1171875 1074.53515625 C227.37001118 1074.97728379 223.63764153 1075.04610707 219.8671875 1075.09765625 C217.88264456 1075.13200411 215.89822127 1075.17455834 213.9140625 1075.2265625 C213.04104492 1075.23888916 212.16802734 1075.25121582 211.26855469 1075.26391602 C208.90503376 1075.338575 208.90503376 1075.338575 207.1171875 1077.53515625 C206.88948138 1079.75745266 206.75798129 1081.99009685 206.6796875 1084.22265625 C206.2081376 1092.1739632 204.83063639 1097.65846597 199.1171875 1103.53515625 C192.19525591 1107.64818806 184.90257002 1107.73446698 177.1171875 1106.53515625 C171.5590739 1105.11625735 166.20400767 1103.1597638 160.83203125 1101.1640625 C156.89562242 1099.719894 153.28547947 1098.93671491 149.1171875 1098.53515625 C148.8696875 1099.23640625 148.6221875 1099.93765625 148.3671875 1100.66015625 C145.65662347 1106.89445351 141.75426398 1111.74001923 136.1171875 1115.53515625 C127.55362343 1118.52877505 118.08472275 1116.95030778 110.08984375 1113.2109375 C101.66493281 1108.46154618 94.42994709 1102.13533394 87.37109375 1095.578125 C85.80936455 1094.16255417 84.19177841 1092.8071491 82.53515625 1091.50390625 C80.35729928 1089.73065922 78.65401268 1087.9999684 76.8671875 1085.84765625 C74.28446428 1082.81770823 71.59681859 1079.99771574 68.7421875 1077.22265625 C63.78533737 1072.30753045 59.41955 1067.02275124 55.1171875 1061.53515625 C54.5897998 1060.86822754 54.06241211 1060.20129883 53.51904297 1059.51416016 C51.77168959 1057.2990583 50.03661462 1055.07483505 48.3046875 1052.84765625 C47.75329102 1052.14705078 47.20189453 1051.44644531 46.63378906 1050.72460938 C43.15101267 1046.20146789 40.5190152 1041.71682328 38.1171875 1036.53515625 C31.30944438 1036.32675595 24.57070449 1036.36458877 17.78515625 1036.98046875 C-19.56305373 1040.36191354 -57.52103346 1039.337476 -94.8828125 1036.53515625 C-95.18372803 1037.47141846 -95.48464355 1038.40768066 -95.79467773 1039.37231445 C-100.13895729 1051.99967403 -110.95444771 1062.53980873 -119.78515625 1072.21875 C-121.58872863 1074.21040442 -123.33387346 1076.23537482 -125.0703125 1078.28515625 C-138.65685832 1093.78574201 -157.59693251 1114.14986231 -179.4921875 1115.80859375 C-192.98708309 1116.27696323 -192.98708309 1116.27696323 -198.2734375 1112.16015625 C-202.63942656 1107.75177894 -205.71776702 1103.36256838 -207.8828125 1097.53515625 C-220.12722623 1099.6248187 -220.12722623 1099.6248187 -231.8828125 1103.53515625 C-236.34067902 1104.69356242 -240.74197921 1104.78799074 -245.3203125 1104.84765625 C-246.42729492 1104.89116211 -246.42729492 1104.89116211 -247.55664062 1104.93554688 C-252.80017838 1104.99613887 -255.76023465 1104.0478853 -259.8828125 1100.53515625 C-265.75421594 1093.21333486 -265.75145102 1084.49162082 -265.8828125 1075.53515625 C-268.8001464 1074.56271162 -270.70512291 1074.41157426 -273.7421875 1074.39453125 C-275.16917969 1074.36552734 -275.16917969 1074.36552734 -276.625 1074.3359375 C-278.61438334 1074.30235051 -280.60408489 1074.28387489 -282.59375 1074.28125 C-289.34078056 1074.10848237 -292.83127955 1073.07950717 -297.8828125 1068.53515625 C-300.70193377 1064.53382283 -301.55750953 1060.83261267 -301.33984375 1056.01171875 C-298.6654646 1041.51978388 -284.25039081 1030.96903585 -272.8659668 1023.04418945 C-258.42863962 1013.35542036 -242.70574411 1005.6701652 -226.8828125 998.53515625 C-230.0312064 995.33652202 -233.2490238 992.2946487 -236.6328125 989.34765625 C-263.57792591 965.0731384 -276.5396867 930.30701667 -283.8828125 895.53515625 C-284.52710205 895.44355225 -285.1713916 895.35194824 -285.83520508 895.25756836 C-301.75745159 892.85002859 -314.08028735 882.77477329 -323.8828125 870.53515625 C-326.46507579 866.99345331 -328.71909689 863.34580718 -330.8828125 859.53515625 C-331.20636719 858.96587402 -331.52992188 858.3965918 -331.86328125 857.81005859 C-336.25788366 849.94060533 -339.63880494 841.97569901 -342.2578125 833.34765625 C-342.49636963 832.56527588 -342.73492676 831.78289551 -342.98071289 830.97680664 C-346.75208084 817.80359695 -347.28783549 804.75961891 -347.2578125 791.16015625 C-347.25760101 790.27631256 -347.25738953 789.39246887 -347.25717163 788.48184204 C-347.22375303 774.47247955 -346.26339488 761.17792758 -342.8828125 747.53515625 C-342.69025879 746.71402344 -342.49770508 745.89289062 -342.29931641 745.046875 C-338.0618785 727.06342925 -332.42176975 709.07530809 -323.90234375 692.63916016 C-322.83130757 690.42886565 -321.94533955 688.19551628 -321.06640625 685.90234375 C-310.6894371 659.76298046 -293.80875051 635.09166399 -275.8828125 613.53515625 C-275.47401855 613.03612793 -275.06522461 612.53709961 -274.64404297 612.02294922 C-266.0367412 601.54160455 -256.57904077 592.00677481 -246.8828125 582.53515625 C-249.84891331 580.26168443 -252.89994303 578.29447246 -256.10986328 576.37792969 C-286.11821558 558.31352452 -311.26280872 531.37516829 -321.8828125 497.53515625 C-322.31871895 496.22776737 -322.75492551 494.92047852 -323.19140625 493.61328125 C-331.76430427 467.1996581 -333.19188943 436.06781355 -327.37011719 408.87353516 C-326.83457488 406.30368335 -326.37581805 403.726107 -325.921875 401.140625 C-321.30025661 375.59618267 -314.25088832 350.10691421 -305.8828125 325.53515625 C-305.53331543 324.50293945 -305.18381836 323.47072266 -304.82373047 322.40722656 C-298.10639099 302.62447856 -290.40750178 283.6056041 -281.8828125 264.53515625 C-281.49963867 263.67116211 -281.11646484 262.80716797 -280.72167969 261.91699219 C-260.51248223 216.58985546 -228.51906136 171.89358686 -188.8828125 141.53515625 C-187.94050781 140.77589844 -186.99820313 140.01664063 -186.02734375 139.234375 C-163.8251855 121.5908348 -138.73452924 107.49600483 -112.015625 97.98828125 C-111.28947998 97.7250708 -110.56333496 97.46186035 -109.81518555 97.19067383 C-107.8828125 96.53515625 -107.8828125 96.53515625 -105.03515625 95.875 C-101.38602503 93.60339926 -100.68124762 89.77986939 -99.3203125 85.84765625 C-91.26559451 64.28897708 -79.82651105 44.07263286 -64.8828125 26.53515625 C-64.19832031 25.71660156 -63.51382812 24.89804688 -62.80859375 24.0546875 C-48.49071489 7.47473801 -22.73988677 -13.38298254 0 0 Z " fill="#67BD0F" transform="translate(646.8828125,58.46484375)"/>
<path d="M0 0 C0.82627899 -0.00173218 1.65255798 -0.00346436 2.50387573 -0.00524902 C17.06431497 0.00808327 30.52616253 1.60832829 44.625 5.4375 C45.90503906 5.75976562 47.18507813 6.08203125 48.50390625 6.4140625 C72.4107421 13.03087627 93.7996307 27.59910584 111.625 44.4375 C112.37265625 45.13230469 113.1203125 45.82710937 113.890625 46.54296875 C124.26741263 56.50250793 132.0802166 68.28688952 139.625 80.4375 C140.14578125 81.23027344 140.6665625 82.02304687 141.203125 82.83984375 C158.37228578 109.67844948 165.97357121 142.20015419 169.625 173.4375 C169.77074463 174.59064697 169.77074463 174.59064697 169.91943359 175.76708984 C170.82207793 183.5538152 170.86744136 191.35830945 170.875 199.1875 C170.87600708 199.91471252 170.87701416 200.64192505 170.87805176 201.39117432 C170.86634476 213.95175497 169.93576337 226.07232655 167.625 238.4375 C167.4081958 239.66098145 167.4081958 239.66098145 167.18701172 240.90917969 C164.08171445 258.2204382 158.87341473 274.19063771 150.55371094 289.69775391 C149.72535245 291.24951063 148.92694207 292.81716947 148.1328125 294.38671875 C141.57971341 307.06715061 132.83993686 317.85794427 122.95458984 328.05664062 C121.82171454 329.23320007 120.71462223 330.43449623 119.61328125 331.640625 C104.26216904 348.02402458 83.35252803 357.83999524 62.625 365.4375 C61.53058594 365.84871094 60.43617188 366.25992187 59.30859375 366.68359375 C26.96333364 377.7524777 -11.2347008 377.01222187 -44.375 370.4375 C-45.28523926 370.26089844 -46.19547852 370.08429688 -47.13330078 369.90234375 C-81.47770849 362.99122761 -114.33611152 343.15757422 -135.3125 314.875 C-135.83046143 314.17737549 -136.34842285 313.47975098 -136.88208008 312.76098633 C-141.61944194 306.27297232 -145.69730658 299.58735798 -149.375 292.4375 C-149.7369043 291.74350098 -150.09880859 291.04950195 -150.47167969 290.33447266 C-165.16413009 261.84514747 -170.83756921 232.08961336 -170.8125 200.25 C-170.81281219 199.34778717 -170.81312439 198.44557434 -170.81344604 197.51602173 C-170.72750894 164.85955028 -164.34340288 133.47099097 -151.375 103.4375 C-151.04274414 102.66599609 -150.71048828 101.89449219 -150.36816406 101.09960938 C-145.13074431 89.12139122 -138.92273818 78.10982508 -131.375 67.4375 C-130.95557129 66.84163086 -130.53614258 66.24576172 -130.10400391 65.63183594 C-106.40013197 32.51544657 -70.46671573 8.77407172 -30.15380859 1.88720703 C-20.08611484 0.43854738 -10.16574539 -0.0005108 0 0 Z " fill="#9AD71F" transform="translate(612.375,686.5625)"/>
<path d="M0 0 C0.69427094 0.00337372 1.38854187 0.00674744 2.10385132 0.01022339 C23.98856782 0.16346059 45.4807616 4.84873791 64.3125 16.4375 C66.66605488 17.75111203 69.02023598 19.06356041 71.375 20.375 C76.70673694 23.34929082 81.4901151 26.69820507 86.3125 30.4375 C95.97163648 37.90840256 105.49438302 44.72409551 116.3125 50.4375 C117.09367187 50.85644531 117.87484375 51.27539062 118.6796875 51.70703125 C122.46700143 53.67437136 126.32100779 55.28737706 130.33203125 56.72265625 C132.23999586 57.41132987 134.12105818 58.17318468 136 58.9375 C143.37412457 61.69377748 151.14390147 63.18627525 158.9375 64.125 C171.39735466 66.11327468 184.74274912 72.25807142 194.3125 80.4375 C195.03695313 81.05238281 195.76140625 81.66726563 196.5078125 82.30078125 C203.10252309 88.37229525 208.0514511 96.31692539 208.515625 105.421875 C208.53687552 107.01035137 208.55228402 108.59891434 208.5625 110.1875 C208.5934375 111.36699219 208.5934375 111.36699219 208.625 112.5703125 C208.66110484 118.00409132 207.78923595 121.59527628 205.3125 126.4375 C204.87550781 127.29214844 204.43851563 128.14679688 203.98828125 129.02734375 C195.54854364 143.56110393 182.91994622 150.51072459 167.9375 157.0625 C159.85553338 160.60056996 152.35219374 164.63190955 144.875 169.3125 C129.7666048 178.76748939 114.22548316 187.64345445 97.3125 193.4375 C96.05514089 193.91443521 94.79870406 194.39380571 93.54296875 194.875 C64.87253156 205.65892107 34.67738669 209.65820767 4.1875 209.6875 C2.9429303 209.68950912 2.9429303 209.68950912 1.67321777 209.69155884 C-13.29738597 209.68635348 -27.86168592 208.61091777 -42.6875 206.4375 C-44.32546719 206.21834868 -45.96348438 205.99957057 -47.6015625 205.78125 C-59.27033835 204.12502049 -70.44428286 200.91206625 -81.6875 197.4375 C-82.87859375 197.07398438 -84.0696875 196.71046875 -85.296875 196.3359375 C-92.01485712 194.19523335 -98.34458517 191.50638764 -104.6875 188.4375 C-106.47607422 187.59058594 -106.47607422 187.59058594 -108.30078125 186.7265625 C-120.66645609 180.77979423 -132.60595696 173.89719737 -143.75 165.875 C-153.29377198 159.03229556 -163.64881146 153.33438856 -174.1875 148.1875 C-189.25819417 140.80122371 -200.71045339 131.634229 -206.6875 115.4375 C-208.6369745 106.85981219 -208.05210523 99.51527692 -204.6875 91.4375 C-204.19443359 90.21353516 -204.19443359 90.21353516 -203.69140625 88.96484375 C-198.06527884 76.36932668 -187.11245905 68.31180978 -174.5625 63.3125 C-165.07771398 59.73948776 -155.13636153 58.42511681 -145.171875 56.84033203 C-122.10538134 53.10018713 -102.08121433 40.71608971 -82.83984375 28.13671875 C-57.38077496 11.53195165 -30.95347057 -0.29463487 0 0 Z " fill="#FB8A01" transform="translate(614.6875,465.5625)"/>
<path d="M0 0 C5.34634494 5.02762053 9.12002164 10.83706544 12.78125 17.16015625 C13.1834375 17.81628906 13.585625 18.47242188 14 19.1484375 C23.88094516 36.62723064 21.94018356 63.49065705 16.78125 82.16015625 C9.97041142 106.45932813 -2.32068019 126.56907299 -19.21875 145.16015625 C-19.82074219 145.83433594 -20.42273437 146.50851562 -21.04296875 147.203125 C-40.40494757 167.73560128 -67.9571456 181.12039741 -94.21875 190.16015625 C-94.92112793 190.40604492 -95.62350586 190.65193359 -96.34716797 190.90527344 C-145.21047416 207.69193241 -205.97175567 206.99739172 -255.21875 192.16015625 C-254.16300781 191.11408203 -254.16300781 191.11408203 -253.0859375 190.046875 C-225.77644749 162.70855724 -210.85435414 129.0529483 -204.21875 91.16015625 C-203.06375 91.16015625 -201.90875 91.16015625 -200.71875 91.16015625 C-186.88740226 89.56758782 -174.38875278 79.73955052 -165.91015625 69.32421875 C-162.29212128 64.47804347 -159.06388912 59.49479209 -156.21875 54.16015625 C-155.55875 54.16015625 -154.89875 54.16015625 -154.21875 54.16015625 C-154.10144531 53.44988281 -153.98414063 52.73960937 -153.86328125 52.0078125 C-153.18073298 48.99219013 -152.14941234 46.42652411 -150.90625 43.59765625 C-149.08234437 39.41551772 -147.7385945 35.38284541 -146.59375 30.97265625 C-144.21211726 23.67594079 -139.29072068 20.47324373 -133.21875 16.16015625 C-131.19695525 14.53635259 -129.17615618 12.91130857 -127.15625 11.28515625 C-91.00984421 -16.66405404 -38.85051575 -32.2158326 0 0 Z " fill="#FB8A02" transform="translate(1074.21875,861.83984375)"/>
<path d="M0 0 C3.50960905 1.21939701 5.8409266 3.2915601 8.48828125 5.8046875 C9.01236572 6.29573975 9.5364502 6.78679199 10.07641602 7.29272461 C27.52789158 24.08565392 34.6141101 46.75510403 35.11328125 70.4921875 C35.18238741 92.2522523 27.3143671 112.2094525 13.67578125 128.9296875 C13.04929687 129.75984375 12.4228125 130.59 11.77734375 131.4453125 C1.55492663 143.5298056 -13.55207561 147.61197907 -28.32421875 150.9296875 C-27.49921875 151.8578125 -26.67421875 152.7859375 -25.82421875 153.7421875 C-23.32421875 156.5546875 -23.32421875 156.5546875 -23.32421875 159.9296875 C-35.67501286 164.09835769 -48.32879536 166.85383179 -61.19921875 168.8671875 C-76.40077096 171.6204098 -89.11319259 179.5394419 -98.32421875 191.9296875 C-104.03111349 200.94147054 -105.38097232 210.37781537 -103.69921875 220.8046875 C-100.2619503 232.87118235 -91.96518658 243.42049763 -81.32421875 249.9296875 C-78.14431062 251.59231505 -74.94440392 253.19406159 -71.72167969 254.77099609 C-54.78695455 263.06026142 -37.80360526 272.78858701 -23.32421875 284.9296875 C-52.68409521 285.55799917 -52.68409521 285.55799917 -66.32421875 281.9296875 C-67.53319824 281.62369629 -67.53319824 281.62369629 -68.76660156 281.31152344 C-93.12987393 275.09169136 -116.22053875 264.85447738 -134.32421875 246.9296875 C-135.63243336 245.8619155 -136.94489249 244.79932093 -138.26171875 243.7421875 C-154.88826086 229.1645728 -167.78593033 205.51698017 -169.52734375 183.34326172 C-169.62589311 180.72234157 -169.65363141 178.11485709 -169.63671875 175.4921875 C-169.6310791 174.57058838 -169.62543945 173.64898926 -169.61962891 172.69946289 C-169.3395611 157.01427913 -163.1093106 143.35146634 -152.32421875 131.9296875 C-140.64372764 120.71000479 -126.56718325 115.5261852 -110.57421875 115.6171875 C-109.1193103 115.62129639 -109.1193103 115.62129639 -107.63500977 115.62548828 C-98.52122067 115.7582467 -90.73788134 117.48023581 -82.32421875 120.9296875 C-82.783125 119.93710937 -83.24203125 118.94453125 -83.71484375 117.921875 C-94.15738385 94.95682293 -98.14497112 70.67838073 -91.32421875 45.9296875 C-88.74087711 42.05467505 -86.09852412 41.78034252 -81.82421875 40.6796875 C-54.83238183 33.19759858 -30.65777913 20.40401443 -8.1171875 3.9609375 C-2.56423489 -0.07757349 -2.56423489 -0.07757349 0 0 Z " fill="#9AD721" transform="translate(512.32421875,358.0703125)"/>
<path d="M0 0 C2.39346578 1.15312724 4.15931326 2.57394733 6.1796875 4.3046875 C26.04639654 20.55663871 50.00761057 35.53233457 74.921875 42.359375 C75.7046582 42.58641113 76.48744141 42.81344727 77.29394531 43.04736328 C79.5210195 43.69976089 79.5210195 43.69976089 81.69042969 44.11279297 C83.65625 44.6640625 83.65625 44.6640625 86.9296875 46.9296875 C90.52779897 55.38588181 90.34205519 64.77298447 90.1796875 73.8046875 C90.17453125 74.97515625 90.169375 76.145625 90.1640625 77.3515625 C90.08304339 86.28391893 89.3609545 93.60673821 85.9296875 101.9296875 C85.36894531 103.32767578 85.36894531 103.32767578 84.796875 104.75390625 C82.1292933 111.3054198 79.19250168 117.65397681 75.9296875 123.9296875 C76.81011719 123.65253906 77.69054687 123.37539063 78.59765625 123.08984375 C79.75910156 122.72761719 80.92054688 122.36539063 82.1171875 121.9921875 C83.26574219 121.63253906 84.41429687 121.27289063 85.59765625 120.90234375 C102.29169082 116.02917305 119.23452985 118.72929155 134.28515625 126.8515625 C148.20375208 134.65532368 157.20377277 146.40147349 162.1027832 161.57177734 C163.52110638 167.33133358 163.50731893 172.96396408 163.4296875 178.8671875 C163.45289063 180.62579102 163.45289063 180.62579102 163.4765625 182.41992188 C163.42561267 193.9536901 160.18782568 204.15454472 155.2421875 214.4921875 C154.7306311 215.56641968 154.7306311 215.56641968 154.20874023 216.66235352 C150.87951226 223.41221782 146.79085023 229.16800063 141.9296875 234.9296875 C140.84880859 236.21939453 140.84880859 236.21939453 139.74609375 237.53515625 C124.04597067 255.58609989 104.97329595 267.07689026 82.9296875 275.9296875 C81.71539063 276.42082031 80.50109375 276.91195313 79.25 277.41796875 C60.83011009 284.16357469 40.42334281 287.15258499 20.8671875 286.9921875 C19.81080078 286.98767578 18.75441406 286.98316406 17.66601562 286.97851562 C15.08717842 286.96684668 12.50846456 286.95047635 9.9296875 286.9296875 C9.9296875 286.2696875 9.9296875 285.6096875 9.9296875 284.9296875 C11.43595703 284.094375 11.43595703 284.094375 12.97265625 283.2421875 C19.54669171 279.57907153 26.06772325 275.89243029 32.4296875 271.8671875 C40.33481663 266.94475814 48.66219679 262.92524289 57.05566406 258.91357422 C72.08771467 251.72807499 84.76045255 243.69015442 91.9296875 227.9296875 C94.26110941 219.87901256 94.55520505 208.39704723 91.1796875 200.6796875 C90.46901581 199.4069166 89.72240148 198.1530454 88.9296875 196.9296875 C88.3315625 195.8984375 87.7334375 194.8671875 87.1171875 193.8046875 C74.22052901 176.85479348 53.51009725 170.39393483 33.23046875 167.56640625 C24.70508435 166.36115056 17.97119457 163.90594808 10.9296875 158.9296875 C11.5896875 156.6196875 12.2496875 154.3096875 12.9296875 151.9296875 C8.11493096 148.82543657 3.06201565 147.0445724 -2.3046875 145.11328125 C-5.0703125 143.9296875 -5.0703125 143.9296875 -6.0703125 141.9296875 C-3.37448289 142.40542214 -0.99043013 142.96202084 1.5546875 143.9921875 C10.58018165 146.49926921 19.10965936 145.08547978 27.2421875 140.67578125 C38.57708592 133.6489101 45.07588154 122.96505902 49.03515625 110.4296875 C53.47932022 91.40115444 52.402906 70.86423099 42.10546875 53.9296875 C35.53934952 44.43525969 28.29321495 38.63023208 16.9296875 35.9296875 C6.61926878 34.62254515 -1.419783 37.06084851 -9.7578125 43.1171875 C-18.46981204 50.38486966 -22.40216039 58.32364468 -26.0703125 68.9296875 C-26.60205078 70.20585937 -26.60205078 70.20585937 -27.14453125 71.5078125 C-32.77540547 86.23836952 -29.9261003 105.84550319 -23.78515625 119.86328125 C-20.68864784 126.08217419 -16.68779086 130.89607913 -11.828125 135.8359375 C-10.0703125 137.9296875 -10.0703125 137.9296875 -10.0703125 140.9296875 C-25.85608191 126.47169309 -38.18679396 107.13765459 -39.19628906 85.19091797 C-39.62672589 68.0633464 -39.58299991 51.69110264 -32.0703125 35.9296875 C-31.626875 34.95386719 -31.1834375 33.97804688 -30.7265625 32.97265625 C-27.54591882 26.24762507 -23.86157347 20.60007892 -19.0703125 14.9296875 C-18.61140625 14.32640625 -18.1525 13.723125 -17.6796875 13.1015625 C-13.86148512 8.23006291 -6.52515633 -0.22160908 0 0 Z " fill="#9BD821" transform="translate(729.0703125,361.0703125)"/>
<path d="M0 0 C2.15905868 1.02369161 4.16095523 2.15269082 6.1875 3.421875 C7.07179688 3.95941406 7.95609375 4.49695312 8.8671875 5.05078125 C10.89936469 6.29865664 12.92504926 7.55714592 14.9453125 8.82421875 C23.59495625 14.05213568 32.24093578 17.24565269 41.87255859 20.22753906 C44.27198873 21.00902978 46.56568735 21.96937898 48.875 22.984375 C55.18230143 25.58023715 61.82869174 26.941545 68.47753906 28.359375 C69.99436384 28.68418231 71.50948939 29.01706769 73.02246094 29.359375 C91.69001628 33.56429728 110.79903008 35.02909128 129.8125 36.859375 C127.77912096 51.05987535 114.27106798 63.28289569 104.91015625 73.54296875 C103.10658387 75.53462317 101.36143904 77.55959357 99.625 79.609375 C86.03845418 95.10996076 67.09837999 115.47408106 45.203125 117.1328125 C31.70822941 117.60118198 31.70822941 117.60118198 26.421875 113.484375 C22.05588594 109.07599769 18.97754548 104.68678713 16.8125 98.859375 C4.56808627 100.94903745 4.56808627 100.94903745 -7.1875 104.859375 C-11.64536652 106.01778117 -16.04666671 106.11220949 -20.625 106.171875 C-21.36298828 106.20087891 -22.10097656 106.22988281 -22.86132812 106.25976562 C-28.10486588 106.32035762 -31.06492215 105.37210405 -35.1875 101.859375 C-41.05890344 94.53755361 -41.05613852 85.81583957 -41.1875 76.859375 C-44.1048339 75.88693037 -46.00981041 75.73579301 -49.046875 75.71875 C-50.47386719 75.68974609 -50.47386719 75.68974609 -51.9296875 75.66015625 C-53.91907084 75.62656926 -55.90877239 75.60809364 -57.8984375 75.60546875 C-64.64546806 75.43270112 -68.13596705 74.40372592 -73.1875 69.859375 C-76.00662127 65.85804158 -76.86219703 62.15683142 -76.64453125 57.3359375 C-73.9701521 42.84400263 -59.55507831 32.2932546 -48.1706543 24.3684082 C-38.91598675 18.15767848 -29.09994084 12.93148804 -19.1875 7.859375 C-18.33897461 7.4247998 -17.49044922 6.99022461 -16.61621094 6.54248047 C-14.27440468 5.35674992 -11.92291576 4.19504571 -9.5625 3.046875 C-8.87027344 2.70301758 -8.17804688 2.35916016 -7.46484375 2.00488281 C-2.82574339 -0.18165493 -2.82574339 -0.18165493 0 0 Z " fill="#FB8B03" transform="translate(422.1875,1057.140625)"/>
<path d="M0 0 C3.60282079 1.09959509 6.87525624 2.69577817 10.21484375 4.41015625 C11.26828979 4.94588257 11.26828979 4.94588257 12.34301758 5.49243164 C33.74914889 16.47864718 59.75467451 30.42091052 70.77734375 52.84765625 C72.53286153 58.40322775 72.84949772 64.45145492 70.15234375 69.72265625 C67.40911335 73.33216994 66.00144403 74.25549538 61.77734375 75.84765625 C58.03016743 76.28978379 54.29779778 76.35860707 50.52734375 76.41015625 C48.54280081 76.44450411 46.55837752 76.48705834 44.57421875 76.5390625 C43.70120117 76.55138916 42.82818359 76.56371582 41.92871094 76.57641602 C39.56519001 76.651075 39.56519001 76.651075 37.77734375 78.84765625 C37.54963763 81.06995266 37.41813754 83.30259685 37.33984375 85.53515625 C36.86829385 93.4864632 35.49079264 98.97096597 29.77734375 104.84765625 C22.85541216 108.96068806 15.56272627 109.04696698 7.77734375 107.84765625 C2.21923015 106.42875735 -3.13583608 104.4722638 -8.5078125 102.4765625 C-12.44422133 101.032394 -16.05436428 100.24921491 -20.22265625 99.84765625 C-20.59390625 100.89953125 -20.59390625 100.89953125 -20.97265625 101.97265625 C-23.68322028 108.20695351 -27.58557977 113.05251923 -33.22265625 116.84765625 C-41.78622032 119.84127505 -51.255121 118.26280778 -59.25 114.5234375 C-67.67491094 109.77404618 -74.90989666 103.44783394 -81.96875 96.890625 C-83.5304792 95.47505417 -85.14806534 94.1196491 -86.8046875 92.81640625 C-88.98254447 91.04315922 -90.68583107 89.3124684 -92.47265625 87.16015625 C-95.05537947 84.13020823 -97.74302516 81.31021574 -100.59765625 78.53515625 C-105.0417275 74.12849301 -109.02202268 69.46822369 -112.88623047 64.54785156 C-113.85984887 63.30921828 -114.838765 62.07474378 -115.82080078 60.84277344 C-117.57007084 58.64462846 -119.30409445 56.43516054 -121.03515625 54.22265625 C-121.58655273 53.53042969 -122.13794922 52.83820313 -122.70605469 52.125 C-126.42136282 47.32256139 -129.00442915 42.4965985 -131.22265625 36.84765625 C-129.9078125 36.77289062 -128.59296875 36.698125 -127.23828125 36.62109375 C-98.93183753 34.76501687 -71.09570446 30.03752361 -44.22265625 20.84765625 C-43.27084473 20.52490723 -42.3190332 20.2021582 -41.33837891 19.86962891 C-35.51982186 17.83308376 -30.11824337 15.44608973 -24.72265625 12.47265625 C-23.99997559 12.08198975 -23.27729492 11.69132324 -22.53271484 11.28881836 C-21.09390458 10.50982322 -19.65682616 9.72761903 -18.22167969 8.94189453 C-16.41626417 7.9536346 -14.60495459 6.97616094 -12.79296875 6 C-1.4884845 -0.10202266 -1.4884845 -0.10202266 0 0 Z " fill="#FA8B03" transform="translate(816.22265625,1057.15234375)"/>
<path d="M0 0 C11.93086905 8.49870124 17.52520602 21.20514513 21.234375 34.93359375 C23.6226675 52.4044726 22.09290438 72.8543305 11.59375 87.5625 C4.92112416 96.33553014 -3.23678687 103.60294506 -14.40625 105.5625 C-24.94149223 106.60623917 -33.32647161 103.89679813 -41.5390625 97.234375 C-52.16467964 87.72022409 -59.39213505 73.89481739 -60.67333984 59.57788086 C-60.77047323 56.52508217 -60.76737759 53.49131254 -60.71875 50.4375 C-60.72197266 49.41785156 -60.72519531 48.39820313 -60.72851562 47.34765625 C-60.61674049 31.51623214 -55.32502763 16.85088463 -44.23828125 5.3046875 C-31.33374726 -6.73362131 -15.57118407 -9.30226581 0 0 Z " fill="#053826" transform="translate(759.40625,401.4375)"/>
<path d="M0 0 C11.30029057 8.24978768 17.51632036 20.02271416 20.48828125 33.4921875 C20.9222639 37.89624338 20.96439062 42.25673543 20.92578125 46.6796875 C20.9196582 47.86989502 20.91353516 49.06010254 20.90722656 50.28637695 C20.74834653 59.24904383 19.77042935 67.08168298 16.48828125 75.4921875 C16.19953125 76.25789063 15.91078125 77.02359375 15.61328125 77.8125 C10.58125261 89.26935093 0.91444257 98.64848868 -10.51171875 103.4921875 C-18.37606591 106.11363655 -28.70262686 105.48786903 -36.17578125 101.9375 C-50.36179724 93.16019913 -56.63025796 80.08218703 -60.51171875 64.4921875 C-63.76450694 45.84563102 -60.43151135 28.70497105 -50.51171875 12.4921875 C-38.14149331 -4.49962774 -18.84953315 -11.31558289 0 0 Z " fill="#043725" transform="translate(515.51171875,397.5078125)"/>
<path d="M0 0 C2.39346578 1.15312724 4.15931326 2.57394733 6.1796875 4.3046875 C26.04639654 20.55663871 50.00761057 35.53233457 74.921875 42.359375 C75.7046582 42.58641113 76.48744141 42.81344727 77.29394531 43.04736328 C79.5210195 43.69976089 79.5210195 43.69976089 81.69042969 44.11279297 C83.65625 44.6640625 83.65625 44.6640625 86.9296875 46.9296875 C90.52779897 55.38588181 90.34205519 64.77298447 90.1796875 73.8046875 C90.17453125 74.97515625 90.169375 76.145625 90.1640625 77.3515625 C90.08302153 86.28632905 89.35644186 93.60352401 85.9296875 101.9296875 C85.36894531 103.34507812 85.36894531 103.34507812 84.796875 104.7890625 C76.50601027 125.33372101 64.50672683 138.96736779 43.9296875 147.9296875 C43.15496094 148.27128906 42.38023437 148.61289062 41.58203125 148.96484375 C28.03041933 153.96243648 12.16424929 151.41109325 -0.7109375 145.7734375 C-2.52735711 144.88428105 -4.30578273 143.91782417 -6.0703125 142.9296875 C-3.0703125 141.9296875 -3.0703125 141.9296875 0.4296875 143.3671875 C7.70543301 146.26413571 15.49545213 145.74707251 22.7421875 142.96484375 C35.4839067 136.9352802 42.93752659 126.9154312 47.9296875 113.9296875 C53.79880713 95.3475985 52.69525518 74.32767499 43.9296875 56.9296875 C37.82898441 46.89683959 31.09322456 40.32428891 19.85546875 36.625 C10.94060036 34.50637974 2.92530596 35.48475487 -5.0703125 39.9296875 C-16.51383505 47.19481859 -21.72174359 56.35629725 -26.0703125 68.9296875 C-26.60205078 70.20585937 -26.60205078 70.20585937 -27.14453125 71.5078125 C-32.77540547 86.23836952 -29.9261003 105.84550319 -23.78515625 119.86328125 C-20.68864784 126.08217419 -16.68779086 130.89607913 -11.828125 135.8359375 C-10.0703125 137.9296875 -10.0703125 137.9296875 -10.0703125 140.9296875 C-25.85608191 126.47169309 -38.18679396 107.13765459 -39.19628906 85.19091797 C-39.62672589 68.0633464 -39.58299991 51.69110264 -32.0703125 35.9296875 C-31.626875 34.95386719 -31.1834375 33.97804688 -30.7265625 32.97265625 C-27.54591882 26.24762507 -23.86157347 20.60007892 -19.0703125 14.9296875 C-18.61140625 14.32640625 -18.1525 13.723125 -17.6796875 13.1015625 C-13.86148512 8.23006291 -6.52515633 -0.22160908 0 0 Z " fill="#FAFBF9" transform="translate(729.0703125,361.0703125)"/>
<path d="M0 0 C3.50960905 1.21939701 5.8409266 3.2915601 8.48828125 5.8046875 C9.01236572 6.29573975 9.5364502 6.78679199 10.07641602 7.29272461 C27.52789158 24.08565392 34.6141101 46.75510403 35.11328125 70.4921875 C35.18238741 92.2522523 27.3143671 112.2094525 13.67578125 128.9296875 C13.04929687 129.75984375 12.4228125 130.59 11.77734375 131.4453125 C3.61650825 141.09269425 -10.05460451 148.022306 -22.64526367 149.13476562 C-25.1255493 149.23312394 -27.59206052 149.25885747 -30.07421875 149.2421875 C-30.95456787 149.23654785 -31.83491699 149.2309082 -32.74194336 149.22509766 C-50.67446006 148.89218998 -63.08340933 141.41636684 -75.32421875 128.9296875 C-91.00285337 112.36190536 -94.78959268 89.04129096 -94.55078125 67.1171875 C-94.31801149 59.19712276 -93.77830465 49.61081634 -89.32421875 42.9296875 C-86.81501819 42.05744159 -84.38884542 41.3400917 -81.82421875 40.6796875 C-54.83238183 33.19759858 -30.65777913 20.40401443 -8.1171875 3.9609375 C-2.56423489 -0.07757349 -2.56423489 -0.07757349 0 0 Z M-45.57421875 49.6796875 C-56.85261084 64.56089929 -60.16916387 82.68103445 -57.81640625 100.8515625 C-55.00527822 116.68435256 -48.76637156 130.46130979 -35.32421875 139.9296875 C-27.50891342 144.61332793 -19.23685873 144.88951027 -10.32421875 143.9296875 C0.33712179 141.16333383 9.38392368 132.71945159 15.15234375 123.59375 C21.80524643 111.88308506 24.25148517 100.03307164 24.17578125 86.6171875 C24.16720093 84.84214844 24.16720093 84.84214844 24.15844727 83.03125 C23.86314108 68.53837818 19.8046423 55.66250008 9.73046875 44.83984375 C1.49177035 37.19885485 -8.21798588 33.35890301 -19.4921875 33.62109375 C-30.34778469 34.80397951 -38.72132775 41.59481609 -45.57421875 49.6796875 Z " fill="#FAFBF9" transform="translate(512.32421875,358.0703125)"/>
<path d="M0 0 C2.375 1.375 2.375 1.375 4 4 C5.18259935 10.83011461 3.89441112 16.35144903 0 22 C-8.60289763 33.65945655 -20.83733671 40.58749758 -35 43 C-38.42184184 43.30915404 -41.815286 43.38069604 -45.25 43.375 C-46.62164307 43.3747583 -46.62164307 43.3747583 -48.02099609 43.37451172 C-56.6635863 43.22968087 -64.67203844 41.88530771 -72 37 C-72.1875 34.375 -72.1875 34.375 -72 32 C-67.56665646 30.44252338 -63.14033159 29.30110333 -58.5625 28.25 C-40.84634799 23.93352997 -23.57719968 16.21102728 -10.33544922 3.4543457 C-6.86365248 0.22789542 -4.71864333 -0.66935811 0 0 Z " fill="#033724" transform="translate(519,315)"/>
<path d="M0 0 C5.23392574 0.96924551 8.36451128 4.26335769 12.375 7.625 C29.58236617 21.29326249 46.92833626 29.02745173 68.375 33.625 C68.87 36.1 68.87 36.1 69.375 38.625 C67.83878265 39.44775672 66.29571368 40.25772577 64.75 41.0625 C63.89148438 41.51496094 63.03296875 41.96742188 62.1484375 42.43359375 C50.83125353 47.29520095 33.46311978 46.03367927 22.171875 41.89453125 C10.0350004 36.38547504 0.77321073 28.80387457 -5.0625 16.625 C-5.86779539 12.33009128 -6.31899764 7.96061966 -5.625 3.625 C-3.79477982 1.24624121 -2.96237645 0.70532773 0 0 Z " fill="#033623" transform="translate(728.625,318.375)"/>
<path d="M0 0 C0 2.9867817 -0.39334934 4.28394955 -1.5390625 6.96484375 C-1.8693042 7.7539917 -2.1995459 8.54313965 -2.53979492 9.35620117 C-2.8979126 10.20802979 -3.25603027 11.0598584 -3.625 11.9375 C-11.06806452 30.19006269 -15.45452395 48.63906363 -19 68 C-19.16000488 68.80060349 -19.32000977 69.60120697 -19.48486328 70.42607117 C-20.75322725 76.96331684 -21.43575831 83.36629105 -21.78125 90.01171875 C-21.84026489 91.02361771 -21.89927979 92.03551666 -21.96008301 93.07807922 C-22.14644246 96.28089329 -22.32414569 99.48409323 -22.5 102.6875 C-25.80052068 162.31054229 -25.80052068 162.31054229 -40.0625 175.1875 C-43.0025674 177.00158414 -45.66374871 178.1262199 -49 179 C-48.61328125 178.52691406 -48.2265625 178.05382812 -47.828125 177.56640625 C-36.36332381 163.008379 -35.28174648 145.36491209 -34.35424805 127.44067383 C-32.06232261 83.15197891 -26.21413676 37.27055559 0 0 Z " fill="#57AE0B" transform="translate(417,773)"/>
<path d="M0 0 C0.66 0 1.32 0 2 0 C19.29458828 33.00896037 27.62563341 69.21579516 29.4296875 106.3515625 C29.46629486 107.1015451 29.50290222 107.85152771 29.5406189 108.62423706 C29.84193495 114.85245063 29.84193495 114.85245063 29.97412109 117.94091797 C30.34290983 126.43385276 30.94699819 134.7836633 32.3984375 143.16796875 C32.51395966 143.843367 32.62948181 144.51876526 32.74850464 145.21463013 C34.3510717 153.79926712 37.10685304 162.99739869 43.875 168.875 C44.90625 169.57625 45.9375 170.2775 47 171 C44 172 44 172 42.16796875 171.25 C32.62319357 165.2256843 26.62501563 157.05803971 23.96557617 146 C20.87474043 131.82046388 19.83316603 117.64639728 18.9375 103.1875 C18.09159052 89.92375099 17.23439438 76.6934404 15.52734375 63.5078125 C15.41172592 62.61043869 15.29610809 61.71306488 15.17698669 60.78849792 C12.63133859 42.18516581 8.38238486 22.06645145 0.69921875 4.84765625 C0 3 0 3 0 0 Z " fill="#57AE0C" transform="translate(821,781)"/>
<path d="M0 0 C4.08149153 3.34983575 4.08149153 3.34983575 5.53515625 5.13671875 C5.53515625 6.45671875 5.53515625 7.77671875 5.53515625 9.13671875 C1.05322874 8.55650675 -2.30823627 6.67472766 -6.15234375 4.44921875 C-26.69636715 -6.94157777 -52.47113198 -12.1327732 -75.52734375 -6.17578125 C-77.85143527 -5.44063576 -80.16472038 -4.67029596 -82.46484375 -3.86328125 C-83.66496094 -3.47785156 -84.86507812 -3.09242188 -86.1015625 -2.6953125 C-92.91624334 -0.41884074 -99.08235391 2.32435223 -105.2578125 6 C-107.46484375 7.13671875 -107.46484375 7.13671875 -110.46484375 7.13671875 C-109.98305047 2.77799517 -108.8659045 1.0531104 -105.46484375 -1.67578125 C-74.15359045 -25.27072854 -30.78462512 -23.27142026 0 0 Z " fill="#D06000" transform="translate(666.46484375,614.86328125)"/>
<path d="M0 0 C4.64516607 1.9970695 7.63996093 4.53355467 10.08984375 8.9765625 C11.97188244 14.32779695 12.01355728 20.18716546 10.203125 25.5703125 C7.64952766 30.43679923 4.11617029 33.66049532 -1.0625 35.38671875 C-6.79671758 35.92768267 -9.57002204 34.96028076 -14.0625 31.38671875 C-18.03959972 27.80633721 -19.69294908 23.30370735 -20.35546875 18.07421875 C-20.53151657 13.11134679 -19.92512952 9.58524204 -17.0625 5.38671875 C-11.85261484 0.26019175 -7.4277033 -2.20861632 0 0 Z " fill="#F4F6F5" transform="translate(513.0625,408.61328125)"/>
<path d="M0 0 C3.62323795 2.28836081 6.08495692 4.80736317 7.546875 8.95703125 C8.71146439 14.57014226 8.66825794 19.98350742 6.85546875 25.421875 C3.42953947 30.218176 0.42804316 33.09771041 -5.39453125 34.171875 C-9.77414715 34.40044081 -12.67908336 33.37949748 -16.22265625 30.828125 C-20.49897192 26.58899469 -23.21286584 20.95951569 -23.58203125 14.921875 C-22.78244383 9.41360613 -21.381397 5.29677871 -17.2890625 1.3984375 C-11.589407 -2.71987646 -6.33902798 -2.99172694 0 0 Z " fill="#F5F7F6" transform="translate(760.01953125,413.953125)"/>
<path d="M0 0 C4.19876305 1.04969076 5.82935317 2.404403 8.39453125 5.80859375 C10.36245593 9.48715261 10.15694827 11.73622593 9.5 15.875 C6.5 21.375 6.5 21.375 3.5 22.875 C0.1875 23.25 0.1875 23.25 -3.5 22.875 C-7.74556588 19.46008831 -9.21313358 17.0060077 -9.9375 11.625 C-9.42479707 7.23040345 -8.29579342 5.34692917 -5.27734375 2.21484375 C-3.5 0.875 -3.5 0.875 0 0 Z " fill="#BB5200" transform="translate(663.5,528.125)"/>
<path d="M0 0 C2.1953125 0.47265625 2.1953125 0.47265625 5.2578125 2.41015625 C7.86819717 6.53624814 8.12398917 9.7121425 7.1953125 14.47265625 C4.26848323 19.93607088 4.26848323 19.93607088 1.1953125 21.47265625 C-5.06988087 22.05276675 -5.06988087 22.05276675 -8.1796875 19.59765625 C-11.56999943 15.16417142 -11.38376194 10.89722125 -10.8046875 5.47265625 C-8.40858151 0.26373018 -5.37696924 -0.34604257 0 0 Z " fill="#BA5001" transform="translate(565.8046875,527.52734375)"/>
<path d="M0 0 C3.81514697 0.68982362 7.43655412 1.68249494 11.125 2.875 C12.15882813 3.20242188 13.19265625 3.52984375 14.2578125 3.8671875 C16.91841895 4.96629842 18.41071923 5.60747263 20 8 C19.79846293 10.84875378 18.85624823 13.25099253 18 16 C13.09593213 14.53258124 8.79464926 12.47869322 4.3125 10.0625 C3.31766602 9.54139648 3.31766602 9.54139648 2.30273438 9.00976562 C-0.85690239 7.32017134 -3.67973165 5.77215582 -6 3 C-5.01 2.67 -4.02 2.34 -3 2 C-2.34 2.66 -1.68 3.32 -1 4 C-0.67 2.68 -0.34 1.36 0 0 Z " fill="#76BE12" transform="translate(723,505)"/>
<path d="M0 0 C0.99 0 1.98 0 3 0 C1.78990546 10.47197195 -5.47474901 19.07539449 -12 27 C-12.62261719 27.825 -13.24523437 28.65 -13.88671875 29.5 C-19.55170033 36.2016418 -28.29976625 42.25240969 -37 44 C-41.39479175 44.01464931 -45.65300756 43.62683904 -50 43 C-50 42.67 -50 42.34 -50 42 C-49.09378906 41.97421875 -48.18757813 41.9484375 -47.25390625 41.921875 C-34.71243376 41.33793342 -25.47259335 38.05240518 -16.86328125 28.671875 C-9.597346 19.91514713 -6.4358928 12.07223999 -4 1 C-3.505 2.98 -3.505 2.98 -3 5 C-1.55802132 3.55802132 -0.88213756 1.82308429 0 0 Z " fill="#DAE4DB" transform="translate(538,460)"/>
<path d="M0 0 C3.47631689 3.00098376 4.55059683 5.07607403 5.375 9.5625 C7.75902179 19.99893579 12.79415542 27.3353131 20.2421875 34.90625 C22 37 22 37 22 40 C11.15430071 30.06655579 1.59105768 18.24811003 -3 4 C-2 2 -2 2 0 0 Z " fill="#E3EDDE" transform="translate(697,462)"/>
<path d="M0 0 C0.66 0.33 1.32 0.66 2 1 C-0.54018673 4.53811723 -1.81841206 6.02429615 -6 7 C-6.28399658 7.58104492 -6.56799316 8.16208984 -6.8605957 8.76074219 C-8.23753571 11.46682612 -9.93507603 13.14455403 -12.10546875 15.265625 C-13.33426758 16.47798828 -13.33426758 16.47798828 -14.58789062 17.71484375 C-15.44576172 18.55144531 -16.30363281 19.38804687 -17.1875 20.25 C-22.52804053 25.47970687 -27.76798673 30.70509869 -32.6184082 36.39746094 C-33.69384045 37.64487872 -34.83539585 38.83539585 -36 40 C-36.99 39.67 -37.98 39.34 -39 39 C-30.93067693 30.32093708 -22.80589446 21.70473604 -14.4375 13.3125 C-13.79619141 12.66667969 -13.15488281 12.02085937 -12.49414062 11.35546875 C-8.48702421 7.36088763 -4.33726331 3.63392331 0 0 Z " fill="#68C216" transform="translate(454,203)"/>
<path d="M0 0 C0.495 1.485 0.495 1.485 1 3 C-0.64454309 4.69437773 -2.30720633 6.35458733 -4 8 C-4.74443359 8.73863281 -4.74443359 8.73863281 -5.50390625 9.4921875 C-11.30355337 14.88655808 -17.74316414 18.90424296 -25.8203125 19.0859375 C-29.24249 18.84396535 -32.60670302 18.50032554 -36 18 C-36 17.67 -36 17.34 -36 17 C-35.09378906 16.97421875 -34.18757813 16.9484375 -33.25390625 16.921875 C-21.14530812 16.35808842 -11.84037448 13.3052543 -3.390625 4.28125 C-2.2200522 2.88708464 -1.10325464 1.44802172 0 0 Z " fill="#B2CDB3" transform="translate(524,485)"/>
<path d="M0 0 C2.69803895 0.47612452 5.12325343 1.04729492 7.6875 2.03125 C11.48658819 3.14230409 14.96126268 3.22360191 18.875 3.125 C19.56335938 3.11597656 20.25171875 3.10695313 20.9609375 3.09765625 C22.64077838 3.07432513 24.32043746 3.03846326 26 3 C24.35362278 5.83542744 23.42639393 6.86131553 20.26171875 7.890625 C16.28664972 8.02392073 13.53251669 7.13753034 9.8125 5.75 C8.60207031 5.31171875 7.39164063 4.8734375 6.14453125 4.421875 C3.38850015 3.17566963 1.86964083 2.31155593 0 0 Z " fill="#D7E3D2" transform="translate(723,503)"/>
<path d="M0 0 C2.50298434 2.93828597 3.46930939 5.17902761 4 9 C3.01 8.01 2.02 7.02 1 6 C-1.06295292 7.10709491 -1.06295292 7.10709491 -3 9 C-3.80946422 12.10197397 -3.80946422 12.10197397 -4 15 C-4.33 15 -4.66 15 -5 15 C-5.06058594 14.40832031 -5.12117187 13.81664062 -5.18359375 13.20703125 C-5.62012371 9.09021792 -6.08671346 5.04455467 -7 1 C-6.401875 1.350625 -5.80375 1.70125 -5.1875 2.0625 C-2.89186786 3.33304698 -2.89186786 3.33304698 0 2 C0 1.34 0 0.68 0 0 Z " fill="#1C4638" transform="translate(529,414)"/>
<path d="M0 0 C0.66 0.99 1.32 1.98 2 3 C5.92485658 8.87716926 9.80683161 14.18681954 15 19 C14.67 19.66 14.34 20.32 14 21 C12.243468 19.29798107 10.49492913 17.58884897 8.75 15.875 C8.25886719 15.400625 7.76773438 14.92625 7.26171875 14.4375 C3.98110892 11.20063163 1.3304718 7.98869212 -1 4 C-0.75 1.625 -0.75 1.625 0 0 Z " fill="#C8DEBA" transform="translate(705,481)"/>
<path d="M0 0 C1.74796875 -0.02126953 1.74796875 -0.02126953 3.53125 -0.04296875 C6.5 0.1875 6.5 0.1875 8.5 2.1875 C5.926671 3.4741645 3.99776962 3.35574551 1.125 3.375 C-0.30972656 3.39626953 -0.30972656 3.39626953 -1.7734375 3.41796875 C-4.53010017 3.18495572 -6.14947395 2.59670164 -8.5 1.1875 C-5.65161879 -0.2366906 -3.17212092 0.01754492 0 0 Z " fill="#153A29" transform="translate(738.5,503.8125)"/>
<path d="M0 0 C1.258125 0.226875 2.51625 0.45375 3.8125 0.6875 C2.8225 1.1825 2.8225 1.1825 1.8125 1.6875 C0.67899466 3.70419827 0.67899466 3.70419827 -0.1875 5.6875 C-2.4975 4.6975 -4.8075 3.7075 -7.1875 2.6875 C-5.15110924 -0.49436057 -3.4972064 -0.45804119 0 0 Z " fill="#F9F2E1" transform="translate(822.1875,1054.3125)"/>
<path d="M0 0 C0.99 0 1.98 0 3 0 C2.48474397 5.28137429 0.74522883 8.57221156 -2 13 C-3.40070613 8.79788161 -2.76587588 5.66690632 -0.9375 1.6875 C-0.628125 1.130625 -0.31875 0.57375 0 0 Z " fill="#EDF6E5" transform="translate(538,460)"/>
<path d="M0 0 C-0.33 0.66 -0.66 1.32 -1 2 C-5.29581527 3.26761762 -8.50944298 4 -13 4 C-13 3.01 -13 2.02 -13 1 C-8.59085217 -0.10228696 -4.51617599 -0.07654536 0 0 Z " fill="#F0F6E9" transform="translate(501,503)"/>
<path d="M0 0 C1.875 0.25 1.875 0.25 4 1 C5.87380446 3.49840595 6.05001932 4.63319166 5.625 7.75 C5.41875 8.4925 5.2125 9.235 5 10 C2.08772731 6.71195019 0.50298788 4.40114397 0 0 Z " fill="#EAF3E8" transform="translate(699,474)"/>
<path d="M0 0 C-1.44781793 3.44428265 -3.27694609 5.36130962 -6.125 7.75 C-7.21167969 8.67039062 -7.21167969 8.67039062 -8.3203125 9.609375 C-8.87460937 10.06828125 -9.42890625 10.5271875 -10 11 C-10.66 10.67 -11.32 10.34 -12 10 C-10.38113585 8.32737283 -8.7547271 6.66204463 -7.125 5 C-6.22007812 4.071875 -5.31515625 3.14375 -4.3828125 2.1875 C-2 0 -2 0 0 0 Z " fill="#FA9115" transform="translate(366,1089)"/>
<path d="M0 0 C3.27811663 4.37082217 3.60675585 6.80776144 3 12 C2 15.5 2 15.5 1 18 C0.67 18 0.34 18 0 18 C0 12.06 0 6.12 0 0 Z " fill="#78CB31" transform="translate(917,511)"/>
<path d="M0 0 C1.65322266 0.01740234 1.65322266 0.01740234 3.33984375 0.03515625 C4.99693359 0.04869141 4.99693359 0.04869141 6.6875 0.0625 C7.54214844 0.07410156 8.39679687 0.08570313 9.27734375 0.09765625 C9.27734375 0.42765625 9.27734375 0.75765625 9.27734375 1.09765625 C6.96734375 1.09765625 4.65734375 1.09765625 2.27734375 1.09765625 C2.27734375 1.75765625 2.27734375 2.41765625 2.27734375 3.09765625 C1.51421875 3.05640625 0.75109375 3.01515625 -0.03515625 2.97265625 C-2.94984041 2.87684801 -2.94984041 2.87684801 -5.72265625 5.09765625 C-3.31355678 0.11885067 -3.31355678 0.11885067 0 0 Z " fill="#A0DF3C" transform="translate(748.72265625,511.90234375)"/>
<path d="M0 0 C3.90829085 0.5647301 5.89920223 2.42131971 8.75 5.0625 C9.54921875 5.79597656 10.3484375 6.52945312 11.171875 7.28515625 C11.77515625 7.85105469 12.3784375 8.41695313 13 9 C12.67 9.66 12.34 10.32 12 11 C9.99702215 9.35767739 7.99756092 7.71138756 6 6.0625 C5.42765625 5.59392578 4.8553125 5.12535156 4.265625 4.64257812 C2.82502935 3.45065672 1.41025129 2.22767412 0 1 C0 0.67 0 0.34 0 0 Z " fill="#62B116" transform="translate(734,320)"/>
<path d="M0 0 C0.66 0 1.32 0 2 0 C0.6062718 4.43458973 -1.60582235 6.87378374 -5 10 C-4.49890042 5.61537866 -3.01704885 3.1999003 0 0 Z " fill="#E9F2E7" transform="translate(530,477)"/>
<path d="M0 0 C0.66 1.32 1.32 2.64 2 4 C2.66 4.66 3.32 5.32 4 6 C1.69 7.65 -0.62 9.3 -3 11 C-2.01 7.37 -1.02 3.74 0 0 Z " fill="#DFF3CF" transform="translate(652,117)"/>
<path d="M0 0 C0.66 0.33 1.32 0.66 2 1 C0.92807816 2.3218362 -0.15802695 3.63217927 -1.25 4.9375 C-1.85328125 5.66839844 -2.4565625 6.39929688 -3.078125 7.15234375 C-5.10741134 9.10326334 -6.254407 9.61731779 -9 10 C-8.06409496 8.8944811 -7.12620142 7.79064547 -6.1875 6.6875 C-5.66542969 6.07261719 -5.14335938 5.45773438 -4.60546875 4.82421875 C-3.12827531 3.14575321 -1.59960869 1.56117966 0 0 Z " fill="#79C92D" transform="translate(593,73)"/>
<path d="M0 0 C0.33 0.66 0.66 1.32 1 2 C0.29296875 4.09375 0.29296875 4.09375 -0.8125 6.5 C-1.16957031 7.2940625 -1.52664063 8.088125 -1.89453125 8.90625 C-3 11 -3 11 -5 13 C-5 11.68 -5 10.36 -5 9 C-4.34 9 -3.68 9 -3 9 C-2.87625 7.700625 -2.7525 6.40125 -2.625 5.0625 C-2.4140625 2.84765625 -2.4140625 2.84765625 -2 1 C-1.34 0.67 -0.68 0.34 0 0 Z " fill="#335442" transform="translate(532,468)"/>
<path d="M0 0 C0.66 0.99 1.32 1.98 2 3 C0.35 5.31 -1.3 7.62 -3 10 C-3.66 9.67 -4.32 9.34 -5 9 C-3.7508258 5.54074837 -2.32472205 2.85306797 0 0 Z " fill="#24463B" transform="translate(712,410)"/>
<path d="M0 0 C0.66 0.33 1.32 0.66 2 1 C-0.62652025 4.59930552 -2.93963643 7.07666989 -7 9 C-7.66 8.67 -8.32 8.34 -9 8 C-6.03 5.36 -3.06 2.72 0 0 Z " fill="#70C421" transform="translate(454,203)"/>
<path d="M0 0 C0.33 0 0.66 0 1 0 C1.95261487 4.76307437 2.08333357 9.1666528 2 14 C1.01 13.34 0.02 12.68 -1 12 C-0.67 8.04 -0.34 4.08 0 0 Z " fill="#8ED34E" transform="translate(918,465)"/>
<path d="M0 0 C0.33 0.99 0.66 1.98 1 3 C-3.39453125 7.00390625 -3.39453125 7.00390625 -5 8 C-5.99 7.67 -6.98 7.34 -8 7 C-5.36 4.69 -2.72 2.38 0 0 Z " fill="#1B3F33" transform="translate(477,398)"/>
<path d="M0 0 C0.94875 0.04125 1.8975 0.0825 2.875 0.125 C2.875 0.455 2.875 0.785 2.875 1.125 C2.111875 1.2075 1.34875 1.29 0.5625 1.375 C-2.24731286 1.86497433 -2.24731286 1.86497433 -3.625 4.125 C-5.125 6.125 -5.125 6.125 -7.8125 6.875 C-8.9571875 6.99875 -8.9571875 6.99875 -10.125 7.125 C-3.125 0.125 -3.125 0.125 0 0 Z " fill="#145123" transform="translate(516.125,314.875)"/>
<path d="M0 0 C0.33 0.99 0.66 1.98 1 3 C-1.84936103 6.00765886 -4.23511958 8.27845212 -8 10 C-7.59007812 9.52949219 -7.18015625 9.05898438 -6.7578125 8.57421875 C-6.21898437 7.95160156 -5.68015625 7.32898438 -5.125 6.6875 C-4.59132813 6.07261719 -4.05765625 5.45773437 -3.5078125 4.82421875 C-1.8359553 2.86501788 -1.8359553 2.86501788 0 0 Z " fill="#C9DFCA" transform="translate(524,485)"/>
<path d="M0 0 C0.33 1.32 0.66 2.64 1 4 C-1.64 5.98 -4.28 7.96 -7 10 C-4.98127747 5.96255494 -2.91899872 3.37989325 0 0 Z " fill="#75C52A" transform="translate(530,481)"/>
<path d="M0 0 C0.66 0.33 1.32 0.66 2 1 C2 1.66 2 2.32 2 3 C-1.90028225 5.60018816 -5.47434569 5.15085514 -10 5 C-10 4.67 -10 4.34 -10 4 C-7.69 4 -5.38 4 -3 4 C-3 3.34 -3 2.68 -3 2 C-2.01 1.34 -1.02 0.68 0 0 Z " fill="#7CBA0E" transform="translate(881,948)"/>
<path d="M0 0 C0.99 0 1.98 0 3 0 C2.67 2.31 2.34 4.62 2 7 C1.01 7 0.02 7 -1 7 C-0.67 4.69 -0.34 2.38 0 0 Z " fill="#DEE6E4" transform="translate(779,466)"/>
<path d="M0 0 C0 0.99 0 1.98 0 3 C-1.98 3.99 -3.96 4.98 -6 6 C-6.66 5.34 -7.32 4.68 -8 4 C-5.36 2.68 -2.72 1.36 0 0 Z " fill="#6FC31C" transform="translate(508,168)"/>
<path d="M0 0 C0.33 0.66 0.66 1.32 1 2 C-0.98 4.31 -2.96 6.62 -5 9 C-5.66 8.67 -6.32 8.34 -7 8 C-4.69 5.36 -2.38 2.72 0 0 Z " fill="#E59D03" transform="translate(910,929)"/>
<path d="M0 0 C0.66 0.99 1.32 1.98 2 3 C-0.75 8.875 -0.75 8.875 -3 10 C-2.01 6.7 -1.02 3.4 0 0 Z " fill="#DBF0CA" transform="translate(910,559)"/>
<path d="M0 0 C2.475 0.495 2.475 0.495 5 1 C3.02 3.97 3.02 3.97 1 7 C0.11706286 4.35118859 0 2.74807818 0 0 Z " fill="#80CD26" transform="translate(741,511)"/>
<path d="M0 0 C0.66 0.33 1.32 0.66 2 1 C1.67 1.99 1.34 2.98 1 4 C-0.9375 4.8125 -0.9375 4.8125 -3 5 C-3.66 4.34 -4.32 3.68 -5 3 C-2.625 1.4375 -2.625 1.4375 0 0 Z " fill="#A5DF39" transform="translate(783,503)"/>
<path d="M0 0 C0.99 0 1.98 0 3 0 C2.34 1.32 1.68 2.64 1 4 C-0.32 4 -1.64 4 -3 4 C-1.6875 2 -1.6875 2 0 0 Z " fill="#08291D" transform="translate(763,493)"/>
</svg>