<?xml version="1.0" encoding="UTF-8"?>
<svg version="1.1" xmlns="http://www.w3.org/2000/svg" width="1254" height="1254" style="background: transparent;">

<path d="M0 0 C4.35851556 3.30125189 7.34459349 7.87682521 8.578125 13.1953125 C9.46191199 23.26331836 8.06908643 32.46709828 5.578125 42.1953125 C5.29195312 43.36449219 5.00578125 44.53367188 4.7109375 45.73828125 C4.01584692 48.56167299 3.30515393 51.38000898 2.578125 54.1953125 C3.28195312 53.51726562 3.98578125 52.83921875 4.7109375 52.140625 C19.81875083 37.80610751 37.06222183 24.29203273 58.640625 23.8828125 C59.31399902 23.86484619 59.98737305 23.84687988 60.68115234 23.82836914 C66.57392256 23.83918818 71.28171608 25.19109898 75.7578125 29.09765625 C76.31726563 29.76925781 76.87671875 30.44085938 77.453125 31.1328125 C78.02804687 31.80183594 78.60296875 32.47085938 79.1953125 33.16015625 C82.41815943 37.90338576 82.1965716 43.67294819 81.578125 49.1953125 C78.28461066 62.80314981 70.63059515 72.83839656 61.578125 83.1953125 C62.5168042 83.4855127 63.4554834 83.77571289 64.42260742 84.07470703 C106.30921347 97.11789843 143.79756483 115.27023152 175.578125 146.1953125 C176.12984375 146.72656738 176.6815625 147.25782227 177.25 147.80517578 C184.5652014 154.86661016 191.41300537 162.08706111 197.578125 170.1953125 C198.06249023 170.83033691 198.54685547 171.46536133 199.04589844 172.11962891 C207.51380693 183.29987363 214.92993191 194.84901355 221.578125 207.1953125 C222.02897461 208.02981934 222.47982422 208.86432617 222.94433594 209.72412109 C236.72897712 235.53730474 246.57016113 263.08661884 253.578125 291.4453125 C253.90395065 292.7549144 253.90395065 292.7549144 254.23635864 294.0909729 C257.94335524 309.03459539 261.14580023 323.98558547 263.578125 339.1953125 C263.80338867 340.57009766 263.80338867 340.57009766 264.03320312 341.97265625 C265.01384088 348.03238193 265.85586002 354.09948752 266.578125 360.1953125 C266.68253906 361.07026367 266.78695312 361.94521484 266.89453125 362.84667969 C272.24520387 409.93598525 269.07470836 457.15514788 239.390625 496.0625 C232.04234889 505.27335999 224.07341012 513.21414543 214.578125 520.1953125 C217.88838624 523.64375161 221.25667212 526.54077615 225.140625 529.3203125 C230.7246812 533.44138719 235.79830502 537.91205416 240.85546875 542.65625 C242.99374384 544.65033725 245.15593092 546.56295679 247.390625 548.4453125 C256.83325124 556.66316295 265.74384168 565.70844787 273.484375 575.54296875 C275.71484432 578.36850731 278.04739446 581.08777942 280.390625 583.8203125 C297.22192592 604.05949661 314.81033807 629.34536235 322.6640625 654.67578125 C323.5924559 657.41262828 323.5924559 657.41262828 325.3984375 660.65625 C328.3211812 666.39654007 330.14185567 672.50560674 332.078125 678.6328125 C332.47394775 679.87820801 332.86977051 681.12360352 333.27758789 682.40673828 C337.29021988 695.20297269 340.42648776 707.73604944 342.14453125 721.0546875 C342.53313141 723.86941298 343.04259188 726.60654194 343.640625 729.3828125 C347.60320742 748.44370165 347.46545816 770.35502301 342.578125 789.1953125 C342.38089844 789.989375 342.18367187 790.7834375 341.98046875 791.6015625 C341.84769531 792.1275 341.71492187 792.6534375 341.578125 793.1953125 C342.51269531 792.69902344 343.44726562 792.20273437 344.41015625 791.69140625 C374.4510563 776.03475948 412.09369715 765.76391092 445.578125 776.1953125 C456.21928709 779.82970258 465.00607752 784.87610273 473.578125 792.1953125 C474.23039062 792.73542969 474.88265625 793.27554688 475.5546875 793.83203125 C489.09650424 806.10623501 497.68264402 827.03876391 498.7421875 844.97216797 C499.25256303 858.31210826 498.83463862 871.22576373 495.578125 884.1953125 C495.39008301 884.97148926 495.20204102 885.74766602 495.00830078 886.54736328 C490.30536566 905.43019028 481.59194477 921.94927899 469.578125 937.1953125 C469.14387207 937.74912598 468.70961914 938.30293945 468.26220703 938.87353516 C453.8911498 956.99356384 436.07416636 970.61149205 415.578125 981.1953125 C414.91087402 981.54190918 414.24362305 981.88850586 413.55615234 982.24560547 C371.47066748 1003.80998508 322.85509117 1008.65776765 276.578125 1001.1953125 C275.72814941 1001.06141113 274.87817383 1000.92750977 274.00244141 1000.78955078 C239.83830726 995.21159498 205.99835998 982.13294407 176.54418945 963.98925781 C174.08667276 962.99685196 173.01973809 963.24600482 170.578125 964.1953125 C167.96915594 965.97156477 167.96915594 965.97156477 165.390625 968.1328125 C164.51019531 968.84308594 163.62976563 969.55335938 162.72265625 970.28515625 C160.51389135 972.0150743 160.51389135 972.0150743 159.578125 974.1953125 C160.56039062 974.43507813 161.54265625 974.67484375 162.5546875 974.921875 C167.03013119 976.20859313 170.91131522 978.28999861 174.953125 980.5703125 C175.73260498 981.00875488 176.51208496 981.44719727 177.31518555 981.89892578 C193.82918392 991.3730524 218.12509296 1005.86985626 224.1953125 1025.15625 C224.92673793 1029.05220997 224.93754878 1032.44302543 223.578125 1036.1953125 C219.9490112 1040.9763641 215.40365682 1043.10369954 209.578125 1044.1953125 C205.93556433 1044.55331494 202.2979027 1044.70031979 198.640625 1044.8203125 C197.67060547 1044.85898438 196.70058594 1044.89765625 195.70117188 1044.9375 C193.32700424 1045.03106326 190.95283008 1045.11680458 188.578125 1045.1953125 C188.45332764 1045.86788086 188.32853027 1046.54044922 188.19995117 1047.23339844 C188.02955322 1048.12317383 187.85915527 1049.01294922 187.68359375 1049.9296875 C187.43452271 1051.24791504 187.43452271 1051.24791504 187.18041992 1052.59277344 C185.78585219 1058.61875319 182.92868184 1064.23231605 178.0234375 1068.12890625 C171.42328326 1071.00724828 161.81607634 1070.21657113 155.078125 1068.0703125 C153.56995585 1067.46529116 152.07137111 1066.83628135 150.578125 1066.1953125 C148.55801275 1065.39528392 146.5320329 1064.61277244 144.50195312 1063.83837891 C143.0799654 1063.29507228 141.66175932 1062.7417355 140.24804688 1062.17724609 C135.04132682 1060.10107293 135.04132682 1060.10107293 129.578125 1060.1953125 C127.41681564 1062.04418951 127.41681564 1062.04418951 125.578125 1064.5078125 C121.13772622 1070.0672634 117.04622462 1072.58665497 110.0546875 1073.5390625 C96.95852703 1074.25666033 87.06220297 1067.32764443 77.63085938 1059.02026367 C64.01129013 1046.51834552 52.83788994 1031.08648265 47.578125 1013.1953125 C47.5376952 1010.86232946 47.53229369 1008.52819568 47.578125 1006.1953125 C46.640896 1006.2660498 45.70366699 1006.33678711 44.73803711 1006.40966797 C28.57725029 1007.4964108 12.3882233 1007.34786695 -3.80004883 1007.32568359 C-8.00978429 1007.31999147 -12.21945641 1007.32335923 -16.42918968 1007.32913589 C-33.11602962 1007.3484427 -49.76632811 1007.36416952 -66.421875 1006.1953125 C-66.47468628 1007.20718628 -66.47468628 1007.20718628 -66.52856445 1008.23950195 C-66.91502774 1014.69350475 -68.39747518 1019.52129439 -71.421875 1025.1953125 C-72.00324219 1026.29230469 -72.58460938 1027.38929687 -73.18359375 1028.51953125 C-77.25520327 1036.00785457 -81.70473194 1042.83188371 -87.421875 1049.1953125 C-87.85483887 1049.67742187 -88.28780273 1050.15953125 -88.73388672 1050.65625 C-95.88760813 1058.50467669 -103.14393112 1063.95837267 -112.421875 1069.1953125 C-113.03160156 1069.6490625 -113.64132812 1070.1028125 -114.26953125 1070.5703125 C-120.02131902 1074.80692344 -127.70425646 1074.12632573 -134.421875 1073.1953125 C-140.74231345 1070.71422348 -144.75147649 1066.06618173 -148.62109375 1060.63671875 C-150.38986722 1058.90442587 -150.38986722 1058.90442587 -153.12890625 1059.2578125 C-157.0831052 1060.38356309 -160.69488251 1061.91293157 -164.421875 1063.6328125 C-171.81610607 1067.00330317 -178.14200041 1069.55474883 -186.421875 1069.5703125 C-187.10765625 1069.59480469 -187.7934375 1069.61929687 -188.5 1069.64453125 C-194.77228371 1069.68044127 -198.23387398 1067.3207992 -202.609375 1063.0703125 C-206.02974531 1057.64489752 -207.19456086 1051.42599244 -208.421875 1045.1953125 C-209.07148193 1045.1859668 -209.72108887 1045.17662109 -210.39038086 1045.16699219 C-213.38076839 1045.11276167 -216.36967875 1045.029221 -219.359375 1044.9453125 C-220.89174805 1044.92404297 -220.89174805 1044.92404297 -222.45507812 1044.90234375 C-229.88603007 1044.66493314 -237.03117841 1043.69196836 -242.421875 1038.1328125 C-244.61603516 1033.8816272 -245.17685102 1029.8808338 -244.421875 1025.1953125 C-236.3986062 1001.75405712 -206.50737896 986.41750241 -185.98046875 975.87890625 C-182.421875 974.1953125 -182.421875 974.1953125 -180.421875 974.1953125 C-183.55768103 970.97023085 -186.74505244 968.07546458 -190.296875 965.3203125 C-225.82949123 936.37842347 -245.13885269 896.05470974 -255.421875 852.1953125 C-255.59203125 851.47811035 -255.7621875 850.7609082 -255.9375 850.02197266 C-260.65188507 829.59466407 -260.72823603 808.05805522 -261.421875 787.1953125 C-261.7621875 788.22269531 -262.1025 789.25007812 -262.453125 790.30859375 C-266.19241654 801.1640932 -270.61686432 812.6671675 -281.421875 818.1953125 C-286.26078967 819.80828406 -290.12958603 819.60340375 -294.984375 818.0703125 C-299.03495028 815.8609078 -301.39669046 813.66320697 -304.421875 810.1953125 C-304.421875 809.5353125 -304.421875 808.8753125 -304.421875 808.1953125 C-305.081875 808.1953125 -305.741875 808.1953125 -306.421875 808.1953125 C-306.421875 808.8553125 -306.421875 809.5153125 -306.421875 810.1953125 C-312.81764539 817.54448966 -322.5948105 824.1038562 -332.23828125 825.91015625 C-342.07156537 826.32365845 -350.05397568 823.82178926 -357.54296875 817.3671875 C-371.11474784 803.00736963 -372.81798037 782.74356823 -372.671875 764.0078125 C-372.66810852 763.2752121 -372.66434204 762.54261169 -372.66046143 761.78781128 C-372.59634551 751.15341863 -372.45842621 740.67262057 -370.421875 730.1953125 C-370.25478027 729.31085449 -370.08768555 728.42639648 -369.91552734 727.51513672 C-364.79835265 701.3042648 -356.38177345 675.09663851 -344.421875 651.1953125 C-343.94524414 650.22722656 -343.46861328 649.25914062 -342.97753906 648.26171875 C-335.71632934 633.58353834 -327.72236066 619.67264474 -318.421875 606.1953125 C-317.97215332 605.53998535 -317.52243164 604.8846582 -317.05908203 604.20947266 C-307.86279169 590.87641862 -297.88068033 578.418562 -286.76611328 566.64111328 C-284.84908729 564.57924842 -283.0131185 562.4498133 -281.171875 560.3203125 C-278.12044855 556.8582386 -274.86564907 553.84305571 -271.34375 550.8671875 C-269.49726556 549.26089616 -267.80654477 547.58213636 -266.109375 545.8203125 C-258.63232349 538.25924918 -249.97485464 532.02915401 -241.37304688 525.82519531 C-238.91402622 524.04866256 -236.57103482 522.34447232 -234.421875 520.1953125 C-235.22238281 519.61136719 -235.22238281 519.61136719 -236.0390625 519.015625 C-257.78821492 502.68494654 -271.30464783 480.48034912 -280.62158203 455.32617188 C-281.27883209 453.57617842 -281.98272954 451.84377313 -282.69921875 450.1171875 C-288.5108626 435.81835056 -288.97092299 420.04379265 -288.859375 404.8203125 C-288.85666595 403.94323639 -288.85395691 403.06616028 -288.85116577 402.1625061 C-288.66768717 362.48961054 -283.20558457 319.69728044 -270.09179688 282.13354492 C-269.10230955 279.27073884 -268.29739269 276.36240602 -267.484375 273.4453125 C-264.57198885 263.16890814 -261.64017311 253.02020935 -257.421875 243.1953125 C-257.16986328 242.5971875 -256.91785156 241.9990625 -256.65820312 241.3828125 C-245.85644295 215.83777228 -232.5954394 191.98232604 -215.421875 170.1953125 C-214.99358398 169.64842773 -214.56529297 169.10154297 -214.12402344 168.53808594 C-201.83686736 153.00271236 -187.45398615 138.82211921 -171.421875 127.1953125 C-170.27302755 126.34039436 -169.12459516 125.48491821 -167.9765625 124.62890625 C-159.78594779 118.58640482 -151.27966581 113.20253347 -142.421875 108.1953125 C-141.36105713 107.59203125 -141.36105713 107.59203125 -140.27880859 106.9765625 C-126.62303625 99.28824555 -111.73786499 91.73218359 -96.375 88.23828125 C-93.31523605 87.50016856 -93.31523605 87.50016856 -92.109375 85.12109375 C-91.7690625 83.82751953 -91.7690625 83.82751953 -91.421875 82.5078125 C-83.88365852 58.04055055 -68.47060277 35.14338511 -50.421875 17.1953125 C-49.59042969 16.36386719 -48.75898437 15.53242187 -47.90234375 14.67578125 C-35.92620054 3.31876014 -16.66224422 -10.01134842 0 0 Z " fill="#61C20A" transform="translate(623.421875,74.8046875)"/>
<path d="M0 0 C25.94237448 23.81691822 46.73415635 53.78058762 57 87.74609375 C57.75283451 90.19574667 58.5636149 92.54455037 59.4765625 94.93359375 C67.74329037 116.70765709 72.09548674 142.04455431 72.203125 165.2890625 C72.20882507 166.26878021 72.21452515 167.24849792 72.22039795 168.25790405 C72.2298092 170.33045386 72.23636644 172.40301837 72.24023438 174.47558594 C72.24982122 177.56734374 72.28083189 180.65840117 72.3125 183.75 C72.5484264 227.9836568 59.61920065 273.56752422 31 308 C30.35224609 308.78890625 30.35224609 308.78890625 29.69140625 309.59375 C11.1964158 332.04837255 -11.64511201 348.06842472 -39 358 C-39.82661133 358.31662598 -40.65322266 358.63325195 -41.50488281 358.95947266 C-84.1968158 375.07291743 -138.32056352 373.38700582 -180.1328125 355.06542969 C-184.84936444 352.88337176 -189.43970388 350.48968858 -194 348 C-195.06992187 347.4225 -196.13984375 346.845 -197.2421875 346.25 C-209.48260062 339.38265134 -219.88621921 330.62254001 -230 321 C-230.69609375 320.36835937 -231.3921875 319.73671875 -232.109375 319.0859375 C-262.28328026 290.78231563 -277.0339808 246.95544117 -282 207 C-282.09716309 206.23582764 -282.19432617 205.47165527 -282.29443359 204.68432617 C-283.22222249 196.19546828 -283.15127911 187.69480589 -283.13037109 179.16674805 C-283.12501834 176.57139221 -283.13034016 173.97620992 -283.13671875 171.38085938 C-283.14239679 158.37317911 -282.38753764 145.80978278 -280 133 C-279.87254395 132.2884375 -279.74508789 131.576875 -279.61376953 130.84375 C-277.28599363 117.92661204 -274.08380883 105.47189576 -270 93 C-269.75491699 92.25089355 -269.50983398 91.50178711 -269.25732422 90.72998047 C-256.75903197 53.0177421 -235.66327925 18.57266073 -204 -6 C-203.47132324 -6.41040527 -202.94264648 -6.82081055 -202.39794922 -7.24365234 C-194.05681141 -13.64682553 -185.45006515 -18.7211871 -175.90234375 -23.11816406 C-174.16204931 -23.92488166 -172.43931089 -24.76919678 -170.71875 -25.6171875 C-116.66895964 -50.93662813 -44.29667036 -39.64106976 0 0 Z " fill="#94D91B" transform="translate(717,665)"/>
<path d="M0 0 C1.83303885 1.47483045 3.6482923 2.97229189 5.4375 4.5 C6.08976562 5.04011719 6.74203125 5.58023438 7.4140625 6.13671875 C20.95587924 18.41092251 29.54201902 39.34345141 30.6015625 57.27685547 C31.11193803 70.61679576 30.69401362 83.53045123 27.4375 96.5 C27.15543701 97.66426514 27.15543701 97.66426514 26.86767578 98.85205078 C22.16474066 117.73487778 13.45131977 134.25396649 1.4375 149.5 C1.00324707 150.05381348 0.56899414 150.60762695 0.12158203 151.17822266 C-14.2494752 169.29825134 -32.06645864 182.91617955 -52.5625 193.5 C-53.22975098 193.84659668 -53.89700195 194.19319336 -54.58447266 194.55029297 C-96.66995752 216.11467258 -145.28553383 220.96245515 -191.5625 213.5 C-192.41247559 213.36609863 -193.26245117 213.23219727 -194.13818359 213.09423828 C-230.48981303 207.15913156 -263.55781319 192.15762409 -295.5625 174.5 C-294.84449219 173.78714844 -294.12648438 173.07429688 -293.38671875 172.33984375 C-280.15296421 159.08748288 -269.80685886 144.74740853 -260.5625 128.5 C-260.19850098 127.86384766 -259.83450195 127.22769531 -259.45947266 126.57226562 C-254.85707943 118.46221324 -251.25719218 110.45588873 -248.5625 101.5 C-247.26524371 97.7990041 -245.89267007 94.17325181 -244.1640625 90.6484375 C-241.67667908 84.85885137 -240.72850066 78.58628717 -239.5 72.4375 C-239.24412109 71.20322266 -238.98824219 69.96894531 -238.72460938 68.69726562 C-235.62921532 53.49084391 -234.13417088 38.5939371 -233.4375 23.125 C-233.35086422 21.30986691 -233.26362852 19.49476236 -233.17578125 17.6796875 C-232.96445312 13.28675579 -232.7611891 8.89352075 -232.5625 4.5 C-230.35974692 6.70275308 -229.89076863 8.09517748 -228.875 11 C-225.89558107 18.62510548 -221.47069341 26.27200927 -214.375 30.72265625 C-210.21960203 32.50482047 -206.57987567 32.2023456 -202.453125 30.765625 C-197.97148767 28.7101372 -194.82432925 26.16955791 -191.5625 22.5 C-188.2527684 23.92787094 -186.25011403 25.67846666 -183.8125 28.3125 C-177.2065469 35.09099665 -171.17067135 38.52702387 -161.6875 39 C-152.72325338 38.89905128 -144.65145689 35.60308109 -138.30078125 29.23046875 C-134.41957633 24.01904609 -131.93885487 18.20060407 -129.60546875 12.1640625 C-129.08919922 10.84535156 -129.08919922 10.84535156 -128.5625 9.5 C-128.33046875 8.80261719 -128.0984375 8.10523438 -127.859375 7.38671875 C-125.81441899 4.41167733 -122.79863019 3.19983814 -119.625 1.6875 C-118.91988281 1.34493164 -118.21476563 1.00236328 -117.48828125 0.64941406 C-81.92359261 -16.21583383 -33.97722154 -24.79533229 0 0 Z " fill="#FD8702" transform="translate(1091.5625,862.5)"/>
<path d="M0 0 C1.02480469 0.43957031 2.04960938 0.87914062 3.10546875 1.33203125 C9.88613317 4.27274951 16.03569687 7.7329507 22.15576172 11.84082031 C24.75261129 13.58228221 27.26395994 15.1241577 30.09765625 16.45703125 C33.41769905 18.22206074 35.35800143 20.32393554 38 23 C41.14095509 25.48833603 44.38110239 27.83567423 47.625 30.1875 C48.91277344 31.13012695 48.91277344 31.13012695 50.2265625 32.09179688 C53.4535326 34.44899769 56.67454819 36.78303213 60 39 C60 39.66 60 40.32 60 41 C60.845625 40.938125 61.69125 40.87625 62.5625 40.8125 C65.88808759 40.99389569 67.80713929 41.74384134 70.76171875 43.15234375 C73.72511805 44.27460841 76.70056195 44.78497924 79.8125 45.375 C92.81660875 48.07214848 102.81208691 54.59168625 110.4375 65.625 C115.19373919 73.0362145 116.48573767 78.80094055 116.375 87.5 C116.38660156 88.41136719 116.39820313 89.32273437 116.41015625 90.26171875 C116.36149534 101.50238813 110.9104595 109.92112942 103.5 118.125 C94.7880914 126.50247832 81.85958584 131.25354584 70.0625 132.8125 C63.64820016 133.78805891 59.34656088 136.49077519 54 140 C23.88901393 157.60907489 -15.25879143 159.4336197 -49.1875 159.375 C-50.32219727 159.37478851 -51.45689453 159.37457703 -52.62597656 159.37435913 C-91.51480355 159.3023099 -128.77853853 154.42118437 -163.015625 134.84765625 C-165.92782388 133.60366578 -168.88306712 133.21672923 -172 132.6875 C-186.71705304 129.92961953 -199.2065669 123.4451213 -208 111 C-214.33671699 99.88571309 -217.09123087 89.6316119 -214.31640625 76.8515625 C-212.24639288 70.71882578 -209.26089357 65.83830438 -205 61 C-204.44828125 60.33226562 -203.8965625 59.66453125 -203.328125 58.9765625 C-194.78730875 49.45026745 -183.52007637 45.60667983 -171.30517578 43.32910156 C-165.09983492 42.1679496 -159.4016315 40.82759584 -155 36 C-152.93270479 34.46951625 -150.85642002 32.97443595 -148.75 31.5 C-144.25060028 28.32509635 -139.78533981 25.11454811 -135.36865234 21.82543945 C-96.63827904 -6.94150231 -46.14826355 -22.76647669 0 0 Z " fill="#FC8701" transform="translate(663,421)"/>
<path d="M0 0 C15.29428394 11.73424808 23.99599149 26.93039548 27 46 C27.2910011 49.67740909 27.35050524 53.33941082 27.37109375 57.02734375 C27.38012222 58.05573868 27.3891507 59.08413361 27.39845276 60.14369202 C27.41287882 62.31101612 27.42182282 64.47838302 27.42553711 66.64575195 C27.43735675 69.89808209 27.48655618 73.14846373 27.53710938 76.40039062 C27.67699689 94.35356226 25.67182391 111.05467167 15 126 C14.45730469 126.78503906 13.91460938 127.57007813 13.35546875 128.37890625 C9.94187911 132.17744464 5.98039533 135.04740047 1.875 138.0625 C1.070625 138.67416016 0.26625 139.28582031 -0.5625 139.91601562 C-12.99496551 149.10134358 -25.8103074 151.24380374 -41 150 C-56.32121335 147.22344824 -68.51685879 138.61055511 -77.96484375 126.4765625 C-81.49826761 121.32719643 -84.05237812 115.91986354 -86.3125 110.125 C-86.67649902 109.20823486 -86.67649902 109.20823486 -87.04785156 108.27294922 C-91.18389087 96.95002972 -91.34841894 84.99354185 -91.31567383 73.09008789 C-91.31251766 70.7008679 -91.33605607 68.31289597 -91.36132812 65.92382812 C-91.45247203 43.87538021 -86.59203123 23.35267433 -70.625 7.1875 C-51.48208681 -11.12084477 -22.47860261 -15.5384876 0 0 Z " fill="#FAFBF9" transform="translate(518,312)"/>
<path d="M0 0 C13.60730542 11.77893363 21.20323523 28.49186063 22.75 46.25 C22.89693701 49.36893492 22.936672 52.4833555 22.953125 55.60546875 C22.95882507 56.46956863 22.96452515 57.33366852 22.97039795 58.22395325 C22.97978074 60.04162396 22.98635491 61.85931116 22.99023438 63.67700195 C22.99991416 66.41323555 23.03099165 69.14870834 23.0625 71.88476562 C23.14344636 85.05368517 22.13421105 97.34236499 16.5625 109.5 C16.26134277 110.16837891 15.96018555 110.83675781 15.64990234 111.52539062 C12.84023163 117.49972896 9.32654586 122.47559595 4.75 127.25 C4.08484375 127.95511719 3.4196875 128.66023437 2.734375 129.38671875 C-8.46827546 140.27818447 -23.44987977 145.45850557 -38.875 145.625 C-53.01519597 145.39488978 -60.49693182 140.41129382 -71.26538086 131.80004883 C-73.30611444 130.20617289 -75.4034467 128.7138617 -77.51171875 127.2109375 C-87.96969988 119.38403138 -92.90757367 103.56246249 -94.85522461 91.08203125 C-95.64589261 83.40712401 -95.62186744 75.70691823 -95.62060547 67.99755859 C-95.62497079 65.01992217 -95.66136868 62.0437811 -95.69921875 59.06640625 C-95.82568673 37.81956414 -91.5169709 18.10622241 -76.25 2.25 C-53.86998838 -18.71865953 -23.85005233 -19.29956652 0 0 Z " fill="#FAFBF9" transform="translate(777.25,316.75)"/>
<path d="M0 0 C9.29609246 9.42546154 21.55580328 16.73280516 35.078125 17.265625 C36.46873731 17.27352527 37.8594821 17.26802732 39.25 17.25 C39.9814624 17.24613281 40.7129248 17.24226563 41.46655273 17.23828125 C47.76481299 17.13910689 53.84006204 16.32931224 60 15 C58.30527237 18.38945526 54.72429758 18.79172153 51.2890625 20.0078125 C47.93483356 21.01965828 44.63234597 21.68262974 41.1875 22.3125 C28.57936589 24.90869848 17.91883342 30.72731151 10 41 C3.39046202 51.96183088 0.78514953 62.95188887 3.87109375 75.55859375 C8.47358389 88.37011548 16.82661348 97.91330674 29 104 C31.56559657 105.0194576 34.16677302 105.84025047 36.8125 106.625 C37.51536133 106.84172363 38.21822266 107.05844727 38.94238281 107.28173828 C42.69985615 108.414163 46.362209 109.29529697 50.25 109.875 C55.42540425 110.78780008 59.26666967 113.36638061 63.68359375 116.11328125 C69.49651757 119.42028031 75.74605175 121.66758487 82 124 C70.57618104 139.34055688 50.20601383 147.9467544 31.67431641 150.70703125 C3.65383065 153.77664809 -23.46629915 148.35277969 -45.75 130.5625 C-63.08508943 115.81771129 -77.52240418 94.22746082 -80 71 C-80.51579099 61.88615749 -80.53295851 52.82916966 -78 44 C-77.74347656 43.04867187 -77.48695313 42.09734375 -77.22265625 41.1171875 C-72.67916656 25.8682221 -62.51205494 13.25050872 -48.9375 5 C-43.47706446 2.07018407 -37.9274898 -0.20543887 -32 -2 C-30.98292969 -2.32097656 -30.98292969 -2.32097656 -29.9453125 -2.6484375 C-24.66120788 -4.06712707 -19.18686835 -4.48465361 -13.75 -4.9375 C-12.57812134 -5.06064575 -12.57812134 -5.06064575 -11.38256836 -5.1862793 C-5.74130487 -5.56737206 -3.66881945 -4.5811369 0 0 Z " fill="#93D91C" transform="translate(446,444)"/>
<path d="M0 0 C0.495 0.99 0.495 0.99 1 2 C1.71800781 1.95359375 2.43601562 1.9071875 3.17578125 1.859375 C22.21503156 1.1954908 39.99692336 6.42505623 54.375 19.125 C67.52627976 31.43548887 74.72551721 48.32206732 75.40869141 66.23779297 C75.53542555 75.63974817 73.81226272 84.06366517 71 93 C70.649375 94.12148438 70.29875 95.24296875 69.9375 96.3984375 C62.51819429 117.67741847 45.18349028 137.04034576 25 147 C19.10638195 149.62599878 13.09380004 151.88605457 7 154 C5.95328125 154.36609375 4.9065625 154.7321875 3.828125 155.109375 C-10.90310793 159.32967416 -28.14225402 157.8987184 -43 155 C-44.50336914 154.71334473 -44.50336914 154.71334473 -46.03710938 154.42089844 C-60.46601588 151.51745757 -78.61338419 142.47974229 -87 130 C-86.44054687 129.79246094 -85.88109375 129.58492187 -85.3046875 129.37109375 C-72.48738733 124.5721624 -72.48738733 124.5721624 -61.01953125 117.37109375 C-58.16138357 115.4306492 -55.45800511 115.17369652 -52.0625 114.625 C-37.74919073 112.04594659 -24.41016185 106.47635491 -15 95 C-7.35014236 83.82740882 -6.61928906 73.34945805 -8 60 C-10.76210412 50.01636412 -18.30557209 40.94366794 -26.8125 35.125 C-34.19048879 30.97396456 -42.54291518 28.84799052 -50.84375 27.4921875 C-53.13975193 26.9681001 -54.91166899 26.06963296 -57 25 C-58.99110401 24.61709538 -60.99100513 24.27395385 -63 24 C-63.33 23.01 -63.66 22.02 -64 21 C-62.84757813 21.32226562 -61.69515625 21.64453125 -60.5078125 21.9765625 C-45.13281397 25.79496873 -29.61321562 22.02768573 -15.83203125 14.77734375 C-9.63858925 10.89042498 -4.22930814 5.97237763 0 0 Z " fill="#94D91C" transform="translate(786,438)"/>
<path d="M0 0 C2.796875 1.46875 2.796875 1.46875 5.75 3.5 C18.95092649 12.10267767 33.39324577 17.05287929 48.48657227 21.24487305 C51.23861487 22.07168876 53.91215043 23.05530529 56.61328125 24.03515625 C63.20946343 26.25664117 69.86602625 27.18130292 76.75317383 27.95581055 C78.80137889 28.18624879 80.84684233 28.43421292 82.89257812 28.68554688 C91.91339305 29.76992561 100.92926252 30.48150884 110 31 C109.64587555 38.55735608 108.60442897 44.33128703 105 51 C104.12794922 52.64355469 104.12794922 52.64355469 103.23828125 54.3203125 C99.16906024 61.8114017 94.717921 68.63570532 89 75 C88.56703613 75.48210937 88.13407227 75.96421875 87.68798828 76.4609375 C80.53426687 84.30936419 73.27794388 89.76306017 64 95 C63.39027344 95.45375 62.78054688 95.9075 62.15234375 96.375 C56.40055598 100.61161094 48.71761854 99.93101323 42 99 C35.67956155 96.51891098 31.67039851 91.87086923 27.80078125 86.44140625 C26.03200778 84.70911337 26.03200778 84.70911337 23.29296875 85.0625 C19.3387698 86.18825059 15.72699249 87.71761907 12 89.4375 C4.60576893 92.80799067 -1.72012541 95.35943633 -10 95.375 C-10.68578125 95.39949219 -11.3715625 95.42398437 -12.078125 95.44921875 C-18.35040871 95.48512877 -21.81199898 93.1254867 -26.1875 88.875 C-29.60787031 83.44958502 -30.77268586 77.23067994 -32 71 C-32.64960693 70.9906543 -33.29921387 70.98130859 -33.96850586 70.97167969 C-36.95889339 70.91744917 -39.94780375 70.8339085 -42.9375 70.75 C-44.46987305 70.72873047 -44.46987305 70.72873047 -46.03320312 70.70703125 C-53.46415507 70.46962064 -60.60930341 69.49665586 -66 63.9375 C-68.19416016 59.6863147 -68.75497602 55.6855213 -68 51 C-60.41158608 28.82924227 -33.23027206 14.46295933 -14 4 C-13.29601074 3.60280762 -12.59202148 3.20561523 -11.86669922 2.79638672 C-7.78626284 0.59014365 -4.7467504 -0.7781558 0 0 Z " fill="#FC8803" transform="translate(447,1049)"/>
<path d="M0 0 C1.83216903 0.94184939 3.64198594 1.92752334 5.4375 2.9375 C6.70544042 3.56705821 7.97652486 4.19030781 9.25 4.80859375 C28.14155382 14.15380137 52.50968284 28.8696632 61.4375 48.9375 C62.83202924 53.3682195 63.03218129 57.53585419 61.4375 61.9375 C57.8083862 66.7185516 53.26303182 68.84588704 47.4375 69.9375 C43.79493933 70.29550244 40.1572777 70.44250729 36.5 70.5625 C35.52998047 70.60117188 34.55996094 70.63984375 33.56054688 70.6796875 C31.18637924 70.77325076 28.81220508 70.85899208 26.4375 70.9375 C26.31270264 71.61006836 26.18790527 72.28263672 26.05932617 72.97558594 C25.88892822 73.86536133 25.71853027 74.75513672 25.54296875 75.671875 C25.29389771 76.99010254 25.29389771 76.99010254 25.03979492 78.33496094 C23.64522719 84.36094069 20.78805684 89.97450355 15.8828125 93.87109375 C9.28265826 96.74943578 -0.32454866 95.95875863 -7.0625 93.8125 C-8.57066915 93.20747866 -10.06925389 92.57846885 -11.5625 91.9375 C-13.58261225 91.13747142 -15.6085921 90.35495994 -17.63867188 89.58056641 C-19.0606596 89.03725978 -20.47886568 88.483923 -21.89257812 87.91943359 C-27.09929818 85.84326043 -27.09929818 85.84326043 -32.5625 85.9375 C-34.72380936 87.78637701 -34.72380936 87.78637701 -36.5625 90.25 C-41.00289878 95.8094509 -45.09440038 98.32884247 -52.0859375 99.28125 C-65.18209797 99.99884783 -75.07842203 93.06983193 -84.50976562 84.76245117 C-97.26193082 73.05675603 -113.48101028 54.75428721 -114.71484375 36.70947266 C-114.71822851 34.78481471 -114.64711167 32.86030018 -114.5625 30.9375 C-113.95180664 30.90833496 -113.34111328 30.87916992 -112.71191406 30.84912109 C-95.20540042 29.93062955 -78.59312633 27.02677881 -61.5625 22.9375 C-60.44669556 22.67755249 -60.44669556 22.67755249 -59.30834961 22.41235352 C-41.97005958 18.272539 -23.62011551 11.43434822 -9 1.125 C-5.52569041 -1.00479937 -3.85897278 -1.40209344 0 0 Z " fill="#FC8803" transform="translate(785.5625,1049.0625)"/>
<path d="M0 0 C7.19351298 5.44025534 12.57548151 11.11277803 15 20 C15.40640068 23.44245027 15.4214295 26.84505658 15.3984375 30.30859375 C15.40130768 31.27475113 15.40417786 32.24090851 15.40713501 33.23634338 C15.4091665 35.26930328 15.40370103 37.30228314 15.39111328 39.33520508 C15.37506444 42.42509256 15.3909845 45.51366866 15.41015625 48.60351562 C15.40817331 50.58854452 15.4043286 52.57357261 15.3984375 54.55859375 C15.40754654 55.92775185 15.40754654 55.92775185 15.4168396 57.3245697 C15.29936462 68.18737698 11.82625968 75.95491367 4.3359375 83.7265625 C-2.66448619 90.21553971 -9.68757341 91.53395765 -18.99365234 91.48999023 C-27.27529596 91.1734018 -32.91135441 88.18688421 -38.875 82.625 C-45.48557849 75.45446663 -48.33628252 67.71009567 -48.1953125 57.9765625 C-48.1924826 57.23038666 -48.18965271 56.48421082 -48.18673706 55.71542358 C-48.17561687 53.35178012 -48.15052821 50.98852732 -48.125 48.625 C-48.11495962 47.01432842 -48.10583562 45.40365085 -48.09765625 43.79296875 C-48.0757044 39.86183056 -48.04123185 35.93098133 -48 32 C-47.31800537 31.87737793 -46.63601074 31.75475586 -45.93334961 31.62841797 C-45.03624268 31.45971191 -44.13913574 31.29100586 -43.21484375 31.1171875 C-42.32659912 30.95331543 -41.43835449 30.78944336 -40.52319336 30.62060547 C-35.40276911 29.36118424 -31.72921579 26.45293102 -29 22 C-27.24765304 16.74295913 -27.22553025 11.78464768 -29.4375 6.6875 C-29.953125 5.800625 -30.46875 4.91375 -31 4 C-31.6875 1.625 -31.6875 1.625 -32 0 C-23.62035701 -6.88327817 -8.74792901 -5.86625828 0 0 Z " fill="#1D2429" transform="translate(751,340)"/>
<path d="M0 0 C8.25964227 4.65890854 13.72317902 11.21712308 17.27026367 19.85644531 C18.45588757 24.19090354 18.50085411 28.18731085 18.49609375 32.66015625 C18.50037888 33.56018372 18.504664 34.46021118 18.50907898 35.38751221 C18.51480472 37.28697878 18.51533552 39.18646728 18.51098633 41.0859375 C18.5078377 43.96523293 18.53126808 46.84348846 18.55664062 49.72265625 C18.5589152 51.57682164 18.55961638 53.43098975 18.55859375 55.28515625 C18.5678035 56.1334198 18.57701324 56.98168335 18.58650208 57.85565186 C18.50371755 68.76393462 15.04097006 78.08354294 7.49609375 86.02734375 C1.29930492 91.68104322 -4.84538581 93.81215332 -13.1171875 93.73828125 C-13.86339355 93.73256104 -14.60959961 93.72684082 -15.37841797 93.72094727 C-23.68611351 93.45327688 -29.46858977 90.58320821 -35.6171875 85.05078125 C-42.10182654 78.0755785 -44.9686106 69.85764495 -44.90234375 60.5078125 C-44.9009288 59.75739182 -44.89951385 59.00697113 -44.89805603 58.23381042 C-44.8924631 55.83942665 -44.87991194 53.44513672 -44.8671875 51.05078125 C-44.86217158 49.42643364 -44.85760884 47.80208457 -44.85351562 46.17773438 C-44.84249598 42.19788056 -44.82523623 38.21809681 -44.8046875 34.23828125 C-44.05630615 34.18494629 -43.3079248 34.13161133 -42.53686523 34.07666016 C-41.55145752 33.99851074 -40.5660498 33.92036133 -39.55078125 33.83984375 C-38.5755249 33.76588379 -37.60026855 33.69192383 -36.59545898 33.61572266 C-31.00860134 32.86012105 -27.91154709 30.62895099 -24.3671875 26.17578125 C-22.01193729 21.44488905 -21.99643052 16.38314777 -22.8046875 11.23828125 C-24.6693181 7.85502595 -24.6693181 7.85502595 -26.8046875 5.23828125 C-26.8046875 3.91828125 -26.8046875 2.59828125 -26.8046875 1.23828125 C-18.78851933 -3.23585912 -8.54191749 -3.32535902 0 0 Z " fill="#1D2429" transform="translate(506.8046875,337.76171875)"/>
<path d="M0 0 C2.20275308 2.20275308 2.67173137 3.59517748 3.6875 6.5 C6.66691893 14.12510548 11.09180659 21.77200927 18.1875 26.22265625 C22.34289797 28.00482047 25.98262433 27.7023456 30.109375 26.265625 C34.59101233 24.2101372 37.73817075 21.66955791 41 18 C44.33777488 19.43895184 46.39622174 21.23694281 48.875 23.875 C52.04999131 27.14512214 55.10004057 29.66002434 59 32 C55.31732692 35.84912158 51.45587655 39.13132563 47.1875 42.3125 C46.5080835 42.81958496 45.82866699 43.32666992 45.12866211 43.84912109 C8.03199932 71.1757555 8.03199932 71.1757555 -8 77 C-7.47217604 71.56395735 -6.71508921 66.30561126 -5.59106445 60.96337891 C-1.39035328 40.88921827 -0.70954951 20.44425586 0 0 Z " fill="#FBFCF7" transform="translate(859,867)"/>
<path d="M0 0 C1.00489471 -0.00503792 1.00489471 -0.00503792 2.03009033 -0.01017761 C4.25518626 -0.01971353 6.48020715 -0.02163204 8.70532227 -0.02270508 C10.24609916 -0.02591586 11.78687574 -0.02927979 13.32765198 -0.03279114 C16.56170356 -0.03878904 19.7957284 -0.04063037 23.02978516 -0.04003906 C27.18070372 -0.03993741 31.33145134 -0.05358986 35.48232937 -0.07081127 C38.66584567 -0.08191173 41.8493204 -0.08395887 45.03285408 -0.08342934 C46.56351371 -0.0846124 48.09417431 -0.08905236 49.62481499 -0.0967617 C51.7630204 -0.10652232 53.90085149 -0.10369938 56.0390625 -0.09765625 C57.25738266 -0.09908127 58.47570282 -0.10050629 59.73094177 -0.10197449 C62.58422852 0.14526367 62.58422852 0.14526367 64.58422852 2.14526367 C64.83422852 4.64526367 64.83422852 4.64526367 64.58422852 7.14526367 C61.77435728 9.95513491 59.99143776 9.40499802 56.05493164 9.41992188 C55.04981789 9.42758827 55.04981789 9.42758827 54.0243988 9.43540955 C51.80466841 9.4493345 49.58524745 9.44834684 47.36547852 9.44604492 C45.82613 9.44992993 44.28678256 9.45426419 42.74743652 9.45903015 C39.51933315 9.46649835 36.29133914 9.46619654 33.06323242 9.4609375 C28.9200867 9.45513834 24.77738736 9.47208136 20.63431549 9.49528217 C17.45507171 9.50999042 14.2759362 9.51089528 11.09666443 9.50777245 C9.56879288 9.50828701 8.04091547 9.51354994 6.51307678 9.52358437 C4.3795949 9.53587744 2.24699246 9.52920155 0.11352539 9.51757812 C-1.10177856 9.51820755 -2.31708252 9.51883698 -3.56921387 9.51948547 C-4.50857788 9.39599228 -5.44794189 9.27249908 -6.41577148 9.14526367 C-8.41577148 6.14526367 -8.41577148 6.14526367 -8.10327148 3.52026367 C-6.78134469 -1.04639252 -4.43030702 0.0138703 0 0 Z " fill="#D26001" transform="translate(585.415771484375,537.854736328125)"/>
<path d="M0 0 C3.01837013 2.05506051 4.71161159 3.48390094 5.41015625 7.15625 C5.59094502 11.8724788 5.06255433 15.23070236 2 19 C-1.45031261 20.72515631 -5.22716304 20.49677924 -9 20 C-12.03215675 17.80168636 -12.81654398 16.55036806 -14 13 C-14.66611433 7.11599006 -14.66611433 7.11599006 -12.953125 4.24609375 C-8.69567336 -0.95050164 -6.51010183 -1.54476993 0 0 Z " fill="#CA5600" transform="translate(667,466)"/>
<path d="M0 0 C3.88233524 0.1001893 4.56321228 0.39854064 7.75 3 C10.39775581 6.88889135 10.34426891 9.90261763 9.6875 14.5 C7.89386089 17.3100346 6.66869065 19.00940468 3.6875 20.5 C0.67614195 20.84556568 -1.40611171 21.07794337 -4.3125 20.5 C-7.89386186 17.44092008 -9.15618566 15.61373964 -9.8125 10.9375 C-8.93939746 4.93492006 -6.39140422 0.25780454 0 0 Z " fill="#CB5700" transform="translate(565.3125,465.5)"/>
<path d="M0 0 C0.33 0 0.66 0 1 0 C3.39549322 14.97183261 3.2087175 29.87119257 3 45 C2.67 45 2.34 45 2 45 C1.67 40.38 1.34 35.76 1 31 C0.67 31 0.34 31 0 31 C0 20.77 0 10.54 0 0 Z " fill="#A0DE6C" transform="translate(966,803)"/>
<path d="M0 0 C0 0.66 0 1.32 0 2 C6.435 1.505 6.435 1.505 13 1 C13 1.33 13 1.66 13 2 C5.26940505 3.35709504 -2.14453364 4.31918373 -10 4 C-6.79204613 0.60066252 -4.67531569 0 0 0 Z " fill="#83B70D" transform="translate(688,1076)"/>
<path d="M0 0 C2.22825644 2.22825644 2.69239369 3.65761628 3.625 6.625 C4.01558594 7.85089844 4.01558594 7.85089844 4.4140625 9.1015625 C4.60742188 9.72804688 4.80078125 10.35453125 5 11 C4.34 11 3.68 11 3 11 C2.34 12.98 1.68 14.96 1 17 C0.67 17 0.34 17 0 17 C0 11.39 0 5.78 0 0 Z " fill="#DBF2CC" transform="translate(859,867)"/>
<path d="M0 0 C2.62897735 0.58987305 5.25225094 1.19604189 7.875 1.8125 C8.99455078 2.0609668 8.99455078 2.0609668 10.13671875 2.31445312 C15.7734375 3.66015625 15.7734375 3.66015625 18 7 C13.85351967 6.52155996 10.68439654 5.90162402 7 4 C5.00889599 3.61709538 3.00899487 3.27395385 1 3 C0.67 2.01 0.34 1.02 0 0 Z " fill="#AAC215" transform="translate(722,459)"/>
<path d="M0 0 C0.66 0.99 1.32 1.98 2 3 C0.04697411 6.5154466 -1.82968374 9.48239591 -5 12 C-7.75 12.25 -7.75 12.25 -10 12 C-9.2575 11.443125 -8.515 10.88625 -7.75 10.3125 C-4.12772023 7.26649201 -1.50757378 4.52272135 0 0 Z " fill="#31373C" transform="translate(723,359)"/>
<path d="M0 0 C3.3 0 6.6 0 10 0 C10 0.99 10 1.98 10 3 C6.04 3 2.08 3 -2 3 C-1.34 2.67 -0.68 2.34 0 2 C0 1.34 0 0.68 0 0 Z " fill="#79C60D" transform="translate(544,1077)"/>
<path d="M0 0 C0.66 1.32 1.32 2.64 2 4 C1.34 4.66 0.68 5.32 0 6 C-0.268125 6.825 -0.53625 7.65 -0.8125 8.5 C-2 11 -2 11 -4.57421875 12.15625 C-5.37472656 12.4346875 -6.17523437 12.713125 -7 13 C-6.36771484 11.96939453 -6.36771484 11.96939453 -5.72265625 10.91796875 C-5.17480469 10.01691406 -4.62695312 9.11585938 -4.0625 8.1875 C-3.51722656 7.29417969 -2.97195313 6.40085937 -2.41015625 5.48046875 C-0.88990422 2.99296438 -0.88990422 2.99296438 0 0 Z " fill="#80C72C" transform="translate(538,427)"/>
<path d="M0 0 C1.125 1.75 1.125 1.75 2 4 C1.2890625 5.984375 1.2890625 5.984375 0 8 C-0.42539062 8.70640625 -0.85078125 9.4128125 -1.2890625 10.140625 C-1.72992187 10.83671875 -2.17078125 11.5328125 -2.625 12.25 C-3.07101562 12.95640625 -3.51703125 13.6628125 -3.9765625 14.390625 C-4.48316406 15.18726563 -4.48316406 15.18726563 -5 16 C-5.66 15.67 -6.32 15.34 -7 15 C-6.401875 14.195625 -5.80375 13.39125 -5.1875 12.5625 C-2.57258769 8.68200735 -1.30777251 4.45831538 0 0 Z " fill="#E2E2E3" transform="translate(765,405)"/>
<path d="M0 0 C0.33 0 0.66 0 1 0 C1.05407567 2.58361518 1.093707 5.16609255 1.125 7.75 C1.14175781 8.47960937 1.15851562 9.20921875 1.17578125 9.9609375 C1.21072239 13.8044624 1.17499684 16.74606772 -1 20 C-1.33 17.69 -1.66 15.38 -2 13 C-1.34 13 -0.68 13 0 13 C0 8.71 0 4.42 0 0 Z " fill="#7AD039" transform="translate(967,840)"/>
<path d="M0 0 C0.33 0.99 0.66 1.98 1 3 C1.99 3.33 2.98 3.66 4 4 C2.35 5.98 0.7 7.96 -1 10 C-2.27351308 7.45297384 -1.80191925 6.5717055 -1.0625 3.875 C-0.86785156 3.15054688 -0.67320312 2.42609375 -0.47265625 1.6796875 C-0.31667969 1.12539062 -0.16070313 0.57109375 0 0 Z " fill="#E3F5D6" transform="translate(627,120)"/>
<path d="M0 0 C4.7517398 0.43197635 6.92000054 1.32769295 10 5 C9.67 5.66 9.34 6.32 9 7 C7.4972763 6.02501855 5.99788037 5.04490611 4.5 4.0625 C3.6646875 3.51722656 2.829375 2.97195313 1.96875 2.41015625 C1.3190625 1.94480469 0.669375 1.47945313 0 1 C0 0.67 0 0.34 0 0 Z " fill="#74CB09" transform="translate(675,426)"/>
<path d="M0 0 C0.78375 0.04125 1.5675 0.0825 2.375 0.125 C1.6875 2.0625 1.6875 2.0625 0.375 4.125 C-2.25 4.875 -2.25 4.875 -4.625 5.125 C-4.625 1.22254579 -3.95783286 0.18846823 0 0 Z " fill="#FDF5EA" transform="translate(755.625,1133.875)"/>
<path d="M0 0 C-4.04479388 1.96611502 -6.86885748 2.11331236 -11.3125 1.625 C-12.38113281 1.51414062 -13.44976563 1.40328125 -14.55078125 1.2890625 C-15.35902344 1.19367188 -16.16726563 1.09828125 -17 1 C-17 0.67 -17 0.34 -17 0 C-14.9174133 -0.19561869 -12.83388144 -0.38119313 -10.75 -0.5625 C-9.58984375 -0.66691406 -8.4296875 -0.77132813 -7.234375 -0.87890625 C-4.48128523 -0.98198087 -2.580018 -0.86213473 0 0 Z " fill="#FDE8CD" transform="translate(837,1119)"/>
<path d="M0 0 C1.32 1.32 2.64 2.64 4 4 C3.67 4.66 3.34 5.32 3 6 C-0.465 4.02 -0.465 4.02 -4 2 C-3.34 1.67 -2.68 1.34 -2 1 C-1.34 1.33 -0.68 1.66 0 2 C0 1.34 0 0.68 0 0 Z " fill="#75B81E" transform="translate(690,432)"/>
<path d="M0 0 C0.66 0.99 1.32 1.98 2 3 C1.34 3 0.68 3 0 3 C0.0825 3.7425 0.165 4.485 0.25 5.25 C-0.07105184 8.78157027 -1.35265617 9.76630364 -4 12 C-3.52309796 10.37433394 -3.04340334 8.74948689 -2.5625 7.125 C-2.29566406 6.22007812 -2.02882813 5.31515625 -1.75390625 4.3828125 C-1 2 -1 2 0 0 Z " fill="#D6EFC5" transform="translate(689,336)"/>
<path d="M0 0 C3.37503669 1.1858237 5.64722731 2.27573689 8 5 C7.01 5.495 7.01 5.495 6 6 C3.96166576 4.7260411 1.96147874 3.38938077 0 2 C0 1.34 0 0.68 0 0 Z " fill="#272C32" transform="translate(746,338)"/>
<path d="M0 0 C0.66 0.99 1.32 1.98 2 3 C0.35 5.64 -1.3 8.28 -3 11 C-3.33 10.34 -3.66 9.68 -4 9 C-3.22265625 6.8359375 -3.22265625 6.8359375 -2.0625 4.375 C-1.68222656 3.55773437 -1.30195312 2.74046875 -0.91015625 1.8984375 C-0.60980469 1.27195312 -0.30945312 0.64546875 0 0 Z " fill="#FEEBD9" transform="translate(1110,982)"/>
<path d="M0 0 C0.66 0.33 1.32 0.66 2 1 C1.34 3.31 0.68 5.62 0 8 C-0.66 7.67 -1.32 7.34 -2 7 C-1.125 1.125 -1.125 1.125 0 0 Z " fill="#6CC81F" transform="translate(356,870)"/>
<path d="M0 0 C0.103125 0.639375 0.20625 1.27875 0.3125 1.9375 C0.539375 2.618125 0.76625 3.29875 1 4 C1.99 4.33 2.98 4.66 4 5 C2.625 6.5 2.625 6.5 1 8 C0.34 8 -0.32 8 -1 8 C-0.67 5.36 -0.34 2.72 0 0 Z " fill="#E1EDBF" transform="translate(966,860)"/>
<path d="M0 0 C0.99 0.33 1.98 0.66 3 1 C1.35 2.65 -0.3 4.3 -2 6 C-2.66 5.67 -3.32 5.34 -4 5 C-2.68 3.35 -1.36 1.7 0 0 Z " fill="#9FD41E" transform="translate(765,539)"/>
<path d="M0 0 C2.31 0 4.62 0 7 0 C7 0.66 7 1.32 7 2 C7.66 2.33 8.32 2.66 9 3 C6.03 2.67 3.06 2.34 0 2 C0 1.34 0 0.68 0 0 Z " fill="#76C10B" transform="translate(632,411)"/>
<path d="M0 0 C0.66 0.33 1.32 0.66 2 1 C1.360625 1.12375 0.72125 1.2475 0.0625 1.375 C-0.618125 1.58125 -1.29875 1.7875 -2 2 C-2.33 2.66 -2.66 3.32 -3 4 C-3.99 4.66 -4.98 5.32 -6 6 C-6.66 5.34 -7.32 4.68 -8 4 C-6.71349294 3.30289269 -5.42059335 2.61757124 -4.125 1.9375 C-3.40570312 1.55464844 -2.68640625 1.17179687 -1.9453125 0.77734375 C-1.30335938 0.52082031 -0.66140625 0.26429687 0 0 Z " fill="#81D23E" transform="translate(599,74)"/>
<path d="M0 0 C-1.15173355 2.46800047 -2.04783565 4.04783565 -4 6 C-4.99 5.67 -5.98 5.34 -7 5 C-2.25 0 -2.25 0 0 0 Z " fill="#71CD26" transform="translate(634,123)"/>
</svg>