<?xml version="1.0" encoding="UTF-8"?>
<svg version="1.1" xmlns="http://www.w3.org/2000/svg" width="1254" height="1254" style="background: transparent;">

<path d="M0 0 C5.44332661 3.39605775 9.48145917 8.31133848 11.375 14.4375 C13.04066882 31.62018888 8.08713798 45.93990274 1.51171875 61.55859375 C0.25258242 64.2316746 0.25258242 64.2316746 0.375 66.4375 C1.23158203 65.71046875 1.23158203 65.71046875 2.10546875 64.96875 C17.32146472 52.38954824 34.46004468 42.63056184 54.375 41.4375 C55.47328125 41.37046875 56.5715625 41.3034375 57.703125 41.234375 C65.72111983 40.96837517 73.13230343 41.54980457 79.2890625 47.19140625 C84.07038469 52.61854684 84.66729984 56.18171518 84.58984375 63.40234375 C84.31216579 67.32517603 83.28762132 70.00797211 81.375 73.4375 C81.04628906 74.04722656 80.71757813 74.65695313 80.37890625 75.28515625 C74.77983092 85.03025968 66.90402482 92.17025364 57.87890625 98.625 C55.35742672 100.34963011 55.35742672 100.34963011 53.375 102.4375 C54.29796875 102.81519531 55.2209375 103.19289063 56.171875 103.58203125 C85.25578268 115.74797258 111.81940983 133.4239917 134.375 155.4375 C135.05626953 156.09830566 135.73753906 156.75911133 136.43945312 157.43994141 C144.93595147 165.70838379 153.19674059 173.97465894 160.375 183.4375 C161.31360897 184.64728527 162.25242581 185.85690928 163.19140625 187.06640625 C197.86227403 232.12510905 217.49062206 283.95991189 228.72705078 339.28564453 C229.29305493 342.03889002 229.88594944 344.78362694 230.49609375 347.52734375 C232.75152994 357.86118638 234.24250749 368.26216419 235.5625 378.75 C235.64735657 379.41841919 235.73221313 380.08683838 235.81964111 380.7755127 C237.74426724 396.09238786 238.60910293 411.326125 238.625 426.75 C238.62633942 427.52831177 238.62767883 428.30662354 238.62905884 429.10852051 C238.62410886 442.48984004 237.77698708 455.59396409 235.76757812 468.83984375 C235.43084878 471.06795334 235.13717593 473.29529131 234.859375 475.53125 C231.15941672 500.2681139 220.60890257 527.07629715 206.5546875 547.671875 C205.28240851 549.22217017 205.28240851 549.22217017 205.375 550.4375 C224.4809959 534.56393845 247.6772663 510.86518737 250.671875 484.859375 C250.82490319 479.62581073 250.14038698 474.60663529 249.375 469.4375 C248.5282687 463.44288786 248.09451803 457.55387983 248 451.5 C247.97421875 450.71947266 247.9484375 449.93894531 247.921875 449.13476562 C247.90051382 442.88127897 249.4493748 437.45437461 253.89355469 432.87158203 C257.60898072 429.69935355 260.29568678 427.99834764 265.25 428.1015625 C272.63024554 429.26829249 278.26841027 433.61843102 282.8359375 439.30078125 C285.19542174 442.5765119 287.35736604 445.94150752 289.375 449.4375 C291.82505967 446.98744033 292.3594418 444.95763191 293.5 441.6875 C298.48193721 428.48025297 305.78224462 413.80876047 318.9453125 407.25 C324.68360869 405.33108423 330.14048655 405.4061861 335.625 407.9375 C342.18709827 413.90304388 347.70057779 419.71429203 348.62573242 428.93701172 C348.70503501 431.63129843 348.68654775 434.30536261 348.625 437 C348.61726562 438.3602832 348.61726562 438.3602832 348.609375 439.74804688 C348.55149714 444.73639505 348.21150399 449.51966608 347.375 454.4375 C348.35082031 453.87160156 349.32664062 453.30570312 350.33203125 452.72265625 C351.61710525 451.98162818 352.90226604 451.24075061 354.1875 450.5 C354.83009766 450.12681641 355.47269531 449.75363281 356.13476562 449.36914062 C361.62261277 446.21291766 365.36608096 445.24380016 371.6875 445.125 C372.98300781 445.08761719 374.27851562 445.05023438 375.61328125 445.01171875 C380.99997028 445.62142706 384.74022235 448.19039476 388.125 452.375 C392.83763944 458.78942591 393.22825671 464.66837313 392.375 472.4375 C389.56918875 484.03920328 383.47125599 493.04928556 376.375 502.4375 C377.32375 502.31375 378.2725 502.19 379.25 502.0625 C384.80272232 502.08507204 389.16131819 505.05086911 393.375 508.4375 C397.45851884 513.37679044 399.81492405 518.47639554 399.71875 524.9921875 C398.18505994 535.9023009 392.05992186 543.76259068 383.625 550.25 C380.16744738 552.75554156 376.873435 554.72317352 372.9765625 556.46484375 C360.05605687 562.41118224 356.2386955 568.80105637 351.38916016 581.90087891 C346.16534611 594.96670172 337.01459267 606.48302177 328.375 617.4375 C327.62605469 618.40042969 326.87710938 619.36335937 326.10546875 620.35546875 C306.33719126 645.18501209 282.27379592 665.3167711 256.375 683.4375 C255.77461914 683.86063477 255.17423828 684.28376953 254.55566406 684.71972656 C242.65334792 693.06157908 230.01784866 700.25691698 217.48974609 707.60351562 C213.10155555 710.18731304 208.73525549 712.80689691 204.375 715.4375 C205.84296654 722.24193189 207.48828518 728.92235596 209.47851562 735.59106445 C214.72406496 753.24499395 218.03854327 771.15299514 220.625 789.375 C220.78822754 790.51001953 220.95145508 791.64503906 221.11962891 792.81445312 C223.41778889 809.85852784 223.51422516 826.89343583 223.4375 844.0625 C223.4324676 846.05208219 223.42790782 848.04166563 223.42382812 850.03125 C223.41297724 854.83336518 223.3958118 859.63541809 223.375 864.4375 C225.90016805 861.94184749 228.41929373 859.44017549 230.9375 856.9375 C231.64197266 856.24140625 232.34644531 855.5453125 233.07226562 854.828125 C236.36544965 851.55011694 239.57803879 848.25887857 242.59375 844.72265625 C247.30828615 839.25139971 252.45866092 834.20470865 257.57202148 829.11010742 C259.308936 827.378553 261.04043889 825.64171641 262.77148438 823.90429688 C268.46823459 818.203513 274.18983775 812.6137411 280.375 807.4375 C280.97530029 806.92517822 281.57560059 806.41285645 282.1940918 805.88500977 C302.33871506 788.78372209 325.6863098 772.68833998 351.375 765.4375 C352.29635742 765.15205322 352.29635742 765.15205322 353.23632812 764.86083984 C377.29100491 757.5333601 405.19424671 759.14656454 427.64648438 770.48925781 C431.6236341 772.67107272 435.00196872 775.43484078 438.375 778.4375 C439.83873047 779.58798828 439.83873047 779.58798828 441.33203125 780.76171875 C455.06332666 792.19442113 463.04650707 813.50321764 464.70166016 830.86376953 C466.37668476 861.93441577 459.50695271 891.28645342 444.375 918.4375 C444.03919922 919.05496094 443.70339844 919.67242188 443.35742188 920.30859375 C421.14208484 960.86106856 382.37594171 986.61169427 338.74731445 999.42236328 C315.17751261 1006.09564314 291.94199852 1008.49162428 267.5 1008.5625 C266.36401367 1008.56717285 265.22802734 1008.5718457 264.05761719 1008.57666016 C262.98930664 1008.57456543 261.92099609 1008.5724707 260.8203125 1008.5703125 C259.86656738 1008.56918457 258.91282227 1008.56805664 257.93017578 1008.56689453 C255.57420893 1008.44758797 253.64245766 1008.03853684 251.375 1007.4375 C249.84025365 1007.27454069 248.30167265 1007.14565312 246.76171875 1007.04296875 C224.07171852 1005.3885316 202.41145881 1000.99118409 180.375 995.4375 C179.055 995.1075 177.735 994.7775 176.375 994.4375 C174.725 996.7475 173.075 999.0575 171.375 1001.4375 C172.27476562 1001.87578125 173.17453125 1002.3140625 174.1015625 1002.765625 C192.57971398 1011.84072244 210.5793612 1021.48747565 227.375 1033.4375 C228.28499756 1034.08283691 228.28499756 1034.08283691 229.21337891 1034.74121094 C240.36464768 1042.74164516 253.87606259 1052.94068778 258.375 1066.4375 C258.73720066 1071.96106009 258.74856942 1075.79884204 255.375 1080.4375 C247.93602085 1085.47732787 240.1227005 1085.66179424 231.4375 1085.8671875 C227.23415586 1086.03844462 227.23415586 1086.03844462 223.37890625 1087.56640625 C221.87634598 1090.36689797 221.99645484 1092.84071428 221.9375 1096 C221.53665995 1103.6002418 220.43627764 1110.21074789 215.0625 1115.875 C214.175625 1116.390625 213.28875 1116.90625 212.375 1117.4375 C211.405625 1118.015 210.43625 1118.5925 209.4375 1119.1875 C197.74583836 1123.74825594 183.72208304 1119.21986101 172.375 1115.4375 C169.0038837 1114.6030408 169.0038837 1114.6030408 165.375 1115.4375 C163.57070012 1117.45648873 162.2844127 1119.58943742 160.8984375 1121.9140625 C157.43964023 1127.64324977 153.43516119 1133.06149385 146.8046875 1135.03515625 C137.53827443 1136.56962658 129.51392394 1136.18052809 121.375 1131.4375 C120.44171875 1130.93992187 119.5084375 1130.44234375 118.546875 1129.9296875 C106.39349588 1123.22974773 96.41068255 1113.8952851 86.375 1104.4375 C85.6428125 1103.74785156 84.910625 1103.05820313 84.15625 1102.34765625 C79.64059045 1097.96639133 75.65696368 1093.2572811 71.7265625 1088.34765625 C70.14729739 1086.39325009 68.53709962 1084.46347385 66.8984375 1082.55859375 C60.61071606 1075.24887424 55.43339662 1067.62468936 50.375 1059.4375 C49.715 1058.4475 49.055 1057.4575 48.375 1056.4375 C47.55720159 1053.79732365 46.9940511 1051.13479409 46.375 1048.4375 C37.39092257 1048.02981918 29.07227423 1048.82730084 20.22583008 1050.20584106 C-0.44073945 1053.30152922 -21.38977292 1053.79060742 -42.25415039 1053.75317383 C-45.95423164 1053.74998558 -49.65353039 1053.77372117 -53.35351562 1053.79882812 C-67.50620467 1053.83549723 -81.18308501 1052.99687854 -95.16734314 1050.80982971 C-99.12248781 1050.21063383 -103.09155518 1049.73103805 -107.0625 1049.25 C-108.33996094 1049.09144531 -109.61742187 1048.93289063 -110.93359375 1048.76953125 C-112.26583984 1048.60517578 -112.26583984 1048.60517578 -113.625 1048.4375 C-113.90730469 1049.118125 -114.18960937 1049.79875 -114.48046875 1050.5 C-124.38428016 1072.34066329 -145.30972315 1092.56261122 -163.9375 1107.30078125 C-165.69633277 1108.69915556 -167.42741533 1110.13334454 -169.125 1111.60546875 C-184.02073169 1124.43487181 -203.18210965 1137.23959921 -223.38671875 1136.71875 C-230.43552698 1136.10654953 -236.06096966 1132.84556334 -240.625 1127.4375 C-242.88181864 1123.54523349 -244.80773133 1119.55131698 -246.625 1115.4375 C-252.17707233 1115.80095395 -257.36621702 1116.57507866 -262.75 1118 C-271.31215049 1120.07444026 -282.5576189 1121.60541143 -290.625 1117.4375 C-292.35546875 1116.140625 -292.35546875 1116.140625 -293.8125 1114.6875 C-294.30105469 1114.21828125 -294.78960937 1113.7490625 -295.29296875 1113.265625 C-299.30630786 1107.75758188 -298.84174048 1101.67494788 -298.6875 1095.1875 C-298.653142 1093.39070391 -298.62298412 1091.59382106 -298.59765625 1089.796875 C-298.57968994 1089.00764648 -298.56172363 1088.21841797 -298.54321289 1087.40527344 C-298.49368055 1085.3587351 -298.49368055 1085.3587351 -299.625 1083.4375 C-302.61104308 1082.44215231 -305.35801398 1082.1324697 -308.47802734 1081.84228516 C-325.07875608 1080.25463756 -325.07875608 1080.25463756 -330.3125 1074.62109375 C-332.83225426 1070.42900258 -332.45735489 1066.137857 -331.625 1061.4375 C-321.07878817 1037.10008809 -289.26263573 1022.14323127 -267 1010.875 C-266.01717041 1010.37427979 -265.03434082 1009.87355957 -264.02172852 1009.35766602 C-258.02262169 1006.38436411 -252.10628868 1004.12376809 -245.625 1002.4375 C-249.2154573 998.18304924 -252.90226584 994.12415849 -256.90136719 990.24487305 C-280.74767553 967.03906472 -295.19428975 936.96384364 -304.625 905.4375 C-304.84381836 904.71288574 -305.06263672 903.98827148 -305.28808594 903.24169922 C-306.63141574 898.68502485 -307.69048628 894.09194225 -308.625 889.4375 C-308.80546875 888.57157227 -308.9859375 887.70564453 -309.171875 886.81347656 C-319.86549967 833.76081498 -310.68004556 772.66752965 -291.58032227 722.40283203 C-290.42057115 719.3221868 -290.42057115 719.3221868 -290.625 715.4375 C-291.30788086 715.1065332 -291.99076172 714.77556641 -292.69433594 714.43457031 C-316.46101954 702.86572901 -339.10513522 690.09439945 -360 673.8125 C-360.52255371 673.40572021 -361.04510742 672.99894043 -361.58349609 672.57983398 C-370.69452317 665.33791777 -379.02621877 657.21776969 -387.25 649 C-388.58417969 647.68418945 -388.58417969 647.68418945 -389.9453125 646.34179688 C-395.62220106 640.67743086 -400.75001804 634.80127703 -405.625 628.4375 C-406.39287842 627.45849731 -406.39287842 627.45849731 -407.17626953 626.4597168 C-433.48936724 592.84439827 -433.48936724 592.84439827 -439.625 574.4375 C-441.49236814 573.40635398 -441.49236814 573.40635398 -443.82421875 572.67578125 C-445.13410767 572.2103894 -445.13410767 572.2103894 -446.47045898 571.7355957 C-447.40833252 571.41034912 -448.34620605 571.08510254 -449.3125 570.75 C-461.84972726 566.19458417 -476.36029221 560.66374732 -483.875 548.9375 C-484.59429687 547.83921875 -484.59429687 547.83921875 -485.328125 546.71875 C-488.58705909 540.98616715 -489.59144663 535.97346899 -488.625 529.4375 C-485.83352602 522.53668879 -480.79802818 518.24177093 -474.4375 514.625 C-471.625 513.4375 -471.625 513.4375 -468.625 513.4375 C-469.04910156 512.97601562 -469.47320312 512.51453125 -469.91015625 512.0390625 C-480.30929426 500.47430682 -487.58452486 489.76312836 -487.07421875 473.6796875 C-486.14249109 466.95504438 -482.58292145 462.69007293 -477.38232422 458.46508789 C-474.1505443 456.57531828 -470.90147991 456.78374073 -467.25 456.9375 C-466.49267578 456.95594971 -465.73535156 456.97439941 -464.95507812 456.9934082 C-455.89469494 457.34873654 -449.36332626 460.90556356 -441.625 465.4375 C-441.91375 464.64730469 -442.2025 463.85710937 -442.5 463.04296875 C-446.13090555 452.01157169 -448.54996821 438.17482522 -443.875 427.0625 C-442.75390625 425.08984375 -442.75390625 425.08984375 -441.625 423.4375 C-441.026875 422.509375 -440.42875 421.58125 -439.8125 420.625 C-435.31793753 416.13043753 -431.61252042 414.19534002 -425.3125 413.875 C-417.0055784 414.21684863 -410.06242854 418.03997116 -404.47265625 424.10546875 C-386.625 446.63200317 -386.625 446.63200317 -386.625 456.4375 C-385.965 456.4375 -385.305 456.4375 -384.625 456.4375 C-384.5425 455.6125 -384.46 454.7875 -384.375 453.9375 C-382.45597024 444.98202778 -377.11871871 438.43191663 -370.375 432.4375 C-364.64450802 430.35368473 -358.76945106 430.44469858 -353.25 433 C-348.07343711 437.8068084 -344.01918183 443.18515414 -343.47103882 450.48898315 C-343.44382122 452.87581974 -343.47872515 455.25430508 -343.53515625 457.640625 C-343.5555867 459.44400762 -343.57576087 461.24739316 -343.59570312 463.05078125 C-343.63903826 465.86585128 -343.68736975 468.68072127 -343.74145508 471.49560547 C-343.98869705 485.37282249 -343.36696418 495.79357719 -336 507.875 C-335.55906006 508.60799316 -335.11812012 509.34098633 -334.66381836 510.09619141 C-326.39117145 523.57128562 -315.38082011 536.38779786 -301.625 544.4375 C-302.15867187 543.64730469 -302.69234375 542.85710938 -303.2421875 542.04296875 C-332.81687786 497.58349331 -340.66999241 446.9696013 -331.12255859 394.68603516 C-330.36903592 390.98246056 -329.51802613 387.32442645 -328.58984375 383.66015625 C-327.74855889 380.25455419 -327.22545856 376.85125445 -326.73046875 373.37890625 C-325.61816796 365.9027597 -323.86644051 358.63072172 -322 351.3125 C-321.82548309 350.62218689 -321.65096619 349.93187378 -321.47116089 349.22064209 C-313.78865715 318.88589361 -304.6279921 288.94548676 -291.625 260.4375 C-291.21556152 259.52967773 -290.80612305 258.62185547 -290.38427734 257.68652344 C-275.41968065 224.69470163 -255.55044461 191.3714867 -229.21484375 166.02734375 C-227.51244947 164.32494947 -225.98475466 162.53159008 -224.4375 160.6875 C-215.73482675 150.65041686 -205.18471976 142.41543157 -194.625 134.4375 C-194.08182129 134.02145508 -193.53864258 133.60541016 -192.97900391 133.17675781 C-174.81800863 119.33510472 -153.24327335 106.80339539 -131.265625 100.2890625 C-128.47837272 99.44576524 -128.47837272 99.44576524 -125.3671875 97.95703125 C-122.65909387 96.76340955 -120.08284747 96.04309736 -117.1796875 95.47265625 C-108.48825977 93.99525956 -108.48825977 93.99525956 -101.625 89.04296875 C-100.38031806 85.88372397 -99.51775242 82.71332541 -98.625 79.4375 C-97.52654924 76.67596117 -96.2764232 73.99573205 -95 71.3125 C-94.66315186 70.59763428 -94.32630371 69.88276855 -93.97924805 69.14624023 C-78.91724263 37.85455151 -56.36001624 12.16565381 -23.68359375 -0.72265625 C-16.65540812 -2.65249011 -6.73577525 -3.04154192 0 0 Z " fill="#61BB13" transform="translate(659.625,42.5625)"/>
<path d="M0 0 C0.94875 0.845625 1.8975 1.69125 2.875 2.5625 C18.38616015 15.75163019 36.43660206 24.45885795 57 25 C58.28922363 25.04664795 58.28922363 25.04664795 59.60449219 25.09423828 C72.67379268 25.52929864 84.58308614 25.39227044 97 21 C97.68610352 20.76394043 98.37220703 20.52788086 99.07910156 20.28466797 C108.98662734 16.79067696 117.47533725 12.12294195 126.0234375 6.0390625 C129 4 129 4 132 3 C134.52537312 4.00592015 136.84436357 5.06875602 139.25 6.3125 C139.95729248 6.67351807 140.66458496 7.03453613 141.39331055 7.40649414 C186.50835199 30.98947068 217.14232597 75.53340526 233 123 C233.54527344 124.63195312 233.54527344 124.63195312 234.1015625 126.296875 C238.89904551 141.31189817 242.09426332 156.36234575 244 172 C244.09643799 172.77303467 244.19287598 173.54606934 244.29223633 174.3425293 C246.93716026 198.8206193 246.56359147 225.02474996 241 249 C240.6089984 250.83558072 240.21969229 252.67152337 239.83203125 254.5078125 C236.83110428 268.27157323 232.99347099 282.00010536 226.3359375 294.48828125 C225.31871183 296.40078449 224.35400214 298.34132068 223.4140625 300.29296875 C219.54443911 308.32112407 215.2270177 315.76402177 210 323 C209.23429687 324.06476563 208.46859375 325.12953125 207.6796875 326.2265625 C181.3636783 361.70627408 142.75097666 385.05207558 99.03027344 391.59448242 C48.62304876 398.34008347 -2.20787481 388.83561112 -43.19580078 358.21264648 C-70.65004713 337.12744663 -89.06888504 308.38402074 -101.13330078 276.29980469 C-101.87137041 274.34132133 -102.6342754 272.39222669 -103.40234375 270.4453125 C-106.58660354 261.79796164 -108.4193263 252.88490478 -110.25 243.875 C-110.50861816 242.61187988 -110.76723633 241.34875977 -111.03369141 240.04736328 C-120.2301297 193.02221352 -113.18152609 142.58379433 -94 99 C-93.48614746 97.81398193 -93.48614746 97.81398193 -92.96191406 96.60400391 C-85.54827528 79.64521883 -76.20985496 63.95702222 -64 50 C-63.01716362 48.82619713 -62.0368523 47.65027704 -61.05859375 46.47265625 C-55.74232578 40.10752107 -50.44557039 34.25245417 -44 29 C-43.41476562 28.45472656 -42.82953125 27.90945313 -42.2265625 27.34765625 C-30.61588507 16.54531712 -14.84588464 7.52741514 0 2 C0 1.34 0 0.68 0 0 Z " fill="#98D520" transform="translate(540,667)"/>
<path d="M0 0 C1.05832031 0.25394531 2.11664062 0.50789063 3.20703125 0.76953125 C22.71415562 6.30791761 39.95597879 19.81783666 55.07885742 32.86181641 C64.00758931 40.51110548 73.46904502 47.71578416 84 53 C84.82757812 53.46664062 85.65515625 53.93328125 86.5078125 54.4140625 C92.85376554 57.86102864 99.14513658 60.00677564 106.0625 61.9375 C120.16971231 65.95844665 132.10818087 73.41566554 139.98828125 86.234375 C144.10943384 94.29963783 145.1813109 100.30056503 145.1875 109.25 C145.19974609 110.16652344 145.21199219 111.08304688 145.22460938 112.02734375 C145.25538211 126.40846932 139.2312095 137.23025558 130 148 C129.50242187 148.60457031 129.00484375 149.20914063 128.4921875 149.83203125 C122.03223773 157.02237735 112.83371964 161.11475133 104.2890625 165.34375 C87.19255727 173.8809176 76.02518238 184.89824684 65.25 200.625 C57.14962059 212.30739771 48.90459348 223.75089892 39 234 C37.93458984 235.10408203 37.93458984 235.10408203 36.84765625 236.23046875 C26.00244002 246.70490836 12.29695733 254.38743416 -2 259 C-2.90234375 259.32871094 -3.8046875 259.65742187 -4.734375 259.99609375 C-13.05032277 262.55255138 -20.94584304 263.33195153 -29.625 263.25 C-30.67679443 263.24250732 -31.72858887 263.23501465 -32.81225586 263.22729492 C-57.8046356 262.88509069 -81.03197725 256.32503139 -98.921875 238.03515625 C-100.68150033 236.06920318 -102.35187864 234.0601517 -104 232 C-104.65484375 231.19691406 -105.3096875 230.39382813 -105.984375 229.56640625 C-111 223.296875 -111 223.296875 -111 221 C-111.66 221 -112.32 221 -113 221 C-113.59748047 219.78763672 -113.59748047 219.78763672 -114.20703125 218.55078125 C-114.73683594 217.48214844 -115.26664063 216.41351562 -115.8125 215.3125 C-116.33457031 214.25675781 -116.85664062 213.20101562 -117.39453125 212.11328125 C-118.34266242 210.27469112 -119.33354772 208.45545109 -120.4140625 206.69140625 C-122.23143484 203.60724482 -123.75826149 200.43352164 -125.31103516 197.20996094 C-137.02557594 172.53032288 -137.02557594 172.53032288 -157.95849609 156.2331543 C-160.15029101 155.51550266 -162.3524039 154.84653185 -164.5625 154.1875 C-181.93533364 148.65512183 -194.92684354 140.22016798 -204 124 C-204.598125 122.948125 -205.19625 121.89625 -205.8125 120.8125 C-210.68017114 109.2838052 -210.24583841 96.69213835 -206 85 C-199.78407677 71.63178049 -188.95898514 61.23484329 -175.1796875 55.91015625 C-170.43405614 54.51967243 -165.70862107 53.81984036 -160.8125 53.1875 C-147.08561563 51.16836161 -135.90487542 45.48521275 -125 37 C-124.15356934 36.34741211 -124.15356934 36.34741211 -123.29003906 35.68164062 C-118.60286304 32.0584248 -113.95760291 28.38212593 -109.34375 24.66601562 C-77.69548268 -0.78193009 -39.55211703 -10.18385487 0 0 Z " fill="#FA8701" transform="translate(639,430)"/>
<path d="M0 0 C1.30472535 1.10982861 2.59559307 2.23607697 3.875 3.375 C4.85082031 4.14199219 5.82664062 4.90898438 6.83203125 5.69921875 C20.56332666 17.13192113 28.54650707 38.44071764 30.20166016 55.80126953 C31.87668476 86.87191577 25.00695271 116.22395342 9.875 143.375 C9.53919922 143.99246094 9.20339844 144.60992188 8.85742188 145.24609375 C-13.35791516 185.79856856 -52.12405829 211.54919427 -95.75268555 224.35986328 C-119.32248739 231.03314314 -142.55800148 233.42912428 -167 233.5 C-168.13598633 233.50467285 -169.27197266 233.5093457 -170.44238281 233.51416016 C-171.51069336 233.51206543 -172.57900391 233.5099707 -173.6796875 233.5078125 C-174.63343262 233.50668457 -175.58717773 233.50555664 -176.56982422 233.50439453 C-178.92579107 233.38508797 -180.85754234 232.97603684 -183.125 232.375 C-184.65974635 232.21204069 -186.19832735 232.08315312 -187.73828125 231.98046875 C-206.48185764 230.61378436 -224.57311267 227.55893877 -242.875 223.3125 C-243.95313965 223.06725586 -245.0312793 222.82201172 -246.14208984 222.56933594 C-247.14191895 222.32860352 -248.14174805 222.08787109 -249.171875 221.83984375 C-250.05713867 221.629646 -250.94240234 221.41944824 -251.85449219 221.20288086 C-254.29515002 220.31295928 -255.4639019 219.3403148 -257.125 217.375 C-256.25101563 216.15103516 -256.25101563 216.15103516 -255.359375 214.90234375 C-244.92306436 199.95017655 -236.04290034 183.6495188 -230.125 166.375 C-229.64636556 165.09517682 -229.16432323 163.81662522 -228.6796875 162.5390625 C-224.05275626 150.22711253 -220.61461422 137.82027557 -217.9375 124.9375 C-217.67453125 123.68976807 -217.4115625 122.44203613 -217.140625 121.15649414 C-216.02344879 115.6566328 -215.02288113 110.2744682 -214.6796875 104.66796875 C-213.89242459 92.852325 -210.50215571 87.10467083 -201.63354492 79.10253906 C-200.1590675 77.8154028 -198.68037309 76.5330814 -197.19750977 75.25561523 C-194.61799781 72.91494135 -192.43458209 70.35262071 -190.18408203 67.70068359 C-185.97785542 62.94985188 -181.4215565 58.52469986 -176.92797852 54.04760742 C-175.191064 52.316053 -173.45956111 50.57921641 -171.72851562 48.84179688 C-166.03176541 43.141013 -160.31016225 37.5512411 -154.125 32.375 C-153.52469971 31.86267822 -152.92439941 31.35035645 -152.3059082 30.82250977 C-132.16128494 13.72122209 -108.8136902 -2.37416002 -83.125 -9.625 C-82.51076172 -9.81529785 -81.89652344 -10.0055957 -81.26367188 -10.20166016 C-55.70720668 -17.9866112 -21.8960646 -16.82617045 0 0 Z " fill="#FB8702" transform="translate(1094.125,817.625)"/>
<path d="M0 0 C0.96784424 0.01281006 1.93568848 0.02562012 2.93286133 0.03881836 C9.94618172 0.23811754 15.8567822 1.03872506 22.0625 4.5 C23.41988281 5.24636719 23.41988281 5.24636719 24.8046875 6.0078125 C44.14495451 17.52625407 56.62761736 35.90699991 62.55908203 57.40209961 C69.19843156 85.07034913 66.5188037 116.33205364 52.0078125 141.12109375 C47.27510833 148.55947596 43.50369157 151.7567302 35.1875 154.6875 C26.8831499 157.80163129 18.79295237 161.83075218 11.31201172 166.62084961 C3.23364878 171.6904 -6.52310374 170.17843159 -15.5625 168.5 C-22.91867678 166.59519467 -28.77769464 162.81272286 -34.9375 158.5 C-36.54625 157.38625 -36.54625 157.38625 -38.1875 156.25 C-55.7798748 138.6576252 -64.16360454 112.86975577 -64.25 88.3125 C-63.97002629 62.94633806 -56.30359655 35.46062194 -38.0625 17 C-27.3287365 6.61573166 -15.15087006 -0.30579738 0 0 Z " fill="#FAFBF9" transform="translate(743.9375,310.5)"/>
<path d="M0 0 C1.898487 1.53387691 3.77569681 3.09466951 5.625 4.6875 C6.35332031 5.30367188 7.08164062 5.91984375 7.83203125 6.5546875 C22.66479735 20.1879597 31.67116632 42.65958475 32.78344727 62.51611328 C33.86204744 92.59325708 28.75483573 119.927986 7.69140625 142.72265625 C-2.79837106 152.69686795 -16.58778573 158.24953465 -30.9375 158.0625 C-31.83146484 158.07410156 -32.72542969 158.08570313 -33.64648438 158.09765625 C-42.05337518 158.06075695 -48.05306403 156.10619602 -54.6875 150.875 C-60.86702225 146.20602764 -67.37794995 142.22482694 -74.625 139.4375 C-86.38692035 131.9526416 -90.2251612 114.39910928 -93.1706543 101.58569336 C-98.95595176 75.14181026 -94.74526855 45.75762959 -80.4609375 22.58203125 C-78.52853782 19.85280541 -76.51007287 17.26074081 -74.375 14.6875 C-73.6634375 13.81351562 -72.951875 12.93953125 -72.21875 12.0390625 C-53.70204276 -9.67242874 -24.16268575 -17.50129369 0 0 Z " fill="#FAFBF9" transform="translate(509.375,316.3125)"/>
<path d="M0 0 C2.875 1.78515625 2.875 1.78515625 6 4.0625 C7.1570277 4.88798272 8.31593341 5.71083855 9.4765625 6.53125 C10.0634082 6.94632813 10.65025391 7.36140625 11.25488281 7.7890625 C24.92802732 17.27686283 39.23122033 24.78386423 55 30 C56.35750021 30.51208193 57.71230316 31.03146024 59.0625 31.5625 C69.13847694 35.34901363 79.43718836 37.98631331 90 40 C90.94359375 40.18433594 91.8871875 40.36867188 92.859375 40.55859375 C104.78209271 42.63701346 116.94162307 43.16019366 129 44 C118.97379881 67.31397548 98.50663725 88.18251499 78.6875 103.86328125 C76.92866723 105.26165556 75.19758467 106.69584454 73.5 108.16796875 C58.60426831 120.99737181 39.44289035 133.80209921 19.23828125 133.28125 C12.18947302 132.66904953 6.56403034 129.40806334 2 124 C-0.25681864 120.10773349 -2.18273133 116.11381698 -4 112 C-9.55207233 112.36345395 -14.74121702 113.13757866 -20.125 114.5625 C-28.68715049 116.63694026 -39.9326189 118.16791143 -48 114 C-49.73046875 112.703125 -49.73046875 112.703125 -51.1875 111.25 C-51.67605469 110.78078125 -52.16460937 110.3115625 -52.66796875 109.828125 C-56.68130786 104.32008188 -56.21674048 98.23744788 -56.0625 91.75 C-56.028142 89.95320391 -55.99798412 88.15632106 -55.97265625 86.359375 C-55.95468994 85.57014648 -55.93672363 84.78091797 -55.91821289 83.96777344 C-55.86868055 81.9212351 -55.86868055 81.9212351 -57 80 C-59.98604308 79.00465231 -62.73301398 78.6949697 -65.85302734 78.40478516 C-82.45375608 76.81713756 -82.45375608 76.81713756 -87.6875 71.18359375 C-90.20725426 66.99150258 -89.83235489 62.700357 -89 58 C-76.78706484 29.81630348 -35.06710437 11.04333521 -8.609375 0.09765625 C-4.94409153 -1.01700247 -3.50427045 -1.38902826 0 0 Z " fill="#FB8802" transform="translate(417,1046)"/>
<path d="M0 0 C4.40724693 1.53204298 8.58152219 3.36109521 12.78125 5.390625 C14.15361816 6.05118896 14.15361816 6.05118896 15.55371094 6.72509766 C39.3162091 18.38789681 75.1820996 36.50813545 86.66015625 62.16796875 C88.11882854 66.80085872 87.71248675 70.73910556 86.28125 75.390625 C83.17620074 79.66006774 79.09849184 81.40159501 74.0625 82.72265625 C69.5186768 83.40550608 64.93347034 83.46177182 60.34375 83.5703125 C56.14040586 83.74156962 56.14040586 83.74156962 52.28515625 85.26953125 C50.78259598 88.07002297 50.90270484 90.54383928 50.84375 93.703125 C50.44290995 101.3033668 49.34252764 107.91387289 43.96875 113.578125 C42.6384375 114.3515625 42.6384375 114.3515625 41.28125 115.140625 C40.311875 115.718125 39.3425 116.295625 38.34375 116.890625 C26.65208836 121.45138094 12.62833304 116.92298601 1.28125 113.140625 C-2.0898663 112.3061658 -2.0898663 112.3061658 -5.71875 113.140625 C-7.52304988 115.15961373 -8.8093373 117.29256242 -10.1953125 119.6171875 C-13.65410977 125.34637477 -17.65858881 130.76461885 -24.2890625 132.73828125 C-33.55547557 134.27275158 -41.57982606 133.88365309 -49.71875 129.140625 C-50.65203125 128.64304687 -51.5853125 128.14546875 -52.546875 127.6328125 C-64.70025412 120.93287273 -74.68306745 111.5984101 -84.71875 102.140625 C-85.4509375 101.45097656 -86.183125 100.76132813 -86.9375 100.05078125 C-91.45315955 95.66951633 -95.43678632 90.9604061 -99.3671875 86.05078125 C-100.94645261 84.09637509 -102.55665038 82.16659885 -104.1953125 80.26171875 C-110.48303394 72.95199924 -115.66035338 65.32781436 -120.71875 57.140625 C-121.37875 56.150625 -122.03875 55.160625 -122.71875 54.140625 C-123.25791146 51.4804227 -123.45245098 48.84799837 -123.71875 46.140625 C-123.15293213 46.1312793 -122.58711426 46.12193359 -122.00415039 46.11230469 C-97.00728363 45.60160255 -70.5858204 42.93182676 -47.71875 32.140625 C-47.09468262 31.84639648 -46.47061523 31.55216797 -45.82763672 31.24902344 C-34.31579802 25.77568006 -23.6588757 19.77931239 -13.84375 11.578125 C-13.30790283 11.13106201 -12.77205566 10.68399902 -12.2199707 10.22338867 C-9.5076256 7.89323184 -7.31156018 5.63814483 -5.2109375 2.73828125 C-2.71875 0.140625 -2.71875 0.140625 0 0 Z " fill="#FB8802" transform="translate(830.71875,1044.859375)"/>
<path d="M0 0 C0.8971875 -0.01804687 1.794375 -0.03609375 2.71875 -0.0546875 C14.8751737 0.20162264 25.99888568 7.64250284 34.953125 15.3046875 C39.80530498 19.32347779 44.92923964 20.9886718 51.109375 21.31640625 C51.86347656 21.35830078 52.61757813 21.40019531 53.39453125 21.44335938 C54.17183594 21.48267578 54.94914062 21.52199219 55.75 21.5625 C56.54277344 21.60568359 57.33554687 21.64886719 58.15234375 21.69335938 C60.10137815 21.79902991 62.05066748 21.89997966 64 22 C62.68 22.33 61.36 22.66 60 23 C61.65 25.31 63.3 27.62 65 30 C61.39581639 32.19148853 58.03042752 32.45689744 53.875 32.875 C40.04141262 34.53836388 28.47644262 40.83155819 19.5625 51.73828125 C11.38844975 63.57021898 7.97572038 76.3816556 10.46484375 90.66796875 C14.24333702 104.73111826 22.70719026 116.03161258 35.16015625 123.4453125 C42.08798882 127.23799113 48.8406725 129.95669042 56.4375 132.125 C71.10679206 136.62548905 80.47846924 150.13294052 87.4140625 163.15625 C88.49374506 165.26606447 89.56405135 167.38070307 90.625 169.5 C91.69943644 171.61513453 92.77495008 173.72972222 93.8515625 175.84375 C94.36750977 176.86339844 94.88345703 177.88304687 95.41503906 178.93359375 C97.49201336 182.95189276 99.68883374 186.89870116 101.91162109 190.83789062 C103 193 103 193 103 195 C58.21297283 192.24825469 8.37971889 175.06365414 -24.7734375 144.0703125 C-26.79346607 142.19204032 -28.87292679 140.44169981 -31 138.6875 C-48.24131126 123.60570652 -64.54176438 96.63720412 -66.19091797 73.2980957 C-66.26753638 70.4043734 -66.27303384 67.51958611 -66.25 64.625 C-66.25773437 63.66078125 -66.26546875 62.6965625 -66.2734375 61.703125 C-66.22629814 44.1201443 -60.74223529 29.6214984 -48.8359375 16.640625 C-34.442707 3.13715784 -19.08500642 -0.40896442 0 0 Z " fill="#97D520" transform="translate(421,452)"/>
<path d="M0 0 C21.25932486 0.74676946 41.47822641 4.28585423 57.14916992 20.06933594 C70.9421907 36.30359933 74.59679618 53.2193218 73.14916992 74.06933594 C70.65586032 92.79814989 61.52524726 110.06537659 49.14916992 124.06933594 C48.41569336 124.92398438 47.6822168 125.77863281 46.92651367 126.65917969 C28.57048461 147.66987257 4.89434972 160.66787413 -20.59228516 171.13256836 C-22.57012232 171.95290791 -24.53228343 172.81083521 -26.49145508 173.67480469 C-30.1175162 175.18004169 -33.77554553 176.40333783 -37.53833008 177.50683594 C-38.25512939 177.71856445 -38.97192871 177.93029297 -39.71044922 178.1484375 C-48.04449629 180.52831951 -56.5359383 182.12152316 -65.05761719 183.66796875 C-66.94057903 184.01377149 -66.94057903 184.01377149 -68.85083008 185.06933594 C-70.32377184 185.34461175 -71.80468628 185.57800198 -73.28833008 185.78808594 C-74.18422852 185.91570312 -75.08012695 186.04332031 -76.00317383 186.17480469 C-76.94290039 186.305 -77.88262695 186.43519531 -78.85083008 186.56933594 C-79.75961914 186.69953125 -80.6684082 186.82972656 -81.60473633 186.96386719 C-87.67457487 187.81865242 -93.74715766 188.50663295 -99.85083008 189.06933594 C-97.08506716 184.02892688 -94.04673801 179.41629294 -90.60083008 174.81933594 C-89.61594708 173.49679742 -88.63157513 172.17387818 -87.64770508 170.85058594 C-86.929375 169.88572266 -86.929375 169.88572266 -86.1965332 168.90136719 C-84.3652515 166.40827251 -82.61685936 163.85891523 -80.85083008 161.31933594 C-71.051474 147.90758994 -59.37264549 140.24178686 -44.72583008 133.06933594 C-28.63489898 125.16685502 -14.95884845 113.54725865 -8.85083008 96.06933594 C-5.9057006 83.05376371 -6.1032194 67.42195686 -13.17114258 55.92089844 C-14.62538504 53.84681492 -16.17017738 51.96396062 -17.85083008 50.06933594 C-18.44895508 49.39 -19.04708008 48.71066406 -19.66333008 48.01074219 C-28.16435081 38.94412935 -37.30791505 35.25227198 -49.15844727 32.24853516 C-50.00697266 32.02182129 -50.85549805 31.79510742 -51.72973633 31.56152344 C-52.49874268 31.36929199 -53.26774902 31.17706055 -54.06005859 30.97900391 C-55.85083008 30.06933594 -55.85083008 30.06933594 -56.72949219 28.11669922 C-56.85083008 26.06933594 -56.85083008 26.06933594 -54.91333008 23.81933594 C-54.23270508 23.24183594 -53.55208008 22.66433594 -52.85083008 22.06933594 C-53.34583008 21.07933594 -53.34583008 21.07933594 -53.85083008 20.06933594 C-52.82602539 20.16988281 -52.82602539 20.16988281 -51.78051758 20.27246094 C-41.9973782 20.42258584 -35.47481242 16.52584256 -27.1875 11.7331543 C-20.2026166 7.71319429 -13.29095067 4.64894932 -5.67504883 2.05761719 C-3.32290811 1.2345306 -2.3173171 0.08681151 0 0 Z " fill="#98D51F" transform="translate(790.850830078125,459.9306640625)"/>
<path d="M0 0 C12.91416457 8.2988675 19.97398294 19.91932479 23.74804688 34.58911133 C24.71569193 39.43833259 24.85998054 44.18751712 24.828125 49.12109375 C24.82240479 50.16289795 24.81668457 51.20470215 24.81079102 52.27807617 C24.49061951 66.2977074 20.91646537 78.21789286 12.328125 89.49609375 C11.84472656 90.15996094 11.36132812 90.82382812 10.86328125 91.5078125 C5.61407894 98.21108747 -2.27032825 103.70947309 -10.671875 105.49609375 C-21.08535211 106.66598508 -29.00612904 104.38579489 -37.421875 98.24609375 C-41.60548515 94.78430366 -44.73247483 91.0427098 -47.671875 86.49609375 C-48.11273437 85.86574219 -48.55359375 85.23539062 -49.0078125 84.5859375 C-57.52801665 71.18598007 -59.01730353 51.81648705 -55.9765625 36.50390625 C-51.8346198 20.59745402 -42.87702577 8.56119813 -29.421875 -0.75390625 C-21.21869478 -4.68394696 -8.11221356 -3.98712537 0 0 Z " fill="#043B27" transform="translate(752.671875,357.50390625)"/>
<path d="M0 0 C8.23939702 6.42801207 14.71826269 17.30685267 16.7578125 27.56640625 C16.9453125 31.12890625 16.9453125 31.12890625 16.7578125 33.56640625 C17.4178125 33.56640625 18.0778125 33.56640625 18.7578125 33.56640625 C19.33924315 50.72531932 18.45729016 64.89246959 10.7578125 80.56640625 C10.0978125 80.56640625 9.4378125 80.56640625 8.7578125 80.56640625 C8.5515625 81.24703125 8.3453125 81.92765625 8.1328125 82.62890625 C4.35904133 90.69105374 -2.57813126 96.12847913 -10.65625 99.60546875 C-18.28137278 102.19558982 -26.26619707 103.07074065 -33.8671875 100.00390625 C-46.89417868 93.36223812 -54.30187237 83.13405635 -59.2421875 69.56640625 C-64.49767109 50.63086633 -62.81744408 32.13718038 -53.7109375 14.62109375 C-48.40499159 5.63602498 -41.10759555 -2.41783648 -31 -5.83984375 C-19.55385424 -8.30416975 -9.78291544 -6.25493026 0 0 Z " fill="#053B28" transform="translate(508.2421875,357.43359375)"/>
<path d="M0 0 C0.59039063 0.42925781 1.18078125 0.85851562 1.7890625 1.30078125 C2.76746094 1.96013672 2.76746094 1.96013672 3.765625 2.6328125 C15.21684016 11.36491672 20.32042794 26.54191058 22.5390625 40.23828125 C22.64770965 41.59065235 22.72691451 42.94547707 22.7890625 44.30078125 C22.90121094 45.87666016 22.90121094 45.87666016 23.015625 47.484375 C23.5191113 60.00528426 20.75149563 72.23268691 14.7890625 83.30078125 C14.1290625 83.30078125 13.4690625 83.30078125 12.7890625 83.30078125 C12.71429687 82.62273437 12.63953125 81.9446875 12.5625 81.24609375 C11.43201794 73.24405405 9.04345406 66.29278742 3.015625 60.63671875 C-4.64642112 54.9152782 -11.90145775 54.44776331 -21.2109375 55.30078125 C-28.98340422 57.53355508 -34.3594149 63.36804057 -38.2109375 70.30078125 C-39.38372674 73.92941121 -40.33919075 77.5892534 -41.2109375 81.30078125 C-47.05264332 76.38415495 -48.77424847 67.59477325 -49.51513672 60.30957031 C-50.68750875 40.63877852 -48.39962769 22.45015619 -35.16015625 6.890625 C-26.17468382 -2.43328331 -12.09006903 -7.48555338 0 0 Z " fill="#AE3C01" transform="translate(619.2109375,555.69921875)"/>
<path d="M0 0 C7.39239535 4.32636908 12.10961893 10.72138146 14.5 18.9375 C15.29637787 22.84142229 15.54317837 26.06690922 14.5 29.9375 C9.21175977 36.87046289 2.02341341 40.74938783 -6.5 41.9375 C-16.78528186 42.60106657 -24.61172221 41.72490776 -32.890625 35.3828125 C-36.72770054 31.93689515 -39.18957623 28.76555106 -40.0625 23.625 C-38.89212492 15.95254113 -36.06462149 9.37565282 -30.5 3.9375 C-21.40083131 -2.62817466 -10.61669192 -4.92860127 0 0 Z " fill="#F57182" transform="translate(617.5,612.0625)"/>
<path d="M0 0 C0.70519775 0.00757324 1.41039551 0.01514648 2.13696289 0.02294922 C8.24910151 0.21467515 12.9524663 1.46344599 18.25 4.4375 C19.00539063 4.85 19.76078125 5.2625 20.5390625 5.6875 C32.48419012 12.91204454 39.89973275 24.38669824 44.25 37.4375 C44.31937062 39.66568441 44.33457084 41.89584524 44.3125 44.125 C44.30347656 45.30449219 44.29445313 46.48398437 44.28515625 47.69921875 C44.27355469 48.60285156 44.26195312 49.50648438 44.25 50.4375 C42.27 50.9325 42.27 50.9325 40.25 51.4375 C39.70472656 50.74785156 39.15945313 50.05820312 38.59765625 49.34765625 C24.8857529 32.26051515 11.83487587 21.78776461 -10.4375 19.3125 C-11.13319092 19.24893311 -11.82888184 19.18536621 -12.5456543 19.11987305 C-17.551902 18.635598 -17.551902 18.635598 -19.75 16.4375 C-20.32698287 13.33621705 -20.29261611 11.32065449 -18.6171875 8.59375 C-13.49396913 2.26349065 -8.18590978 -0.1233614 0 0 Z " fill="#043A26" transform="translate(751.75,232.5625)"/>
<path d="M0 0 C1.76171875 1.390625 1.76171875 1.390625 3.3125 2.8125 C4.3025 3.616875 5.2925 4.42125 6.3125 5.25 C8.3125 7.8125 8.3125 7.8125 8.75 11 C8.3125 13.8125 8.3125 13.8125 6.3125 15.8125 C4.10906535 15.99267361 1.8978467 16.08079307 -0.3125 16.125 C-18.07881817 16.96947638 -34.39526384 24.89427033 -46.6875 37.8125 C-48.80952908 40.40100961 -50.79485671 43.0523952 -52.6875 45.8125 C-54.3375 45.4825 -55.9875 45.1525 -57.6875 44.8125 C-58.78072587 31.69378959 -51.97332327 21.45817024 -43.91796875 11.66015625 C-34.20479492 1.00633822 -13.95349117 -8.54350035 0 0 Z " fill="#033A26" transform="translate(498.6875,230.1875)"/>
<path d="M0 0 C4.69784081 1.71651876 7.27586044 3.81649996 10 8 C12.50500733 13.51101612 13.11727031 19.40061213 11.3125 25.21484375 C9.19228166 29.95883229 6.86563554 32.83749532 2 35 C-2.31448398 35.81297715 -6.13764794 35.98329409 -10.09375 33.89453125 C-14.99877074 30.01831783 -17.5690655 25.64678318 -18.3125 19.35546875 C-18.59083623 12.99722545 -17.91925815 9.05378025 -14 4 C-9.50989363 0.02013299 -5.79148979 -0.94980433 0 0 Z " fill="#F6F8F7" transform="translate(502,367)"/>
<path d="M0 0 C4.41159274 2.26259799 6.63801611 4.9055668 9.0703125 9.30859375 C10.05684289 15.61558457 10.60635277 23.02556525 6.9453125 28.55859375 C2.94309737 32.38679952 0.08152878 34.05719171 -5.4296875 34.74609375 C-9.72956376 34.20860922 -11.65980904 33.14248841 -14.9296875 30.30859375 C-19.53233531 23.72710054 -20.88369932 18.2622653 -19.9296875 10.30859375 C-18.29223873 6.13683631 -15.98791131 3.22381434 -12.6171875 0.30859375 C-8.27920161 -1.30554054 -4.33935042 -1.5547875 0 0 Z " fill="#F6F7F7" transform="translate(754.9296875,371.69140625)"/>
<path d="M0 0 C3.5 0.6875 3.5 0.6875 6.4375 2.5625 C9.32788066 6.94186463 9.39550934 10.58137465 8.5 15.6875 C7.0625 18.3125 7.0625 18.3125 4.5 19.6875 C1.34213599 20.33645554 -1.3548164 20.44349826 -4.5 19.6875 C-7.60027456 16.58722544 -8.37088344 14.49089195 -9.0625 10.1875 C-8.14907707 4.50397957 -5.97985109 1.17461361 0 0 Z " fill="#CA5D01" transform="translate(557.5,483.3125)"/>
<path d="M0 0 C2.875 1.375 2.875 1.375 5 4 C5.80594088 9.00181867 5.74316038 13.62656281 3 18 C0.68566978 19.15716511 -0.86060812 19.23210436 -3.4375 19.3125 C-4.61119141 19.36857422 -4.61119141 19.36857422 -5.80859375 19.42578125 C-8 19 -8 19 -9.75390625 17.2890625 C-11.91866287 13.31242495 -11.75239628 9.39371035 -11 5 C-7.92883052 0.48357429 -5.43434422 -1.01893954 0 0 Z " fill="#CA5E00" transform="translate(654,485)"/>
<path d="M0 0 C3.69268106 1.32675089 6.5476833 2.97190937 9.6875 5.3125 C17.60410927 10.93715149 25.00624799 14.32347735 34.53125 16.32421875 C37 17 37 17 39 19 C38.34 19.598125 37.68 20.19625 37 20.8125 C34.6626154 22.87501834 34.6626154 22.87501834 35 26 C20.71509044 21.95260896 9.56501018 12.93793299 -2 4 C-1.34 2.68 -0.68 1.36 0 0 Z " fill="#6DC11B" transform="translate(700,463)"/>
<path d="M0 0 C0.66 0 1.32 0 2 0 C2 0.66 2 1.32 2 2 C1.34 2 0.68 2 0 2 C0.66 3.32 1.32 4.64 2 6 C-16.13617186 19.89520392 -16.13617186 19.89520392 -27 21 C-30 18.75 -30 18.75 -32 16 C-32 15.34 -32 14.68 -32 14 C-30.36804688 13.56300781 -30.36804688 13.56300781 -28.703125 13.1171875 C-13.08470993 8.99689135 -13.08470993 8.99689135 0 0 Z " fill="#6CBB1E" transform="translate(513,461)"/>
<path d="M0 0 C0.66 0.33 1.32 0.66 2 1 C2.625 3.0625 2.625 3.0625 3 5 C0.9246318 5.89372793 -1.16067006 6.76441696 -3.25 7.625 C-4.41015625 8.11226563 -5.5703125 8.59953125 -6.765625 9.1015625 C-10 10 -10 10 -12.3125 9.2421875 C-14.08405039 7.93812958 -15.58975444 6.69229467 -17 5 C-17 4.34 -17 3.68 -17 3 C-15.94039063 2.95101563 -14.88078125 2.90203125 -13.7890625 2.8515625 C-12.40101503 2.77653291 -11.01299549 2.70098515 -9.625 2.625 C-8.57699219 2.57859375 -8.57699219 2.57859375 -7.5078125 2.53125 C-3.29814173 2.40500502 -3.29814173 2.40500502 0 0 Z " fill="#6BC015" transform="translate(498,472)"/>
<path d="M0 0 C0.33 0 0.66 0 1 0 C1.85355324 11.99792134 2.28131469 23.97674589 2.5625 36 C2.60584482 37.7578193 2.64946319 39.51563188 2.69335938 41.2734375 C2.79871284 45.51555445 2.90041201 49.75774394 3 54 C3.99 54.33 4.98 54.66 6 55 C4.35830472 57.02054804 2.69088222 59.02043058 1 61 C0.67 61 0.34 61 0 61 C0 40.87 0 20.74 0 0 Z " fill="#DCF0CB" transform="translate(882,847)"/>
<path d="M0 0 C6.0546875 -0.1953125 6.0546875 -0.1953125 8 0 C8.66 0.66 9.32 1.32 10 2 C9.01 2.8971875 9.01 2.8971875 8 3.8125 C5.6626154 5.87501834 5.6626154 5.87501834 6 9 C4.5164999 8.57742724 3.03823576 8.13643678 1.5625 7.6875 C0.73878906 7.44386719 -0.08492187 7.20023437 -0.93359375 6.94921875 C-1.61550781 6.63597656 -2.29742188 6.32273437 -3 6 C-3.33 5.01 -3.66 4.02 -4 3 C-2.02 3.66 -0.04 4.32 2 5 C2 3.68 2 2.36 2 1 C1.34 0.67 0.68 0.34 0 0 Z " fill="#62B815" transform="translate(729,480)"/>
<path d="M0 0 C3.16898804 2.59280839 3.99916994 5.06570254 5 9 C5.23446196 12.62947112 5.18903181 16.2399632 5.125 19.875 C5.11597656 20.84953125 5.10695313 21.8240625 5.09765625 22.828125 C5.07421623 25.21900728 5.04140442 27.60937261 5 30 C2.77824719 28.24976105 2.05524357 27.39771408 1.65942383 24.5480957 C1.67513428 23.60023193 1.69084473 22.65236816 1.70703125 21.67578125 C1.7215332 20.13374023 1.7215332 20.13374023 1.73632812 18.56054688 C1.76146484 17.48869141 1.78660156 16.41683594 1.8125 15.3125 C1.83280273 13.68731445 1.83280273 13.68731445 1.85351562 12.02929688 C1.88889357 9.35236595 1.93825811 6.67643162 2 4 C1.34 4 0.68 4 0 4 C0 2.68 0 1.36 0 0 Z " fill="#86CE49" transform="translate(311,482)"/>
<path d="M0 0 C5.94 0.99 5.94 0.99 12 2 C10.02 2.99 10.02 2.99 8 4 C8 5.32 8 6.64 8 8 C6.1858073 7.71905418 4.37364999 7.42493567 2.5625 7.125 C1.04849609 6.88136719 1.04849609 6.88136719 -0.49609375 6.6328125 C-1.32238281 6.42398437 -2.14867187 6.21515625 -3 6 C-3.33 5.34 -3.66 4.68 -4 4 C-2.68 3.67 -1.36 3.34 0 3 C0 2.01 0 1.02 0 0 Z " fill="#77C624" transform="translate(723,477)"/>
<path d="M0 0 C1.02852708 3.08558124 1 4.77356651 1 8 C-0.96875 10.04296875 -0.96875 10.04296875 -3.5 12.1875 C-4.3353125 12.90292969 -5.170625 13.61835937 -6.03125 14.35546875 C-6.6809375 14.89816406 -7.330625 15.44085937 -8 16 C-8 11.9883804 -6.09512932 9.57906142 -4 6.3125 C-3.6184375 5.70599609 -3.236875 5.09949219 -2.84375 4.47460938 C-1.90181528 2.97928801 -0.95168625 1.48913407 0 0 Z " fill="#E4F4D8" transform="translate(872,579)"/>
<path d="M0 0 C0.66 0.33 1.32 0.66 2 1 C-1.21082417 4.74596154 -5.39608423 6.46536141 -10 8 C-11.56118428 8.06740865 -13.1250252 8.08514456 -14.6875 8.0625 C-15.89986328 8.04896484 -15.89986328 8.04896484 -17.13671875 8.03515625 C-18.05904297 8.01775391 -18.05904297 8.01775391 -19 8 C-14.81804516 5.73521337 -10.35360155 4.31347772 -5.86914062 2.76757812 C-2.68462926 1.82336748 -2.68462926 1.82336748 0 0 Z " fill="#79C83C" transform="translate(504,467)"/>
<path d="M0 0 C4.78583992 7.17875988 4.25431767 15.1838788 4.125 23.5 C4.11597656 24.60859375 4.10695313 25.7171875 4.09765625 26.859375 C4.07426167 29.57314592 4.04148175 32.28645545 4 35 C3.67 35 3.34 35 3 35 C2.67 26.42 2.34 17.84 2 9 C1.34 9 0.68 9 0 9 C0 6.03 0 3.06 0 0 Z " fill="#48695C" transform="translate(773,384)"/>
<path d="M0 0 C0.99 0.33 1.98 0.66 3 1 C-0.96 5.29 -4.92 9.58 -9 14 C-9.66 13.67 -10.32 13.34 -11 13 C-9.92027262 11.5805831 -8.83604137 10.1645917 -7.75 8.75 C-6.84507812 7.56664062 -6.84507812 7.56664062 -5.921875 6.359375 C-4.06817005 4.08368843 -2.11101046 2.03628442 0 0 Z " fill="#9FD321" transform="translate(719,611)"/>
<path d="M0 0 C-0.28751107 3.21422633 -1.09917158 4.09344717 -3.50390625 6.359375 C-4.51324219 7.14828125 -5.52257812 7.9371875 -6.5625 8.75 C-8.08037109 9.94882813 -8.08037109 9.94882813 -9.62890625 11.171875 C-10.41136719 11.77515625 -11.19382812 12.3784375 -12 13 C-12.66 12.67 -13.32 12.34 -14 12 C-12.04761147 9.99387601 -10.08862178 7.99507567 -8.125 6 C-7.29162109 5.14148438 -7.29162109 5.14148438 -6.44140625 4.265625 C-2.2265625 0 -2.2265625 0 0 0 Z " fill="#6EC725" transform="translate(605,61)"/>
<path d="M0 0 C0.33 0 0.66 0 1 0 C1.33 2.31 1.66 4.62 2 7 C2.99 7.33 3.98 7.66 5 8 C3.35830472 10.02054804 1.69088222 12.02043058 0 14 C-0.33 14 -0.66 14 -1 14 C-1.02694851 12.04174127 -1.04637218 10.08337774 -1.0625 8.125 C-1.07410156 7.03445313 -1.08570313 5.94390625 -1.09765625 4.8203125 C-1 2 -1 2 0 0 Z " fill="#DCEBBE" transform="translate(883,894)"/>
<path d="M0 0 C0.66 0.33 1.32 0.66 2 1 C-0.31556748 6.03976452 -2.97270563 7.00641775 -8 9 C-10.84600677 11.05787515 -10.84600677 11.05787515 -13 13 C-13.66 12.67 -14.32 12.34 -15 12 C-14.00097656 11.21753906 -13.00195312 10.43507813 -11.97265625 9.62890625 C-10.66924354 8.60680564 -9.36585961 7.58466832 -8.0625 6.5625 C-7.40314453 6.04623047 -6.74378906 5.52996094 -6.06445312 4.99804688 C-5.43603516 4.50498047 -4.80761719 4.01191406 -4.16015625 3.50390625 C-3.57886963 3.04830322 -2.99758301 2.5927002 -2.39868164 2.12329102 C-1.02763998 1.06382373 -1.02763998 1.06382373 0 0 Z " fill="#E9F6DE" transform="translate(941,706)"/>
<path d="M0 0 C0.33 0 0.66 0 1 0 C1.29341888 5.67276511 1.00559652 8.99067246 -2 14 C-2.66 14 -3.32 14 -4 14 C-3.52525225 11.85318469 -3.04508251 9.70756772 -2.5625 7.5625 C-2.29566406 6.36753906 -2.02882813 5.17257812 -1.75390625 3.94140625 C-1 1 -1 1 0 0 Z " fill="#E0E8E5" transform="translate(776,420)"/>
<path d="M0 0 C2.475 0.99 2.475 0.99 5 2 C4.34 3.65 3.68 5.3 3 7 C1.35 6.01 -0.3 5.02 -2 4 C-1.34 2.68 -0.68 1.36 0 0 Z " fill="#73BF16" transform="translate(700,463)"/>
<path d="M0 0 C0.33 0 0.66 0 1 0 C1.22127098 2.29045368 1.4266504 4.58244764 1.625 6.875 C1.74101563 8.15117187 1.85703125 9.42734375 1.9765625 10.7421875 C1.98429688 11.81726563 1.99203125 12.89234375 2 14 C1.34 14.66 0.68 15.32 0 16 C-0.66 16 -1.32 16 -2 16 C-1.67 15.01 -1.34 14.02 -1 13 C-0.77548542 10.77425665 -0.59217122 8.54418481 -0.4375 6.3125 C-0.35371094 5.13300781 -0.26992188 3.95351563 -0.18359375 2.73828125 C-0.12300781 1.83464844 -0.06242188 0.93101562 0 0 Z " fill="#4C7163" transform="translate(764,383)"/>
<path d="M0 0 C1.4606285 2.64738916 2 3.89448334 2 7 C-0.91517292 5.92598892 -2.77810176 5.22189824 -5 3 C-3.35 2.67 -1.7 2.34 0 2 C0 1.34 0 0.68 0 0 Z " fill="#DDF0C9" transform="translate(216,501)"/>
<path d="M0 0 C-4.13378595 2.7558573 -6.05203546 3.10756445 -11 3 C-7.46647659 -0.87004945 -5.02196482 -1.22155901 0 0 Z " fill="#1A4B39" transform="translate(731,357)"/>
<path d="M0 0 C0.99 0.33 1.98 0.66 3 1 C-0.96 4.465 -0.96 4.465 -5 8 C-5.66 7.67 -6.32 7.34 -7 7 C-4.69 4.69 -2.38 2.38 0 0 Z " fill="#75C32E" transform="translate(878,581)"/>
<path d="M0 0 C0.33 0 0.66 0 1 0 C1.23509196 4.81938524 0.45184478 8.46298506 -1 13 C-1.33 13 -1.66 13 -2 13 C-2.16682272 8.07872966 -2.24828052 4.49656104 0 0 Z " fill="#79C93A" transform="translate(330,435)"/>
<path d="M0 0 C1.98 0.66 3.96 1.32 6 2 C6 2.66 6 3.32 6 4 C7.32 4.33 8.64 4.66 10 5 C9.01 5.495 9.01 5.495 8 6 C6.0546875 5.22265625 6.0546875 5.22265625 3.875 4.0625 C3.15054688 3.68222656 2.42609375 3.30195313 1.6796875 2.91015625 C1.12539063 2.60980469 0.57109375 2.30945313 0 2 C0 1.34 0 0.68 0 0 Z " fill="#87BA10" transform="translate(725,483)"/>
<path d="M0 0 C2.31 0.33 4.62 0.66 7 1 C7.66 2.65 8.32 4.3 9 6 C5.06326356 4.68775452 2.77280706 3.08089673 0 0 Z " fill="#72B110" transform="translate(710,475)"/>
<path d="M0 0 C0.66 1.32 1.32 2.64 2 4 C0.68 5.32 -0.64 6.64 -2 8 C-2 4.23312136 -1.76462683 3.08809695 0 0 Z " fill="#71C52F" transform="translate(532,436)"/>
<path d="M0 0 C0.66 0.66 1.32 1.32 2 2 C0.35 3.65 -1.3 5.3 -3 7 C-3.99 6.67 -4.98 6.34 -6 6 C-4.02 4.02 -2.04 2.04 0 0 Z " fill="#1F4F40" transform="translate(465,359)"/>
<path d="M0 0 C0.33 0.99 0.66 1.98 1 3 C-0.65 4.65 -2.3 6.3 -4 8 C-4.66 7.67 -5.32 7.34 -6 7 C-4.02 4.69 -2.04 2.38 0 0 Z " fill="#6DC629" transform="translate(437,201)"/>
<path d="M0 0 C0.33 1.32 0.66 2.64 1 4 C-1.4375 6.75 -1.4375 6.75 -4 9 C-4.99 8.67 -5.98 8.34 -7 8 C-4.69 5.36 -2.38 2.72 0 0 Z " fill="#ECF7E1" transform="translate(734,125)"/>
<path d="M0 0 C0.66 0 1.32 0 2 0 C2.9765625 6.0546875 2.9765625 6.0546875 3 8 C2.34 8.66 1.68 9.32 1 10 C0.67 6.7 0.34 3.4 0 0 Z " fill="#69C125" transform="translate(668,54)"/>
<path d="M0 0 C0.66 0.99 1.32 1.98 2 3 C1.01 4.485 1.01 4.485 0 6 C-0.66 6 -1.32 6 -2 6 C-2.33 6.99 -2.66 7.98 -3 9 C-2.5020163 5.26512223 -2.12508244 3.18762365 0 0 Z " fill="#FB9D32" transform="translate(331,1099)"/>
<path d="M0 0 C0.66 0.33 1.32 0.66 2 1 C1.01 1.33 0.02 1.66 -1 2 C-1.33 2.99 -1.66 3.98 -2 5 C-4.31 5.33 -6.62 5.66 -9 6 C-6.12050853 3.76039553 -3.23257974 1.70135776 0 0 Z " fill="#E8F5DA" transform="translate(881,747)"/>
<path d="M0 0 C0.33 0.66 0.66 1.32 1 2 C-1.64 3.98 -4.28 5.96 -7 8 C-7 7.01 -7 6.02 -7 5 C-5.46875 3.61328125 -5.46875 3.61328125 -3.5 2.3125 C-2.8503125 1.87550781 -2.200625 1.43851563 -1.53125 0.98828125 C-1.0259375 0.66214844 -0.520625 0.33601562 0 0 Z " fill="#A3CE1F" transform="translate(731,601)"/>
<path d="M0 0 C1.02852708 3.08558124 1 4.77356651 1 8 C-0.32 8 -1.64 8 -3 8 C-2.45276317 4.62537285 -1.9451 2.91765 0 0 Z " fill="#ECF8E4" transform="translate(872,579)"/>
<path d="M0 0 C4 4.5 4 4.5 4 9 C1.74754119 6.31158141 0.11786042 4.35358125 -1 1 C-0.67 0.67 -0.34 0.34 0 0 Z " fill="#6ABE1F" transform="translate(347,566)"/>
<path d="M0 0 C2.64 0 5.28 0 8 0 C8 0.66 8 1.32 8 2 C6.02 2.33 4.04 2.66 2 3 C2 2.34 2 1.68 2 1 C1.34 0.67 0.68 0.34 0 0 Z " fill="#99DD2C" transform="translate(741,480)"/>
<path d="M0 0 C-4.75 4 -4.75 4 -7 4 C-7 3.34 -7 2.68 -7 2 C-7.66 1.67 -8.32 1.34 -9 1 C-6.04335481 -0.4783226 -3.25770263 -0.06032783 0 0 Z " fill="#82CE45" transform="translate(927,471)"/>
<path d="M0 0 C0.99 0.33 1.98 0.66 3 1 C1.02 3.97 1.02 3.97 -1 7 C-1.66 6.01 -2.32 5.02 -3 4 C-2.01 2.68 -1.02 1.36 0 0 Z " fill="#124735" transform="translate(710,368)"/>
<path d="M0 0 C0.66 0.99 1.32 1.98 2 3 C0.68 5.31 -0.64 7.62 -2 10 C-3 8 -3 8 -2.44140625 6.0546875 C-2.15136719 5.33539063 -1.86132812 4.61609375 -1.5625 3.875 C-1.27503906 3.15054687 -0.98757813 2.42609375 -0.69140625 1.6796875 C-0.46324219 1.12539063 -0.23507812 0.57109375 0 0 Z " fill="#DAF0CA" transform="translate(688,356)"/>
<path d="M0 0 C-0.33 1.98 -0.66 3.96 -1 6 C-3.475 5.01 -3.475 5.01 -6 4 C-2.25 0 -2.25 0 0 0 Z " fill="#E2F3D4" transform="translate(718,141)"/>
<path d="M0 0 C2.12508244 3.18762365 2.5020163 5.26512223 3 9 C2.01 9 1.02 9 0 9 C-0.5625 7.0625 -0.5625 7.0625 -1 5 C-0.67 4.67 -0.34 4.34 0 4 C0 2.68 0 1.36 0 0 Z " fill="#FCEAC4" transform="translate(706,1091)"/>
<path d="M0 0 C0.33 1.32 0.66 2.64 1 4 C-0.9375 6.25 -0.9375 6.25 -3 8 C-3.66 7.67 -4.32 7.34 -5 7 C-3.35 4.69 -1.7 2.38 0 0 Z " fill="#ABCB1E" transform="translate(713,617)"/>
<path d="M0 0 C0.66 0.33 1.32 0.66 2 1 C1.67 2.32 1.34 3.64 1 5 C0.01 5 -0.98 5 -2 5 C-2 2 -2 2 0 0 Z " fill="#082F21" transform="translate(513,439)"/>
<path d="M0 0 C0.33 0.66 0.66 1.32 1 2 C1.99 2.33 2.98 2.66 4 3 C2.35 4.32 0.7 5.64 -1 7 C-1.66 6.67 -2.32 6.34 -3 6 C-2.01 4.02 -1.02 2.04 0 0 Z " fill="#D6EFC4" transform="translate(661,103)"/>
</svg>