<?xml version="1.0" encoding="UTF-8"?>
<svg version="1.1" xmlns="http://www.w3.org/2000/svg" width="1254" height="1254" style="background: transparent;">

<path d="M0 0 C5.47676545 3.09828445 9.17210414 8.07663241 11.09765625 14.05078125 C14.19149047 30.75748605 7.25778198 47.79405263 1.48828125 63.16015625 C2.10832031 62.61488281 2.72835938 62.06960937 3.3671875 61.5078125 C14.54403596 51.99040879 26.90219178 44.74495192 40.48828125 39.16015625 C41.29136719 38.81984375 42.09445312 38.47953125 42.921875 38.12890625 C52.33147007 34.70146521 65.34547261 34.35018508 74.69140625 38.171875 C78.85695157 40.46292493 81.83141055 43.1748502 84.48828125 47.16015625 C85.8317786 58.29868662 83.47790463 66.5775399 76.67578125 75.34765625 C71.15256117 81.8732385 65.58657221 87.37967458 58.48828125 92.16015625 C63.70863854 94.26512743 68.93845265 96.3393033 74.1953125 98.3515625 C93.39808513 105.76686648 111.49695284 114.49264142 128.48828125 126.16015625 C129.05562988 126.54494141 129.62297852 126.92972656 130.20751953 127.32617188 C143.97190494 136.69407996 156.00052441 147.49857478 167.80078125 159.22265625 C168.71988281 160.13241211 169.63898438 161.04216797 170.5859375 161.97949219 C176.64331764 168.065321 182.18044218 174.41319015 187.48828125 181.16015625 C188.29640259 182.17928101 188.29640259 182.17928101 189.12084961 183.21899414 C235.87530988 242.8098651 258.21920496 317.09235435 270.36328125 390.78515625 C270.56638916 391.99751953 270.76949707 393.20988281 270.97875977 394.45898438 C275.5392169 423.17545873 275.8743269 454.77185731 269.48828125 483.16015625 C269.31167969 483.97387695 269.13507812 484.78759766 268.953125 485.62597656 C262.60240081 513.98078403 246.93422821 539.62434564 223.703125 557.22265625 C220.81007243 559.71442319 220.81007243 559.71442319 219.48828125 563.16015625 C219.9725687 565.1055143 220.46454414 567.04992668 221.02539062 568.97460938 C221.51957974 571.30793264 221.45863488 573.09473015 221.19140625 575.45703125 C220.13119067 583.54245767 220.13119067 583.54245767 222.70849609 590.99414062 C225.99651987 594.44447293 229.85793409 597.14144027 233.74511719 599.87353516 C237.97080129 602.99249247 241.18751255 607.11726841 244.48828125 611.16015625 C244.96587891 611.73797852 245.44347656 612.31580078 245.93554688 612.91113281 C257.99113849 627.61655247 268.97663828 644.54256621 275.61328125 662.47265625 C275.92523437 663.29378906 276.2371875 664.11492188 276.55859375 664.9609375 C279.02507045 673.44851909 279.85195043 681.78395012 279.80078125 690.59765625 C279.79340942 692.11033081 279.79340942 692.11033081 279.78588867 693.65356445 C279.67232916 700.86255532 279.00683315 707.35600393 276.48828125 714.16015625 C276.14796875 715.14757812 275.80765625 716.135 275.45703125 717.15234375 C269.51563524 732.92915884 257.91656384 745.72768856 242.70751953 753.01318359 C233.63618185 757.11457368 224.538215 760.16015625 214.48828125 760.16015625 C214.67414795 760.8972583 214.86001465 761.63436035 215.05151367 762.39379883 C220.50955389 784.17045419 224.83650639 806.0047368 228.48828125 828.16015625 C229.32488281 827.31831787 230.16148437 826.47647949 231.0234375 825.60913086 C234.15933201 822.45499183 237.29865325 819.30428184 240.43896484 816.15454102 C241.7917748 814.79673498 243.14368191 813.43802874 244.49462891 812.07836914 C258.67432509 797.80959135 258.67432509 797.80959135 265.48828125 792.16015625 C266.08608398 791.6504126 266.68388672 791.14066895 267.29980469 790.61547852 C287.01582484 773.86315039 309.43299835 758.50893438 334.48828125 751.16015625 C335.64585937 750.77085937 336.8034375 750.3815625 337.99609375 749.98046875 C362.73022839 742.37292132 393.68754482 745.6105385 416.48828125 757.16015625 C420.71282893 759.57142776 424.6248315 762.20811379 428.48828125 765.16015625 C429.27460937 765.75183594 430.0609375 766.34351563 430.87109375 766.953125 C446.8076667 779.97447119 454.97501494 799.6193847 459.48828125 819.16015625 C459.66786377 819.9294043 459.84744629 820.69865234 460.0324707 821.49121094 C462.84827178 837.97880461 461.43547454 857.28198287 456.48828125 873.16015625 C456.12175028 874.44382627 455.7558613 875.72767977 455.390625 877.01171875 C444.37399678 913.08650812 417.97996112 941.62440327 385.19824219 959.3137207 C374.87741815 964.74285606 364.58804044 969.56393382 353.48828125 973.16015625 C352.4003125 973.52238281 351.31234375 973.88460937 350.19140625 974.2578125 C341.72768982 976.97239472 333.12047761 979.06162435 324.48828125 981.16015625 C323.27785156 981.49660156 322.06742188 981.83304688 320.8203125 982.1796875 C315.13264596 983.603851 309.3068455 984.09923865 303.48828125 984.72265625 C301.21741791 984.97368706 298.94658385 985.22498286 296.67578125 985.4765625 C295.18111328 985.63813843 295.18111328 985.63813843 293.65625 985.80297852 C291.32290884 986.06605482 288.99381546 986.3674981 286.66796875 986.69018555 C282.25007332 987.24442167 277.87440678 987.33879474 273.42578125 987.36328125 C272.14086288 987.37373474 272.14086288 987.37373474 270.82998657 987.38439941 C268.04936811 987.40180704 265.26895209 987.40812939 262.48828125 987.41015625 C261.53475769 987.41116333 260.58123413 987.41217041 259.59881592 987.41320801 C200.91090092 987.37146609 200.91090092 987.37146609 184.48828125 979.16015625 C184.48828125 979.82015625 184.48828125 980.48015625 184.48828125 981.16015625 C185.16503906 981.25425781 185.84179688 981.34835937 186.5390625 981.4453125 C190.19501263 982.3314567 193.35086594 983.88956734 196.67578125 985.59765625 C197.36994141 985.95110107 198.06410156 986.3045459 198.77929688 986.66870117 C201.02216834 987.82039866 203.25657101 988.98698555 205.48828125 990.16015625 C206.22900879 990.54913086 206.96973633 990.93810547 207.73291016 991.33886719 C228.90900549 1002.55597623 263.40958391 1021.56108523 271.1171875 1046.16796875 C272.04071689 1051.12586339 271.98761763 1055.68988803 270.36328125 1060.47265625 C267.17597567 1065.04112759 262.73374536 1067.52312562 257.48828125 1069.16015625 C253.17923341 1069.55129098 248.85354231 1069.5746767 244.52929688 1069.63867188 C243.65595703 1069.66509766 242.78261719 1069.69152344 241.8828125 1069.71875 C241.08721924 1069.73220459 240.29162598 1069.74565918 239.47192383 1069.75952148 C237.08634049 1069.99848633 237.08634049 1069.99848633 235.48828125 1073.16015625 C235.31510779 1075.34327739 235.22144596 1077.53315364 235.17578125 1079.72265625 C234.70115645 1087.77462431 232.73327236 1093.83196024 227.05078125 1099.66015625 C219.02534136 1104.35797472 209.51737521 1104.22041337 200.48828125 1103.16015625 C196.20047341 1101.93180661 192.43397508 1100.2106743 188.48828125 1098.16015625 C184.25203036 1096.30918176 181.15948029 1095.56564001 176.48828125 1096.16015625 C174.25315952 1098.26380023 172.89514615 1100.42364168 171.41796875 1103.09765625 C167.7862939 1109.44707453 163.44743874 1112.84043709 156.48828125 1115.16015625 C144.15095772 1116.64130832 135.44985947 1113.20066821 125.515625 1106.0078125 C122.7599866 1103.80252664 120.11480112 1101.51728947 117.48828125 1099.16015625 C116.62332031 1098.40347656 115.75835938 1097.64679688 114.8671875 1096.8671875 C106.85962792 1089.78592096 99.35735606 1082.35216398 92.48828125 1074.16015625 C92.01197266 1073.59232422 91.53566406 1073.02449219 91.04492188 1072.43945312 C83.97673238 1063.97656607 77.41743974 1055.46582868 71.48828125 1046.16015625 C70.36651592 1044.49131074 69.24176466 1042.82446631 68.11328125 1041.16015625 C66.35455149 1038.56627549 64.83962656 1035.98914082 63.48828125 1033.16015625 C58.87755061 1033.03897309 54.8972693 1033.37032987 50.42578125 1034.47265625 C40.53214963 1036.68515615 30.55167943 1037.98020464 20.48828125 1039.16015625 C19.61026855 1039.2674707 18.73225586 1039.37478516 17.82763672 1039.48535156 C-21.86492437 1044.13768895 -63.04525079 1042.20847285 -102.27734375 1035.02734375 C-107.66282701 1034.06987914 -113.06024835 1033.57091943 -118.51171875 1033.16015625 C-118.85912109 1033.86068115 -119.20652344 1034.56120605 -119.56445312 1035.28295898 C-125.30788025 1046.69078545 -133.62211275 1056.34660645 -142.24609375 1065.68359375 C-144.1163232 1067.72794801 -145.9323942 1069.80118667 -147.7421875 1071.8984375 C-162.17855457 1088.42798142 -183.82193009 1113.17656142 -207.1953125 1115.53125 C-214.9689728 1115.66876532 -220.70222917 1115.66533923 -226.51171875 1110.16015625 C-230.49314744 1106.23351786 -233.19498302 1102.28136156 -235.51171875 1097.16015625 C-236.6124737 1095.85691794 -236.6124737 1095.85691794 -239.32421875 1095.78515625 C-244.1272273 1095.82476869 -248.14546381 1097.91380095 -252.44921875 1099.87109375 C-261.89197183 1103.84572196 -271.98660834 1104.36980402 -282.07421875 1102.59765625 C-287.96989244 1100.13219271 -290.48657866 1096.17508677 -293.32421875 1090.59765625 C-295.01830246 1085.60404905 -295.01840408 1080.36488069 -295.203125 1075.13671875 C-295.2076594 1072.04393635 -295.2076594 1072.04393635 -297.51171875 1070.16015625 C-300.19849039 1069.92742055 -302.8206359 1069.79305831 -305.51171875 1069.72265625 C-321.87390055 1068.98633232 -321.87390055 1068.98633232 -328.07421875 1063.22265625 C-331.48064252 1058.94279049 -331.99834507 1055.03677419 -331.91015625 1049.6484375 C-330.47056269 1040.65803458 -322.53877599 1033.44744912 -316.51171875 1027.16015625 C-315.92003906 1026.5053125 -315.32835937 1025.85046875 -314.71875 1025.17578125 C-295.94785104 1005.12033953 -265.47728954 988.23675944 -239.51171875 980.16015625 C-238.19171875 980.16015625 -236.87171875 980.16015625 -235.51171875 980.16015625 C-236.04539062 979.51691406 -236.5790625 978.87367188 -237.12890625 978.2109375 C-239.16356518 975.74329751 -241.18632806 973.26658273 -243.19873047 970.78076172 C-244.45660116 969.22818722 -245.72035678 967.68038615 -246.984375 966.1328125 C-263.61984322 945.22643168 -273.69817703 921.12114819 -279.69921875 895.22265625 C-279.85422852 894.56837646 -280.00923828 893.91409668 -280.16894531 893.23999023 C-283.17739805 879.51679217 -283.89466618 865.59842327 -283.82421875 851.59765625 C-283.8220636 850.81679657 -283.81990845 850.03593689 -283.81768799 849.23141479 C-283.68079714 818.09665955 -277.1724827 787.98143923 -268.51171875 758.16015625 C-269.23109619 758.10682129 -269.95047363 758.05348633 -270.69165039 757.99853516 C-287.18410754 756.65992889 -302.15786518 750.54617832 -313.51171875 738.16015625 C-318.83630872 731.60191689 -323.41045649 725.05827174 -326.51171875 717.16015625 C-326.96933594 716.02320313 -327.42695313 714.88625 -327.8984375 713.71484375 C-332.97832951 699.34469878 -333.86320285 683.62300338 -328.51171875 669.16015625 C-328.23328125 668.23847656 -327.95484375 667.31679688 -327.66796875 666.3671875 C-320.54169906 643.11466098 -306.74216327 623.23351607 -290.51171875 605.41015625 C-290.01841064 604.86399658 -289.52510254 604.31783691 -289.0168457 603.75512695 C-286.57325265 601.11978555 -284.27400656 598.98780759 -281.34375 596.86328125 C-275.7650196 592.87047544 -275.7650196 592.87047544 -272.97753906 586.79541016 C-272.46104053 582.21127678 -272.43926708 577.69266415 -272.5390625 573.0859375 C-272.63271258 568.69619557 -271.96448885 565.29235448 -270.51171875 561.16015625 C-271.27355469 560.48210938 -272.03539062 559.8040625 -272.8203125 559.10546875 C-282.84659622 550.10676901 -291.37058194 540.94843888 -298.46875 529.45703125 C-299.82359659 527.27062489 -301.22614205 525.11302318 -302.67578125 522.98828125 C-304.18655712 520.66104352 -305.21186721 518.76348165 -306.07421875 516.16015625 C-306.89107631 513.72480451 -307.80830996 511.57801711 -308.98046875 509.27734375 C-314.03346085 498.99089555 -315.46103754 487.36775735 -317.20483398 476.16064453 C-317.43988647 474.65219971 -317.43988647 474.65219971 -317.6796875 473.11328125 C-317.88501099 471.75444824 -317.88501099 471.75444824 -318.09448242 470.36816406 C-318.41342952 468.1289344 -318.41342952 468.1289344 -319.51171875 466.16015625 C-319.6734182 463.14346861 -319.7727495 460.15192872 -319.8203125 457.1328125 C-319.83562012 456.20973297 -319.85092773 455.28665344 -319.86669922 454.33560181 C-320.16564603 432.06197516 -319.08643467 411.05130814 -314.38818359 389.27197266 C-313.64524446 385.82734363 -312.96411487 382.37405559 -312.30413818 378.91267395 C-308.65462163 359.79273972 -303.57170296 341.29929774 -297.65478516 322.76367188 C-296.54111604 319.25283116 -295.46618518 315.7320682 -294.3984375 312.20703125 C-292.93647735 307.4470257 -291.35423025 302.78504623 -289.51171875 298.16015625 C-289.21523438 297.40605469 -288.91875 296.65195312 -288.61328125 295.875 C-264.79162694 235.74914452 -230.29128664 173.83062471 -177.51171875 134.16015625 C-176.85155762 133.6506543 -176.19139648 133.14115234 -175.51123047 132.61621094 C-154.32350066 116.27498227 -129.73350045 100.91707361 -103.66796875 93.8359375 C-101.36346525 93.11369274 -99.52207584 92.51459174 -97.51171875 91.16015625 C-96.35131623 88.85543913 -96.35131623 88.85543913 -95.51171875 85.97265625 C-90.10236296 70.93364231 -82.0935979 55.96233705 -72.51171875 43.16015625 C-71.55845703 41.87625 -71.55845703 41.87625 -70.5859375 40.56640625 C-55.69852474 21.50154622 -27.14466067 -9.07636399 0 0 Z " fill="#63C10F" transform="translate(639.51171875,61.83984375)"/>
<path d="M0 0 C5.47676545 3.09828445 9.17210414 8.07663241 11.09765625 14.05078125 C14.19149047 30.75748605 7.25778198 47.79405263 1.48828125 63.16015625 C2.10832031 62.61488281 2.72835938 62.06960937 3.3671875 61.5078125 C14.54403596 51.99040879 26.90219178 44.74495192 40.48828125 39.16015625 C41.29136719 38.81984375 42.09445312 38.47953125 42.921875 38.12890625 C52.33147007 34.70146521 65.34547261 34.35018508 74.69140625 38.171875 C78.85695157 40.46292493 81.83141055 43.1748502 84.48828125 47.16015625 C85.8317786 58.29868662 83.47790463 66.5775399 76.67578125 75.34765625 C71.15256117 81.8732385 65.58657221 87.37967458 58.48828125 92.16015625 C63.70863854 94.26512743 68.93845265 96.3393033 74.1953125 98.3515625 C93.39808513 105.76686648 111.49695284 114.49264142 128.48828125 126.16015625 C129.05562988 126.54494141 129.62297852 126.92972656 130.20751953 127.32617188 C143.97190494 136.69407996 156.00052441 147.49857478 167.80078125 159.22265625 C168.71988281 160.13241211 169.63898438 161.04216797 170.5859375 161.97949219 C176.64331764 168.065321 182.18044218 174.41319015 187.48828125 181.16015625 C188.29640259 182.17928101 188.29640259 182.17928101 189.12084961 183.21899414 C235.87530988 242.8098651 258.21920496 317.09235435 270.36328125 390.78515625 C270.56638916 391.99751953 270.76949707 393.20988281 270.97875977 394.45898438 C275.5392169 423.17545873 275.8743269 454.77185731 269.48828125 483.16015625 C269.31167969 483.97387695 269.13507812 484.78759766 268.953125 485.62597656 C262.60240081 513.98078403 246.93422821 539.62434564 223.703125 557.22265625 C220.81007243 559.71442319 220.81007243 559.71442319 219.48828125 563.16015625 C219.9725687 565.1055143 220.46454414 567.04992668 221.02539062 568.97460938 C221.51957974 571.30793264 221.45863488 573.09473015 221.19140625 575.45703125 C220.13119067 583.54245767 220.13119067 583.54245767 222.70849609 590.99414062 C225.99651987 594.44447293 229.85793409 597.14144027 233.74511719 599.87353516 C237.97080129 602.99249247 241.18751255 607.11726841 244.48828125 611.16015625 C244.96587891 611.73797852 245.44347656 612.31580078 245.93554688 612.91113281 C257.99113849 627.61655247 268.97663828 644.54256621 275.61328125 662.47265625 C275.92523437 663.29378906 276.2371875 664.11492188 276.55859375 664.9609375 C279.02507045 673.44851909 279.85195043 681.78395012 279.80078125 690.59765625 C279.79340942 692.11033081 279.79340942 692.11033081 279.78588867 693.65356445 C279.67232916 700.86255532 279.00683315 707.35600393 276.48828125 714.16015625 C276.14796875 715.14757812 275.80765625 716.135 275.45703125 717.15234375 C269.54648623 732.84723695 257.88853995 745.95665547 242.61083984 753.02929688 C234.70604786 756.47343048 227.421485 759.32802617 218.67578125 759.22265625 C217.69996094 759.21363281 216.72414063 759.20460938 215.71875 759.1953125 C214.61466797 759.17791016 214.61466797 759.17791016 213.48828125 759.16015625 C213.15828125 760.15015625 212.82828125 761.14015625 212.48828125 762.16015625 C211.82828125 761.17015625 211.16828125 760.18015625 210.48828125 759.16015625 C207.98881396 758.38405248 205.59984419 757.76807109 203.05078125 757.22265625 C201.58372762 756.87753429 200.11757474 756.52856116 198.65234375 756.17578125 C197.57774902 755.91764648 197.57774902 755.91764648 196.48144531 755.65429688 C180.74436085 751.75279529 168.22224631 742.81283414 156.90478516 731.55761719 C155.63844276 730.30829904 154.33694471 729.09484962 153.03125 727.88671875 C129.32612501 705.55159223 114.95740169 669.78593964 109.48828125 638.16015625 C109.0338134 635.79175063 108.56428097 633.45028658 107.953125 631.1171875 C105.85141126 622.57021829 106.3169964 613.89568382 106.48828125 605.16015625 C107.14828125 605.16015625 107.80828125 605.16015625 108.48828125 605.16015625 C108.40578125 604.14953125 108.32328125 603.13890625 108.23828125 602.09765625 C108.36262052 584.41039571 118.83812087 565.16474656 130.828125 552.734375 C145.50125649 538.942095 161.76914274 532.43755944 181.97265625 532.91015625 C190.7312094 533.78057147 199.2600483 538.34133429 206.48828125 543.16015625 C215.70484949 542.36529821 225.85765839 529.76129669 231.48828125 523.16015625 C241.11414664 510.85120903 249.15874512 496.48514446 252.48828125 481.16015625 C253.00261719 479.35998047 253.00261719 479.35998047 253.52734375 477.5234375 C258.03263068 459.43883503 253.8858112 440.40193056 244.98828125 424.41015625 C238.29000429 413.88638632 230.63269476 407.59996082 219.61328125 401.91015625 C218.96568848 401.56863525 218.3180957 401.22711426 217.65087891 400.87524414 C209.01554358 396.57043625 200.33074122 395.84096953 190.80078125 395.97265625 C189.90294922 395.97330078 189.00511719 395.97394531 188.08007812 395.97460938 C183.11667494 396.00733511 178.38113858 396.32348434 173.48828125 397.16015625 C173.92200005 395.65905857 174.3605076 394.15934448 174.80078125 392.66015625 C175.04441406 391.82484375 175.28804687 390.98953125 175.5390625 390.12890625 C176.28584991 387.79327486 177.10183451 385.54446394 177.98828125 383.26171875 C187.50960863 358.02560795 184.52955819 327.07710862 174.1171875 302.625 C163.88331562 280.85654831 148.27092069 264.60446788 125.48828125 256.16015625 C109.51807983 253.14997156 95.15914413 255.37959095 81.48828125 264.16015625 C61.14755651 279.25683429 49.98310415 302.20096828 46.31494141 326.83325195 C44.21560575 342.8997603 45.70768958 357.46361689 49.48828125 373.16015625 C49.69195313 374.11148437 49.895625 375.0628125 50.10546875 376.04296875 C51.50886646 381.71423345 54.18165291 386.75401942 56.86328125 391.91015625 C57.42631958 392.9933313 57.42631958 392.9933313 58.00073242 394.09838867 C59.84659073 397.52471109 61.73530405 400.59492113 64.27734375 403.55078125 C66.48828125 406.16015625 66.48828125 406.16015625 66.48828125 408.16015625 C62.23519381 407.59586455 59.26255522 405.02275121 55.92578125 402.53515625 C54.66010029 401.61676978 53.39316184 400.70011393 52.125 399.78515625 C51.50286621 399.33527344 50.88073242 398.88539063 50.23974609 398.421875 C41.20600992 391.91415984 31.75926023 387.34531094 21.53955078 383.03662109 C19.68703825 382.24508098 17.85561036 381.40463135 16.02734375 380.55859375 C11.77637246 378.87885013 7.58466307 377.92800406 3.11328125 377.03515625 C2.3140625 376.86628906 1.51484375 376.69742187 0.69140625 376.5234375 C-8.21966769 374.69219739 -16.85827194 373.99525451 -25.94921875 374.03515625 C-26.82642578 374.03128906 -27.70363281 374.02742188 -28.60742188 374.0234375 C-54.95744791 374.06227321 -78.29354158 384.01529791 -99.51171875 399.16015625 C-101.31937096 400.37572986 -103.13109218 401.58530564 -104.94921875 402.78515625 C-105.64917969 403.25179688 -106.34914063 403.7184375 -107.0703125 404.19921875 C-107.54597656 404.51632812 -108.02164063 404.8334375 -108.51171875 405.16015625 C-109.17171875 404.83015625 -109.83171875 404.50015625 -110.51171875 404.16015625 C-110.07601562 403.58910156 -109.6403125 403.01804687 -109.19140625 402.4296875 C-92.16175021 379.24428999 -88.06075856 348.87316131 -92.16015625 320.8203125 C-95.92865675 300.50392666 -106.63321111 278.35435985 -123.69921875 266.28515625 C-125.29555157 265.23152364 -126.90005534 264.19018596 -128.51171875 263.16015625 C-129.91164063 262.14308594 -129.91164063 262.14308594 -131.33984375 261.10546875 C-134.81597083 258.9735583 -138.14670008 257.83947788 -142.07421875 256.91015625 C-142.77385742 256.74249756 -143.47349609 256.57483887 -144.19433594 256.40209961 C-159.75055942 252.92650992 -173.93181988 256.01590211 -187.51171875 264.16015625 C-191.04842553 266.62182881 -194.29862538 269.29170161 -197.51171875 272.16015625 C-198.65253906 273.15982422 -198.65253906 273.15982422 -199.81640625 274.1796875 C-217.52181815 290.69044358 -227.01586147 316.33493423 -227.9921875 340.13671875 C-228.44684889 354.94079663 -227.73856541 368.88111914 -223.14941406 383.08203125 C-220.03967449 393.21606772 -220.03967449 393.21606772 -221.51171875 396.16015625 C-222.30755371 396.1444458 -223.10338867 396.12873535 -223.92333984 396.11254883 C-227.57772532 396.049652 -231.23199636 396.0109925 -234.88671875 395.97265625 C-236.13839844 395.94751953 -237.39007813 395.92238281 -238.6796875 395.89648438 C-256.34064143 395.75778578 -270.39449515 402.69230319 -283.18359375 414.734375 C-296.26707007 428.6971172 -300.36485277 445.90166037 -299.828125 464.49609375 C-298.76517008 487.34771956 -289.69117656 510.00822652 -274.51171875 527.16015625 C-273.37669922 528.475 -273.37669922 528.475 -272.21875 529.81640625 C-268.24577243 534.34174084 -264.28716993 538.48673227 -259.51171875 542.16015625 C-260.80788649 547.21521042 -263.20257702 550.90589449 -266.171875 555.109375 C-268.58847911 558.80825884 -268.60743372 561.8529827 -268.51171875 566.16015625 C-268.73859375 565.60328125 -268.96546875 565.04640625 -269.19921875 564.47265625 C-271.48114694 560.45211611 -275.10911275 557.53424891 -278.45703125 554.390625 C-286.82677097 546.44435425 -293.3377695 537.88627432 -299.51171875 528.16015625 C-299.96208496 527.46245117 -300.41245117 526.76474609 -300.87646484 526.04589844 C-301.54282959 525.00224121 -301.54282959 525.00224121 -302.22265625 523.9375 C-302.62274902 523.31222412 -303.0228418 522.68694824 -303.43505859 522.04272461 C-304.86962362 519.53435025 -305.83375061 516.95192996 -306.73828125 514.21484375 C-307.53506008 511.982882 -307.53506008 511.982882 -308.9765625 509.28515625 C-314.03138705 498.99543706 -315.46045256 487.37151691 -317.20483398 476.16064453 C-317.43988647 474.65219971 -317.43988647 474.65219971 -317.6796875 473.11328125 C-317.88501099 471.75444824 -317.88501099 471.75444824 -318.09448242 470.36816406 C-318.41342952 468.1289344 -318.41342952 468.1289344 -319.51171875 466.16015625 C-319.6734182 463.14346861 -319.7727495 460.15192872 -319.8203125 457.1328125 C-319.84327393 455.74819321 -319.84327393 455.74819321 -319.86669922 454.33560181 C-320.16564603 432.06197516 -319.08643467 411.05130814 -314.38818359 389.27197266 C-313.64524446 385.82734363 -312.96411487 382.37405559 -312.30413818 378.91267395 C-308.65462163 359.79273972 -303.57170296 341.29929774 -297.65478516 322.76367188 C-296.54111604 319.25283116 -295.46618518 315.7320682 -294.3984375 312.20703125 C-292.93647735 307.4470257 -291.35423025 302.78504623 -289.51171875 298.16015625 C-289.21523438 297.40605469 -288.91875 296.65195312 -288.61328125 295.875 C-264.79162694 235.74914452 -230.29128664 173.83062471 -177.51171875 134.16015625 C-176.85155762 133.6506543 -176.19139648 133.14115234 -175.51123047 132.61621094 C-154.32350066 116.27498227 -129.73350045 100.91707361 -103.66796875 93.8359375 C-101.36346525 93.11369274 -99.52207584 92.51459174 -97.51171875 91.16015625 C-96.35131623 88.85543913 -96.35131623 88.85543913 -95.51171875 85.97265625 C-90.10236296 70.93364231 -82.0935979 55.96233705 -72.51171875 43.16015625 C-71.87621094 42.30421875 -71.24070312 41.44828125 -70.5859375 40.56640625 C-55.69852474 21.50154622 -27.14466067 -9.07636399 0 0 Z " fill="#63C10F" transform="translate(639.51171875,61.83984375)"/>
<path d="M0 0 C1.1453612 0.71589253 2.27524827 1.45698289 3.390625 2.21875 C4.62558864 2.98762184 5.86258984 3.7532302 7.1015625 4.515625 C7.70452148 4.89525391 8.30748047 5.27488281 8.92871094 5.66601562 C16.76788516 10.48668295 25.0704574 12.79290644 33.94140625 14.82421875 C37.640625 15.71875 37.640625 15.71875 40.43066406 16.75585938 C45.82899077 18.37519315 51.35198021 18.0517159 56.94116211 18.03442383 C59.04140188 18.03130454 61.14017254 18.05460934 63.24023438 18.08007812 C72.75239956 18.12330189 81.37092169 16.84093878 90.640625 14.71875 C92.13892749 14.45876992 93.63851426 14.20573804 95.140625 13.96875 C104.80899106 11.77554787 114.39853216 6.30534399 122.39453125 0.58984375 C124.640625 -0.28125 124.640625 -0.28125 127.3828125 0.2578125 C131.51791443 2.11216276 135.34417353 4.28618532 139.203125 6.65625 C140.38914307 7.38279785 140.38914307 7.38279785 141.59912109 8.12402344 C148.88906605 12.6948086 155.27185347 17.96166839 161.640625 23.71875 C163.09757699 24.97035977 164.55571951 26.22058652 166.015625 27.46875 C173.34561192 33.95708915 179.60288836 41.00976786 185.640625 48.71875 C186.27508545 49.5226416 186.27508545 49.5226416 186.92236328 50.34277344 C203.18581433 71.11412724 215.74070577 95.55391639 223.640625 120.71875 C224.24970703 122.59820313 224.24970703 122.59820313 224.87109375 124.515625 C235.86607917 159.97868181 238.1668579 200.48851106 229.640625 236.71875 C229.31771484 238.37970703 229.31771484 238.37970703 228.98828125 240.07421875 C225.63107386 255.98255442 218.36052552 271.49139471 210.640625 285.71875 C210.06570313 286.78480469 209.49078125 287.85085938 208.8984375 288.94921875 C202.37910285 300.56084474 194.19733988 310.67077829 185.03027344 320.26171875 C183.6832292 321.67407996 182.35302328 323.1024414 181.0234375 324.53125 C162.34584274 344.04019171 138.0440369 356.13047243 112.54321289 364.11230469 C110.92708942 364.62744016 109.32494708 365.18611548 107.7265625 365.75390625 C92.14690279 370.62501504 76.06944335 371.12492034 59.890625 371.15625 C59.0373764 371.16215149 58.18412781 371.16805298 57.30502319 371.1741333 C40.56640258 371.25248728 23.71074345 369.63178256 7.640625 364.71875 C6.95661621 364.51330566 6.27260742 364.30786133 5.56787109 364.09619141 C-18.57377535 356.70085013 -40.34336545 344.65953436 -58.640625 327.26171875 C-60.51358639 325.509854 -62.45173513 323.82600898 -64.4375 322.203125 C-69.0939476 318.2438995 -72.62504899 313.53390533 -76.359375 308.71875 C-77.12121094 307.76871094 -77.88304687 306.81867188 -78.66796875 305.83984375 C-100.81068235 276.78889438 -114.37496098 238.7206528 -114.5625 202.171875 C-114.56820007 201.27998474 -114.57390015 200.38809448 -114.57977295 199.46917725 C-114.58916574 197.58672243 -114.59573398 195.7042516 -114.59960938 193.82177734 C-114.60920783 191.01758917 -114.6402415 188.21416973 -114.671875 185.41015625 C-114.87495205 150.82621132 -105.40063376 117.68415203 -90.359375 86.71875 C-90.00649414 85.9870459 -89.65361328 85.2553418 -89.29003906 84.50146484 C-80.98113077 67.48485164 -70.24734635 51.60675792 -57.359375 37.71875 C-56.80556152 37.1211084 -56.25174805 36.5234668 -55.68115234 35.90771484 C-42.92164773 22.30761701 -28.82082269 11.09573317 -12.15283203 2.63037109 C-10.94352506 2.01567572 -9.75130757 1.36630752 -8.57763672 0.68603516 C-5.0757342 -1.16734214 -3.75140577 -1.43076871 0 0 Z " fill="#99D81B" transform="translate(551.359375,698.28125)"/>
<path d="M0 0 C0.66725098 0.13390137 1.33450195 0.26780273 2.02197266 0.40576172 C11.91629485 2.46551842 20.4086637 6.28281621 29.22509766 11.04785156 C30.75460143 11.86835565 32.30344812 12.65261561 33.85546875 13.4296875 C40.67810552 16.91841856 46.81006961 21.26798507 52.98803711 25.77441406 C56.87248052 28.59139413 60.66325357 30.90962582 65 33 C66.23656372 33.8782126 67.4480404 34.79338444 68.625 35.75 C73.02190593 39.17171668 77.78099047 41.80539575 82.65625 44.484375 C83.4296875 44.98453125 84.203125 45.4846875 85 46 C85 46.66 85 47.32 85 48 C85.692146 48.11214844 86.38429199 48.22429687 87.09741211 48.33984375 C90.38909468 49.08849458 93.30517636 50.31361203 96.44140625 51.5625 C107.27258412 55.45197993 118.49891802 54.30038176 129.81811523 53.89746094 C145.54558356 53.38861139 160.53620375 53.71247327 172.94921875 64.83203125 C181.79738284 74.18580472 184.64085895 83.52446496 184.34765625 96.28515625 C183.08825083 109.74239845 174.74569666 122.02223072 165 131 C154.6086319 139.3577277 142.92362099 144.50859478 130.60546875 149.328125 C125.02353807 151.54685468 120.35604394 153.81372664 115.71875 157.66796875 C114 159 114 159 111.90625 159.92578125 C109.49618425 161.28391256 109.11227798 162.50538478 108 165 C106.96681875 166.37666631 105.90136955 167.7294446 104.8125 169.0625 C99.64356752 175.61481897 95.24885437 182.58273262 91.3125 189.9375 C73.80249552 222.48934344 52.62388077 251.92668575 19 269 C18.05898438 269.50144531 17.11796875 270.00289062 16.1484375 270.51953125 C1.95634046 277.61557977 -14.24930875 279.18705771 -29.87036133 279.18530273 C-32.06025393 279.18749775 -34.24964875 279.20572118 -36.43945312 279.22460938 C-37.84635246 279.22754261 -39.25325417 279.22952787 -40.66015625 279.23046875 C-41.92480713 279.23457764 -43.18945801 279.23868652 -44.49243164 279.24291992 C-48.01514357 278.99895122 -50.70937013 278.23322253 -54 277 C-56.45645648 276.44988447 -58.91497272 275.90892073 -61.375 275.375 C-70.30333029 273.26546212 -78.04568825 269.49534496 -86 265 C-86.98742187 264.443125 -87.97484375 263.88625 -88.9921875 263.3125 C-102.8088659 254.98244461 -114.66235562 243.65820129 -124.0625 230.625 C-124.64837891 229.82578125 -125.23425781 229.0265625 -125.83789062 228.203125 C-136.51076155 213.56198353 -136.51076155 213.56198353 -140 205 C-157.16362282 169.33820629 -157.16362282 169.33820629 -188.75 147.5 C-201.89067488 142.33837446 -212.81223221 137.05346577 -223 127 C-223.886875 126.21625 -224.77375 125.4325 -225.6875 124.625 C-234.32310625 114.82241994 -239.91454391 103.18074638 -239.37890625 89.9453125 C-237.8550947 78.10042687 -231.2321675 69.10249908 -222.24609375 61.5703125 C-213.2857634 55.30587285 -204.68292492 53.8721177 -194.0546875 53.82421875 C-192.07030202 53.80100926 -190.085927 53.77689148 -188.1015625 53.75195312 C-184.99472149 53.71697058 -181.88826325 53.68755757 -178.78125 53.67407227 C-164.052001 53.91171444 -164.052001 53.91171444 -150.05981445 49.92407227 C-146.77328844 48.44967367 -143.56687126 48.26919783 -140 48 C-140 47.01 -140 46.02 -140 45 C-138.9378125 44.49210937 -137.875625 43.98421875 -136.78125 43.4609375 C-124.20354116 38.22109957 -124.20354116 38.22109957 -115 29 C-113.52619826 28.21923598 -112.01970632 27.49965116 -110.5 26.8125 C-106.9242204 25.08504591 -103.92508945 23.28781574 -100.875 20.75 C-72.45870627 -2.21316694 -34.90748607 -7.23010586 0 0 Z " fill="#FC8401" transform="translate(643,438)"/>
<path d="M0 0 C0.78632812 0.59167969 1.57265625 1.18335938 2.3828125 1.79296875 C18.31938545 14.81431494 26.48673369 34.45922845 31 54 C31.17958252 54.76924805 31.35916504 55.53849609 31.54418945 56.33105469 C34.35999053 72.81864836 32.94719329 92.12182662 28 108 C27.63346903 109.28367002 27.26758005 110.56752352 26.90234375 111.8515625 C15.88571553 147.92635187 -10.50832013 176.46424702 -43.29003906 194.15356445 C-53.6108631 199.58269981 -63.90024081 204.40377757 -75 208 C-76.08796875 208.36222656 -77.1759375 208.72445313 -78.296875 209.09765625 C-86.76059143 211.81223847 -95.36780364 213.9014681 -104 216 C-105.21042969 216.33644531 -106.42085937 216.67289063 -107.66796875 217.01953125 C-113.35563529 218.44369475 -119.18143575 218.9390824 -125 219.5625 C-127.27086334 219.81353081 -129.5416974 220.06482661 -131.8125 220.31640625 C-132.80894531 220.42412354 -133.80539062 220.53184082 -134.83203125 220.64282227 C-137.16537241 220.90589857 -139.49446579 221.20734185 -141.8203125 221.5300293 C-146.23820793 222.08426542 -150.61387447 222.17863849 -155.0625 222.203125 C-155.91911224 222.21009399 -156.77572449 222.21706299 -157.65829468 222.22424316 C-160.43891314 222.24165079 -163.21932916 222.24797314 -166 222.25 C-166.95352356 222.25100708 -167.90704712 222.25201416 -168.88946533 222.25305176 C-193.60821773 222.23547049 -217.80918699 220.36665559 -242 215 C-242 211.20257392 -241.02103327 210.56796796 -238.5625 207.75 C-233.23424734 201.26588301 -229.10237766 194.29454603 -225 187 C-224.01193359 185.28490234 -224.01193359 185.28490234 -223.00390625 183.53515625 C-208.74015657 157.68009757 -198.078753 121.23507036 -201.95703125 91.8125 C-204.65445181 68.7897573 -204.65445181 68.7897573 -198.18896484 59.52490234 C-190.88218115 50.31421787 -181.7545642 42.67630294 -172.63409424 35.32772827 C-170.53902893 33.62545347 -168.51116846 31.85402118 -166.4921875 30.0625 C-145.31998084 11.437736 -121.37637197 -5.97044055 -94 -14 C-92.84242188 -14.38929688 -91.68484375 -14.77859375 -90.4921875 -15.1796875 C-61.00075383 -24.25045079 -24.42946825 -18.66643346 0 0 Z " fill="#FD8301" transform="translate(1068,827)"/>
<path d="M0 0 C1.37780968 1.15998453 2.73214189 2.34838678 4.0625 3.5625 C4.81917969 4.25085938 5.57585937 4.93921875 6.35546875 5.6484375 C18.65243149 17.3892562 27.29878679 33.26922002 32.0625 49.5625 C32.36027344 50.53703125 32.65804687 51.5115625 32.96484375 52.515625 C39.50094928 78.4190847 35.35689383 105.44823499 25.0625 129.5625 C26.00867188 129.23894531 26.95484375 128.91539062 27.9296875 128.58203125 C43.53260317 124.15036434 61.7751461 127.58372028 75.67578125 135.24951172 C90.14438118 143.69329621 99.35100086 156.56933777 104.0625 172.5625 C104.43217896 173.63902832 104.43217896 173.63902832 104.80932617 174.73730469 C111.00541794 193.49723222 107.25292147 215.04292906 98.75390625 232.51953125 C90.57422175 248.24682635 77.43346405 268.18025158 61.0625 276.5625 C56.78685169 276.88317362 53.65048161 274.10350498 50.18359375 271.8359375 C38.06061536 264.55768528 24.40291431 265.84155303 11.0625 268.5625 C-6.28311405 273.50773953 -19.91883153 286.35960173 -28.9375 301.5625 C-29.59692868 303.41187517 -30.2442468 305.26564927 -30.875 307.125 C-32.08991847 309.74174747 -33.04332487 311.16202002 -35.70800781 312.35546875 C-44.71749444 315.23783803 -54.52813729 316.19350538 -63.9375 316.5625 C-62.37521958 312.19143883 -60.11391188 308.36918126 -57.6875 304.4375 C-54.950241 299.9552725 -52.31043777 295.46868131 -49.875 290.8125 C-46.76083623 285.00055091 -42.95280059 279.78076513 -38.9375 274.5625 C-38.298125 273.716875 -37.65875 272.87125 -37 272 C-34.86125966 269.47239778 -32.65277078 267.49519174 -30.0625 265.4375 C-29.24007812 264.77492188 -28.41765625 264.11234375 -27.5703125 263.4296875 C-23.04921386 260.22332971 -18.25239981 258.24201591 -13.0625 256.375 C8.6186528 248.09314574 25.19595661 237.5229323 35.4609375 216.171875 C39.13226281 207.89796137 39.55780363 197.39615619 36.9375 188.6875 C32.64669073 178.19666816 25.69184157 170.8434082 15.18530273 166.32519531 C3.27856693 162.52827886 -8.42493628 163.31564422 -20.77612305 163.7199707 C-33.29568822 164.09594952 -43.33101807 163.55130912 -54.9375 158.5625 C-56.60357638 157.8943595 -58.27001823 157.22712528 -59.9375 156.5625 C-59.9375 155.9025 -59.9375 155.2425 -59.9375 154.5625 C-60.63230469 154.30597656 -61.32710937 154.04945313 -62.04296875 153.78515625 C-80.10254097 146.15675395 -89.64618963 132.03921668 -97.25 114.625 C-106.99983267 88.32728618 -106.90163043 57.52433694 -95.5 31.78515625 C-94.7265625 30.18994141 -94.7265625 30.18994141 -93.9375 28.5625 C-93.463125 27.57121094 -92.98875 26.57992187 -92.5 25.55859375 C-83.85276392 8.6635863 -70.04812349 -4.78988811 -52.32421875 -11.7109375 C-33.66286116 -17.39180904 -15.08462782 -11.34660933 0 0 Z " fill="#9AD91D" transform="translate(787.9375,329.4375)"/>
<path d="M0 0 C0.92554688 0.7425 1.85109375 1.485 2.8046875 2.25 C3.75085938 2.9925 4.69703125 3.735 5.671875 4.5 C13.15100354 10.79821351 17.99895872 17.86429512 22.8046875 26.25 C23.29710937 27.09304688 23.78953125 27.93609375 24.296875 28.8046875 C32.21455104 43.41058678 35.18996461 59.95305816 35.1171875 76.375 C35.11299805 77.66019531 35.10880859 78.94539063 35.10449219 80.26953125 C34.99317253 89.6393304 34.24461456 98.19797623 31.8046875 107.25 C31.53785156 108.34441406 31.27101563 109.43882812 30.99609375 110.56640625 C26.24253718 128.12287519 16.81107817 142.91752146 1.171875 152.33984375 C-7.48365606 157.25 -7.48365606 157.25 -11.1953125 157.25 C-11.1953125 158.24 -11.1953125 159.23 -11.1953125 160.25 C-12.06414062 160.51554688 -12.93296875 160.78109375 -13.828125 161.0546875 C-15.55675781 161.58449219 -15.55675781 161.58449219 -17.3203125 162.125 C-19.02574219 162.64707031 -19.02574219 162.64707031 -20.765625 163.1796875 C-24.08405133 164.16351656 -24.08405133 164.16351656 -26.77978516 165.29760742 C-31.32452364 166.56487153 -35.57739282 166.54769359 -40.2734375 166.55859375 C-42.25911743 166.58376076 -44.24479444 166.60915868 -46.23046875 166.63476562 C-49.3351155 166.66342616 -52.43971154 166.68746603 -55.54443359 166.70629883 C-58.55853501 166.72811929 -61.57204475 166.76757426 -64.5859375 166.80859375 C-65.95676483 166.80876747 -65.95676483 166.80876747 -67.35528564 166.8089447 C-78.68907818 166.98058048 -89.22441027 170.50211958 -97.49609375 178.46484375 C-105.46425569 187.21962497 -109.96830003 195.98578376 -109.6015625 208.01171875 C-107.92998986 221.33608144 -101.00478531 233.50847569 -90.8203125 242.125 C-79.50587704 250.73078128 -67.05067141 256.39738068 -53.7578125 261.25 C-48.47881958 263.33683807 -44.42396637 266.51162484 -40.1953125 270.25 C-39.504375 270.8584375 -38.8134375 271.466875 -38.1015625 272.09375 C-29.2804061 280.372066 -23.85225276 291.37663732 -18.20361328 301.93286133 C-17.1772018 303.84626134 -16.13766548 305.75216662 -15.09765625 307.65820312 C-14.44190862 308.8771743 -13.78693003 310.09655957 -13.1328125 311.31640625 C-12.54371094 312.40896729 -11.95460938 313.50152832 -11.34765625 314.62719727 C-10.96738281 315.49272217 -10.58710938 316.35824707 -10.1953125 317.25 C-10.5253125 317.91 -10.8553125 318.57 -11.1953125 319.25 C-15.39502019 318.79202724 -19.58758175 318.31105919 -23.77734375 317.76953125 C-26.31614248 317.44607982 -28.70357107 317.24160437 -31.26953125 317.19921875 C-34.15604392 317.04061915 -35.72995044 316.79085129 -38.1953125 315.25 C-40.57113437 311.70426585 -42.3810261 308.06794536 -44.203125 304.21875 C-46.95893336 298.48228125 -50.87535876 293.88386041 -55.1953125 289.25 C-55.85789062 288.53328125 -56.52046875 287.8165625 -57.203125 287.078125 C-68.70670304 275.79324616 -85.93394443 269.58743805 -101.8203125 269 C-112.44793039 269.17712696 -120.87628425 272.06433765 -129.63671875 278.01953125 C-132.1953125 279.25 -132.1953125 279.25 -134.18359375 278.75 C-155.17408269 263.09883932 -169.68007503 238.82404106 -174.5703125 213.125 C-177.22510509 191.16765297 -175.29684955 172.72734184 -161.8828125 154.5625 C-152.44228999 142.96887587 -139.15565917 133.73232315 -124.1953125 131.25 C-122.08824207 131.18173822 -119.97915069 131.1651086 -117.87109375 131.1875 C-116.67806641 131.19523438 -115.48503906 131.20296875 -114.25585938 131.2109375 C-112.40057617 131.23027344 -112.40057617 131.23027344 -110.5078125 131.25 C-108.04561603 131.27542278 -105.58336939 131.2964852 -103.12109375 131.3125 C-102.03223877 131.32410156 -100.94338379 131.33570313 -99.8215332 131.34765625 C-97.21465633 131.43203373 -97.21465633 131.43203373 -95.1953125 130.25 C-95.36659668 129.69127197 -95.53788086 129.13254395 -95.71435547 128.55688477 C-96.50320246 125.9764869 -97.28677905 123.39451605 -98.0703125 120.8125 C-98.33972656 119.93400391 -98.60914063 119.05550781 -98.88671875 118.15039062 C-99.6815498 115.52357095 -100.4456614 112.89004274 -101.1953125 110.25 C-101.50529175 109.20320068 -101.50529175 109.20320068 -101.8215332 108.13525391 C-103.76876206 100.72718448 -103.63709735 93.10829193 -103.6328125 85.5 C-103.63321533 84.76901093 -103.63361816 84.03802185 -103.6340332 83.28488159 C-103.54467423 55.08480659 -94.40240074 30.06601352 -74.9453125 9.4375 C-54.60732571 -10.03870769 -24.03265657 -17.71512896 0 0 Z " fill="#99D81D" transform="translate(514.1953125,325.75)"/>
<path d="M0 0 C1.69344083 1.6394553 3.3563186 3.31066078 5 5 C14.94064355 13.76053922 25.20282935 20.95482261 37 27 C37.64662598 27.33402832 38.29325195 27.66805664 38.95947266 28.01220703 C62.29258281 39.94446005 87.97125745 47.75107518 114 51 C108.31440824 69.59269345 91.22552104 85.31511111 78 99 C77.38866211 99.63856934 76.77732422 100.27713867 76.14746094 100.93505859 C44.9838077 133.38975426 44.9838077 133.38975426 25.31640625 135.37109375 C17.54274595 135.50860907 11.80948958 135.50518298 6 130 C2.01857131 126.07336161 -0.68326427 122.12120531 -3 117 C-4.10075495 115.69676169 -4.10075495 115.69676169 -6.8125 115.625 C-11.61550855 115.66461244 -15.63374506 117.7536447 -19.9375 119.7109375 C-29.38025308 123.68556571 -39.47488959 124.20964777 -49.5625 122.4375 C-55.45817369 119.97203646 -57.97485991 116.01493052 -60.8125 110.4375 C-62.50658371 105.4438928 -62.50668533 100.20472444 -62.69140625 94.9765625 C-62.69594065 91.8837801 -62.69594065 91.8837801 -65 90 C-67.68677164 89.7672643 -70.30891715 89.63290206 -73 89.5625 C-89.3621818 88.82617607 -89.3621818 88.82617607 -95.5625 83.0625 C-98.96892377 78.78263424 -99.48662632 74.87661794 -99.3984375 69.48828125 C-97.95884394 60.49787833 -90.02705724 53.28729287 -84 47 C-83.40832031 46.34515625 -82.81664062 45.6903125 -82.20703125 45.015625 C-68.54150742 30.41493287 -20.29705696 -6.76568565 0 0 Z " fill="#FD8402" transform="translate(407,1042)"/>
<path d="M0 0 C27.16351051 8.81532794 52.48828143 26.47609791 73 46 C73.76570312 46.70125 74.53140625 47.4025 75.3203125 48.125 C81.62607085 54.07111434 87.36326885 61.26534366 88.203125 70.1484375 C88.30928812 75.19118579 87.98033 78.72819367 85 83 C77.22122727 89.08773518 70.53996024 89.33793928 61.04101562 89.47851562 C60.16767578 89.50494141 59.29433594 89.53136719 58.39453125 89.55859375 C57.59893799 89.57204834 56.80334473 89.58550293 55.98364258 89.59936523 C53.59805924 89.83833008 53.59805924 89.83833008 52 93 C51.82682654 95.18312114 51.73316471 97.37299739 51.6875 99.5625 C51.2128752 107.61446806 49.24499111 113.67180399 43.5625 119.5 C35.53706011 124.19781847 26.02909396 124.06025712 17 123 C12.71219216 121.77165036 8.94569383 120.05051805 5 118 C0.76374911 116.14902551 -2.32880096 115.40548376 -7 116 C-9.23512173 118.10364398 -10.5931351 120.26348543 -12.0703125 122.9375 C-15.70198735 129.28691828 -20.04084251 132.68028084 -27 135 C-39.33732353 136.48115207 -48.03842178 133.04051196 -57.97265625 125.84765625 C-60.72829465 123.64237039 -63.37348013 121.35713322 -66 119 C-66.86496094 118.24332031 -67.72992187 117.48664063 -68.62109375 116.70703125 C-76.62865333 109.62576471 -84.13092519 102.19200773 -91 94 C-91.47630859 93.43216797 -91.95261719 92.86433594 -92.44335938 92.27929688 C-99.51154887 83.81640982 -106.07084151 75.30567243 -112 66 C-113.12176533 64.33115449 -114.24651659 62.66431006 -115.375 61 C-116.74073645 58.98572948 -117.96963169 57.06210662 -119.0390625 54.875 C-119.96670276 52.82878194 -119.96670276 52.82878194 -122 51 C-121.16976318 50.89453857 -120.33952637 50.78907715 -119.48413086 50.68041992 C-112.84526099 49.83162095 -106.20951281 48.96390283 -99.578125 48.05859375 C-98.31645508 47.88642334 -97.05478516 47.71425293 -95.75488281 47.53686523 C-75.62369266 44.65855008 -55.8387073 38.87122143 -38 29 C-36.71969505 28.38345035 -35.4383731 27.76900982 -34.15625 27.15625 C-29.6623155 24.92235116 -25.63550509 22.16882475 -21.5625 19.25 C-20.82040283 18.72140381 -20.07830566 18.19280762 -19.3137207 17.64819336 C-12.05553851 12.41832509 -5.51004165 7.0912898 0 0 Z " fill="#FC8402" transform="translate(823,1042)"/>
<path d="M0 0 C2.20110775 1.43582194 4.28893088 2.92152803 6.359375 4.5390625 C7.1740625 5.14621094 7.98875 5.75335938 8.828125 6.37890625 C21.59617386 17.2750961 28.52300171 35.18659559 30.359375 51.5390625 C31.88335285 73.42168517 28.0593222 95.48390474 13.84765625 112.875 C13.35652344 113.42414063 12.86539063 113.97328125 12.359375 114.5390625 C11.81667969 115.15007812 11.27398438 115.76109375 10.71484375 116.390625 C2.2014282 125.42291689 -8.79044079 130.58586979 -21.328125 130.9765625 C-34.87233957 130.36805431 -45.26536483 123.71736181 -54.453125 114.11328125 C-57.52244773 110.50134611 -59.60520567 106.79426886 -61.640625 102.5390625 C-62.26710938 101.43884766 -62.26710938 101.43884766 -62.90625 100.31640625 C-69.83984248 87.80670175 -71.01885681 75.47699249 -71.140625 61.4140625 C-71.15907471 60.16399414 -71.17752441 58.91392578 -71.1965332 57.62597656 C-71.11810928 45.79561195 -68.38702394 34.81016449 -62.953125 24.2890625 C-62.6135376 23.62213379 -62.2739502 22.95520508 -61.92407227 22.26806641 C-55.52816298 10.23333247 -44.48825073 -0.77202419 -31.28125 -4.8828125 C-20.56027682 -7.23000781 -9.56115126 -5.28974937 0 0 Z " fill="#063A29" transform="translate(767.640625,349.4609375)"/>
<path d="M0 0 C2.32411761 1.69684711 4.41033097 3.49139847 6.5078125 5.4609375 C7.63123047 6.50507813 7.63123047 6.50507813 8.77734375 7.5703125 C15.65629823 14.55473647 19.71210498 22.54247699 23.5078125 31.4609375 C23.96542969 32.5025 24.42304687 33.5440625 24.89453125 34.6171875 C31.57242529 53.17470358 29.06293198 77.22117505 21.6953125 95.2734375 C20.99212532 96.68253739 20.26051747 98.07765519 19.5078125 99.4609375 C19.01539063 100.41355469 18.52296875 101.36617188 18.015625 102.34765625 C10.64069044 115.89102686 1.08026159 123.60345447 -13.4921875 128.4609375 C-28.30539985 129.8222734 -38.9393879 127.86491519 -50.88671875 118.71484375 C-64.66289186 106.79752458 -71.79272376 87.2948163 -73.4921875 69.4609375 C-74.94672791 46.94668951 -69.35391327 25.51297697 -54.51953125 8.15234375 C-39.43302038 -7.71398677 -19.28543518 -11.9098142 0 0 Z " fill="#063A29" transform="translate(509.4921875,350.5390625)"/>
<path d="M0 0 C-0.55558594 0.7734375 -1.11117187 1.546875 -1.68359375 2.34375 C-4.65344968 6.80570117 -6.80089212 11.65323285 -9.0625 16.5 C-10.03635002 18.55795967 -11.01164963 20.61523391 -11.98828125 22.671875 C-12.48537598 23.71923828 -12.9824707 24.76660156 -13.49462891 25.84570312 C-26.02454383 52.10040646 -26.02454383 52.10040646 -33 62 C-33.62261719 62.90492188 -34.24523437 63.80984375 -34.88671875 64.7421875 C-39.43546657 71.19443883 -44.28190725 77.53103577 -50 83 C-50.66 83 -51.32 83 -52 83 C-52.49306641 81.87464844 -52.49306641 81.87464844 -52.99609375 80.7265625 C-59.38610118 66.97679041 -69.2271573 56.54716719 -83.4375 50.91015625 C-92.4738848 48.60151847 -102.24122876 48.89369159 -111 52 C-114.03525462 51.73834012 -116.82189051 51.35131965 -119.7421875 50.48046875 C-131.48133444 47.98234578 -142.00855426 50.21648807 -152.19921875 56.31640625 C-162.01610888 63.08601025 -168.27267036 72.21056528 -173 83 C-177.14839111 81.45036898 -179.42793987 78.45641942 -182.0625 75.0625 C-182.53856689 74.45204834 -183.01463379 73.84159668 -183.50512695 73.21264648 C-189.49462433 65.30761128 -194.24377648 56.68097785 -199 48 C-199.39912598 47.28005859 -199.79825195 46.56011719 -200.20947266 45.81835938 C-207.08002868 33.4089082 -207.08002868 33.4089082 -209.1640625 27.2109375 C-210.40403927 23.93137276 -211.93525795 20.79029954 -213.4375 17.625 C-216.1831393 11.83033186 -218.72721869 5.999578 -221 0 C-216.19639272 0.92973044 -211.79946538 1.98592236 -207.2890625 3.890625 C-191.85226694 10.17958408 -175.42204601 13.49780368 -159 16 C-158.26136719 16.12065826 -157.52273438 16.24131653 -156.76171875 16.3656311 C-142.95438072 18.60454438 -129.48566837 19.44883195 -115.50390625 19.33618164 C-112.36953069 19.3124586 -109.23600627 19.31567245 -106.1015625 19.32226562 C-89.17119875 19.29929408 -72.51251988 18.02769972 -55.8125 15.1875 C-54.80550049 15.01645752 -53.79850098 14.84541504 -52.76098633 14.66918945 C-36.41480487 11.76756976 -20.31418793 6.46736486 -5.140625 -0.26953125 C-3 -1 -3 -1 0 0 Z " fill="#A53802" transform="translate(726,578)"/>
<path d="M0 0 C0.92554688 0.7425 1.85109375 1.485 2.8046875 2.25 C3.75085938 2.9925 4.69703125 3.735 5.671875 4.5 C13.15100354 10.79821351 17.99895872 17.86429512 22.8046875 26.25 C23.29710937 27.09304688 23.78953125 27.93609375 24.296875 28.8046875 C32.21455104 43.41058678 35.18996461 59.95305816 35.1171875 76.375 C35.11299805 77.66019531 35.10880859 78.94539063 35.10449219 80.26953125 C34.99317253 89.6393304 34.24461456 98.19797623 31.8046875 107.25 C31.53785156 108.34441406 31.27101563 109.43882812 30.99609375 110.56640625 C26.29947872 127.91257108 16.91673505 143.06264841 1.328125 152.2734375 C-13.31397473 160.59623189 -28.91743853 163.63398192 -45.6328125 160.6328125 C-53.28985017 158.37956964 -58.96693391 154.09619047 -65.1953125 149.25 C-77.23896628 140.4299355 -77.23896628 140.4299355 -90.8203125 134.42578125 C-94.83911273 132.43621074 -95.42884247 129.09489206 -96.92578125 125.05078125 C-97.35117878 123.784598 -97.7742515 122.51763193 -98.1953125 121.25 C-98.42814941 120.59306152 -98.66098633 119.93612305 -98.90087891 119.25927734 C-108.10150181 92.54316352 -105.12970941 60.98570633 -93.48364258 35.578125 C-84.26751814 16.7262871 -69.09073699 0.29187967 -49.1953125 -7.25 C-32.72380057 -12.80913528 -13.97665928 -10.30257812 0 0 Z M-62.3203125 36.7890625 C-75.74895777 54.41415942 -80.49551698 76.58000475 -77.73046875 98.37109375 C-75.00884502 116.20443586 -67.28730437 134.991531 -52.4453125 145.9375 C-41.41713607 153.17015928 -31.26124655 154.85578932 -18.1953125 153.25 C-4.54861525 149.78300124 5.47870548 140.19307206 12.9921875 128.625 C23.72799981 109.84464168 26.63020341 83.70717444 21.36889648 62.88183594 C16.29080325 46.11443498 6.7703748 31.45817858 -8.59375 22.5859375 C-29.16649765 12.02155357 -48.24672321 20.16179774 -62.3203125 36.7890625 Z " fill="#F8FAF7" transform="translate(514.1953125,325.75)"/>
<path d="M0 0 C1.37780968 1.15998453 2.73214189 2.34838678 4.0625 3.5625 C4.81917969 4.25085938 5.57585937 4.93921875 6.35546875 5.6484375 C18.65243149 17.3892562 27.29878679 33.26922002 32.0625 49.5625 C32.36027344 50.53703125 32.65804687 51.5115625 32.96484375 52.515625 C37.56687437 70.75408735 37.31121323 93.44329512 32.0625 111.5625 C31.83675293 112.35172852 31.61100586 113.14095703 31.37841797 113.95410156 C30.62250799 116.47185203 29.7976791 118.95358148 28.9375 121.4375 C28.6912085 122.20610352 28.44491699 122.97470703 28.19116211 123.76660156 C26.9834806 126.93698918 26.1393668 129.00381 23.05078125 130.60620117 C21.49822153 131.10483948 19.92967987 131.55596602 18.35009766 131.9609375 C9.93365837 134.17418258 2.12757054 140.34768478 -4.5625 145.75 C-10.25111747 150.33430043 -16.03490513 153.21268047 -22.9375 155.5625 C-23.83984375 155.9234375 -24.7421875 156.284375 -25.671875 156.65625 C-40.99716927 160.90920248 -56.42177352 156.92897038 -70.15234375 149.921875 C-84.94815805 141.23516921 -95.06542075 123.97324392 -99.46386719 107.60351562 C-106.26538757 81.08589514 -106.09233807 53.63185351 -93.9375 28.5625 C-93.463125 27.57121094 -92.98875 26.57992187 -92.5 25.55859375 C-83.85276392 8.6635863 -70.04812349 -4.78988811 -52.32421875 -11.7109375 C-33.66286116 -17.39180904 -15.08462782 -11.34660933 0 0 Z M-68.9375 25.5625 C-69.95457031 26.42294922 -69.95457031 26.42294922 -70.9921875 27.30078125 C-79.94592467 35.43579148 -85.57522876 47.07751409 -88.9375 58.5625 C-89.29328125 59.68914062 -89.6490625 60.81578125 -90.015625 61.9765625 C-95.22941456 83.37869192 -90.98464532 108.02337024 -80.04492188 126.80712891 C-72.72857546 138.40424768 -61.99011703 146.3206891 -48.953125 150.14453125 C-39.04952825 152.19818406 -28.90525607 149.89196843 -20.171875 145.01953125 C-17.63379977 143.318398 -15.28257331 141.52009132 -12.9375 139.5625 C-12.24011719 138.98886719 -11.54273438 138.41523438 -10.82421875 137.82421875 C2.70549705 125.55552501 8.9269511 105.99185089 10.23535156 88.21386719 C11.29227235 66.30274462 5.7831958 44.78157864 -9.22265625 28.18359375 C-19.56522196 18.40645305 -31.46027184 14.13033603 -45.5234375 14.2890625 C-55.01219435 15.04903158 -61.98138974 19.33793639 -68.9375 25.5625 Z " fill="#F8FAF7" transform="translate(787.9375,329.4375)"/>
<path d="M0 0 C0.69931641 -0.01224609 1.39863281 -0.02449219 2.11914062 -0.03710938 C6.57250254 -0.04960712 10.01876519 0.71896842 14.1875 2.1875 C17.99225419 2.20748995 21.58059275 1.38980242 25.1875 0.1875 C38.44312365 -0.90674688 49.054682 0.0878865 60.0625 8.34375 C62.57216616 10.5247694 64.89722224 12.77868661 67.1875 15.1875 C67.77144531 15.78691406 68.35539063 16.38632812 68.95703125 17.00390625 C73.22340466 21.65911369 77.58195784 27.34440572 78.58203125 33.69140625 C77.74093442 39.01280107 72.22383786 42.07300962 68.1875 45.1875 C48.43037879 59.35492721 25.92971985 63.61656582 1.95703125 60.7578125 C-11.34692093 58.48674796 -23.25662238 52.5210876 -33.8125 44.1875 C-34.68519531 43.53652344 -35.55789063 42.88554688 -36.45703125 42.21484375 C-42.64767841 37.27944302 -42.64767841 37.27944302 -43.3125 32.875 C-36.96379189 17.26775922 -25.97581792 7.63536081 -10.8125 1.1875 C-7.16693406 -0.02768865 -3.79555836 0.00344112 0 0 Z " fill="#F66C7C" transform="translate(595.8125,626.8125)"/>
<path d="M0 0 C2.475 0.495 2.475 0.495 5 1 C5.27972656 2.14855469 5.55945313 3.29710937 5.84765625 4.48046875 C8.39884297 14.52468177 11.40306458 23.18613441 17 32 C17.38671875 32.62132812 17.7734375 33.24265625 18.171875 33.8828125 C24.08068302 42.06094534 34.04753998 45.73605955 43.4453125 47.98046875 C44.28835938 48.31691406 45.13140625 48.65335938 46 49 C46.8671875 51.11328125 46.8671875 51.11328125 47 53 C45.48599609 53.63808594 45.48599609 53.63808594 43.94140625 54.2890625 C40.22288796 55.88498507 36.57251854 57.5957329 32.9375 59.375 C31.77089844 59.93960938 30.60429687 60.50421875 29.40234375 61.0859375 C17.43503185 67.81840917 11.82999325 78.83479483 7.96484375 91.484375 C6.8241979 95.64057446 5.81663071 99.76836811 5 104 C3.02 104.495 3.02 104.495 1 105 C0.62875 103.865625 0.2575 102.73125 -0.125 101.5625 C-0.39957031 100.74910156 -0.67414063 99.93570313 -0.95703125 99.09765625 C-1.52275865 97.41742468 -2.0858073 95.73623669 -2.63427734 94.05029297 C-7.55971915 78.93933031 -13.39203004 66.90402907 -28 59 C-32.61149789 57.1378518 -37.26429647 55.52243101 -42 54 C-41.97265625 51.68359375 -41.97265625 51.68359375 -41 49 C-38.42146491 47.76388247 -36.14350798 46.89022364 -33.4375 46.0625 C-27.09689166 43.90305798 -21.8891033 41.73332304 -17 37 C-16.4740625 36.50113281 -15.948125 36.00226563 -15.40625 35.48828125 C-6.18497561 25.77301002 -3.16355674 12.59823479 0 0 Z " fill="#FDBF08" transform="translate(301,181)"/>
<path d="M0 0 C2.475 0.495 2.475 0.495 5 1 C5.20753906 1.99257813 5.41507813 2.98515625 5.62890625 4.0078125 C8.34484107 16.2636771 12.17492131 30.41632905 23 38 C29.68820276 41.92873449 36.58496874 44.77549062 44 47 C43.80859375 48.8828125 43.80859375 48.8828125 43 51 C40.84765625 52.0546875 40.84765625 52.0546875 38.0625 52.875 C27.07063961 56.56268373 18.20431128 62.29770174 12.53515625 72.68359375 C8.91704798 80.78859617 6.95874296 89.37715389 5 98 C2.525 98.495 2.525 98.495 0 99 C-0.28359375 98.00613281 -0.5671875 97.01226562 -0.859375 95.98828125 C-1.13491211 95.02656006 -1.13491211 95.02656006 -1.41601562 94.04541016 C-1.97497194 92.08766101 -2.5267189 90.12785783 -3.078125 88.16796875 C-6.64220732 75.86791108 -11.01836477 65.49354744 -22 58 C-26.78232726 55.60883637 -31.70082106 53.72571849 -36.796875 52.1171875 C-39 51 -39 51 -39.8125 48.875 C-39.874375 48.25625 -39.93625 47.6375 -40 47 C-39.09121094 46.65388672 -39.09121094 46.65388672 -38.1640625 46.30078125 C-22.6996499 40.28155604 -13.12274169 34.42993931 -6 19 C-4.4177504 14.71861874 -3.18314342 10.40457352 -2 6 C-1.34587226 3.99586394 -0.68267324 1.99459311 0 0 Z " fill="#FDBF08" transform="translate(972,352)"/>
<path d="M0 0 C3.75338937 1.48603579 3.75338937 1.48603579 4.8359375 3.7421875 C5.01382813 4.44601562 5.19171875 5.14984375 5.375 5.875 C6.56680344 9.87142783 8.06983755 13.5502099 9.875 17.3125 C10.34679687 18.29863281 10.81859375 19.28476562 11.3046875 20.30078125 C14.68528216 25.68324879 19.76360112 28.08698571 25.3125 30.75 C25.95767578 31.06582031 26.60285156 31.38164062 27.26757812 31.70703125 C28.84234459 32.47691708 30.4208004 33.23924891 32 34 C32 34.99 32 35.98 32 37 C30.92621094 37.4846875 29.85242188 37.969375 28.74609375 38.46875 C17.58290594 43.65474631 10.79399989 47.72645643 6.39697266 59.62524414 C5.18929971 63.06205946 4.07935255 66.52076832 3 70 C1.68 70 0.36 70 -1 70 C-1.35191406 68.865625 -1.70382812 67.73125 -2.06640625 66.5625 C-6.4625659 52.75095045 -6.4625659 52.75095045 -16.97265625 43.26953125 C-19.94731788 41.74786352 -22.94562569 40.35271302 -26 39 C-27.3372883 38.34130262 -28.67241867 37.6780487 -30 37 C-30 35.68 -30 34.36 -30 33 C-29.05898438 32.62488281 -28.11796875 32.24976563 -27.1484375 31.86328125 C-25.89039277 31.34691961 -24.6325932 30.82996038 -23.375 30.3125 C-22.44880859 29.94608398 -22.44880859 29.94608398 -21.50390625 29.57226562 C-14.61580515 26.70826569 -10.00780107 23.07081084 -7.08203125 16.1171875 C-6.80746094 15.41851562 -6.53289063 14.71984375 -6.25 14 C-5.95996094 13.30132812 -5.66992188 12.60265625 -5.37109375 11.8828125 C-4.16215386 8.95706757 -3.00524146 6.01349854 -1.859375 3.0625 C-1 1 -1 1 0 0 Z " fill="#F6F8F7" transform="translate(744,375)"/>
<path d="M0 0 C2.0625 0.4375 2.0625 0.4375 4 1 C4.14695312 1.66644531 4.29390625 2.33289063 4.4453125 3.01953125 C6.61163947 11.92139208 9.40517082 20.95569221 17.25 26.375 C18.81076171 27.28965422 20.3959645 28.16355541 22 29 C22.92425781 29.4846875 23.84851563 29.969375 24.80078125 30.46875 C27.18494624 31.68275197 29.58049958 32.8584403 32 34 C32 34.99 32 35.98 32 37 C31.04738281 37.45890625 30.09476563 37.9178125 29.11328125 38.390625 C27.84619428 39.01008974 26.5792761 39.62989981 25.3125 40.25 C24.68666016 40.55035156 24.06082031 40.85070312 23.41601562 41.16015625 C11.40837233 47.06967703 8.09358783 56.11249078 3.91796875 68.25390625 C3.61503906 69.16011719 3.31210937 70.06632812 3 71 C1.1484375 70.9375 1.1484375 70.9375 -1 70 C-1.98660152 67.62731413 -2.70570416 65.46057702 -3.375 63 C-6.44756838 53.17287895 -9.17114419 47.29095814 -18.49121094 42.18115234 C-21.95848404 40.37223293 -25.46203072 38.666549 -29 37 C-29 35.68 -29 34.36 -29 33 C-28.11957031 32.60167969 -27.23914063 32.20335937 -26.33203125 31.79296875 C-25.17058594 31.26316406 -24.00914062 30.73335938 -22.8125 30.1875 C-21.66394531 29.66542969 -20.51539063 29.14335937 -19.33203125 28.60546875 C-9.34009129 23.79106392 -6.84220694 17.76999395 -3.25 7.5 C-2.84265625 6.2934375 -2.4353125 5.086875 -2.015625 3.84375 C-1 1 -1 1 0 0 Z " fill="#F7F9F8" transform="translate(483,375)"/>
<path d="M0 0 C3.08524571 0.61579425 6.16778185 1.24424128 9.25 1.875 C10.55904297 2.13603516 10.55904297 2.13603516 11.89453125 2.40234375 C12.73886719 2.57636719 13.58320313 2.75039063 14.453125 2.9296875 C15.22817383 3.08679199 16.00322266 3.24389648 16.80175781 3.40576172 C19.06162086 4.01665761 20.94806161 4.88410522 23 6 C20.95928485 6.33910994 18.91737379 6.67102704 16.875 7 C15.73804688 7.185625 14.60109375 7.37125 13.4296875 7.5625 C10.23862398 7.96956049 7.21182209 8.07809902 4 8 C4.04640625 9.04414062 4.0928125 10.08828125 4.140625 11.1640625 C5.42937528 53.46826671 -14.13454343 95.0337257 -42 126 C-42.70253906 126.79792969 -43.40507812 127.59585938 -44.12890625 128.41796875 C-57.80556879 143.0808043 -79.60656189 156.20938918 -99.921875 157.1328125 C-100.85515625 157.13023437 -101.7884375 157.12765625 -102.75 157.125 C-104.16539062 157.12886719 -104.16539062 157.12886719 -105.609375 157.1328125 C-108 157 -108 157 -110 156 C-109.505 155.01 -109.505 155.01 -109 154 C-106.31204015 153.36202528 -103.65040264 152.8194005 -100.9375 152.3125 C-91.64162221 150.40496439 -83.45273303 147.26313751 -75 143 C-73.93007813 142.46503906 -72.86015625 141.93007813 -71.7578125 141.37890625 C-53.15209358 131.30282211 -39.08489302 113.62724212 -28 96 C-27.29617188 94.88625 -26.59234375 93.7725 -25.8671875 92.625 C-20.41642133 83.56176527 -16.60235595 74.05158894 -12.85864258 64.18676758 C-12.11052425 62.28148015 -11.27701851 60.41016011 -10.4296875 58.546875 C-8.60250409 54.01386261 -7.52009154 49.44475557 -6.4375 44.6875 C-6.22931641 43.80126953 -6.02113281 42.91503906 -5.80664062 42.00195312 C-4.41573678 36.02411872 -3.17701052 30.02314834 -2 24 C-1.82275391 23.175 -1.64550781 22.35 -1.46289062 21.5 C-1.01703277 19.09199135 -0.79998021 16.7995845 -0.68359375 14.35546875 C-0.64169922 13.51435547 -0.59980469 12.67324219 -0.55664062 11.80664062 C-0.51732422 10.94232422 -0.47800781 10.07800781 -0.4375 9.1875 C-0.37272461 7.86202148 -0.37272461 7.86202148 -0.30664062 6.50976562 C-0.20108464 4.34000377 -0.10008929 2.1700209 0 0 Z " fill="#52AE08" transform="translate(482,666)"/>
<path d="M0 0 C2.75862897 2.02200582 5.26131562 4.11678437 7.6796875 6.53515625 C7.12413194 11.09071181 7.12413194 11.09071181 5.6796875 12.53515625 C4.25740979 12.58581117 2.83267494 12.57070709 1.41015625 12.52734375 C-20.83577029 12.0400733 -36.81690583 17.90361833 -54.3203125 31.53515625 C-57.3203125 33.53515625 -57.3203125 33.53515625 -59.5078125 33.16015625 C-60.1059375 32.95390625 -60.7040625 32.74765625 -61.3203125 32.53515625 C-61.83031719 23.59045858 -56.73689668 16.89716924 -51.1328125 10.28515625 C-38.23466013 -3.3500334 -17.18223521 -10.84737071 0 0 Z " fill="#033A27" transform="translate(501.3203125,252.46484375)"/>
<path d="M0 0 C8.16419319 6.32605613 14.15531192 14.32046899 17.671875 24.0703125 C17.82421875 26.92578125 17.82421875 26.92578125 17.671875 29.0703125 C15.54296875 29.8515625 15.54296875 29.8515625 12.671875 30.0703125 C10.47849303 28.64627359 8.68416295 27.27442717 6.734375 25.5703125 C-4.5511992 16.30839218 -18.57089231 9.31838396 -33.375 8.7890625 C-34.30183594 8.75167969 -35.22867188 8.71429688 -36.18359375 8.67578125 C-38.12888562 8.60490017 -40.07419861 8.53459671 -42.01953125 8.46484375 C-42.94121094 8.42746094 -43.86289062 8.39007813 -44.8125 8.3515625 C-45.65522461 8.32126953 -46.49794922 8.29097656 -47.36621094 8.25976562 C-49.328125 8.0703125 -49.328125 8.0703125 -50.328125 7.0703125 C-50.63671875 4.734375 -50.63671875 4.734375 -50.328125 2.0703125 C-37.28946094 -13.03357731 -14.9832867 -10.1158348 0 0 Z " fill="#043B27" transform="translate(781.328125,255.9296875)"/>
<path d="M0 0 C3.00685874 1.61907778 5.2581079 3.05577368 7.375 5.75 C8.81584693 10.93704894 8.72470912 14.62822917 6.25 19.3125 C3.28801335 22.8504285 1.68233999 24.71364426 -2.9375 25.5 C-7.07836466 24.82394046 -8.41109908 23.23612616 -11 20 C-13.21210626 15.99714105 -13.47682812 12.52986713 -13 8 C-9.75301878 2.06586192 -6.96213549 -0.81907476 0 0 Z " fill="#F3F5F4" transform="translate(773,428)"/>
<path d="M0 0 C2.92937654 1.81310142 5.43647949 3.87295899 7 7 C7.5878933 12.65282017 7.31475894 17.19931464 4 22 C0.99889343 24.58428621 -0.52062386 24.99143971 -4.5 25.0625 C-7.9861406 24.00420732 -9.94715918 22.9871299 -12.11328125 20.0078125 C-13.97692429 15.78793355 -13.84865246 11.46868559 -13 7 C-10.02281159 1.37398955 -6.26937096 -0.72338896 0 0 Z " fill="#F2F5F4" transform="translate(513,428)"/>
<path d="M0 0 C4.10237226 0.80582312 6.33489334 1.96403613 9.5 4.6875 C11.60863429 8.32968651 12.00962203 11.52558672 11.5 15.6875 C9.7344231 18.7478333 7.99412245 21.19337755 5.5 23.6875 C2.39552377 24.38911163 -0.39144895 24.35399001 -3.5 23.6875 C-7.05411824 21.38056727 -9.01638945 18.5594347 -10.07421875 14.46484375 C-10.41361174 10.06781907 -9.58638309 7.15922407 -6.9375 3.625 C-4.4621778 1.12055636 -3.60571807 0.70826605 0 0 Z " fill="#F1F4F3" transform="translate(762.5,359.3125)"/>
<path d="M0 0 C6.46225083 0.56055531 6.46225083 0.56055531 9.57421875 2.89453125 C12.43953588 6.95373052 12.61062931 11.2012469 12.07421875 16.01953125 C10.4373469 19.60506006 9.38449292 20.8126818 6.07421875 23.01953125 C3.05730995 23.36014998 0.9801406 23.59165232 -1.92578125 23.01953125 C-5.23318096 20.3454634 -7.66464113 18.12730506 -8.19921875 13.8125 C-8.47604328 6.71088611 -8.47604328 6.71088611 -5.48828125 2.95703125 C-4.64265625 2.31765625 -3.79703125 1.67828125 -2.92578125 1.01953125 C-1.92578125 0.01953125 -1.92578125 0.01953125 0 0 Z " fill="#F5F7F7" transform="translate(500.92578125,359.98046875)"/>
<path d="M0 0 C2.75329021 1.79562405 4.52627461 3.05254922 6 6 C6.59534067 11.28152224 6.8693614 15.56976027 4.0625 20.1875 C-0.06661935 22.63126451 -3.322043 23.15891521 -8 22 C-11.48291136 19.2989667 -12.67085033 17.84265037 -13.4375 13.55078125 C-13.64514098 9.20978692 -13.42471514 6.6937014 -11.125 2.9375 C-7.46753897 -0.39724388 -4.90894935 -0.41601266 0 0 Z " fill="#BD4901" transform="translate(563,498)"/>
<path d="M0 0 C3.8946741 0.77893482 5.65071354 1.90071354 8.4375 4.6875 C10.27833099 8.36916198 9.80479156 12.65995806 9.4375 16.6875 C7.41118421 21.20065789 7.41118421 21.20065789 4.4375 22.6875 C0.05813431 23.20321681 -3.41296515 23.52091277 -7.0625 20.875 C-9.45965987 17.37914186 -10.03129937 14.05020765 -9.96875 9.828125 C-8.92473196 4.32695303 -5.33740369 1.03002527 0 0 Z " fill="#C14D01" transform="translate(668.5625,497.3125)"/>
<path d="M0 0 C0.68964844 0.19335938 1.37929688 0.38671875 2.08984375 0.5859375 C11.00079084 3.05508882 19.35005287 5.14936131 28.6171875 5.55859375 C31 6 31 6 32.43359375 7.4921875 C34.79444334 9.76472601 36.98238503 9.51518199 40.1875 9.6875 C41.27417969 9.75324219 42.36085938 9.81898438 43.48046875 9.88671875 C44.72763672 9.94279297 44.72763672 9.94279297 46 10 C46 10.33 46 10.66 46 11 C32.29963673 11.58029689 20.6976135 11.52798477 8 6 C6.33426389 5.33101164 4.66794645 4.66345825 3 4 C3 3.34 3 2.68 3 2 C2.01 1.67 1.02 1.34 0 1 C0 0.67 0 0.34 0 0 Z " fill="#A5CB16" transform="translate(725,482)"/>
<path d="M0 0 C0.33 0.66 0.66 1.32 1 2 C0.40574219 2.1959375 -0.18851563 2.391875 -0.80078125 2.59375 C-7.24025576 4.91716849 -12.25055654 8.10366903 -17.65234375 12.29296875 C-20 14 -20 14 -23 15 C-21.25 9.25 -21.25 9.25 -19 7 C-19.33 6.34 -19.66 5.68 -20 5 C-18.948125 4.566875 -17.89625 4.13375 -16.8125 3.6875 C-14.43924657 2.69548007 -12.67609641 1.76745383 -10.5625 0.25 C-6.70008791 -1.63410346 -4.16527491 -0.90247623 0 0 Z " fill="#E16B01" transform="translate(744,571)"/>
<path d="M0 0 C2.76092453 1.17223611 5.36971071 2.56283163 8 4 C9.33100237 4.67130835 10.6637169 5.33926578 12 6 C12 6.99 12 7.98 12 9 C12.31088368 10.67099977 12.64080332 12.33871537 13 14 C10.05836204 12.6118113 7.47104274 10.9942122 4.8125 9.125 C0.42201948 6.14939194 -4.08829195 3.9739725 -9 2 C-9 1.34 -9 0.68 -9 0 C-5.80589134 -1.59705433 -3.44684034 -0.72272459 0 0 Z " fill="#E06900" transform="translate(495,572)"/>
<path d="M0 0 C2.475 0.495 2.475 0.495 5 1 C5.33 1.99 5.66 2.98 6 4 C7.32 4 8.64 4 10 4 C10.33 2.68 10.66 1.36 11 0 C11.9834496 1.43457328 12.96160921 2.87277406 13.9375 4.3125 C14.48277344 5.11300781 15.02804687 5.91351563 15.58984375 6.73828125 C17 9 17 9 18 12 C15.02781193 11.40133267 13.00195149 10.51821463 10.546875 8.75 C9.928125 8.3065625 9.309375 7.863125 8.671875 7.40625 C8.03765625 6.9421875 7.4034375 6.478125 6.75 6 C6.1003125 5.5359375 5.450625 5.071875 4.78125 4.59375 C3.16531556 3.42593183 1.57966667 2.21642781 0 1 C0 0.67 0 0.34 0 0 Z " fill="#7AB914" transform="translate(688,458)"/>
<path d="M0 0 C0.68964844 0.19335938 1.37929688 0.38671875 2.08984375 0.5859375 C8.03171334 2.23238147 13.96970983 3.71485619 20 5 C18.5 6.625 18.5 6.625 16 8 C11.39217258 7.1954587 7.28898578 5.87643128 3 4 C3 3.34 3 2.68 3 2 C2.01 1.67 1.02 1.34 0 1 C0 0.67 0 0.34 0 0 Z " fill="#A4CA12" transform="translate(725,482)"/>
<path d="M0 0 C10.23 0 20.46 0 31 0 C31 0.66 31 1.32 31 2 C31.66 2.33 32.32 2.66 33 3 C22.11 2.34 11.22 1.68 0 1 C0 0.67 0 0.34 0 0 Z " fill="#80BB17" transform="translate(604,434)"/>
<path d="M0 0 C1.9375 0.6875 1.9375 0.6875 4 2 C4.75 4.625 4.75 4.625 5 7 C4.01 6.67 3.02 6.34 2 6 C-0.67676547 7.37249963 -0.67676547 7.37249963 -3 9 C-2.25 2.25 -2.25 2.25 0 0 Z " fill="#D9E2DF" transform="translate(744,375)"/>
<path d="M0 0 C1.76923828 0.01353516 1.76923828 0.01353516 3.57421875 0.02734375 C4.47785156 0.03894531 5.38148438 0.05054688 6.3125 0.0625 C5.673125 0.371875 5.03375 0.68125 4.375 1 C2.37639179 1.8970163 2.37639179 1.8970163 1.3125 3.0625 C-0.20219448 3.29442865 -1.72504562 3.47465238 -3.25 3.625 C-4.48943359 3.75068359 -4.48943359 3.75068359 -5.75390625 3.87890625 C-6.71103516 3.96978516 -6.71103516 3.96978516 -7.6875 4.0625 C-7.6875 3.4025 -7.6875 2.7425 -7.6875 2.0625 C-8.3475 1.7325 -9.0075 1.4025 -9.6875 1.0625 C-6.26517028 -0.07827657 -3.60076783 -0.03565117 0 0 Z " fill="#1C4538" transform="translate(745.6875,343.9375)"/>
<path d="M0 0 C1.65 0.33 3.3 0.66 5 1 C3.88424427 4.34726719 3.48655378 4.62079748 0.5625 6.25 C-1.2009375 7.11625 -1.2009375 7.11625 -3 8 C-3.66 7.67 -4.32 7.34 -5 7 C-3.35 4.69 -1.7 2.38 0 0 Z " fill="#63B319" transform="translate(534,459)"/>
<path d="M0 0 C0.99 0 1.98 0 3 0 C2.88601335 1.62580966 2.75844341 3.25067157 2.625 4.875 C2.52058594 6.23238281 2.52058594 6.23238281 2.4140625 7.6171875 C2 10 2 10 0 12 C-1.1671568 8.49852959 -1.13357453 5.67329964 -1 2 C-0.67 1.34 -0.34 0.68 0 0 Z " fill="#DCE4E2" transform="translate(761,434)"/>
<path d="M0 0 C0.67578125 1.703125 0.67578125 1.703125 1 4 C-0.14453125 6.359375 -0.14453125 6.359375 -1.8125 8.75 C-2.62654297 9.94882812 -2.62654297 9.94882812 -3.45703125 11.171875 C-3.96621094 11.77515625 -4.47539062 12.3784375 -5 13 C-5.66 13 -6.32 13 -7 13 C-5.35821735 8.22390502 -2.73453298 4.20617096 0 0 Z " fill="#72CA2E" transform="translate(329,693)"/>
<path d="M0 0 C0.66 0.33 1.32 0.66 2 1 C1.649375 1.61875 1.29875 2.2375 0.9375 2.875 C0.4734375 3.926875 0.4734375 3.926875 0 5 C0.33 5.66 0.66 6.32 1 7 C-0.65 6.67 -2.3 6.34 -4 6 C-4.33 4.68 -4.66 3.36 -5 2 C-2.625 0.9375 -2.625 0.9375 0 0 Z " fill="#FAC724" transform="translate(937,397)"/>
<path d="M0 0 C1.125 1.75 1.125 1.75 2 4 C1.03284133 6.65968633 -0.41948242 8.62922362 -2 11 C-2.66 7.7 -3.32 4.4 -4 1 C-2.68 0.67 -1.36 0.34 0 0 Z " fill="#1F5143" transform="translate(491,376)"/>
<path d="M0 0 C0.33 0 0.66 0 1 0 C1.96000141 4.22400622 2.12556024 6.24901134 0 10 C0 11.32 0 12.64 0 14 C-1.32 14.99 -2.64 15.98 -4 17 C-2.68 11.39 -1.36 5.78 0 0 Z " fill="#D2EFBE" transform="translate(918,764)"/>
<path d="M0 0 C0.33 0 0.66 0 1 0 C1.19672365 1.72814161 1.38196799 3.45759197 1.5625 5.1875 C1.66691406 6.15042969 1.77132812 7.11335937 1.87890625 8.10546875 C1.99758751 10.94233377 1.67765639 13.25423671 1 16 C0.67 16 0.34 16 0 16 C-0.1958009 14.08416353 -0.38132214 12.16727461 -0.5625 10.25 C-0.66691406 9.18265625 -0.77132812 8.1153125 -0.87890625 7.015625 C-0.98560074 4.35858796 -0.81930395 2.50039428 0 0 Z " fill="#6CCD21" transform="translate(917,735)"/>
<path d="M0 0 C0.66 0.33 1.32 0.66 2 1 C-1.16548033 4.88901869 -4.40365256 8.50640535 -8 12 C-7.84595887 6.91664275 -4.97931568 4.64245282 -1.49609375 1.35546875 C-1.00238281 0.90816406 -0.50867188 0.46085937 0 0 Z " fill="#0B4927" transform="translate(455,258)"/>
<path d="M0 0 C2 3 2 3 1.7578125 5.04296875 C1.171875 7.02864583 0.5859375 9.01432292 0 11 C-0.99 11 -1.98 11 -3 11 C-2.01 7.37 -1.02 3.74 0 0 Z " fill="#1D493B" transform="translate(751,431)"/>
<path d="M0 0 C0.33 0.99 0.66 1.98 1 3 C-2.3 5.97 -5.6 8.94 -9 12 C-9.66 11.67 -10.32 11.34 -11 11 C-7.37 7.37 -3.74 3.74 0 0 Z " fill="#F1FAE9" transform="translate(716,329)"/>
<path d="M0 0 C0.66 0 1.32 0 2 0 C2 0.66 2 1.32 2 2 C1.34 2 0.68 2 0 2 C-0.2475 2.5775 -0.495 3.155 -0.75 3.75 C-2.16683317 6.3002997 -3.87627537 8.01785701 -6 10 C-6.99 9.67 -7.98 9.34 -9 9 C-7.6078125 7.88625 -7.6078125 7.88625 -6.1875 6.75 C-3.71061648 4.70438561 -1.913529 2.58326416 0 0 Z " fill="#83BB0F" transform="translate(697,680)"/>
<path d="M0 0 C1.93607846 2.8471742 1.98954766 4.15417196 1.75 7.6875 C1.5025 8.780625 1.255 9.87375 1 11 C0.01 11.495 0.01 11.495 -1 12 C-1.14285714 3.42857143 -1.14285714 3.42857143 0 0 Z " fill="#76CE27" transform="translate(368,626)"/>
<path d="M0 0 C3.63 0 7.26 0 11 0 C8.60236815 2.39763185 7.66726502 2.34280586 4.375 2.625 C3.55773437 2.69976562 2.74046875 2.77453125 1.8984375 2.8515625 C1.27195312 2.90054687 0.64546875 2.94953125 0 3 C0 2.01 0 1.02 0 0 Z " fill="#A4D01E" transform="translate(479,489)"/>
<path d="M0 0 C0.66 0.33 1.32 0.66 2 1 C2.625 3.5625 2.625 3.5625 3 6 C1.02 7.32 -0.96 8.64 -3 10 C-2.01 6.7 -1.02 3.4 0 0 Z " fill="#E9F6DE" transform="translate(643,116)"/>
<path d="M0 0 C0.61875 0.78375 1.2375 1.5675 1.875 2.375 C3.89858661 4.96837647 3.89858661 4.96837647 6 7 C5.625 9.125 5.625 9.125 5 11 C4.15504811 9.92570402 3.32445142 8.84010798 2.5 7.75 C2.0359375 7.14671875 1.571875 6.5434375 1.09375 5.921875 C0 4 0 4 0 0 Z " fill="#1B3C33" transform="translate(707,451)"/>
<path d="M0 0 C1.98 0 3.96 0 6 0 C5.67 1.65 5.34 3.3 5 5 C3.68 4.67 2.36 4.34 1 4 C0.67 2.68 0.34 1.36 0 0 Z " fill="#E2E9E7" transform="translate(481,441)"/>
<path d="M0 0 C0.69287109 0.00451172 1.38574219 0.00902344 2.09960938 0.01367188 C3.79561068 0.02536844 5.49156703 0.04330076 7.1875 0.0625 C7.1875 0.3925 7.1875 0.7225 7.1875 1.0625 C6.27226562 1.12308594 5.35703125 1.18367188 4.4140625 1.24609375 C3.22554688 1.32988281 2.03703125 1.41367187 0.8125 1.5 C-0.37085938 1.58121094 -1.55421875 1.66242188 -2.7734375 1.74609375 C-5.72768901 1.87334936 -5.72768901 1.87334936 -7.8125 3.0625 C-9.48904729 2.78307545 -11.15858154 2.45421753 -12.8125 2.0625 C-12.8125 1.7325 -12.8125 1.4025 -12.8125 1.0625 C-8.52952469 0.00630997 -4.38264354 -0.05452092 0 0 Z " fill="#489B18" transform="translate(493.8125,263.9375)"/>
<path d="M0 0 C0.33 0.99 0.66 1.98 1 3 C2.65 3.33 4.3 3.66 6 4 C4.68 4.99 3.36 5.98 2 7 C0.68 6.34 -0.64 5.68 -2 5 C-1.34 3.35 -0.68 1.7 0 0 Z " fill="#71C21B" transform="translate(537,454)"/>
<path d="M0 0 C1.67542976 0.28604898 3.34385343 0.61781233 5 1 C4.67 2.32 4.34 3.64 4 5 C2.68 5 1.36 5 0 5 C-0.5625 3.0625 -0.5625 3.0625 -1 1 C-0.67 0.67 -0.34 0.34 0 0 Z " fill="#FDC42A" transform="translate(972,352)"/>
<path d="M0 0 C0.95465783 2.16967689 1.14401212 3.56328793 0.3984375 5.82421875 C-0.35870385 7.5684743 -1.17609198 9.28627131 -2 11 C-2.33 11 -2.66 11 -3 11 C-3.625 8.125 -3.625 8.125 -4 5 C-3.34 4.34 -2.68 3.68 -2 3 C-1.34 2.01 -0.68 1.02 0 0 Z " fill="#082B1C" transform="translate(479,381)"/>
<path d="M0 0 C4.24822374 0.47202486 6.19989709 2.96655518 9 6 C5.21213403 5.4739075 2.82847776 4.61896089 0 2 C0 1.34 0 0.68 0 0 Z " fill="#E59915" transform="translate(704,470)"/>
<path d="M0 0 C2.0625 0.4375 2.0625 0.4375 4 1 C4 1.99 4 2.98 4 4 C2.35 4 0.7 4 -1 4 C-1.33 4.99 -1.66 5.98 -2 7 C-1.125 1.125 -1.125 1.125 0 0 Z " fill="#C1D0CC" transform="translate(483,375)"/>
<path d="M0 0 C2.97 1.65 5.94 3.3 9 5 C8.34 5.66 7.68 6.32 7 7 C3.535 5.02 3.535 5.02 0 3 C0 2.01 0 1.02 0 0 Z " fill="#103F32" transform="translate(504,348)"/>
<path d="M0 0 C0.66 0.33 1.32 0.66 2 1 C0.02 3.31 -1.96 5.62 -4 8 C-4.66 7.34 -5.32 6.68 -6 6 C-4.02 4.02 -2.04 2.04 0 0 Z " fill="#6CC920" transform="translate(592,78)"/>
<path d="M0 0 C0.33 0 0.66 0 1 0 C2.10228696 4.40914783 2.07654536 8.48382401 2 13 C0.4375 11.5625 0.4375 11.5625 -1 9 C-0.96846324 5.94619073 -0.53266629 3.00346778 0 0 Z " fill="#8FD756" transform="translate(910,462)"/>
<path d="M0 0 C0.66 0 1.32 0 2 0 C3.25664978 2.90600261 4 4.79604584 4 8 C3.34 8 2.68 8 2 8 C2 7.01 2 6.02 2 5 C1.34 5 0.68 5 0 5 C0 3.35 0 1.7 0 0 Z " fill="#234437" transform="translate(476,430)"/>
<path d="M0 0 C5.445 1.485 5.445 1.485 11 3 C11 3.33 11 3.66 11 4 C8.36 4 5.72 4 3 4 C3 3.34 3 2.68 3 2 C2.01 1.67 1.02 1.34 0 1 C0 0.67 0 0.34 0 0 Z " fill="#B9D556" transform="translate(725,482)"/>
<path d="M0 0 C1.32 1.32 2.64 2.64 4 4 C3.34 5.32 2.68 6.64 2 8 C0.93224776 6.03533587 -0.06553465 4.03144641 -1 2 C-0.67 1.34 -0.34 0.68 0 0 Z " fill="#225241" transform="translate(523,365)"/>
<path d="M0 0 C4.2742558 1.5830577 6.26531794 4.50568404 9 8 C5.56247993 6.4722133 2.81046312 4.49818944 0 2 C0 1.34 0 0.68 0 0 Z " fill="#113227" transform="translate(512,354)"/>
<path d="M0 0 C0.66 0.33 1.32 0.66 2 1 C0.60667426 4.36720387 -0.9789286 5.9859524 -4 8 C-2.87548273 5.0280615 -1.77706209 2.66559313 0 0 Z " fill="#A8CA19" transform="translate(728,638)"/>
<path d="M0 0 C1.10191901 4.40767604 0.58706842 5.8922935 -1 10 C-1.66 10 -2.32 10 -3 10 C-2.01 6.7 -1.02 3.4 0 0 Z " fill="#DBF1CC" transform="translate(905,557)"/>
<path d="M0 0 C1.32 0 2.64 0 4 0 C2.95125002 2.62187494 2.35068687 3.79371361 -0.125 5.25 C-0.74375 5.4975 -1.3625 5.745 -2 6 C-2 5.01 -2 4.02 -2 3 C-1.34 2.67 -0.68 2.34 0 2 C0 1.34 0 0.68 0 0 Z " fill="#06281E" transform="translate(775,463)"/>
<path d="M0 0 C0.66 0.99 1.32 1.98 2 3 C1.01 4.32 0.02 5.64 -1 7 C-1.99 6.67 -2.98 6.34 -4 6 C-2.68 4.02 -1.36 2.04 0 0 Z " fill="#D6DFDD" transform="translate(526,454)"/>
<path d="M0 0 C0.99 0.33 1.98 0.66 3 1 C3 1.66 3 2.32 3 3 C3.99 3.33 4.98 3.66 6 4 C3.69 4.33 1.38 4.66 -1 5 C-0.67 3.35 -0.34 1.7 0 0 Z " fill="#73D01C" transform="translate(814,454)"/>
<path d="M0 0 C0.66 1.32 1.32 2.64 2 4 C0.68 4.33 -0.64 4.66 -2 5 C-2.33 3.68 -2.66 2.36 -3 1 C-2.01 0.67 -1.02 0.34 0 0 Z " fill="#FBC417" transform="translate(974,446)"/>
<path d="M0 0 C1.485 0.99 1.485 0.99 3 2 C2.67 2.66 2.34 3.32 2 4 C2.99 4 3.98 4 5 4 C4.67 5.32 4.34 6.64 4 8 C1.10067643 5.60490662 0.49831724 3.68754757 0 0 Z " fill="#366257" transform="translate(701,440)"/>
<path d="M0 0 C0 0.66 0 1.32 0 2 C0.66 2.33 1.32 2.66 2 3 C-2.29 2.67 -6.58 2.34 -11 2 C-11 1.67 -11 1.34 -11 1 C-9.54182203 0.83197949 -8.0834516 0.66562857 -6.625 0.5 C-5.81289063 0.4071875 -5.00078125 0.314375 -4.1640625 0.21875 C-2 0 -2 0 0 0 Z " fill="#91B60D" transform="translate(635,434)"/>
<path d="M0 0 C0.33 0.99 0.66 1.98 1 3 C1.66 3.33 2.32 3.66 3 4 C1.515 6.475 1.515 6.475 0 9 C-1.10844919 5.67465243 -0.84454356 3.37817425 0 0 Z " fill="#7FCF3B" transform="translate(821,430)"/>
</svg>