<svg width="70" height="54" viewBox="0 0 70 54" fill="none" xmlns="http://www.w3.org/2000/svg"><path d="M0 15.68C0 10.1915 0 7.4472 1.06814 5.3509C2.0077 3.5069 3.5069 2.0077 5.3509 1.06814C7.4472 0 10.1915 0 15.68 0H54.32C59.8085 0 62.5528 0 64.6491 1.06814C66.4931 2.0077 67.9923 3.5069 68.9319 5.3509C70 7.4472 70 10.1915 70 15.68V38.32C70 43.8085 70 46.5528 68.9319 48.6491C67.9923 50.4931 66.4931 51.9923 64.6491 52.9319C62.5528 54 59.8085 54 54.32 54H15.68C10.1915 54 7.4472 54 5.3509 52.9319C3.5069 51.9923 2.0077 50.4931 1.06814 48.6491C0 46.5528 0 43.8085 0 38.32V15.68Z" fill="#00CD9C"/><path d="M23.9052 23.4219H46.5888V37.5806C46.5888 38.6851 45.6933 39.5805 44.5888 39.5805H25.9052C24.8007 39.5805 23.9052 38.6851 23.9052 37.5805V23.4219Z" fill="white"/><path d="M23.9052 25.3663H46.5888V29.3827H23.9052V25.3663Z" fill="#00CD9C"/><path d="M26.5843 12.9356C26.5843 13.8676 27.3398 14.6231 28.2718 14.6231H29.2103C30.1423 14.6231 30.8978 13.8676 30.8978 12.9356V12.1875C30.8978 11.2556 31.6533 10.5 32.5853 10.5H38.0589C38.9909 10.5 39.7464 11.2556 39.7464 12.1875V12.9356C39.7464 13.8676 40.5019 14.6231 41.4339 14.6231H42.3734C43.3053 14.6231 44.0609 13.8676 44.0609 12.9356V12.1875C44.0609 11.2556 44.8164 10.5 45.7484 10.5H48.5208C49.4528 10.5 50.2083 11.2556 50.2083 12.1875V23.6797C50.2083 24.6117 49.4528 25.3672 48.5208 25.3672H22.3294C21.3974 25.3672 20.6419 24.6117 20.6419 23.6797V12.1875C20.6419 11.2556 21.3974 10.5 22.3294 10.5H24.8968C25.8288 10.5 26.5843 11.2556 26.5843 12.1875V12.9356Z" fill="white"/></svg>