<svg width="70" height="54" viewBox="0 0 70 54" fill="none" xmlns="http://www.w3.org/2000/svg"><g clip-path="url(#clip0_129_1024)"><g clip-path="url(#clip1_129_1024)"><path fill-rule="evenodd" clip-rule="evenodd" d="M12.563 0H57.437C61.8054 0 63.3895 0.454845 64.9865 1.30895C66.5836 2.16305 67.8369 3.41642 68.691 5.01346C69.5452 6.61049 70 8.1946 70 12.563V41.437C70 45.8054 69.5452 47.3895 68.691 48.9865C67.8369 50.5836 66.5836 51.8369 64.9865 52.6911C63.3895 53.5452 61.8054 54 57.437 54H12.563C8.1946 54 6.61049 53.5452 5.01346 52.6911C3.41642 51.8369 2.16305 50.5836 1.30895 48.9865C0.454845 47.3895 0 45.8054 0 41.437V12.563C0 8.1946 0.454845 6.61049 1.30895 5.01346C2.16305 3.41642 3.41642 2.16305 5.01346 1.30895C6.61049 0.454845 8.1946 0 12.563 0Z" fill="#FF4B4B"/><path d="M25.588 10.9719L24.306 11.1688C23.9035 11.2306 23.527 10.9544 23.4652 10.5519C23.4406 10.3916 23.4695 10.2276 23.5475 10.0854L24.1709 8.94812C24.2303 8.8399 24.2326 8.7094 24.177 8.59917L23.5936 7.4408C23.4104 7.07707 23.5568 6.6337 23.9205 6.45051C24.0653 6.37756 24.2302 6.35439 24.3895 6.38459L25.6638 6.62612C25.7851 6.6491 25.9099 6.61094 25.9976 6.52408L26.919 5.61126C27.2083 5.32463 27.6752 5.32681 27.9618 5.61613C28.076 5.73134 28.1489 5.88096 28.1695 6.04183L28.3335 7.3284C28.3491 7.45084 28.424 7.55775 28.5337 7.61429L29.6866 8.20851C30.0486 8.39509 30.1908 8.83981 30.0042 9.20181C29.9299 9.34596 29.8102 9.4616 29.6635 9.53083L28.4906 10.0844C28.379 10.1371 28.3004 10.2414 28.2806 10.3632L28.0717 11.6432C28.0061 12.0452 27.6271 12.3179 27.2251 12.2523C27.0651 12.2261 26.9181 12.148 26.807 12.0299L25.918 11.0855C25.8334 10.9956 25.71 10.9531 25.588 10.9719Z" fill="#FFC300"/><path d="M34.6854 17.687L33.7965 18.6314C33.5173 18.928 33.0506 18.9421 32.7541 18.663C32.636 18.5518 32.5578 18.4048 32.5317 18.2448L32.3229 16.9647C32.303 16.8429 32.2244 16.7387 32.1128 16.686L30.9399 16.1323C30.5716 15.9585 30.414 15.519 30.5878 15.1507C30.657 15.0041 30.7727 14.8843 30.9168 14.81L32.0697 14.2158C32.1794 14.1593 32.2543 14.0524 32.2699 13.9299L32.434 12.6433C32.4855 12.2394 32.8547 11.9536 33.2587 12.0051C33.4196 12.0257 33.5692 12.0986 33.6844 12.2128L34.6058 13.1256C34.6935 13.2125 34.8183 13.2506 34.9396 13.2276L36.2139 12.9861C36.614 12.9103 36.9999 13.1732 37.0757 13.5733C37.1059 13.7326 37.0827 13.8975 37.0098 14.0423L36.4264 15.2007C36.3709 15.3109 36.3731 15.4414 36.4325 15.5496L37.056 16.6869C37.2517 17.0441 37.1209 17.4923 36.7638 17.688C36.6216 17.766 36.4577 17.7949 36.2974 17.7703L35.0154 17.5734C34.8934 17.5546 34.77 17.5971 34.6854 17.687Z" fill="#FFC300"/><path d="M25.588 33.6517L24.306 33.8486C23.9035 33.9104 23.527 33.6342 23.4652 33.2317C23.4406 33.0714 23.4695 32.9074 23.5475 32.7652L24.1709 31.6279C24.2303 31.5197 24.2326 31.3892 24.177 31.279L23.5936 30.1206C23.4104 29.7569 23.5568 29.3135 23.9205 29.1303C24.0653 29.0574 24.2302 29.0342 24.3895 29.0644L25.6638 29.3059C25.7851 29.3289 25.9099 29.2908 25.9976 29.2039L26.919 28.2911C27.2083 28.0044 27.6752 28.0066 27.9618 28.2959C28.076 28.4111 28.1489 28.5608 28.1695 28.7216L28.3335 30.0082C28.3491 30.1306 28.424 30.2376 28.5337 30.2941L29.6866 30.8883C30.0486 31.0749 30.1908 31.5196 30.0042 31.8816C29.9299 32.0258 29.8102 32.1414 29.6635 32.2106L28.4906 32.7643C28.379 32.8169 28.3004 32.9212 28.2806 33.043L28.0717 34.3231C28.0061 34.725 27.6271 34.9977 27.2251 34.9321C27.0651 34.906 26.9181 34.8278 26.807 34.7097L25.918 33.7653C25.8334 33.6754 25.71 33.6329 25.588 33.6517Z" fill="#FFC300"/><path d="M33.8254 27.3739L32.6774 27.9775C32.317 28.167 31.8711 28.0284 31.6816 27.6679C31.6061 27.5244 31.5801 27.36 31.6075 27.2001L31.8267 25.9218C31.8476 25.8001 31.8073 25.676 31.7189 25.5899L30.7901 24.6845C30.4985 24.4003 30.4925 23.9334 30.7768 23.6418C30.89 23.5256 31.0383 23.4501 31.1988 23.4267L32.4823 23.2402C32.6045 23.2225 32.7101 23.1458 32.7647 23.0351L33.3387 21.872C33.5189 21.5068 33.9611 21.3569 34.3263 21.5371C34.4717 21.6089 34.5894 21.7266 34.6612 21.872L35.2352 23.0351C35.2898 23.1458 35.3954 23.2225 35.5176 23.2402L36.8011 23.4267C37.2041 23.4853 37.4834 23.8595 37.4248 24.2625C37.4015 24.423 37.3259 24.5713 37.2098 24.6845L36.281 25.5899C36.1926 25.676 36.1523 25.8001 36.1732 25.9218L36.3924 27.2001C36.4613 27.6015 36.1917 27.9827 35.7903 28.0516C35.6304 28.079 35.466 28.0529 35.3225 27.9775L34.1745 27.3739C34.0652 27.3165 33.9347 27.3165 33.8254 27.3739Z" fill="#FFC300"/><path d="M15.6122 25.2038L13.0611 26.545C12.26 26.9662 11.2692 26.6582 10.8481 25.8571C10.6804 25.5382 10.6225 25.1728 10.6834 24.8176L11.1706 21.9769C11.217 21.7065 11.1274 21.4307 10.931 21.2392L8.86706 19.2274C8.21898 18.5957 8.20572 17.5582 8.83744 16.9102C9.08899 16.6521 9.4186 16.4842 9.77523 16.4323L12.6275 16.0179C12.8989 15.9784 13.1336 15.808 13.2549 15.562L14.5305 12.9774C14.931 12.1659 15.9136 11.8327 16.7252 12.2332C17.0484 12.3927 17.3099 12.6543 17.4694 12.9774L18.745 15.562C18.8664 15.808 19.101 15.9784 19.3725 16.0179L22.2247 16.4323C23.1203 16.5625 23.7409 17.394 23.6107 18.2896C23.5589 18.6463 23.391 18.9759 23.1329 19.2274L21.069 21.2392C20.8726 21.4307 20.783 21.7065 20.8293 21.9769L21.3165 24.8176C21.4695 25.7096 20.8705 26.5567 19.9785 26.7097C19.6233 26.7706 19.2579 26.7127 18.9389 26.545L16.3878 25.2038C16.145 25.0762 15.855 25.0762 15.6122 25.2038Z" fill="#FFC300"/></g></g><defs><clipPath id="clip0_129_1024"><rect width="70" height="54" fill="white"/></clipPath><clipPath id="clip1_129_1024"><rect width="70" height="54" fill="white"/></clipPath></defs></svg>