<svg width="70" height="54" viewBox="0 0 70 54" fill="none" xmlns="http://www.w3.org/2000/svg"><g clip-path="url(#clip0_129_996)"><path d="M12.563 0H57.437C61.8054 0 63.3895 0.454846 64.9865 1.30895C66.5836 2.16305 67.8369 3.41642 68.691 5.01346C69.5452 6.61049 70 8.1946 70 12.563V41.437C70 45.8054 69.5452 47.3895 68.691 48.9865C67.8369 50.5836 66.5836 51.8369 64.9865 52.6911C63.3895 53.5452 61.8054 54 57.437 54H12.563C8.1946 54 6.61049 53.5452 5.01346 52.6911C3.41642 51.8369 2.16305 50.5836 1.30895 48.9865C0.454846 47.3895 0 45.8054 0 41.437V12.563C0 8.1946 0.454846 6.61049 1.30895 5.01346C2.16305 3.41642 3.41642 2.16305 5.01346 1.30895C6.61049 0.454846 8.1946 0 12.563 0Z" fill="#7AC70C"/><path d="M12.563 0H35V27C35 29.2091 33.2091 31 31 31H0V12.563C0 8.1946 0.454846 6.61049 1.30895 5.01346C2.16305 3.41642 3.41642 2.16306 5.01346 1.30895C6.61049 0.454846 8.1946 0 12.563 0Z" fill="#EEEEEE"/><path d="M16.5967 22.7119L13.1794 24.5085C12.138 25.056 10.85 24.6556 10.3025 23.6142C10.0845 23.1995 10.0093 22.7246 10.0885 22.2628L10.7411 18.4576C10.7893 18.1764 10.6961 17.8896 10.4919 17.6905L7.72721 14.9956C6.88472 14.1744 6.86748 12.8256 7.68871 11.9832C8.01573 11.6477 8.44422 11.4293 8.90785 11.362L12.7285 10.8068C13.0108 10.7658 13.2548 10.5885 13.3811 10.3327L15.0897 6.87059C15.6104 5.81555 16.8878 5.38238 17.9428 5.90307C18.3629 6.11041 18.703 6.45047 18.9103 6.87059L20.619 10.3327C20.7452 10.5885 20.9892 10.7658 21.2715 10.8068L25.0922 11.362C26.2565 11.5312 27.0632 12.6122 26.894 13.7764C26.8266 14.2401 26.6083 14.6686 26.2728 14.9956L23.5082 17.6905C23.3039 17.8896 23.2107 18.1764 23.2589 18.4576L23.9116 22.2628C24.1104 23.4224 23.3316 24.5237 22.172 24.7225C21.7103 24.8017 21.2353 24.7265 20.8206 24.5085L17.4033 22.7119C17.1508 22.5792 16.8492 22.5792 16.5967 22.7119Z" fill="#7AC70C"/></g><defs><clipPath id="clip0_129_996"><rect width="70" height="54" fill="white"/></clipPath></defs></svg>