<svg width="70" height="54" viewBox="0 0 70 54" fill="none" xmlns="http://www.w3.org/2000/svg"><path d="M0 15.68C0 10.1915 0 7.44723 1.06814 5.35089C2.00769 3.5069 3.5069 2.00769 5.35089 1.06814C7.44723 0 10.1915 0 15.68 0H54.32C59.8085 0 62.5528 0 64.6491 1.06814C66.4931 2.00769 67.9923 3.5069 68.9319 5.35089C70 7.44723 70 10.1915 70 15.68V38.32C70 43.8085 70 46.5528 68.9319 48.6491C67.9923 50.4931 66.4931 51.9923 64.6491 52.9319C62.5528 54 59.8085 54 54.32 54H15.68C10.1915 54 7.44723 54 5.35089 52.9319C3.5069 51.9923 2.00769 50.4931 1.06814 48.6491C0 46.5528 0 43.8085 0 38.32V15.68Z" fill="#EEEEEE"/><path fill-rule="evenodd" clip-rule="evenodd" d="M31 21H70V33H31V54H19V33H0V21H19V0H31V21Z" fill="#1899D6"/></svg>