<svg width="70" height="54" viewBox="0 0 70 54" fill="none" xmlns="http://www.w3.org/2000/svg"><g clip-path="url(#clip0_129_990)"><path d="M12.563 0H57.437C61.8054 0 63.3895 0.454846 64.9865 1.30895C66.5836 2.16305 67.8369 3.41642 68.691 5.01346C69.5452 6.61049 70 8.1946 70 12.563V41.437C70 45.8054 69.5452 47.3895 68.691 48.9865C67.8369 50.5836 66.5836 51.8369 64.9865 52.6911C63.3895 53.5452 61.8054 54 57.437 54H12.563C8.1946 54 6.61049 53.5452 5.01346 52.6911C3.41642 51.8369 2.16305 50.5836 1.30895 48.9865C0.454846 47.3895 0 45.8054 0 41.437V12.563C0 8.1946 0.454846 6.61049 1.30895 5.01346C2.16305 3.41642 3.41642 2.16305 5.01346 1.30895C6.61049 0.454846 8.1946 0 12.563 0Z" fill="#EEEEEE"/><path d="M12.563 0H35V30H0V12.563C0 8.1946 0.454846 6.61049 1.30895 5.01346C2.16305 3.41642 3.41642 2.16305 5.01346 1.30895C6.61049 0.454846 8.1946 0 12.563 0Z" fill="#1CB0F6"/><path d="M57.437 0C61.8054 0 63.3895 0.454846 64.9865 1.30895C66.5836 2.16305 67.8369 3.41642 68.691 5.01346C68.8631 5.3352 69.019 5.65643 69.1582 6H27V0H57.437Z" fill="#1CB0F6"/><path d="M69.9973 12C69.9991 12.1824 70 12.37 70 12.563V18H25V12H69.9973Z" fill="#1CB0F6"/><path d="M70 24V30H0V24H70Z" fill="#1CB0F6"/><path d="M70 36V41.437C70 41.63 69.9991 41.8176 69.9973 42H0.00265965C0.000888148 41.8176 0 41.63 0 41.437V36H70Z" fill="#1CB0F6"/><path d="M69.1582 48C69.019 48.3436 68.8631 48.6648 68.691 48.9865C67.8369 50.5836 66.5836 51.8369 64.9865 52.6911C63.3895 53.5452 61.8054 54 57.437 54H12.563C8.19459 54 6.61049 53.5452 5.01345 52.6911C3.41641 51.8369 2.16305 50.5836 1.30895 48.9865C1.13687 48.6648 0.981005 48.3436 0.841797 48H69.1582Z" fill="#1CB0F6"/><path d="M0 12H35V18H0V12Z" fill="#EEEEEE"/><path d="M14 0H20V32H14V0Z" fill="#EEEEEE"/></g><defs><clipPath id="clip0_129_990"><rect width="70" height="54" fill="white"/></clipPath></defs></svg>