<svg width="70" height="54" viewBox="0 0 70 54" fill="none" xmlns="http://www.w3.org/2000/svg"><g clip-path="url(#clip0_10285_14579)"><path d="M0 15.68C0 10.1915 0 7.44723 1.06814 5.35089C2.0077 3.5069 3.5069 2.0077 5.35089 1.06814C7.44723 0 10.1915 0 15.68 0H54.32C59.8085 0 62.5528 0 64.6491 1.06814C66.4931 2.0077 67.9923 3.5069 68.9319 5.35089C70 7.44723 70 10.1915 70 15.68V38.32C70 43.8085 70 46.5528 68.9319 48.6491C67.9923 50.4931 66.4931 51.9923 64.6491 52.9319C62.5528 54 59.8085 54 54.32 54H15.68C10.1915 54 7.44723 54 5.35089 52.9319C3.5069 51.9923 2.0077 50.4931 1.06814 48.6491C0 46.5528 0 43.8085 0 38.32V15.68Z" fill="#1CB0F6"/><path d="M15.68 54H54.32C59.8085 54 62.5528 54 64.6491 52.9319C66.4931 51.9923 67.9923 50.4931 68.9319 48.6491C70 46.5528 70 43.8085 70 38.32V27H0V38.32C0 43.8085 0 46.5528 1.06814 48.6491C2.00769 50.4931 3.5069 51.9923 5.35089 52.9319C7.44722 54 10.1915 54 15.68 54Z" fill="#FF4B4B"/><path d="M25.5 22.5C25.5 20.8431 26.8431 19.5 28.5 19.5H41.5C43.1569 19.5 44.5 20.8431 44.5 22.5V31.5C44.5 33.1569 43.1569 34.5 41.5 34.5H28.5C26.8431 34.5 25.5 33.1569 25.5 31.5V22.5Z" fill="white"/><path d="M37.7211 22.4976C38.3935 22.1535 39.2362 22.4662 39.2829 23.2201C39.2974 23.4533 39.2928 23.6881 39.2689 23.922C39.1971 24.624 38.9533 25.2975 38.559 25.8828C38.1648 26.4681 37.6323 26.9471 37.0087 27.2775C36.3851 27.6078 35.6896 27.7793 34.984 27.7766C34.2783 27.774 33.5841 27.5974 32.963 27.2624C32.3419 26.9274 31.813 26.4444 31.4231 25.8562C31.0333 25.268 30.7945 24.5927 30.7279 23.8902C30.7057 23.6559 30.7029 23.421 30.7191 23.1878C30.7715 22.4344 31.6163 22.1279 32.2861 22.4767L35 23.8902L37.7211 22.4976Z" fill="#47A600"/><path d="M34.0491 30.6724C34.427 31.0503 34.4309 31.675 33.9761 31.9557C33.324 32.3582 32.5676 32.5764 31.7888 32.5764C30.6844 32.5764 29.6252 32.1377 28.8442 31.3567C28.0632 30.5757 27.6245 29.5165 27.6245 28.4121C27.6245 27.6333 27.8427 26.8769 28.2452 26.2248C28.5259 25.77 29.1506 25.7739 29.5285 26.1518L34.0491 30.6724Z" fill="#1CB0F6"/><path d="M35.9509 30.6724C35.573 31.0503 35.5691 31.675 36.024 31.9557C36.6761 32.3582 37.4324 32.5764 38.2112 32.5764C39.3157 32.5764 40.3749 32.1377 41.1558 31.3567C41.9368 30.5757 42.3755 29.5165 42.3755 28.4121C42.3755 27.6333 42.1574 26.8769 41.7549 26.2248C41.4741 25.77 40.8495 25.7739 40.4715 26.1518L35.9509 30.6724Z" fill="#1CB0F6"/></g><defs><clipPath id="clip0_10285_14579"><rect width="70" height="54" fill="white"/></clipPath></defs></svg>