<svg width="70" height="54" viewBox="0 0 70 54" fill="none" xmlns="http://www.w3.org/2000/svg"><g clip-path="url(#clip0_129_1001)"><path d="M12.563 0H57.437C61.8054 0 63.3895 0.454846 64.9865 1.30895C66.5836 2.16306 67.8369 3.41642 68.6911 5.01346C69.5452 6.61049 70 8.1946 70 12.563V41.437C70 45.8054 69.5452 47.3895 68.6911 48.9865C67.8369 50.5836 66.5836 51.8369 64.9865 52.6911C63.3895 53.5452 61.8054 54 57.437 54H12.563C8.1946 54 6.61049 53.5452 5.01346 52.6911C3.41642 51.8369 2.16306 50.5836 1.30895 48.9865C0.454846 47.3895 0 45.8054 0 41.437V12.563C0 8.1946 0.454846 6.61049 1.30895 5.01346C2.16306 3.41642 3.41642 2.16306 5.01346 1.30895C6.61049 0.454846 8.1946 0 12.563 0Z" fill="#EEEEEE"/><path d="M0 12.563V18H70V12.563C70 11.097 69.9488 9.94457 69.8484 9H0.151572C0.0512242 9.94457 0 11.097 0 12.563Z" fill="#FF4B4B"/><path d="M70 18H0V27H70V18Z" fill="#1899D6"/><path d="M39 0H12.563C8.1946 0 6.61049 0.454846 5.01346 1.30895C3.41642 2.16306 2.16306 3.41642 1.30895 5.01346C0.454846 6.61049 0 8.1946 0 12.563V27H39V0Z" fill="#1899D6"/><path d="M1.8539 4.11857C2.66508 2.94266 3.72793 1.99646 5.01346 1.30895C5.30522 1.15291 5.59655 1.0102 5.9045 0.881159L14 6.76288V0H17V8.94251L19.4814 10.7453L22 8.91543V0H25V6.7358L34.271 0H39V2.74455L31.7665 8H39V11H27.6373L23.7346 13.8355L26.7138 16H39V19H30.8429L39 24.9264V27H33.3475L25 20.9352V27H22V18.7556L19.4814 16.9257L17 18.7285V27H14V20.9081L5.61523 27H0V24.8994L8.11978 19H0V16H12.2489L15.2281 13.8355L11.3254 11H0.0227599C0.0618703 9.76368 0.151116 8.79862 0.288415 8H7.19624L1.8539 4.11857Z" fill="#EEEEEE"/><path d="M69.8485 45C69.6498 46.8701 69.2586 47.9255 68.6911 48.9865C67.837 50.5836 66.5836 51.8369 64.9866 52.6911C63.3895 53.5452 61.8054 54 57.437 54H12.5631C8.19463 54 6.61053 53.5452 5.01349 52.6911C3.41645 51.8369 2.16309 50.5836 1.30899 48.9865C0.741512 47.9255 0.350286 46.8701 0.151611 45H69.8485Z" fill="#1899D6"/><path d="M70 41.437C70 42.903 69.9488 44.0554 69.8484 45H0.151577C0.0512258 44.0554 0 42.903 0 41.437V36H70V41.437Z" fill="#FF4B4B"/><path d="M22 11H39V16H22V27H17V16H0V11H17V0H22V11Z" fill="#FF4B4B"/></g><defs><clipPath id="clip0_129_1001"><rect width="70" height="54" fill="white"/></clipPath></defs></svg>