<svg width="70" height="54" viewBox="0 0 70 54" fill="none" xmlns="http://www.w3.org/2000/svg"><g clip-path="url(#clip0_129_1002)"><path d="M12.563 0H57.437C61.8054 0 63.3895 0.454846 64.9865 1.30895C66.5836 2.16305 67.8369 3.41642 68.691 5.01346C69.5452 6.61049 70 8.1946 70 12.563V41.437C70 45.8054 69.5452 47.3895 68.691 48.9865C67.8369 50.5836 66.5836 51.8369 64.9865 52.6911C63.3895 53.5452 61.8054 54 57.437 54H12.563C8.1946 54 6.61049 53.5452 5.01346 52.6911C3.41642 51.8369 2.16305 50.5836 1.30895 48.9865C0.454846 47.3895 0 45.8054 0 41.437V12.563C0 8.1946 0.454846 6.61049 1.30895 5.01346C2.16305 3.41642 3.41642 2.16305 5.01346 1.30895C6.61049 0.454846 8.1946 0 12.563 0Z" fill="#EEEEEE"/><path d="M69.9973 42C69.959 45.9454 69.5074 47.4601 68.691 48.9865C68.5012 49.3415 68.2916 49.6796 68.0629 50H1.93706C1.70836 49.6796 1.49877 49.3415 1.30892 48.9865C0.492552 47.4601 0.0409425 45.9454 0.00262451 42H69.9973Z" fill="#1CB0F6"/><path d="M68.0629 4C68.2916 4.32043 68.5012 4.65845 68.691 5.01346C69.5074 6.53992 69.959 8.05457 69.9973 12H0.00262451C0.0409425 8.05457 0.492552 6.53992 1.30892 5.01346C1.49877 4.65845 1.70836 4.32043 1.93706 4H68.0629Z" fill="#1CB0F6"/><path d="M35.5283 17.015C35.5256 17.0107 35.5219 17.007 35.5176 17.0043C35.5019 16.9946 35.4814 16.9994 35.4717 17.015L26.2831 31.8029C26.2798 31.8081 26.2781 31.8142 26.2781 31.8204C26.2781 31.8389 26.293 31.8538 26.3114 31.8538H44.6885C44.6948 31.8538 44.7008 31.852 44.7061 31.8488C44.7218 31.839 44.7266 31.8185 44.7169 31.8029L35.5283 17.015ZM37.7367 15.6428L46.9253 30.4306C47.6928 31.6659 47.3136 33.2896 46.0783 34.0572C45.6611 34.3164 45.1797 34.4538 44.6885 34.4538H26.3114C24.8571 34.4538 23.6781 33.2748 23.6781 31.8204C23.6781 31.3293 23.8155 30.8479 24.0747 30.4306L33.2633 15.6428C34.0308 14.4075 35.6545 14.0283 36.8898 14.7959C37.2334 15.0094 37.5232 15.2992 37.7367 15.6428Z" fill="#1CB0F6"/><path d="M35.472 36.6839C35.4747 36.6882 35.4784 36.6919 35.4828 36.6946C35.4984 36.7043 35.5189 36.6995 35.5287 36.6839L44.7172 21.896C44.7205 21.8908 44.7222 21.8847 44.7222 21.8785C44.7222 21.86 44.7073 21.8451 44.6889 21.8451H26.3118C26.3056 21.8451 26.2995 21.8469 26.2942 21.8501C26.2786 21.8599 26.2738 21.8804 26.2835 21.896L35.472 36.6839ZM33.2636 38.0561L24.0751 23.2683C23.3075 22.033 23.6867 20.4093 24.922 19.6417C25.3392 19.3825 25.8206 19.2451 26.3118 19.2451H44.6889C46.1433 19.2451 47.3222 20.4241 47.3222 21.8785C47.3222 22.3696 47.1849 22.851 46.9256 23.2683L37.7371 38.0561C36.9695 39.2914 35.3458 39.6706 34.1105 38.903C33.7669 38.6895 33.4771 38.3997 33.2636 38.0561Z" fill="#1CB0F6"/></g><defs><clipPath id="clip0_129_1002"><rect width="70" height="54" fill="white"/></clipPath></defs></svg>