<svg width="70" height="54" viewBox="0 0 70 54" fill="none" xmlns="http://www.w3.org/2000/svg"><g clip-path="url(#clip0_129_1005)"><path d="M12.563 0H57.437C61.8054 0 63.3895 0.454846 64.9865 1.30895C66.5836 2.16305 67.8369 3.41642 68.691 5.01346C69.5452 6.61049 70 8.1946 70 12.563V41.437C70 45.8054 69.5452 47.3895 68.691 48.9865C67.8369 50.5836 66.5836 51.8369 64.9865 52.6911C63.3895 53.5452 61.8054 54 57.437 54H12.563C8.1946 54 6.61049 53.5452 5.01346 52.6911C3.41642 51.8369 2.16305 50.5836 1.30895 48.9865C0.454846 47.3895 0 45.8054 0 41.437V12.563C0 8.1946 0.454846 6.61049 1.30895 5.01346C2.16305 3.41642 3.41642 2.16305 5.01346 1.30895C6.61049 0.454846 8.1946 0 12.563 0Z" fill="#4B4B4B"/><path d="M35.1008 9.98018L40.7595 7.19279C41.4031 6.87573 42.1409 7.40248 42.0499 8.1142L41.6813 11H46.9999C56.941 11 64.9999 19.0588 64.9999 29C64.9999 38.9411 56.941 47 46.9999 47H40.4761C38.5598 47 36.9999 48.5634 36.9999 50.5C36.9999 52.4365 38.5598 54 40.4761 54H49.9999H23.3496C23.1203 52.869 22.9999 51.6985 22.9999 50.5C22.9999 40.8385 30.8207 33 40.4761 33H46.9999C49.2091 33 50.9999 31.2091 50.9999 29C50.9999 26.7908 49.2091 25 46.9999 25H38.2644L38.8238 27.0909C38.9726 27.6471 38.5682 28.198 37.993 28.2227L30.8668 28.5288L32.1733 30.4903C32.5589 31.0693 32.1701 31.8481 31.4756 31.8878L20.9231 32.4906C19.531 32.5702 18.1934 32.2513 17.034 31.6234L14.2642 33.045C13.8099 33.2782 13.2528 33.0871 13.0373 32.6242C10.6786 27.5581 12.2717 21.5302 16.8253 18.2909L33.5973 6.35972C34.1837 5.94254 34.9983 6.3483 35.0186 7.0677L35.1008 9.98018Z" fill="#FF4B4B"/><path d="M13.4813 38.8223L8.28516 41.8223C7.80687 42.0984 7.19528 41.9345 6.91913 41.4562C5.81457 39.5431 6.47007 37.0967 8.38324 35.9921C10.2964 34.8876 12.7428 35.5431 13.8473 37.4562C14.1235 37.9345 13.9596 38.5461 13.4813 38.8223Z" fill="#FF9600"/><path d="M10.488 37.975L16.5501 34.475C17.0284 34.1988 17.64 34.3627 17.9162 34.841C19.0207 36.7542 18.3652 39.2005 16.4521 40.3051L15.586 40.8051C13.6729 41.9097 11.2265 41.2542 10.1219 39.341C9.84579 38.8627 10.0097 38.2511 10.488 37.975Z" fill="#FFC300"/><path d="M7.49992 45.134L10.964 43.134C11.4423 42.8579 12.0539 43.0218 12.33 43.5C13.1585 44.9349 12.6669 46.7697 11.232 47.5981C9.7971 48.4265 7.96232 47.9349 7.1339 46.5C6.85776 46.0218 7.02163 45.4102 7.49992 45.134Z" fill="#FFC300"/><path d="M19.9275 21.8149L23.7459 17.9905C24.0975 17.6384 24.6681 17.6384 25.0197 17.9905C26.0738 19.0463 26.0738 20.7562 25.0197 21.8119L23.7469 23.0867C22.6939 24.1414 20.9852 24.1427 19.9305 23.0897L19.9275 23.0867C19.5767 22.7353 19.5767 22.1663 19.9275 21.8149Z" fill="#FFC300"/></g><defs><clipPath id="clip0_129_1005"><rect width="70" height="54" fill="white"/></clipPath></defs></svg>