<svg width="70" height="54" viewBox="0 0 70 54" fill="none" xmlns="http://www.w3.org/2000/svg"><g clip-path="url(#clip0_129_1009)"><path d="M12.563 0H57.437C61.8054 0 63.3895 0.454846 64.9865 1.30895C66.5836 2.16305 67.8369 3.41642 68.691 5.01346C69.5452 6.61049 70 8.1946 70 12.563V41.437C70 45.8054 69.5452 47.3895 68.691 48.9865C67.8369 50.5836 66.5836 51.8369 64.9865 52.6911C63.3895 53.5452 61.8054 54 57.437 54H12.563C8.1946 54 6.61049 53.5452 5.01346 52.6911C3.41642 51.8369 2.16305 50.5836 1.30895 48.9865C0.454846 47.3895 0 45.8054 0 41.437L0 12.563C0 8.1946 0.454846 6.61049 1.30895 5.01346C2.16305 3.41642 3.41642 2.16305 5.01346 1.30895C6.61049 0.454846 8.1946 0 12.563 0Z" fill="#FF4B4B"/><path d="M35 43C43.8366 43 51 35.8366 51 27C51 18.1634 43.8366 11 35 11C26.1634 11 19 18.1634 19 27C19 35.8366 26.1634 43 35 43Z" fill="#EEEEEE"/><path d="M36.8383 9.39808L41.7737 26.2151C42.0504 27.1582 41.7929 28.1772 41.1012 28.8754L37.0295 32.9864C35.9802 34.0458 34.2707 34.054 33.2112 33.0047C33.2051 32.9986 33.199 32.9925 33.1929 32.9864L29.1211 28.8755C28.4294 28.1772 28.1719 27.1582 28.4486 26.2151L33.384 9.39808C33.6639 8.4442 34.6641 7.89786 35.618 8.1778C36.206 8.35035 36.6657 8.81014 36.8383 9.39808Z" fill="#4B4B4B"/><path d="M26.902 30.121C27.4201 30.725 31.3162 34.6416 31.9498 35.2081C32.893 36.0515 32.2619 37.6126 30.9974 37.5634C28.1527 37.4528 25.7091 38.3921 23.6486 40.041C22.9612 40.5911 22.3691 41.181 21.8758 41.7681C21.5876 42.1112 21.4023 42.3675 21.3225 42.4931C20.8935 43.1684 19.9746 43.3246 19.3466 42.8289C15.3235 39.6538 18.3626 31.6814 25.5168 29.699C26.0213 29.5592 26.5611 29.7237 26.902 30.121Z" fill="#4B4B4B"/><path d="M38.1442 36.6556C38.0533 36.5402 37.9468 36.3966 37.8147 36.2186C37.6691 35.6699 37.895 35.1997 38.2658 34.9298C38.2942 34.903 38.333 34.8657 38.3804 34.8195C38.5176 34.6858 38.719 34.4854 38.9868 34.2163C39.219 33.9829 39.4957 33.7034 39.8576 33.3369C40.0758 33.1158 40.3474 32.8404 40.8598 32.3209L40.8764 32.3041C42.5075 30.6507 43.2689 29.8885 43.5891 29.602C44.2293 29.0292 45.2455 29.2835 45.5404 30.0903C46.3177 32.2166 47.7533 33.7252 49.6136 34.7364C50.2719 35.0943 50.9363 35.3621 51.5695 35.5515C51.9396 35.6622 52.2067 35.7206 52.3332 35.7402C53.1201 35.8623 53.5788 36.6958 53.2609 37.4259C52.4231 39.35 50.0322 40.8287 47.3177 41.0397C44.1443 41.2863 40.8779 39.8701 38.0798 36.7128L38.1442 36.6556ZM39.2384 34.7094C39.3023 34.7225 39.3657 34.7412 39.4281 34.7658C39.3693 34.7361 39.3083 34.7188 39.2384 34.7094Z" fill="#4B4B4B"/></g><defs><clipPath id="clip0_129_1009"><rect width="70" height="54" fill="white"/></clipPath></defs></svg>