<svg width="70" height="54" viewBox="0 0 70 54" fill="none" xmlns="http://www.w3.org/2000/svg"><g clip-path="url(#clip0_129_1010)"><g clip-path="url(#clip1_129_1010)"><path fill-rule="evenodd" clip-rule="evenodd" d="M12.563 0H57.437C61.8054 0 63.3895 0.454845 64.9865 1.30895C66.5836 2.16305 67.837 3.41642 68.6911 5.01346C69.5452 6.61049 70 8.1946 70 12.563V41.437C70 45.8054 69.5452 47.3895 68.6911 48.9865C67.837 50.5836 66.5836 51.8369 64.9865 52.691C63.3895 53.5452 61.8054 54 57.437 54H12.563C8.1946 54 6.61049 53.5452 5.01346 52.691C3.41642 51.8369 2.16305 50.5836 1.30895 48.9865C0.454845 47.3895 0 45.8054 0 41.437V12.563C0 8.1946 0.454845 6.61049 1.30895 5.01346C2.16305 3.41642 3.41642 2.16305 5.01346 1.30895C6.61049 0.454845 8.1946 0 12.563 0Z" fill="#EEEEEE"/><path d="M27.2043 37.1042C32.7847 41.4096 40.7988 40.376 45.1042 34.7955C49.4096 29.2151 48.376 21.2011 42.7955 16.8956C37.2151 12.5902 29.2011 13.6238 24.8956 19.2043C20.5902 24.7847 21.6238 32.7988 27.2043 37.1042Z" fill="#FF4B4B"/><path d="M27.2043 37.1041C21.8492 32.9725 20.6811 25.4259 24.4001 19.8918C22.4308 22.7948 23.246 26.8728 26.1737 28.8068C29.1141 30.7493 33.0725 29.9403 35.015 26.9998C36.9594 24.0661 40.9186 23.2521 43.8563 25.1928C46.7968 27.1353 47.6058 31.0936 45.6634 34.0341C45.5585 34.1929 45.4477 34.3454 45.3316 34.4917C45.2575 34.5937 45.1817 34.695 45.1042 34.7954C40.7988 40.3759 32.7847 41.4095 27.2043 37.1041Z" fill="#1254A9"/><path d="M11.9836 22.0715C11.4671 21.638 11.3997 20.8679 11.8331 20.3513L19.9053 10.7313C20.3388 10.2147 21.1089 10.1473 21.6254 10.5808C22.142 11.0142 22.2094 11.7844 21.7759 12.3009L13.7038 21.921C13.2703 22.4375 12.5002 22.5049 11.9836 22.0715Z" fill="#4C4C4C"/><path d="M9.08871 19.6422C8.57215 19.2087 8.50477 18.4386 8.93822 17.922L17.0104 8.30199C17.4438 7.78543 18.214 7.71805 18.7305 8.15149C19.2471 8.58494 19.3145 9.35507 18.881 9.87163L10.8088 19.4917C10.3754 20.0082 9.60527 20.0756 9.08871 19.6422Z" fill="#4C4C4C"/><path d="M6.19359 17.2129C5.67704 16.7794 5.60966 16.0093 6.0431 15.4927L14.1153 5.87269C14.5487 5.35614 15.3189 5.28876 15.8354 5.7222C16.352 6.15565 16.4193 6.92578 15.9859 7.44234L7.91373 17.0624C7.48028 17.5789 6.71015 17.6463 6.19359 17.2129Z" fill="#4C4C4C"/><path d="M51.2698 8.15149C51.7863 7.71805 52.5565 7.78543 52.9899 8.30199L61.0621 17.922C61.4955 18.4386 61.4281 19.2087 60.9116 19.6422C60.395 20.0756 59.6249 20.0082 59.1914 19.4917L51.1193 9.87163C50.6858 9.35507 50.7532 8.58494 51.2698 8.15149Z" fill="#4C4C4C"/><path d="M52.7368 15.779C53.2534 15.3455 53.3207 14.5754 52.8873 14.0588L50.095 10.7311C49.6615 10.2145 48.8914 10.1472 48.3748 10.5806C47.8583 11.014 47.7909 11.7842 48.2244 12.3007L51.0167 15.6285C51.4501 16.145 52.2202 16.2124 52.7368 15.779Z" fill="#4C4C4C"/><path d="M53.6547 16.8729C53.1382 17.3064 53.0708 18.0765 53.5042 18.593L56.2965 21.9208C56.73 22.4373 57.5001 22.5047 58.0167 22.0713C58.5332 21.6378 58.6006 20.8677 58.1672 20.3511L55.3748 17.0234C54.9414 16.5068 54.1713 16.4395 53.6547 16.8729Z" fill="#4C4C4C"/><path d="M58.5266 10.9207C59.0432 10.4873 59.1105 9.71714 58.6771 9.20058L55.8848 5.87288C55.4514 5.35632 54.6812 5.28894 54.1647 5.72239C53.6481 6.15583 53.5808 6.92596 54.0142 7.44252L56.8065 10.7702C57.2399 11.2868 58.01 11.3542 58.5266 10.9207Z" fill="#4C4C4C"/><path d="M59.4445 12.0146C58.928 12.4481 58.8606 13.2182 59.294 13.7348L62.0864 17.0626C62.5198 17.5791 63.2899 17.6465 63.8065 17.2131C64.3231 16.7796 64.3904 16.0095 63.957 15.4929L61.1647 12.1651C60.7312 11.6486 59.9611 11.5812 59.4445 12.0146Z" fill="#4C4C4C"/><path d="M6.19359 36.7872C6.71015 36.3538 7.48028 36.4212 7.91373 36.9377L15.9859 46.5578C16.4193 47.0743 16.352 47.8445 15.8354 48.2779C15.3189 48.7113 14.5487 48.644 14.1153 48.1274L6.0431 38.5074C5.60966 37.9908 5.67704 37.2207 6.19359 36.7872Z" fill="#4C4C4C"/><path d="M11.9836 31.9288C12.5002 31.4954 13.2703 31.5628 13.7038 32.0793L21.7759 41.6994C22.2094 42.2159 22.142 42.9861 21.6254 43.4195C21.1089 43.8529 20.3388 43.7856 19.9053 43.269L11.8331 33.649C11.3997 33.1324 11.4671 32.3623 11.9836 31.9288Z" fill="#4C4C4C"/><path d="M13.4508 39.5563C13.9674 39.1228 14.0348 38.3527 13.6013 37.8361L10.809 34.5084C10.3756 33.9919 9.60547 33.9245 9.08891 34.3579C8.57235 34.7914 8.50497 35.5615 8.93841 36.0781L11.7307 39.4058C12.1641 39.9223 12.9343 39.9897 13.4508 39.5563Z" fill="#4C4C4C"/><path d="M14.3688 40.6502C13.8522 41.0837 13.7848 41.8538 14.2183 42.3703L17.0106 45.6981C17.444 46.2147 18.2142 46.2821 18.7307 45.8486C19.2473 45.4152 19.3147 44.645 18.8812 44.1285L16.0889 40.8007C15.6554 40.2842 14.8853 40.2168 14.3688 40.6502Z" fill="#4C4C4C"/><path d="M58.5268 43.0796C58.0102 42.6461 57.2401 42.7135 56.8067 43.2301L54.0144 46.5578C53.5809 47.0743 53.6483 47.8445 54.1649 48.2779C54.6814 48.7113 55.4516 48.644 55.885 48.1274L58.6773 44.7997C59.1107 44.2832 59.0433 43.513 58.5268 43.0796Z" fill="#4C4C4C"/><path d="M59.4447 41.9856C59.9613 42.4191 60.7314 42.3517 61.1648 41.8352L63.9572 38.5074C64.3906 37.9908 64.3233 37.2207 63.8067 36.7872C63.2901 36.3538 62.52 36.4212 62.0866 36.9377L59.2942 40.2655C58.8608 40.7821 58.9282 41.5522 59.4447 41.9856Z" fill="#4C4C4C"/><path d="M55.6317 40.6501C55.1152 40.2166 54.345 40.284 53.9116 40.8006L51.1193 44.1283C50.6858 44.6449 50.7532 45.415 51.2698 45.8484C51.7863 46.2819 52.5565 46.2145 52.9899 45.6979L55.7822 42.3702C56.2157 41.8536 56.1483 41.0835 55.6317 40.6501Z" fill="#4C4C4C"/><path d="M56.5496 39.5561C57.0662 39.9896 57.8363 39.9222 58.2698 39.4056L61.0621 36.0779C61.4955 35.5613 61.4281 34.7912 60.9116 34.3578C60.395 33.9243 59.6249 33.9917 59.1915 34.5083L56.3991 37.836C55.9657 38.3526 56.0331 39.1227 56.5496 39.5561Z" fill="#4C4C4C"/><path d="M52.7368 38.221C52.2202 37.7875 51.4501 37.8549 51.0167 38.3715L48.2244 41.6992C47.7909 42.2157 47.8583 42.9859 48.3748 43.4193C48.8914 43.8528 49.6615 43.7854 50.095 43.2688L52.8873 39.9411C53.3207 39.4245 53.2533 38.6544 52.7368 38.221Z" fill="#4C4C4C"/><path d="M53.6547 37.127C54.1713 37.5605 54.9414 37.4931 55.3748 36.9765L58.1672 33.6488C58.6006 33.1322 58.5332 32.3621 58.0167 31.9287C57.5001 31.4952 56.73 31.5626 56.2965 32.0791L53.5042 35.4069C53.0708 35.9234 53.1382 36.6936 53.6547 37.127Z" fill="#4C4C4C"/></g></g><defs><clipPath id="clip0_129_1010"><rect width="70" height="54" fill="white"/></clipPath><clipPath id="clip1_129_1010"><rect width="70" height="54" fill="white"/></clipPath></defs></svg>