<svg width="70" height="54" viewBox="0 0 70 54" fill="none" xmlns="http://www.w3.org/2000/svg"><g clip-path="url(#clip0_10285_14580)"><path d="M0 15.68C0 10.1915 0 7.44723 1.06814 5.35089C2.0077 3.50691 3.50691 2.0077 5.35089 1.06814C7.44723 0 10.1915 0 15.68 0H54.32C59.8085 0 62.5528 0 64.6491 1.06814C66.4931 2.0077 67.9923 3.50691 68.9319 5.35089C70 7.44723 70 10.1915 70 15.68V38.32C70 43.8085 70 46.5528 68.9319 48.6491C67.9923 50.4931 66.4931 51.9923 64.6491 52.9319C62.5528 54 59.8085 54 54.32 54H15.68C10.1915 54 7.44723 54 5.35089 52.9319C3.50691 51.9923 2.0077 50.4931 1.06814 48.6491C0 46.5528 0 43.8085 0 38.32V15.68Z" fill="#FF4B4B"/><path fill-rule="evenodd" clip-rule="evenodd" d="M19.1829 20.9433C19.3433 20.2151 20.0635 19.7548 20.7917 19.9152C21.5198 20.0755 21.9801 20.7958 21.8197 21.5239C21.6163 22.448 21.5087 23.4093 21.5087 24.3973C21.5087 25.6184 21.673 26.7989 21.9798 27.919C22.1768 28.6381 21.7535 29.3807 21.0344 29.5777C20.3153 29.7747 19.5727 29.3514 19.3757 28.6323C19.0058 27.2819 18.8087 25.8616 18.8087 24.3973C18.8087 23.2128 18.9377 22.0568 19.1829 20.9433ZM24.7793 35.1585C25.2357 34.5689 26.0836 34.461 26.6732 34.9174C28.9211 36.6576 31.7397 37.6925 34.8039 37.6925C34.8457 37.6925 34.8875 37.6945 34.9292 37.6983C34.9713 37.7009 34.9926 37.7057 34.9827 37.7044L34.986 37.7049L34.9876 37.7051L34.9887 37.7052L34.9977 37.7065L35.0157 37.7091C35.0325 37.7115 35.0547 37.7149 35.0823 37.7192C35.1375 37.728 35.214 37.7409 35.3099 37.7589C35.5016 37.7947 35.7715 37.8508 36.104 37.9343C36.7681 38.1012 37.6877 38.379 38.7373 38.8275C40.8324 39.7229 43.4846 41.3158 45.6315 44.0993C46.0868 44.6897 45.9773 45.5375 45.3869 45.9928C44.7965 46.4481 43.9488 46.3387 43.4935 45.7483C41.7033 43.4272 39.4762 42.0795 37.6763 41.3103C36.7784 40.9266 35.9966 40.6912 35.4461 40.5529C35.1713 40.4839 34.9556 40.4394 34.8136 40.4129C34.7666 40.4041 34.7277 40.3972 34.6975 40.3922C31.0552 40.3684 27.6986 39.1257 25.0204 37.0524C24.4308 36.596 24.3229 35.7481 24.7793 35.1585Z" fill="#FFD300"/><path d="M22.8276 16.1105L22.8782 15.532C23.1887 11.9825 26.318 9.35673 29.8675 9.66727L30.446 9.71788L30.3954 10.2963C30.0848 13.8459 26.9556 16.4716 23.406 16.1611L22.8276 16.1105Z" fill="#FFD300"/><path d="M19.467 23.2852L18.8654 22.798C16.0963 20.5556 15.6693 16.493 17.9117 13.724L18.3989 13.1223L19.0005 13.6095C21.7696 15.8519 22.1966 19.9144 19.9543 22.6835L19.467 23.2852Z" fill="#FFD300"/><path d="M25.8726 36.9751L25.1363 37.2143C21.7475 38.3154 18.1078 36.4608 17.0068 33.0721L16.7675 32.3358L17.5038 32.0966C20.8926 30.9955 24.5323 32.85 25.6333 36.2388L25.8726 36.9751Z" fill="#FFD300"/><path d="M26.9777 36.8861L27.3411 36.2025C29.0139 33.0565 27.8196 29.15 24.6735 27.4772L23.99 27.1138L23.6265 27.7973C21.9537 30.9434 23.148 34.8498 26.2941 36.5226L26.9777 36.8861Z" fill="#FFD300"/><path d="M19.0459 24.569L19.1536 23.8023C19.6495 20.2739 22.9119 17.8155 26.4404 18.3114L27.207 18.4191L27.0993 19.1858C26.6034 22.7142 23.341 25.1726 19.8126 24.6767L19.0459 24.569Z" fill="#FFD300"/><path fill-rule="evenodd" clip-rule="evenodd" d="M49.2083 19.9152C49.9365 19.7548 50.6567 20.2151 50.817 20.9433C51.0623 22.0568 51.1913 23.2128 51.1913 24.3973C51.1913 25.8616 50.9941 27.2819 50.6243 28.6323C50.4273 29.3514 49.6847 29.7747 48.9656 29.5777C48.2465 29.3807 47.8232 28.6381 48.0202 27.919C48.327 26.7989 48.4913 25.6184 48.4913 24.3973C48.4913 23.4093 48.3837 22.448 48.1802 21.5239C48.0199 20.7958 48.4802 20.0755 49.2083 19.9152ZM35.0708 37.6983C35.1124 37.6945 35.1543 37.6925 35.1961 37.6925C38.2603 37.6925 41.0789 36.6576 43.3268 34.9174C43.9164 34.461 44.7643 34.5689 45.2207 35.1585C45.6771 35.7481 45.5692 36.596 44.9796 37.0524C42.3014 39.1257 38.9448 40.3684 35.3025 40.3922C35.2723 40.3972 35.2334 40.4041 35.1864 40.4128C35.0444 40.4394 34.8287 40.4839 34.5539 40.5529C34.0034 40.6912 33.2216 40.9266 32.3237 41.3103C30.5238 42.0795 28.2967 43.4272 26.5065 45.7483C26.0512 46.3387 25.2034 46.4481 24.6131 45.9928C24.0227 45.5375 23.9132 44.6897 24.3685 44.0993C26.5154 41.3158 29.1676 39.7228 31.2627 38.8275C32.3123 38.379 33.2319 38.1012 33.896 37.9343C34.2285 37.8508 34.4984 37.7947 34.6901 37.7589C34.786 37.7409 34.8625 37.728 34.9177 37.7192C34.9453 37.7148 34.9676 37.7115 34.9843 37.709L34.9866 37.7087L35.0023 37.7065L35.0063 37.7059L35.011 37.7053L35.0134 37.7049L35.0166 37.7045C35.0069 37.7058 35.0287 37.7009 35.0708 37.6983Z" fill="#FFD300"/><path d="M47.1724 16.1105L47.1217 15.532C46.8112 11.9825 43.682 9.35673 40.1324 9.66727L39.554 9.71788L39.6046 10.2963C39.9151 13.8459 43.0444 16.4716 46.5939 16.1611L47.1724 16.1105Z" fill="#FFD300"/><path d="M50.533 23.2852L51.1346 22.798C53.9037 20.5556 54.3307 16.493 52.0884 13.724L51.6011 13.1223L50.9995 13.6095C48.2304 15.8519 47.8034 19.9144 50.0458 22.6835L50.533 23.2852Z" fill="#FFD300"/><path d="M44.1274 36.9751L44.8637 37.2143C48.2524 38.3154 51.8921 36.4608 52.9932 33.0721L53.2324 32.3358L52.4961 32.0966C49.1074 30.9955 45.4677 32.85 44.3666 36.2388L44.1274 36.9751Z" fill="#FFD300"/><path d="M43.0223 36.8861L42.6588 36.2025C40.986 33.0565 42.1803 29.15 45.3264 27.4772L46.01 27.1138L46.3734 27.7973C48.0462 30.9434 46.8519 34.8498 43.7058 36.5226L43.0223 36.8861Z" fill="#FFD300"/><path d="M50.954 24.569L50.8463 23.8023C50.3504 20.2739 47.088 17.8155 43.5596 18.3114L42.7929 18.4191L42.9007 19.1858C43.3965 22.7142 46.6589 25.1726 50.1874 24.6767L50.954 24.569Z" fill="#FFD300"/></g><defs><clipPath id="clip0_10285_14580"><rect width="70" height="54" fill="white"/></clipPath></defs></svg>