<svg width="70" height="54" viewBox="0 0 70 54" fill="none" xmlns="http://www.w3.org/2000/svg"><g clip-path="url(#clip0_32150_152)"><path d="M0 15.68C0 10.1915 0 7.44723 1.06814 5.35089C2.0077 3.5069 3.5069 2.0077 5.35089 1.06814C7.44723 0 10.1915 0 15.68 0H54.32C59.8085 0 62.5528 0 64.6491 1.06814C66.4931 2.0077 67.9923 3.5069 68.9319 5.35089C70 7.44723 70 10.1915 70 15.68V38.32C70 43.8085 70 46.5528 68.9319 48.6491C67.9923 50.4931 66.4931 51.9923 64.6491 52.9319C62.5528 54 59.8085 54 54.32 54H15.68C10.1915 54 7.44723 54 5.35089 52.9319C3.5069 51.9923 2.0077 50.4931 1.06814 48.6491C0 46.5528 0 43.8085 0 38.32V15.68Z" fill="#1CB0F6"/><path d="M16.6465 32.4541C15.9086 32.4541 15.2666 32.6824 14.7716 33.1323L14.7686 33.1351C14.2015 33.655 14 34.316 14 34.9961C14 35.631 14.1771 36.3437 14.7691 36.8583C15.2971 37.3668 15.9671 37.5381 16.6465 37.5381H27.4804C28.1672 37.5381 28.8196 37.3502 29.3568 36.8585C29.8919 36.3712 30.1269 35.6883 30.1269 34.9961C30.1269 34.2738 29.874 33.6494 29.3897 33.1652L29.3576 33.1331L29.3228 33.104C28.8281 32.6918 28.2091 32.4541 27.4804 32.4541H16.6465Z" fill="white"/><path d="M16.6465 39.9426C15.9086 39.9426 15.2666 40.1709 14.7716 40.6208L14.7686 40.6236C14.2015 41.1434 14 41.8044 14 42.4846C14 43.1195 14.1771 43.8322 14.7691 44.3468C15.2971 44.8553 15.9671 45.0266 16.6465 45.0266H27.4804C28.1672 45.0266 28.8196 44.8386 29.3568 44.3469C29.8919 43.8596 30.1269 43.1768 30.1269 42.4846C30.1269 41.7623 29.874 41.1379 29.3897 40.6536L29.3576 40.6216L29.3228 40.5925C28.8281 40.1803 28.2091 39.9426 27.4804 39.9426H16.6465Z" fill="white"/><path fill-rule="evenodd" clip-rule="evenodd" d="M39.7443 17.415C39.7443 16.0343 40.8636 14.915 42.2443 14.915H53.26C54.6408 14.915 55.76 16.0343 55.76 17.415C55.76 18.7958 54.6408 19.915 53.26 19.915H42.2443C40.8636 19.915 39.7443 18.7958 39.7443 17.415Z" fill="white"/><path d="M22.5652 9.5C21.863 9.5 21.2353 9.73735 20.7693 10.2411C20.2652 10.7495 20.0762 11.3781 20.0762 12.1195V15.1411H17.0545C16.2947 15.1411 15.6806 15.3725 15.2182 15.7929L15.2167 15.7943C14.6987 16.2692 14.5002 16.8732 14.5002 17.565C14.5002 18.2331 14.6859 18.8833 15.217 19.3365C15.6964 19.8061 16.3252 19.9889 17.0545 19.9889H20.0762V23.0105C20.0762 23.7439 20.261 24.4084 20.7693 24.9215C21.2483 25.4389 21.8862 25.63 22.5652 25.63C23.2622 25.63 23.8537 25.4291 24.3535 24.9292L24.3612 24.9215L24.3686 24.9135C24.8239 24.4168 25.0543 23.7685 25.0543 23.0105V19.9889H28.076C28.7906 19.9889 29.4099 19.7972 29.913 19.3364C30.3955 18.8973 30.6302 18.2628 30.6302 17.565C30.6302 16.8521 30.3865 16.2664 29.9295 15.8093L29.9134 15.7933L29.896 15.7788C29.4142 15.3772 28.8116 15.1411 28.076 15.1411H25.0543V12.1195C25.0543 11.3537 24.8192 10.7407 24.3686 10.2491L24.3612 10.2411L24.3535 10.2334C23.8683 9.74814 23.2845 9.5 22.5652 9.5Z" fill="white"/><path d="M41.677 31.9636C42.1211 31.4751 42.7363 31.2227 43.4393 31.2227C44.1543 31.2227 44.8138 31.579 45.3765 32.1042L45.3828 32.1101L48.0576 34.7849L50.6924 32.1501C51.2335 31.609 51.8971 31.2566 52.642 31.2566C53.3159 31.2566 53.9293 31.5124 54.3703 31.9976C54.7814 32.4498 55.0436 33.0075 55.0436 33.6922C55.0436 34.3831 54.6763 35.0081 54.1728 35.5836L54.1619 35.5961L51.5153 38.2427L54.1902 40.9175L54.196 40.9238C54.7139 41.4786 55.0776 42.1047 55.0776 42.827C55.0776 43.5029 54.8218 44.0963 54.4042 44.5557C53.9487 45.0568 53.3252 45.2627 52.6759 45.2627C51.9475 45.2627 51.2783 44.958 50.7205 44.3633L48.0576 41.7004L45.4228 44.3352C44.8403 44.9176 44.1758 45.2287 43.4732 45.2287C42.795 45.2287 42.1692 45.0258 41.711 44.5217C41.2783 44.0458 41.0716 43.446 41.0716 42.7931C41.0716 42.1503 41.3898 41.4907 41.9539 40.889L41.9594 40.8831L44.5999 38.2427L41.937 35.5798C41.3457 35.0251 41.0376 34.357 41.0376 33.6583C41.0376 32.9964 41.2499 32.4334 41.677 31.9636Z" fill="white"/></g><defs><clipPath id="clip0_32150_152"><rect width="70" height="54" fill="white"/></clipPath></defs></svg>