<svg width="70" height="54" viewBox="0 0 70 54" fill="none" xmlns="http://www.w3.org/2000/svg"><g clip-path="url(#clip0_32150_144)"><path d="M12.563 0H57.437C61.8054 0 63.3895 0.454846 64.9865 1.30895C66.5836 2.16305 67.8369 3.41642 68.691 5.01346C69.5452 6.61049 70 8.1946 70 12.563V41.437C70 45.8054 69.5452 47.3895 68.691 48.9865C67.8369 50.5836 66.5836 51.8369 64.9865 52.6911C63.3895 53.5452 61.8054 54 57.437 54H12.563C8.1946 54 6.61049 53.5452 5.01346 52.6911C3.41642 51.8369 2.16305 50.5836 1.30895 48.9865C0.454846 47.3895 0 45.8054 0 41.437V12.563C0 8.1946 0.454846 6.61049 1.30895 5.01346C2.16305 3.41642 3.41642 2.16305 5.01346 1.30895C6.61049 0.454846 8.1946 0 12.563 0Z" fill="#CE82FF"/><path fill-rule="evenodd" clip-rule="evenodd" d="M25.6973 16.4548C25.6973 14.9032 26.8804 13.6076 28.4257 13.4671L44.4257 12.0126C46.1825 11.8529 47.6973 13.2361 47.6973 15.0002V16V17.9755V35C47.6973 38.3137 45.011 41 41.6973 41C38.3836 41 35.6973 38.3137 35.6973 35C35.6973 31.6863 38.3836 29 41.6973 29C42.3985 29 43.0717 29.1203 43.6973 29.3414V21.0788L29.6973 22.3515V35.7151C29.6973 39.0289 27.011 41.7151 23.6973 41.7151C20.3836 41.7151 17.6973 39.0289 17.6973 35.7151C17.6973 32.4014 20.3836 29.7151 23.6973 29.7151C24.3985 29.7151 25.0717 29.8355 25.6973 30.0566V19.43V18.7151V16.4548Z" fill="white"/></g><defs><clipPath id="clip0_32150_144"><rect width="70" height="54" fill="white"/></clipPath></defs></svg>