<svg width="70" height="54" viewBox="0 0 70 54" fill="none" xmlns="http://www.w3.org/2000/svg"><g clip-path="url(#clip0_129_1013)"><path d="M12.563 0H57.437C61.8054 0 63.3895 0.454846 64.9865 1.30895C66.5836 2.16305 67.8369 3.41642 68.691 5.01346C69.5452 6.61049 70 8.1946 70 12.563V41.437C70 45.8054 69.5452 47.3895 68.691 48.9865C67.8369 50.5836 66.5836 51.8369 64.9865 52.6911C63.3895 53.5452 61.8054 54 57.437 54H12.563C8.1946 54 6.61049 53.5452 5.01346 52.6911C3.41642 51.8369 2.16305 50.5836 1.30895 48.9865C0.454846 47.3895 0 45.8054 0 41.437V12.563C0 8.1946 0.454846 6.61049 1.30895 5.01346C2.16305 3.41642 3.41642 2.16305 5.01346 1.30895C6.61049 0.454846 8.1946 0 12.563 0Z" fill="#FFCE8E"/><path d="M33.9614 12.9789L33.3973 21.6616C33.3575 22.2739 32.8288 22.7381 32.2165 22.6983C32.2103 22.6979 32.2041 22.6975 32.1979 22.697L30.299 22.5417C29.6874 22.4917 29.151 22.9469 29.101 23.5585C29.0784 23.8344 29.1597 24.1087 29.3287 24.3279L30.5098 25.8585C30.8504 26.3 30.8111 26.9257 30.4177 27.321L29.0314 28.7142C28.5985 29.1492 28.6003 29.8527 29.0353 30.2856C29.2354 30.4847 29.5038 30.6002 29.786 30.6086L31.8403 30.6696C32.2537 30.6819 32.6261 30.9228 32.8068 31.2948L34.0184 33.7898C34.2865 34.3418 34.9513 34.572 35.5033 34.3039C35.7226 34.1975 35.9007 34.0218 36.0104 33.8041L37.2704 31.3011C37.4592 30.9261 37.8431 30.6896 38.2629 30.6896H40.014C40.6276 30.6896 41.1251 30.1921 41.1251 29.5785C41.1251 29.3172 41.033 29.0643 40.8651 28.8642L39.5085 27.2479C39.1993 26.8794 39.1623 26.3539 39.4167 25.9457L40.482 24.2369C40.8067 23.7162 40.6477 23.0309 40.127 22.7062C39.921 22.5778 39.6786 22.5204 39.4369 22.5427L37.8794 22.6866C37.2683 22.7431 36.7272 22.2935 36.6708 21.6824L36.6706 21.6803L35.8861 13.0057C35.8559 12.6715 35.9784 12.3415 36.2193 12.1079L39.341 9.08148C40.0019 8.44077 41.0571 8.45713 41.6978 9.11801C41.8597 9.28504 41.9849 9.48411 42.0652 9.70242L43.3807 13.2763C43.6131 13.9079 44.2026 14.3377 44.875 14.3658L49.0834 14.542C50.0031 14.5805 50.7174 15.3573 50.6789 16.2769C50.6736 16.4039 50.6538 16.5299 50.6198 16.6523L49.4752 20.7824C49.297 21.4255 49.5196 22.1129 50.0409 22.5295L53.3707 25.1904C54.0897 25.765 54.2068 26.8137 53.6322 27.5328C53.555 27.6295 53.4673 27.7172 53.3707 27.7944L50.0409 30.4552C49.5196 30.8718 49.297 31.5593 49.4752 32.2024L50.6198 36.3324C50.8657 37.2195 50.3458 38.1378 49.4588 38.3837C49.3363 38.4176 49.2104 38.4374 49.0834 38.4428L44.875 38.619C44.2026 38.6471 43.6131 39.0769 43.3807 39.7085L41.9127 43.6968C41.5947 44.5606 40.6367 45.0032 39.7729 44.6852C39.6485 44.6394 39.53 44.5789 39.4199 44.5051L35.9287 42.1623C35.3669 41.7854 34.633 41.7854 34.0713 42.1623L30.5801 44.5051C29.8158 45.018 28.7804 44.8142 28.2675 44.0498C28.1936 43.9397 28.1331 43.8212 28.0873 43.6968L26.6193 39.7085C26.3869 39.0769 25.7974 38.6471 25.125 38.619L20.9166 38.4428C19.9969 38.4042 19.2826 37.6275 19.3211 36.7078C19.3264 36.5808 19.3462 36.4549 19.3802 36.3324L20.5248 32.2024C20.703 31.5593 20.4804 30.8718 19.9591 30.4552L16.6293 27.7944C15.9102 27.2198 15.7931 26.171 16.3678 25.4519C16.445 25.3553 16.5327 25.2676 16.6293 25.1904L19.9591 22.5295C20.4804 22.1129 20.703 21.4255 20.5248 20.7824L19.3802 16.6523C19.1343 15.7653 19.6541 14.8469 20.5412 14.6011C20.6637 14.5671 20.7896 14.5473 20.9166 14.542L25.125 14.3658C25.7974 14.3377 26.3869 13.9079 26.6193 13.2763L27.9192 9.74486C28.2371 8.88104 29.1951 8.43853 30.0589 8.75647C30.2856 8.83992 30.4915 8.97166 30.6623 9.14256L33.6386 12.1216C33.8645 12.3476 33.9821 12.66 33.9614 12.9789Z" fill="#4B4B4B"/><path d="M21.5 27.0606C21.5 20.8533 25.6679 15.4326 31.5961 13.8814C32.057 13.7608 32.5064 14.1116 32.5011 14.588L32.4623 18.1201C32.459 18.4193 32.2715 18.6855 31.9908 18.7894C28.5731 20.0545 26.2778 23.3601 26.2778 27.0606C26.2778 31.9266 30.1843 35.8687 35 35.8687C39.8157 35.8687 43.7222 31.9266 43.7222 27.0606C43.7222 23.35 41.4145 20.0375 37.9835 18.78C37.7009 18.6764 37.5122 18.4084 37.5099 18.1074L37.4828 14.5814C37.4791 14.1064 37.9272 13.7573 38.3869 13.8769C44.3234 15.422 48.5 20.8467 48.5 27.0606C48.5 34.5792 42.4573 40.6768 35 40.6768C27.5427 40.6768 21.5 34.5792 21.5 27.0606Z" fill="#FF4B4B"/></g><defs><clipPath id="clip0_129_1013"><rect width="70" height="54" fill="white"/></clipPath></defs></svg>