<svg width="70" height="54" viewBox="0 0 70 54" fill="none" xmlns="http://www.w3.org/2000/svg"><g clip-path="url(#clip0_129_1015)"><path d="M12.563 0H57.437C61.8054 0 63.3895 0.454846 64.9865 1.30895C66.5836 2.16305 67.8369 3.41642 68.691 5.01346C69.5452 6.61049 70 8.1946 70 12.563V41.437C70 45.8054 69.5452 47.3895 68.691 48.9865C67.8369 50.5836 66.5836 51.8369 64.9865 52.6911C63.3895 53.5452 61.8054 54 57.437 54H12.563C8.1946 54 6.61049 53.5452 5.01346 52.6911C3.41642 51.8369 2.16305 50.5836 1.30895 48.9865C0.454846 47.3895 0 45.8054 0 41.437V12.563C0 8.1946 0.454846 6.61049 1.30895 5.01346C2.16305 3.41642 3.41642 2.16305 5.01346 1.30895C6.61049 0.454846 8.1946 0 12.563 0Z" fill="#78C800"/><path fill-rule="evenodd" clip-rule="evenodd" d="M6.11182 26.3786L33.8219 6.18244C34.5239 5.6708 35.4759 5.67079 36.1779 6.18244L63.888 26.3786C64.7807 27.0292 64.9769 28.2802 64.3263 29.1729C64.2027 29.3425 64.0532 29.4916 63.8832 29.6147L36.1731 49.6841C35.4731 50.191 34.5267 50.191 33.8268 49.6841L6.11667 29.6147C5.22208 28.9668 5.02211 27.7163 5.67003 26.8217C5.79313 26.6518 5.94222 26.5022 6.11182 26.3786Z" fill="#FFC800"/><path d="M35 40C41.6274 40 47 34.6274 47 28C47 21.3726 41.6274 16 35 16C28.3726 16 23 21.3726 23 28C23 34.6274 28.3726 40 35 40Z" fill="#1CB0F6"/><path fill-rule="evenodd" clip-rule="evenodd" d="M23.0256 27.2097C23.1259 25.6673 23.5176 24.2043 24.1462 22.8752L46.9867 28.57C46.9144 30.116 46.5496 31.5856 45.9463 32.9245L23.0256 27.2097Z" fill="white"/></g><defs><clipPath id="clip0_129_1015"><rect width="70" height="54" fill="white"/></clipPath></defs></svg>