<svg width="70" height="54" viewBox="0 0 70 54" fill="none" xmlns="http://www.w3.org/2000/svg"><g clip-path="url(#clip0_1780_13591)"><path d="M12.5387 0H57.3257C61.6857 0 63.2667 0.453933 64.8606 1.30633C66.4546 2.15872 67.7055 3.40957 68.558 5.0034C69.4104 6.59724 69.8644 8.17816 69.8644 12.5378V41.3539C69.8644 45.7136 69.4104 47.2945 68.558 48.8883C67.7055 50.4822 66.4546 51.733 64.8606 52.5854C63.2667 53.4378 61.6857 53.8917 57.3257 53.8917H12.5387C8.17872 53.8917 6.59769 53.4378 5.00374 52.5854C3.4098 51.733 2.15886 50.4822 1.30641 48.8883C0.453964 47.2945 0 45.7136 0 41.3539V12.5378C0 8.17816 0.453964 6.59724 1.30641 5.0034C2.15886 3.40957 3.4098 2.15872 5.00374 1.30633C6.59769 0.453933 8.17872 0 12.5387 0Z" fill="#1CB0F6"/><path d="M63.6064 0.608318C64.1407 0.789945 64.6065 1.00731 65.0734 1.25901C66.673 2.12143 67.9284 3.387 68.7839 4.99959C69.4126 6.18465 69.8254 7.36265 70 9.65456L45.1431 27.2002L70 44.7459C69.8254 47.0378 69.4126 48.2158 68.7839 49.4009C67.9284 51.0135 66.673 52.279 65.0734 53.1415C64.6065 53.3932 64.1407 53.6105 63.6064 53.7921L35.5384 33.9799L7.17582 54.0001C6.32157 53.7853 5.66279 53.4978 5.00179 53.1415C3.40213 52.279 2.14671 51.0135 1.2912 49.4009C0.726291 48.336 0.335754 47.2769 0.13562 45.4102L25.9337 27.2002L0.13562 8.99023C0.335754 7.12356 0.726291 6.06442 1.2912 4.99959C2.14671 3.387 3.40213 2.12143 5.00179 1.25901C5.66279 0.902651 6.32157 0.615123 7.17582 0.400391L35.5384 20.4206L63.6064 0.608318Z" fill="#EEEEEE"/></g><defs><clipPath id="clip0_1780_13591"><rect width="70" height="54" fill="white"/></clipPath></defs></svg>