<svg width="70" height="54" viewBox="0 0 70 54" fill="none" xmlns="http://www.w3.org/2000/svg"><g clip-path="url(#clip0_129_1019)"><path d="M12.563 0H57.437C61.8054 0 63.3895 0.454846 64.9865 1.30895C66.5836 2.16305 67.8369 3.41642 68.691 5.01346C69.5452 6.61049 70 8.1946 70 12.563V41.437C70 45.8054 69.5452 47.3895 68.691 48.9865C67.8369 50.5836 66.5836 51.8369 64.9865 52.6911C63.3895 53.5452 61.8054 54 57.437 54H12.563C8.1946 54 6.61049 53.5452 5.01346 52.6911C3.41642 51.8369 2.16305 50.5836 1.30895 48.9865C0.454846 47.3895 0 45.8054 0 41.437V12.563C0 8.1946 0.454846 6.61049 1.30895 5.01346C2.16305 3.41642 3.41642 2.16305 5.01346 1.30895C6.61049 0.454846 8.1946 0 12.563 0Z" fill="#1CB0F6"/><path d="M65.4383 1.56673L0.513818 47.0273C0.175722 45.7918 0 44.1522 0 41.437V12.563C0 8.1946 0.454846 6.61049 1.30895 5.01346C2.16305 3.41642 3.41642 2.16305 5.01346 1.30895C6.61049 0.454846 8.1946 0 12.563 0H57.437C61.8054 0 63.3895 0.454846 64.9865 1.30895C65.1403 1.39119 65.2909 1.47714 65.4383 1.56673Z" fill="#7AC70C"/><path d="M56.1929 0H57.437C61.8054 0 63.3895 0.454846 64.9865 1.30895C66.5836 2.16305 67.8369 3.41642 68.691 5.01346C69.5452 6.61049 70 8.1946 70 12.563V15.0833L14.4212 54H12.563C8.1946 54 6.61049 53.5452 5.01346 52.6911C3.41642 51.8369 2.16305 50.5836 1.30895 48.9865C0.454846 47.3895 0 45.8054 0 41.437V39.3467L56.1929 0Z" fill="#FFC300"/><path d="M62.5046 0.386108C63.5132 0.604795 64.2485 0.914235 64.9865 1.30894C66.5836 2.16305 67.8369 3.41641 68.691 5.01345C69.3667 6.27683 69.7925 7.53212 69.9409 10.1641L7.80014 53.6756C6.6309 53.455 5.82383 53.1245 5.01343 52.691C3.41639 51.8369 2.16303 50.5836 1.30892 48.9865C0.656242 47.7661 0.236711 46.5533 0.0751343 44.0997L62.5046 0.386108Z" fill="#4B4B4B"/></g><defs><clipPath id="clip0_129_1019"><rect width="70" height="54" fill="white"/></clipPath></defs></svg>