<svg width="70" height="54" viewBox="0 0 70 54" fill="none" xmlns="http://www.w3.org/2000/svg"><g clip-path="url(#clip0_129_1021)"><path fill-rule="evenodd" clip-rule="evenodd" d="M12.563 0H57.437C61.8054 0 63.3895 0.456465 64.9865 1.31361C66.5836 2.17076 67.8369 3.42859 68.691 5.03131C69.5452 6.63404 70 8.22378 70 12.6078V41.3922C70 45.7762 69.5452 47.366 68.691 48.9687C67.8369 50.5714 66.5836 51.8292 64.9865 52.6864C63.3895 53.5435 61.8054 54 57.437 54H12.563C8.1946 54 6.61049 53.5435 5.01346 52.6864C3.41642 51.8292 2.16305 50.5714 1.30895 48.9687C0.454845 47.366 0 45.7762 0 41.3922V12.6078C0 8.22378 0.454845 6.63404 1.30895 5.03131C2.16305 3.42859 3.41642 2.17076 5.01346 1.31361C6.61049 0.456465 8.1946 0 12.563 0Z" fill="#FF4B4B"/><path d="M42.3119 15.3341C41.4374 15.1114 40.6667 15 40 15C33.3726 15 28 20.3726 28 27C28 33.6274 33.3726 39 40 39C40.6667 39 41.4373 38.8886 42.3118 38.6659C42.8471 38.5296 43.3914 38.8529 43.5278 39.3881C43.6302 39.7903 43.4736 40.214 43.1341 40.4528C40.7209 42.1509 37.6762 43 34 43C25.1634 43 18 35.8366 18 27C18 18.1634 25.1634 11 34 11C37.6762 11 40.7209 11.8491 43.1342 13.5472C43.5859 13.8651 43.6944 14.4889 43.3766 14.9405C43.1377 15.2799 42.7141 15.4366 42.3119 15.3341Z" fill="white"/><path d="M47.7634 31.897L46.0791 33.4645C45.5158 33.9888 44.6341 33.9571 44.1098 33.3937C43.9003 33.1686 43.7711 32.8806 43.7425 32.5744L43.5235 30.2373C43.493 29.9117 43.3052 29.6216 43.0206 29.4604L40.995 28.3133C40.3198 27.931 40.0824 27.0737 40.4648 26.3986C40.6156 26.1321 40.8495 25.9222 41.1306 25.8009L43.2416 24.89C43.5445 24.7593 43.7635 24.4876 43.8268 24.1638L44.2719 21.888C44.4195 21.1335 45.1508 20.6414 45.9054 20.789C46.2092 20.8484 46.4845 21.0073 46.6879 21.2407L48.2112 22.989C48.4279 23.2378 48.7534 23.3636 49.0811 23.3253L51.3647 23.0587C52.1354 22.9687 52.8331 23.5205 52.9231 24.2912C52.9586 24.5954 52.8937 24.9028 52.7384 25.1667L51.5577 27.1729C51.3918 27.4548 51.3742 27.7999 51.5106 28.0972L52.4896 30.2306C52.8105 30.9301 52.5037 31.7573 51.8042 32.0782C51.5247 32.2065 51.2107 32.2386 50.911 32.1698L48.6686 31.6545C48.3453 31.5802 48.0062 31.671 47.7634 31.897Z" fill="white"/></g><defs><clipPath id="clip0_129_1021"><rect width="70" height="54" fill="white"/></clipPath></defs></svg>