<svg width="70" height="54" viewBox="0 0 70 54" fill="none" xmlns="http://www.w3.org/2000/svg"><g clip-path="url(#clip0_129_1023)"><path d="M12.563 0H57.437C61.8054 0 63.3895 0.454846 64.9865 1.30895C66.5836 2.16305 67.8369 3.41642 68.691 5.01346C69.5452 6.61049 70 8.1946 70 12.563V41.437C70 45.8054 69.5452 47.3895 68.691 48.9865C67.8369 50.5836 66.5836 51.8369 64.9865 52.6911C63.3895 53.5452 61.8054 54 57.437 54H12.563C8.1946 54 6.61049 53.5452 5.01346 52.6911C3.41642 51.8369 2.16305 50.5836 1.30895 48.9865C0.454846 47.3895 0 45.8054 0 41.437V12.563C0 8.1946 0.454846 6.61049 1.30895 5.01346C2.16305 3.41642 3.41642 2.16305 5.01346 1.30895C6.61049 0.454846 8.1946 0 12.563 0Z" fill="#FF4B4B"/><path d="M34.5346 34.7447L30.5916 36.8176C29.39 37.4493 27.9038 36.9874 27.2721 35.7858C27.0205 35.3073 26.9337 34.7592 27.0251 34.2264L27.7782 29.8358C27.8338 29.5114 27.7263 29.1804 27.4906 28.9507L24.3006 25.8412C23.3285 24.8936 23.3086 23.3374 24.2562 22.3653C24.6335 21.9782 25.1279 21.7263 25.6629 21.6486L30.0713 21.008C30.397 20.9606 30.6786 20.7561 30.8243 20.4609L32.7958 16.4662C33.3966 15.2488 34.8705 14.749 36.0878 15.3498C36.5726 15.5891 36.9649 15.9814 37.2042 16.4662L39.1757 20.4609C39.3214 20.7561 39.6029 20.9606 39.9286 21.008L44.3371 21.6486C45.6805 21.8438 46.6113 23.0911 46.4161 24.4345C46.3384 24.9695 46.0865 25.4639 45.6994 25.8412L42.5094 28.9507C42.2737 29.1804 42.1661 29.5114 42.2218 29.8358L42.9748 34.2264C43.2043 35.5644 42.3057 36.8351 40.9677 37.0646C40.4349 37.156 39.8868 37.0692 39.4084 36.8176L35.4653 34.7447C35.174 34.5915 34.826 34.5915 34.5346 34.7447Z" fill="#FFC300"/></g><defs><clipPath id="clip0_129_1023"><rect width="70" height="54" fill="white"/></clipPath></defs></svg>