<svg width="70" height="54" viewBox="0 0 70 54" fill="none" xmlns="http://www.w3.org/2000/svg"><g clip-path="url(#clip0_129_972)"><path d="M12.563 0H57.437C61.8054 0 63.3895 0.454846 64.9865 1.30895C66.5836 2.16305 67.8369 3.41642 68.691 5.01346C69.5452 6.61049 70 8.1946 70 12.563V41.437C70 45.8054 69.5452 47.3895 68.691 48.9865C67.8369 50.5836 66.5836 51.8369 64.9865 52.6911C63.3895 53.5452 61.8054 54 57.437 54H12.563C8.1946 54 6.61049 53.5452 5.01346 52.6911C3.41642 51.8369 2.16305 50.5836 1.30895 48.9865C0.454846 47.3895 0 45.8054 0 41.437V12.563C0 8.1946 0.454846 6.61049 1.30895 5.01346C2.16305 3.41642 3.41642 2.16305 5.01346 1.30895C6.61049 0.454846 8.1946 0 12.563 0Z" fill="#EEEEEE"/><path d="M70 27V41.437C70 45.8054 69.5452 47.3895 68.691 48.9865C67.8369 50.5836 66.5836 51.8369 64.9865 52.6911C63.3895 53.5452 61.8054 54 57.437 54H12.563C8.1946 54 6.61049 53.5452 5.01346 52.6911C3.41642 51.8369 2.16305 50.5836 1.30895 48.9865C0.454846 47.3895 0 45.8054 0 41.437V27H70Z" fill="#7AC70C"/><path d="M37.1788 14H50.9492C52.0538 14 52.9492 14.8954 52.9492 16C52.9492 16.2744 52.8928 16.546 52.7833 16.7976L49.2161 25C46.3111 31.6796 39.7209 36 32.4369 36H27C23.134 36 20 32.866 20 29V24L30 20V20.4106C30 21.2884 30.7116 22 31.5894 22C32.4672 22 33.1788 21.2884 33.1788 20.4106V18C33.1788 15.7909 34.9697 14 37.1788 14Z" fill="#FF4B4B"/><path d="M23 12H27C28.6569 12 30 13.3431 30 15V24H20V15C20 13.3431 21.3431 12 23 12Z" fill="#FF4B4B"/><path d="M18 15H23V20H13C13 17.2386 15.2386 15 18 15Z" fill="#FF4B4B"/><path d="M23 12H33C33 14.2091 31.2091 16 29 16H23V12Z" fill="#FF4B4B"/><path d="M19 22C17.3431 22 16 20.2091 16 18H26V22H19Z" fill="#FF4B4B"/><path d="M31 35.9082V30.9082H50.5C51.8807 30.9082 53 29.7889 53 28.4082V25H58V28.4082C58 32.5503 54.6421 35.9082 50.5 35.9082H31Z" fill="#FF4B4B"/><path d="M56.3213 21.0535L60.2839 26.76C60.5989 27.2137 60.4865 27.8368 60.0329 28.1518C59.7775 28.3291 59.4541 28.3776 59.1579 28.2829L55.4999 27.113L51.842 28.2829C51.3159 28.4511 50.7531 28.161 50.5849 27.635C50.4902 27.3388 50.5386 27.0154 50.716 26.76L54.6785 21.0535C54.9936 20.5999 55.6167 20.4875 56.0703 20.8025C56.1683 20.8705 56.2533 20.9555 56.3213 21.0535Z" fill="#FF4B4B"/><path d="M26 38H29C31.2091 38 33 39.7909 33 42C33 42.5523 32.5523 43 32 43H23C22.4477 43 22 42.5523 22 42C22 39.7909 23.7909 38 26 38Z" fill="#FF4B4B"/><path d="M33 32H28V42H33V32Z" fill="#FF4B4B"/><path d="M17.9658 31.8586V33.8586C17.9658 36.0678 16.175 37.8586 13.9658 37.8586C13.4135 37.8586 12.9658 37.4109 12.9658 36.8586V28.8586C12.9658 28.3064 13.4135 27.8586 13.9658 27.8586C16.175 27.8586 17.9658 29.6495 17.9658 31.8586Z" fill="#FF4B4B"/><path d="M28.9091 33.9056L27.615 29.0759L13.1262 32.9582L14.4203 37.7878L28.9091 33.9056Z" fill="#FF4B4B"/><path d="M42 38H46C48.2091 38 50 39.7909 50 42C50 42.5523 49.5523 43 49 43H39C38.4477 43 38 42.5523 38 42C38 39.7909 39.7909 38 42 38Z" fill="#FF4B4B"/><path d="M44.3301 31L40 33.5L45 42.1602L49.3301 39.6603L44.3301 31Z" fill="#FF4B4B"/></g><defs><clipPath id="clip0_129_972"><rect width="70" height="54" fill="white"/></clipPath></defs></svg>