<svg width="70" height="54" viewBox="0 0 70 54" fill="none" xmlns="http://www.w3.org/2000/svg"><g clip-path="url(#clip0_10285_14589)"><path d="M12.5627 0H57.4366C61.805 0 63.3891 0.454846 64.9862 1.30895C66.5832 2.16305 67.8366 3.41642 68.6907 5.01346C69.5448 6.61049 69.9996 8.1946 69.9996 12.563V41.437C69.9996 45.8054 69.5448 47.3895 68.6907 48.9865C67.8366 50.5836 66.5832 51.8369 64.9862 52.6911C63.3891 53.5452 61.805 54 57.4366 54H12.5627C8.19423 54 6.61013 53.5452 5.01309 52.6911C3.41605 51.8369 2.16269 50.5836 1.30858 48.9865C0.454479 47.3895 -0.000366211 45.8054 -0.000366211 41.437V12.563C-0.000366211 8.1946 0.454479 6.61049 1.30858 5.01346C2.16269 3.41642 3.41605 2.16305 5.01309 1.30895C6.61013 0.454846 8.19423 0 12.5627 0Z" fill="#1254A9"/><path fill-rule="evenodd" clip-rule="evenodd" d="M22.389 6.93042C22.5622 6.93042 22.7309 6.98497 22.8713 7.08632L46.8996 24.4307C48.1628 25.3425 48.9112 26.806 48.9112 28.3643V34.7124C48.9112 35.1678 48.5421 35.537 48.0869 35.537C47.9138 35.537 47.745 35.4825 47.6046 35.3811L30.5231 23.0505C30.6558 23.3836 30.7287 23.747 30.7287 24.1274V35.4779C30.7287 35.9333 30.3597 36.3025 29.9044 36.3025H26.1467C23.6162 36.3025 21.5648 34.2502 21.5648 31.7186V25.8009C21.5648 23.2693 23.6162 21.217 26.1467 21.217H27.8195C27.8765 21.217 27.9332 21.2187 27.9894 21.2219L23.5763 18.0367C22.3131 17.1249 21.5648 15.6614 21.5648 14.1031V7.75503C21.5648 7.29961 21.9338 6.93042 22.389 6.93042Z" fill="#EEEEEE"/><path d="M41.4097 5.14815L38.7018 8.99862C37.0683 11.3213 37.6345 14.5221 39.9664 16.1478L45.4835 19.9941C45.7426 20.1747 46.0997 20.112 46.2812 19.8539L48.9891 16.0034C50.6226 13.6807 50.0565 10.4799 47.7246 8.8542L42.2075 5.00792C41.9484 4.82729 41.5912 4.89007 41.4097 5.14815Z" fill="#EEEEEE"/><path fill-rule="evenodd" clip-rule="evenodd" d="M40.8932 41.3665C41.9653 41.3665 42.8345 42.2746 42.8345 43.3949C42.8345 44.5153 41.9653 45.4234 40.8932 45.4234L37.852 45.4233L38.2476 47.9985C38.427 49.1676 37.6654 50.2674 36.5466 50.4549C36.4391 50.4729 36.3305 50.4819 36.2217 50.4819C35.0885 50.4819 34.1699 49.522 34.1699 48.338C34.1699 48.2243 34.1786 48.1107 34.1958 47.9985L34.5904 45.4233L31.6089 45.4234C30.5368 45.4234 29.6677 44.5153 29.6677 43.3949C29.6677 42.2746 30.5368 41.3665 31.6089 41.3665H40.8932Z" fill="#EEEEEE"/></g><defs><clipPath id="clip0_10285_14589"><rect width="70" height="54" fill="white" transform="translate(-0.000366211)"/></clipPath></defs></svg>